<?xml version="1.0" encoding="UTF-8" standalone="no"?>
<!DOCTYPE svg PUBLIC "-//W3C//DTD SVG 1.1//EN"
 "http://www.w3.org/Graphics/SVG/1.1/DTD/svg11.dtd">
<!-- Generated by graphviz version 14.1.4 (20260321.0153)
 -->
<!-- Title: pipeline Pages: 1 -->
<svg width="871pt" height="1916pt"
 viewBox="0.00 0.00 871.00 1916.00" xmlns="http://www.w3.org/2000/svg" xmlns:xlink="http://www.w3.org/1999/xlink">
<g id="graph0" class="graph" transform="scale(1 1) rotate(0) translate(28.8 1887.05)">
<title>pipeline</title>
<polygon fill="white" stroke="none" points="-28.8,28.8 -28.8,-1887.05 841.92,-1887.05 841.92,28.8 -28.8,28.8"/>
<g id="clust1" class="cluster">
<title>cluster_inputs</title>
<path fill="white" stroke="#888888" stroke-dasharray="5,2" d="M117.12,-1715C117.12,-1715 633.12,-1715 633.12,-1715 639.12,-1715 645.12,-1721 645.12,-1727 645.12,-1727 645.12,-1799.75 645.12,-1799.75 645.12,-1805.75 639.12,-1811.75 633.12,-1811.75 633.12,-1811.75 117.13,-1811.75 117.13,-1811.75 111.12,-1811.75 105.12,-1805.75 105.12,-1799.75 105.12,-1799.75 105.12,-1727 105.12,-1727 105.12,-1721 111.12,-1715 117.12,-1715"/>
<text xml:space="preserve" text-anchor="middle" x="129.25" y="-1796.35" font-family="Helvetica,sans-Serif" font-size="12.00" fill="#555555">Inputs</text>
</g>
<g id="clust2" class="cluster">
<title>cluster_trunk</title>
<path fill="#f3e5f5" stroke="#7b1fa2" d="M311.12,-759.25C311.12,-759.25 491.12,-759.25 491.12,-759.25 497.12,-759.25 503.12,-765.25 503.12,-771.25 503.12,-771.25 503.12,-1064 503.12,-1064 503.12,-1070 497.12,-1076 491.12,-1076 491.12,-1076 311.12,-1076 311.12,-1076 305.12,-1076 299.12,-1070 299.12,-1064 299.12,-1064 299.12,-771.25 299.12,-771.25 299.12,-765.25 305.12,-759.25 311.12,-759.25"/>
<text xml:space="preserve" text-anchor="middle" x="369.75" y="-1060.6" font-family="Helvetica,sans-Serif" font-size="12.00" fill="#4a148c">Trunk &#160;×3 recycles</text>
<text xml:space="preserve" text-anchor="middle" x="369.75" y="-1047.85" font-family="Helvetica,sans-Serif" font-size="12.00" fill="#4a148c">trunk.pt &#160;(170M params)</text>
</g>
<g id="clust3" class="cluster">
<title>cluster_diff</title>
<path fill="#fff3e0" stroke="#e65100" d="M219.12,-346C219.12,-346 405.12,-346 405.12,-346 411.12,-346 417.12,-352 417.12,-358 417.12,-358 417.12,-711.75 417.12,-711.75 417.12,-717.75 411.12,-723.75 405.12,-723.75 405.12,-723.75 219.12,-723.75 219.12,-723.75 213.12,-723.75 207.12,-717.75 207.12,-711.75 207.12,-711.75 207.12,-358 207.12,-358 207.12,-352 213.12,-346 219.12,-346"/>
<text xml:space="preserve" text-anchor="middle" x="312.25" y="-708.35" font-family="Helvetica,sans-Serif" font-size="12.00" fill="#bf360c">Diffusion Module &#160;×200 steps (Heun)</text>
<text xml:space="preserve" text-anchor="middle" x="312.25" y="-695.6" font-family="Helvetica,sans-Serif" font-size="12.00" fill="#bf360c">diffusion_module.pt &#160;(128M params)</text>
</g>
<g id="clust4" class="cluster">
<title>cluster_legend</title>
<path fill="white" stroke="#bdbdbd" d="M665.12,-1675C665.12,-1675 793.12,-1675 793.12,-1675 799.12,-1675 805.12,-1681 805.12,-1687 805.12,-1687 805.12,-1838.25 805.12,-1838.25 805.12,-1844.25 799.12,-1850.25 793.12,-1850.25 793.12,-1850.25 665.12,-1850.25 665.12,-1850.25 659.12,-1850.25 653.12,-1844.25 653.12,-1838.25 653.12,-1838.25 653.12,-1687 653.12,-1687 653.12,-1681 659.12,-1675 665.12,-1675"/>
<text xml:space="preserve" text-anchor="middle" x="686.62" y="-1836.75" font-family="Helvetica,sans-Serif" font-size="10.00">Call Budget</text>
</g>
<!-- fasta -->
<g id="node1" class="node">
<title>fasta</title>
<path fill="#e3f2fd" stroke="#1565c0" d="M177,-1771C177,-1771 133.25,-1771 133.25,-1771 127.25,-1771 121.25,-1765 121.25,-1759 121.25,-1759 121.25,-1747 121.25,-1747 121.25,-1741 127.25,-1735 133.25,-1735 133.25,-1735 177,-1735 177,-1735 183,-1735 189,-1741 189,-1747 189,-1747 189,-1759 189,-1759 189,-1765 183,-1771 177,-1771"/>
<text xml:space="preserve" text-anchor="middle" x="155.12" y="-1754.55" font-family="Helvetica,sans-Serif" font-size="11.00">FASTA</text>
<text xml:space="preserve" text-anchor="middle" x="155.12" y="-1742.55" font-family="Helvetica,sans-Serif" font-size="11.00">sequences</text>
</g>
<!-- feat_ctx -->
<g id="node6" class="node">
<title>feat_ctx</title>
<path fill="#fff9c4" stroke="#f9a825" d="M453.25,-1648C453.25,-1648 225,-1648 225,-1648 219,-1648 213,-1642 213,-1636 213,-1636 213,-1577.75 213,-1577.75 213,-1571.75 219,-1565.75 225,-1565.75 225,-1565.75 453.25,-1565.75 453.25,-1565.75 459.25,-1565.75 465.25,-1571.75 465.25,-1577.75 465.25,-1577.75 465.25,-1636 465.25,-1636 465.25,-1642 459.25,-1648 453.25,-1648"/>
<text xml:space="preserve" text-anchor="middle" x="339.12" y="-1633.55" font-family="Helvetica,sans-Serif" font-size="11.00">Feature Construction</text>
<text xml:space="preserve" text-anchor="middle" x="339.12" y="-1621.55" font-family="Helvetica,sans-Serif" font-size="11.00">(Python)</text>
<text xml:space="preserve" text-anchor="middle" x="339.12" y="-1609.55" font-family="Helvetica,sans-Serif" font-size="11.00">─────────────────────</text>
<text xml:space="preserve" text-anchor="middle" x="339.12" y="-1597.55" font-family="Helvetica,sans-Serif" font-size="11.00">AllAtomFeatureContext</text>
<text xml:space="preserve" text-anchor="middle" x="339.12" y="-1585.55" font-family="Helvetica,sans-Serif" font-size="11.00">+ FeatureFactory</text>
<text xml:space="preserve" text-anchor="middle" x="339.12" y="-1573.55" font-family="Helvetica,sans-Serif" font-size="11.00">→ 32 named features</text>
</g>
<!-- fasta&#45;&gt;feat_ctx -->
<g id="edge1" class="edge">
<title>fasta&#45;&gt;feat_ctx</title>
<path fill="none" stroke="black" d="M161.94,-1734.74C169.39,-1717.71 182.77,-1691.85 201.12,-1675 209.46,-1667.36 218.82,-1660.4 228.64,-1654.12"/>
<polygon fill="black" stroke="black" points="230.17,-1657.28 236.88,-1649.09 226.52,-1651.31 230.17,-1657.28"/>
</g>
<!-- msa -->
<g id="node2" class="node">
<title>msa</title>
<path fill="#e3f2fd" stroke="#1565c0" d="M262.62,-1771C262.62,-1771 225.62,-1771 225.62,-1771 219.62,-1771 213.62,-1765 213.62,-1759 213.62,-1759 213.62,-1747 213.62,-1747 213.62,-1741 219.62,-1735 225.62,-1735 225.62,-1735 262.62,-1735 262.62,-1735 268.62,-1735 274.62,-1741 274.62,-1747 274.62,-1747 274.62,-1759 274.62,-1759 274.62,-1765 268.62,-1771 262.62,-1771"/>
<text xml:space="preserve" text-anchor="middle" x="244.12" y="-1754.55" font-family="Helvetica,sans-Serif" font-size="11.00">MSAs</text>
<text xml:space="preserve" text-anchor="middle" x="244.12" y="-1742.55" font-family="Helvetica,sans-Serif" font-size="11.00">(optional)</text>
</g>
<!-- msa&#45;&gt;feat_ctx -->
<g id="edge2" class="edge">
<title>msa&#45;&gt;feat_ctx</title>
<path fill="none" stroke="black" d="M252.81,-1734.75C261.03,-1718.85 274.04,-1694.8 287.12,-1675 290.97,-1669.19 295.16,-1663.24 299.45,-1657.39"/>
<polygon fill="black" stroke="black" points="302.13,-1659.65 305.32,-1649.55 296.52,-1655.46 302.13,-1659.65"/>
</g>
<!-- templ -->
<g id="node3" class="node">
<title>templ</title>
<path fill="#e3f2fd" stroke="#1565c0" d="M366.62,-1771C366.62,-1771 311.62,-1771 311.62,-1771 305.62,-1771 299.62,-1765 299.62,-1759 299.62,-1759 299.62,-1747 299.62,-1747 299.62,-1741 305.62,-1735 311.62,-1735 311.62,-1735 366.62,-1735 366.62,-1735 372.62,-1735 378.62,-1741 378.62,-1747 378.62,-1747 378.62,-1759 378.62,-1759 378.62,-1765 372.62,-1771 366.62,-1771"/>
<text xml:space="preserve" text-anchor="middle" x="339.12" y="-1754.55" font-family="Helvetica,sans-Serif" font-size="11.00">Templates</text>
<text xml:space="preserve" text-anchor="middle" x="339.12" y="-1742.55" font-family="Helvetica,sans-Serif" font-size="11.00">(optional, ≤4)</text>
</g>
<!-- templ&#45;&gt;feat_ctx -->
<g id="edge3" class="edge">
<title>templ&#45;&gt;feat_ctx</title>
<path fill="none" stroke="black" d="M339.12,-1734.62C339.12,-1716.09 339.12,-1685.88 339.12,-1659.6"/>
<polygon fill="black" stroke="black" points="342.63,-1659.75 339.13,-1649.75 335.63,-1659.75 342.63,-1659.75"/>
</g>
<!-- esm -->
<g id="node4" class="node">
<title>esm</title>
<path fill="#e3f2fd" stroke="#1565c0" d="M492.5,-1775C492.5,-1775 415.75,-1775 415.75,-1775 409.75,-1775 403.75,-1769 403.75,-1763 403.75,-1763 403.75,-1743 403.75,-1743 403.75,-1737 409.75,-1731 415.75,-1731 415.75,-1731 492.5,-1731 492.5,-1731 498.5,-1731 504.5,-1737 504.5,-1743 504.5,-1743 504.5,-1763 504.5,-1763 504.5,-1769 498.5,-1775 492.5,-1775"/>
<text xml:space="preserve" text-anchor="middle" x="454.12" y="-1760.55" font-family="Helvetica,sans-Serif" font-size="11.00">ESM2&#45;3B</text>
<text xml:space="preserve" text-anchor="middle" x="454.12" y="-1748.55" font-family="Helvetica,sans-Serif" font-size="11.00">embeddings</text>
<text xml:space="preserve" text-anchor="middle" x="454.12" y="-1736.55" font-family="Helvetica,sans-Serif" font-size="11.00">(optional, 2560&#45;d)</text>
</g>
<!-- esm&#45;&gt;feat_ctx -->
<g id="edge4" class="edge">
<title>esm&#45;&gt;feat_ctx</title>
<path fill="none" stroke="black" d="M437.16,-1730.73C421.73,-1711.4 398.39,-1682.15 378.35,-1657.03"/>
<polygon fill="black" stroke="black" points="381.33,-1655.16 372.36,-1649.53 375.86,-1659.53 381.33,-1655.16"/>
</g>
<!-- constr -->
<g id="node5" class="node">
<title>constr</title>
<path fill="#e3f2fd" stroke="#1565c0" d="M617.12,-1775C617.12,-1775 541.12,-1775 541.12,-1775 535.12,-1775 529.12,-1769 529.12,-1763 529.12,-1763 529.12,-1743 529.12,-1743 529.12,-1737 535.12,-1731 541.12,-1731 541.12,-1731 617.12,-1731 617.12,-1731 623.12,-1731 629.12,-1737 629.12,-1743 629.12,-1743 629.12,-1763 629.12,-1763 629.12,-1769 623.12,-1775 617.12,-1775"/>
<text xml:space="preserve" text-anchor="middle" x="579.12" y="-1760.55" font-family="Helvetica,sans-Serif" font-size="11.00">Constraints</text>
<text xml:space="preserve" text-anchor="middle" x="579.12" y="-1748.55" font-family="Helvetica,sans-Serif" font-size="11.00">(contact/pocket/</text>
<text xml:space="preserve" text-anchor="middle" x="579.12" y="-1736.55" font-family="Helvetica,sans-Serif" font-size="11.00">docking, optional)</text>
</g>
<!-- constr&#45;&gt;feat_ctx -->
<g id="edge5" class="edge">
<title>constr&#45;&gt;feat_ctx</title>
<path fill="none" stroke="black" d="M566.54,-1730.75C555.44,-1713.62 537.84,-1690 517.12,-1675 504.41,-1665.79 490.28,-1657.69 475.7,-1650.6"/>
<polygon fill="black" stroke="black" points="477.46,-1647.56 466.92,-1646.49 474.49,-1653.9 477.46,-1647.56"/>
</g>
<!-- feat_emb -->
<g id="node7" class="node">
<title>feat_emb</title>
<path fill="#e8f5e9" stroke="#2e7d32" d="M487,-1528.75C487,-1528.75 191.25,-1528.75 191.25,-1528.75 185.25,-1528.75 179.25,-1522.75 179.25,-1516.75 179.25,-1516.75 179.25,-1425.5 179.25,-1425.5 179.25,-1419.5 185.25,-1413.5 191.25,-1413.5 191.25,-1413.5 487,-1413.5 487,-1413.5 493,-1413.5 499,-1419.5 499,-1425.5 499,-1425.5 499,-1516.75 499,-1516.75 499,-1522.75 493,-1528.75 487,-1528.75"/>
<text xml:space="preserve" text-anchor="middle" x="339.12" y="-1514.3" font-family="Helvetica,sans-Serif" font-size="11.00">Feature Embedding</text>
<text xml:space="preserve" text-anchor="middle" x="339.12" y="-1502.3" font-family="Helvetica,sans-Serif" font-size="11.00">feature_embedding.pt &#160;(~1.1M params)</text>
<text xml:space="preserve" text-anchor="middle" x="339.12" y="-1490.3" font-family="Helvetica,sans-Serif" font-size="11.00">───────────────────────────</text>
<text xml:space="preserve" text-anchor="middle" x="339.12" y="-1478.3" font-family="Helvetica,sans-Serif" font-size="11.00">TOKEN → 384</text>
<text xml:space="preserve" text-anchor="middle" x="339.12" y="-1464.05" font-family="Helvetica,sans-Serif" font-size="11.00">TOKEN_PAIR → 256 + 256</text>
<text xml:space="preserve" text-anchor="middle" x="339.12" y="-1449.8" font-family="Helvetica,sans-Serif" font-size="11.00">ATOM → 128 + 128</text>
<text xml:space="preserve" text-anchor="middle" x="339.12" y="-1435.55" font-family="Helvetica,sans-Serif" font-size="11.00">ATOM_PAIR → 16 + 16</text>
<text xml:space="preserve" text-anchor="middle" x="339.12" y="-1421.3" font-family="Helvetica,sans-Serif" font-size="11.00">MSA → 64 &#160;&#160;| &#160;&#160;TEMPLATES → 64</text>
</g>
<!-- feat_ctx&#45;&gt;feat_emb -->
<g id="edge6" class="edge">
<title>feat_ctx&#45;&gt;feat_emb</title>
<path fill="none" stroke="black" d="M339.12,-1565.38C339.12,-1557.36 339.12,-1548.74 339.12,-1540.1"/>
<polygon fill="black" stroke="black" points="342.63,-1540.28 339.13,-1530.28 335.63,-1540.28 342.63,-1540.28"/>
</g>
<!-- bond -->
<g id="node8" class="node">
<title>bond</title>
<path fill="#e8f5e9" stroke="#2e7d32" d="M240.25,-1358C240.25,-1358 12,-1358 12,-1358 6,-1358 0,-1352 0,-1346 0,-1346 0,-1297.5 0,-1297.5 0,-1291.5 6,-1285.5 12,-1285.5 12,-1285.5 240.25,-1285.5 240.25,-1285.5 246.25,-1285.5 252.25,-1291.5 252.25,-1297.5 252.25,-1297.5 252.25,-1346 252.25,-1346 252.25,-1352 246.25,-1358 240.25,-1358"/>
<text xml:space="preserve" text-anchor="middle" x="126.12" y="-1343.55" font-family="Helvetica,sans-Serif" font-size="11.00">Bond Projection</text>
<text xml:space="preserve" text-anchor="middle" x="126.12" y="-1331.55" font-family="Helvetica,sans-Serif" font-size="11.00">bond_loss_input_proj.pt</text>
<text xml:space="preserve" text-anchor="middle" x="126.12" y="-1319.55" font-family="Helvetica,sans-Serif" font-size="11.00">─────────────────────</text>
<text xml:space="preserve" text-anchor="middle" x="126.12" y="-1307.55" font-family="Helvetica,sans-Serif" font-size="11.00">Linear(1 → 512)</text>
<text xml:space="preserve" text-anchor="middle" x="126.12" y="-1293.3" font-family="Helvetica,sans-Serif" font-size="11.00">split 256+256 → pair</text>
</g>
<!-- feat_emb&#45;&gt;bond -->
<g id="edge7" class="edge">
<title>feat_emb&#45;&gt;bond</title>
<path fill="none" stroke="black" stroke-dasharray="5,2" d="M256.77,-1413.15C233.52,-1397.06 208.65,-1379.85 186.92,-1364.81"/>
<polygon fill="black" stroke="black" points="188.95,-1361.96 178.73,-1359.15 184.96,-1367.72 188.95,-1361.96"/>
<text xml:space="preserve" text-anchor="middle" x="242.74" y="-1386.95" font-family="Helvetica,sans-Serif" font-size="9.00">bond</text>
<text xml:space="preserve" text-anchor="middle" x="242.74" y="-1377.2" font-family="Helvetica,sans-Serif" font-size="9.00">features</text>
</g>
<!-- tok_emb -->
<g id="node9" class="node">
<title>tok_emb</title>
<path fill="#e8f5e9" stroke="#2e7d32" d="M351.88,-1230C351.88,-1230 22.37,-1230 22.37,-1230 16.38,-1230 10.38,-1224 10.38,-1218 10.38,-1218 10.38,-1133.5 10.38,-1133.5 10.38,-1127.5 16.38,-1121.5 22.38,-1121.5 22.38,-1121.5 351.88,-1121.5 351.88,-1121.5 357.88,-1121.5 363.88,-1127.5 363.88,-1133.5 363.88,-1133.5 363.88,-1218 363.88,-1218 363.88,-1224 357.88,-1230 351.88,-1230"/>
<text xml:space="preserve" text-anchor="middle" x="187.12" y="-1215.55" font-family="Helvetica,sans-Serif" font-size="11.00">Token Input Embedder</text>
<text xml:space="preserve" text-anchor="middle" x="187.12" y="-1203.55" font-family="Helvetica,sans-Serif" font-size="11.00">token_embedder.pt &#160;(~1.5M params)</text>
<text xml:space="preserve" text-anchor="middle" x="187.12" y="-1191.55" font-family="Helvetica,sans-Serif" font-size="11.00">──────────────────────────────</text>
<text xml:space="preserve" text-anchor="middle" x="187.12" y="-1179.55" font-family="Helvetica,sans-Serif" font-size="11.00">Atom Transformer (3 blocks)</text>
<text xml:space="preserve" text-anchor="middle" x="187.12" y="-1167.55" font-family="Helvetica,sans-Serif" font-size="11.00">→ aggregate atoms → tokens</text>
<text xml:space="preserve" text-anchor="middle" x="187.12" y="-1153.3" font-family="Helvetica,sans-Serif" font-size="11.00">→ single_initial [384]</text>
<text xml:space="preserve" text-anchor="middle" x="187.12" y="-1139.05" font-family="Helvetica,sans-Serif" font-size="11.00"> &#160;&#160;single_structure [384]</text>
<text xml:space="preserve" text-anchor="middle" x="187.12" y="-1127.05" font-family="Helvetica,sans-Serif" font-size="11.00"> &#160;&#160;pair_initial [256]</text>
</g>
<!-- feat_emb&#45;&gt;tok_emb -->
<g id="edge8" class="edge">
<title>feat_emb&#45;&gt;tok_emb</title>
<path fill="none" stroke="black" d="M320.33,-1413.18C307.04,-1375.84 287.63,-1326.52 265.12,-1285.5 256.61,-1269.98 246.26,-1254.07 235.91,-1239.37"/>
<polygon fill="black" stroke="black" points="239.03,-1237.71 230.37,-1231.62 233.34,-1241.79 239.03,-1237.71"/>
<text xml:space="preserve" text-anchor="middle" x="329.84" y="-1322.95" font-family="Helvetica,sans-Serif" font-size="9.00">TOKEN, ATOM,</text>
<text xml:space="preserve" text-anchor="middle" x="329.84" y="-1313.2" font-family="Helvetica,sans-Serif" font-size="9.00">ATOM_PAIR</text>
</g>
<!-- templ_emb -->
<g id="node10" class="node">
<title>templ_emb</title>
<path fill="#e1bee7" stroke="#7b1fa2" d="M423.5,-1026.5C423.5,-1026.5 334.75,-1026.5 334.75,-1026.5 328.75,-1026.5 322.75,-1020.5 322.75,-1014.5 322.75,-1014.5 322.75,-994.5 322.75,-994.5 322.75,-988.5 328.75,-982.5 334.75,-982.5 334.75,-982.5 423.5,-982.5 423.5,-982.5 429.5,-982.5 435.5,-988.5 435.5,-994.5 435.5,-994.5 435.5,-1014.5 435.5,-1014.5 435.5,-1020.5 429.5,-1026.5 423.5,-1026.5"/>
<text xml:space="preserve" text-anchor="middle" x="379.12" y="-1012.05" font-family="Helvetica,sans-Serif" font-size="11.00">Template Embedder</text>
<text xml:space="preserve" text-anchor="middle" x="379.12" y="-1000.05" font-family="Helvetica,sans-Serif" font-size="11.00">2 Pairformer blocks</text>
<text xml:space="preserve" text-anchor="middle" x="379.12" y="-988.05" font-family="Helvetica,sans-Serif" font-size="11.00">at dim 64</text>
</g>
<!-- feat_emb&#45;&gt;templ_emb -->
<g id="edge13" class="edge">
<title>feat_emb&#45;&gt;templ_emb</title>
<path fill="none" stroke="#7b1fa2" stroke-dasharray="1,5" d="M355.39,-1413.19C359.85,-1395.63 364.25,-1376.13 367.12,-1358 385.62,-1241.49 383.08,-1100.7 380.68,-1038.17"/>
<polygon fill="#7b1fa2" stroke="#7b1fa2" points="384.18,-1038.09 380.27,-1028.24 377.19,-1038.38 384.18,-1038.09"/>
<text xml:space="preserve" text-anchor="middle" x="405.2" y="-1258.95" font-family="Helvetica,sans-Serif" font-size="9.00">TEMPLATES</text>
<text xml:space="preserve" text-anchor="middle" x="405.2" y="-1249.2" font-family="Helvetica,sans-Serif" font-size="9.00">[64]</text>
</g>
<!-- msa_mod -->
<g id="node11" class="node">
<title>msa_mod</title>
<path fill="#e1bee7" stroke="#7b1fa2" d="M459,-936.75C459,-936.75 343.25,-936.75 343.25,-936.75 337.25,-936.75 331.25,-930.75 331.25,-924.75 331.25,-924.75 331.25,-892.75 331.25,-892.75 331.25,-886.75 337.25,-880.75 343.25,-880.75 343.25,-880.75 459,-880.75 459,-880.75 465,-880.75 471,-886.75 471,-892.75 471,-892.75 471,-924.75 471,-924.75 471,-930.75 465,-936.75 459,-936.75"/>
<text xml:space="preserve" text-anchor="middle" x="401.12" y="-922.3" font-family="Helvetica,sans-Serif" font-size="11.00">MSA Module</text>
<text xml:space="preserve" text-anchor="middle" x="401.12" y="-910.3" font-family="Helvetica,sans-Serif" font-size="11.00">4 iterations</text>
<text xml:space="preserve" text-anchor="middle" x="401.12" y="-898.3" font-family="Helvetica,sans-Serif" font-size="11.00">(OPM, pair&#45;weighted attn,</text>
<text xml:space="preserve" text-anchor="middle" x="401.12" y="-886.3" font-family="Helvetica,sans-Serif" font-size="11.00">triangle ops)</text>
</g>
<!-- feat_emb&#45;&gt;msa_mod -->
<g id="edge14" class="edge">
<title>feat_emb&#45;&gt;msa_mod</title>
<path fill="none" stroke="#7b1fa2" stroke-dasharray="1,5" d="M425.5,-1413.29C451.43,-1389.18 473.12,-1358.37 473.12,-1322.75 473.12,-1322.75 473.12,-1322.75 473.12,-1003.5 473.12,-981.13 460.07,-960.81 445.08,-944.86"/>
<polygon fill="#7b1fa2" stroke="#7b1fa2" points="447.75,-942.58 438.2,-937.99 442.81,-947.53 447.75,-942.58"/>
<text xml:space="preserve" text-anchor="middle" x="482.88" y="-1176.95" font-family="Helvetica,sans-Serif" font-size="9.00">MSA</text>
<text xml:space="preserve" text-anchor="middle" x="482.88" y="-1167.2" font-family="Helvetica,sans-Serif" font-size="9.00">[64]</text>
</g>
<!-- bond&#45;&gt;tok_emb -->
<g id="edge9" class="edge">
<title>bond&#45;&gt;tok_emb</title>
<path fill="none" stroke="black" stroke-dasharray="5,2" d="M141.2,-1285.15C146.88,-1271.76 153.52,-1256.07 159.96,-1240.87"/>
<polygon fill="black" stroke="black" points="163.11,-1242.42 163.79,-1231.84 156.66,-1239.69 163.11,-1242.42"/>
<text xml:space="preserve" text-anchor="middle" x="167.12" y="-1254.08" font-family="Helvetica,sans-Serif" font-size="9.00">+pair</text>
</g>
<!-- tok_emb&#45;&gt;templ_emb -->
<g id="edge10" class="edge">
<title>tok_emb&#45;&gt;templ_emb</title>
<path fill="none" stroke="black" d="M247.88,-1121.2C261.48,-1109.2 276.19,-1096.24 290.67,-1083.48"/>
<polygon fill="black" stroke="black" points="292.83,-1086.24 298.02,-1077 288.2,-1080.99 292.83,-1086.24"/>
<text xml:space="preserve" text-anchor="middle" x="311.38" y="-1094.95" font-family="Helvetica,sans-Serif" font-size="9.00">single, pair</text>
<text xml:space="preserve" text-anchor="middle" x="311.38" y="-1085.2" font-family="Helvetica,sans-Serif" font-size="9.00">initial reprs</text>
</g>
<!-- templ_emb&#45;&gt;msa_mod -->
<g id="edge11" class="edge">
<title>templ_emb&#45;&gt;msa_mod</title>
<path fill="none" stroke="black" d="M384.12,-982.23C386.5,-972.07 389.42,-959.61 392.17,-947.9"/>
<polygon fill="black" stroke="black" points="395.51,-949.01 394.38,-938.47 388.69,-947.41 395.51,-949.01"/>
<text xml:space="preserve" text-anchor="middle" x="401.75" y="-955.95" font-family="Helvetica,sans-Serif" font-size="9.00">+ pair</text>
</g>
<!-- pf_stack -->
<g id="node12" class="node">
<title>pf_stack</title>
<path fill="#ce93d8" stroke="#6a1b9a" d="M475.5,-835C475.5,-835 326.75,-835 326.75,-835 320.75,-835 314.75,-829 314.75,-823 314.75,-823 314.75,-787.25 314.75,-787.25 314.75,-781.25 320.75,-775.25 326.75,-775.25 326.75,-775.25 475.5,-775.25 475.5,-775.25 481.5,-775.25 487.5,-781.25 487.5,-787.25 487.5,-787.25 487.5,-823 487.5,-823 487.5,-829 481.5,-835 475.5,-835"/>
<text xml:space="preserve" text-anchor="middle" x="401.12" y="-820.55" font-family="Helvetica,sans-Serif" font-size="11.00">Pairformer Stack</text>
<text xml:space="preserve" text-anchor="middle" x="401.12" y="-808.55" font-family="Helvetica,sans-Serif" font-size="11.00">48 blocks</text>
<text xml:space="preserve" text-anchor="middle" x="401.12" y="-796.55" font-family="Helvetica,sans-Serif" font-size="11.00">(pair transition, attn pair bias,</text>
<text xml:space="preserve" text-anchor="middle" x="401.12" y="-784.55" font-family="Helvetica,sans-Serif" font-size="11.00">single transition, △ mult, △ attn)</text>
</g>
<!-- msa_mod&#45;&gt;pf_stack -->
<g id="edge12" class="edge">
<title>msa_mod&#45;&gt;pf_stack</title>
<path fill="none" stroke="black" d="M401.12,-880.52C401.12,-870.13 401.12,-858.06 401.12,-846.7"/>
<polygon fill="black" stroke="black" points="404.63,-846.73 401.13,-836.73 397.63,-846.73 404.63,-846.73"/>
<text xml:space="preserve" text-anchor="middle" x="409" y="-854.2" font-family="Helvetica,sans-Serif" font-size="9.00">pair</text>
</g>
<!-- diff_cond -->
<g id="node13" class="node">
<title>diff_cond</title>
<path fill="#ffe0b2" stroke="#e65100" d="M388.75,-674.25C388.75,-674.25 253.5,-674.25 253.5,-674.25 247.5,-674.25 241.5,-668.25 241.5,-662.25 241.5,-662.25 241.5,-640 241.5,-640 241.5,-634 247.5,-628 253.5,-628 253.5,-628 388.75,-628 388.75,-628 394.75,-628 400.75,-634 400.75,-640 400.75,-640 400.75,-662.25 400.75,-662.25 400.75,-668.25 394.75,-674.25 388.75,-674.25"/>
<text xml:space="preserve" text-anchor="middle" x="321.12" y="-659.8" font-family="Helvetica,sans-Serif" font-size="11.00">Diffusion Conditioning</text>
<text xml:space="preserve" text-anchor="middle" x="321.12" y="-647.8" font-family="Helvetica,sans-Serif" font-size="11.00">Fourier σ embedding</text>
<text xml:space="preserve" text-anchor="middle" x="321.12" y="-635.8" font-family="Helvetica,sans-Serif" font-size="11.00">→ s_cond [384], z_cond [256]</text>
</g>
<!-- pf_stack&#45;&gt;diff_cond -->
<g id="edge15" class="edge">
<title>pf_stack&#45;&gt;diff_cond</title>
<path fill="none" stroke="black" d="M380.82,-774.98C375.86,-767.39 370.73,-759.13 366.38,-751.25 363.27,-745.64 360.2,-739.77 357.2,-733.82"/>
<polygon fill="black" stroke="black" points="360.46,-732.52 352.9,-725.1 354.19,-735.62 360.46,-732.52"/>
<text xml:space="preserve" text-anchor="middle" x="402.75" y="-742.7" font-family="Helvetica,sans-Serif" font-size="9.00">single_trunk [384]</text>
<text xml:space="preserve" text-anchor="middle" x="402.75" y="-732.95" font-family="Helvetica,sans-Serif" font-size="9.00">pair_trunk [256]</text>
</g>
<!-- conf -->
<g id="node17" class="node">
<title>conf</title>
<path fill="#e0f7fa" stroke="#00838f" d="M560.88,-290.75C560.88,-290.75 231.37,-290.75 231.37,-290.75 225.38,-290.75 219.38,-284.75 219.38,-278.75 219.38,-278.75 219.38,-208.5 219.38,-208.5 219.38,-202.5 225.38,-196.5 231.38,-196.5 231.38,-196.5 560.88,-196.5 560.88,-196.5 566.88,-196.5 572.88,-202.5 572.88,-208.5 572.88,-208.5 572.88,-278.75 572.88,-278.75 572.88,-284.75 566.88,-290.75 560.88,-290.75"/>
<text xml:space="preserve" text-anchor="middle" x="396.12" y="-276.3" font-family="Helvetica,sans-Serif" font-size="11.00">Confidence Head</text>
<text xml:space="preserve" text-anchor="middle" x="396.12" y="-264.3" font-family="Helvetica,sans-Serif" font-size="11.00">confidence_head.pt &#160;(14.8M params)</text>
<text xml:space="preserve" text-anchor="middle" x="396.12" y="-252.3" font-family="Helvetica,sans-Serif" font-size="11.00">──────────────────────────────</text>
<text xml:space="preserve" text-anchor="middle" x="396.12" y="-240.3" font-family="Helvetica,sans-Serif" font-size="11.00">4 Pairformer blocks</text>
<text xml:space="preserve" text-anchor="middle" x="396.12" y="-228.3" font-family="Helvetica,sans-Serif" font-size="11.00">→ PAE [n×n×64]</text>
<text xml:space="preserve" text-anchor="middle" x="396.12" y="-214.05" font-family="Helvetica,sans-Serif" font-size="11.00"> &#160;&#160;PDE [n×n×64]</text>
<text xml:space="preserve" text-anchor="middle" x="396.12" y="-202.05" font-family="Helvetica,sans-Serif" font-size="11.00"> &#160;&#160;pLDDT [n_atoms×50]</text>
</g>
<!-- pf_stack&#45;&gt;conf -->
<g id="edge20" class="edge">
<title>pf_stack&#45;&gt;conf</title>
<path fill="none" stroke="#00838f" stroke-dasharray="1,5" d="M427.07,-774.93C432.45,-767.62 437.56,-759.49 441.12,-751.25 458.89,-710.23 458.12,-696.82 458.12,-652.12 458.12,-652.12 458.12,-652.12 458.12,-384.12 458.12,-355.12 446.8,-325.43 433.83,-300.93"/>
<polygon fill="#00838f" stroke="#00838f" points="437.03,-299.5 429.13,-292.44 430.91,-302.88 437.03,-299.5"/>
<text xml:space="preserve" text-anchor="middle" x="480.62" y="-518.2" font-family="Helvetica,sans-Serif" font-size="9.00">single, pair</text>
<text xml:space="preserve" text-anchor="middle" x="480.62" y="-508.45" font-family="Helvetica,sans-Serif" font-size="9.00">trunk reprs</text>
</g>
<!-- atom_enc -->
<g id="node14" class="node">
<title>atom_enc</title>
<path fill="#ffe0b2" stroke="#e65100" d="M380.12,-591C380.12,-591 274.12,-591 274.12,-591 268.12,-591 262.12,-585 262.12,-579 262.12,-579 262.12,-556.75 262.12,-556.75 262.12,-550.75 268.12,-544.75 274.12,-544.75 274.12,-544.75 380.12,-544.75 380.12,-544.75 386.12,-544.75 392.12,-550.75 392.12,-556.75 392.12,-556.75 392.12,-579 392.12,-579 392.12,-585 386.12,-591 380.12,-591"/>
<text xml:space="preserve" text-anchor="middle" x="327.12" y="-576.55" font-family="Helvetica,sans-Serif" font-size="11.00">Atom Attention Encoder</text>
<text xml:space="preserve" text-anchor="middle" x="327.12" y="-564.55" font-family="Helvetica,sans-Serif" font-size="11.00">3 local attn blocks</text>
<text xml:space="preserve" text-anchor="middle" x="327.12" y="-552.55" font-family="Helvetica,sans-Serif" font-size="11.00">at dim 128 → 768</text>
</g>
<!-- diff_cond&#45;&gt;atom_enc -->
<g id="edge16" class="edge">
<title>diff_cond&#45;&gt;atom_enc</title>
<path fill="none" stroke="black" d="M322.76,-627.92C323.34,-620.11 324,-611.13 324.64,-602.58"/>
<polygon fill="black" stroke="black" points="328.11,-603.07 325.36,-592.84 321.13,-602.56 328.11,-603.07"/>
</g>
<!-- diff_xfmr -->
<g id="node15" class="node">
<title>diff_xfmr</title>
<path fill="#ffcc80" stroke="#e65100" d="M387.12,-489.25C387.12,-489.25 275.12,-489.25 275.12,-489.25 269.12,-489.25 263.12,-483.25 263.12,-477.25 263.12,-477.25 263.12,-457.25 263.12,-457.25 263.12,-451.25 269.12,-445.25 275.12,-445.25 275.12,-445.25 387.12,-445.25 387.12,-445.25 393.12,-445.25 399.12,-451.25 399.12,-457.25 399.12,-457.25 399.12,-477.25 399.12,-477.25 399.12,-483.25 393.12,-489.25 387.12,-489.25"/>
<text xml:space="preserve" text-anchor="middle" x="331.12" y="-474.8" font-family="Helvetica,sans-Serif" font-size="11.00">Diffusion Transformer</text>
<text xml:space="preserve" text-anchor="middle" x="331.12" y="-462.8" font-family="Helvetica,sans-Serif" font-size="11.00">16 blocks at dim 768</text>
<text xml:space="preserve" text-anchor="middle" x="331.12" y="-450.8" font-family="Helvetica,sans-Serif" font-size="11.00">(16 heads, 48 head_dim)</text>
</g>
<!-- atom_enc&#45;&gt;diff_xfmr -->
<g id="edge17" class="edge">
<title>atom_enc&#45;&gt;diff_xfmr</title>
<path fill="none" stroke="black" d="M328.03,-544.5C328.55,-531.62 329.22,-515.21 329.8,-500.91"/>
<polygon fill="black" stroke="black" points="333.29,-501.17 330.2,-491.04 326.3,-500.89 333.29,-501.17"/>
<text xml:space="preserve" text-anchor="middle" x="351.98" y="-513.33" font-family="Helvetica,sans-Serif" font-size="9.00">token [768]</text>
</g>
<!-- atom_dec -->
<g id="node16" class="node">
<title>atom_dec</title>
<path fill="#ffe0b2" stroke="#e65100" d="M386.5,-408.25C386.5,-408.25 279.75,-408.25 279.75,-408.25 273.75,-408.25 267.75,-402.25 267.75,-396.25 267.75,-396.25 267.75,-374 267.75,-374 267.75,-368 273.75,-362 279.75,-362 279.75,-362 386.5,-362 386.5,-362 392.5,-362 398.5,-368 398.5,-374 398.5,-374 398.5,-396.25 398.5,-396.25 398.5,-402.25 392.5,-408.25 386.5,-408.25"/>
<text xml:space="preserve" text-anchor="middle" x="333.12" y="-393.8" font-family="Helvetica,sans-Serif" font-size="11.00">Atom Attention Decoder</text>
<text xml:space="preserve" text-anchor="middle" x="333.12" y="-381.8" font-family="Helvetica,sans-Serif" font-size="11.00">3 local attn blocks</text>
<text xml:space="preserve" text-anchor="middle" x="333.12" y="-369.8" font-family="Helvetica,sans-Serif" font-size="11.00">→ Δxyz [n_atoms, 3]</text>
</g>
<!-- diff_xfmr&#45;&gt;atom_dec -->
<g id="edge18" class="edge">
<title>diff_xfmr&#45;&gt;atom_dec</title>
<path fill="none" stroke="black" d="M331.66,-444.78C331.85,-437.15 332.07,-428.37 332.28,-419.97"/>
<polygon fill="black" stroke="black" points="335.78,-420.09 332.53,-410.01 328.78,-419.92 335.78,-420.09"/>
</g>
<!-- atom_dec&#45;&gt;conf -->
<g id="edge19" class="edge">
<title>atom_dec&#45;&gt;conf</title>
<path fill="none" stroke="black" d="M343.25,-361.71C350.63,-345.36 360.98,-322.45 370.57,-301.22"/>
<polygon fill="black" stroke="black" points="373.65,-302.9 374.57,-292.35 367.27,-300.02 373.65,-302.9"/>
<text xml:space="preserve" text-anchor="middle" x="391.64" y="-329.45" font-family="Helvetica,sans-Serif" font-size="9.00">atom coords</text>
<text xml:space="preserve" text-anchor="middle" x="391.64" y="-319.7" font-family="Helvetica,sans-Serif" font-size="9.00">[n_atoms, 3]</text>
<text xml:space="preserve" text-anchor="middle" x="391.64" y="-309.95" font-family="Helvetica,sans-Serif" font-size="9.00">×5 samples</text>
</g>
<!-- rank -->
<g id="node18" class="node">
<title>rank</title>
<path fill="#fce4ec" stroke="#c62828" d="M527.12,-141C527.12,-141 265.12,-141 265.12,-141 259.12,-141 253.12,-135 253.12,-129 253.12,-129 253.12,-85 253.12,-85 253.12,-79 259.12,-73 265.12,-73 265.12,-73 527.12,-73 527.12,-73 533.12,-73 539.12,-79 539.12,-85 539.12,-85 539.12,-129 539.12,-129 539.12,-135 533.12,-141 527.12,-141"/>
<text xml:space="preserve" text-anchor="middle" x="396.12" y="-126.55" font-family="Helvetica,sans-Serif" font-size="11.00">Ranking</text>
<text xml:space="preserve" text-anchor="middle" x="396.12" y="-114.55" font-family="Helvetica,sans-Serif" font-size="11.00">(Python)</text>
<text xml:space="preserve" text-anchor="middle" x="396.12" y="-102.55" font-family="Helvetica,sans-Serif" font-size="11.00">────────────────────────</text>
<text xml:space="preserve" text-anchor="middle" x="396.12" y="-90.55" font-family="Helvetica,sans-Serif" font-size="11.00">0.2·pTM + 0.8·ipTM</text>
<text xml:space="preserve" text-anchor="middle" x="396.12" y="-78.55" font-family="Helvetica,sans-Serif" font-size="11.00">− 100·has_clashes</text>
</g>
<!-- conf&#45;&gt;rank -->
<g id="edge21" class="edge">
<title>conf&#45;&gt;rank</title>
<path fill="none" stroke="black" d="M396.12,-196.29C396.12,-182.15 396.12,-166.64 396.12,-152.61"/>
<polygon fill="black" stroke="black" points="399.63,-152.76 396.13,-142.76 392.63,-152.76 399.63,-152.76"/>
<text xml:space="preserve" text-anchor="middle" x="422.75" y="-169.95" font-family="Helvetica,sans-Serif" font-size="9.00">PAE, PDE,</text>
<text xml:space="preserve" text-anchor="middle" x="422.75" y="-160.2" font-family="Helvetica,sans-Serif" font-size="9.00">pLDDT logits</text>
</g>
<!-- output -->
<g id="node19" class="node">
<title>output</title>
<path fill="#f5f5f5" stroke="#424242" d="M446.5,-36C446.5,-36 345.75,-36 345.75,-36 339.75,-36 333.75,-30 333.75,-24 333.75,-24 333.75,-12 333.75,-12 333.75,-6 339.75,0 345.75,0 345.75,0 446.5,0 446.5,0 452.5,0 458.5,-6 458.5,-12 458.5,-12 458.5,-24 458.5,-24 458.5,-30 452.5,-36 446.5,-36"/>
<text xml:space="preserve" text-anchor="middle" x="396.12" y="-19.55" font-family="Helvetica,sans-Serif" font-size="11.00">Ranked CIF structures</text>
<text xml:space="preserve" text-anchor="middle" x="396.12" y="-7.55" font-family="Helvetica,sans-Serif" font-size="11.00">+ confidence scores</text>
</g>
<!-- rank&#45;&gt;output -->
<g id="edge22" class="edge">
<title>rank&#45;&gt;output</title>
<path fill="none" stroke="black" d="M396.12,-72.61C396.12,-64.34 396.12,-55.55 396.12,-47.53"/>
<polygon fill="black" stroke="black" points="399.63,-47.64 396.13,-37.64 392.63,-47.64 399.63,-47.64"/>
</g>
<!-- leg -->
<g id="node20" class="node">
<title>leg</title>
<path fill="white" stroke="none" d="M783.12,-1821C783.12,-1821 675.12,-1821 675.12,-1821 669.12,-1821 663.12,-1815 663.12,-1809 663.12,-1809 663.12,-1697 663.12,-1697 663.12,-1691 669.12,-1685 675.12,-1685 675.12,-1685 783.12,-1685 783.12,-1685 789.12,-1685 795.12,-1691 795.12,-1697 795.12,-1697 795.12,-1809 795.12,-1809 795.12,-1815 789.12,-1821 783.12,-1821"/>
<text xml:space="preserve" text-anchor="start" x="675.12" y="-1805.45" font-family="Helvetica,sans-Serif" font-weight="bold" font-size="9.00">Module</text>
<text xml:space="preserve" text-anchor="start" x="761.38" y="-1805.45" font-family="Helvetica,sans-Serif" font-weight="bold" font-size="9.00">Calls</text>
<text xml:space="preserve" text-anchor="start" x="675.12" y="-1789.75" font-family="Helvetica,sans-Serif" font-size="9.00">feature_embedding</text>
<text xml:space="preserve" text-anchor="start" x="777.88" y="-1789.75" font-family="Helvetica,sans-Serif" font-size="9.00">1</text>
<text xml:space="preserve" text-anchor="start" x="675.12" y="-1774" font-family="Helvetica,sans-Serif" font-size="9.00">bond_projection</text>
<text xml:space="preserve" text-anchor="start" x="777.88" y="-1774" font-family="Helvetica,sans-Serif" font-size="9.00">1</text>
<text xml:space="preserve" text-anchor="start" x="675.12" y="-1758.25" font-family="Helvetica,sans-Serif" font-size="9.00">token_embedder</text>
<text xml:space="preserve" text-anchor="start" x="777.88" y="-1758.25" font-family="Helvetica,sans-Serif" font-size="9.00">1</text>
<text xml:space="preserve" text-anchor="start" x="675.12" y="-1742.5" font-family="Helvetica,sans-Serif" font-size="9.00">trunk</text>
<text xml:space="preserve" text-anchor="start" x="777.88" y="-1742.5" font-family="Helvetica,sans-Serif" font-size="9.00">3</text>
<text xml:space="preserve" text-anchor="start" x="675.12" y="-1726.75" font-family="Helvetica,sans-Serif" font-size="9.00">diffusion_module</text>
<text xml:space="preserve" text-anchor="start" x="767.38" y="-1726.75" font-family="Helvetica,sans-Serif" font-size="9.00">398</text>
<text xml:space="preserve" text-anchor="start" x="675.12" y="-1711" font-family="Helvetica,sans-Serif" font-size="9.00">confidence_head</text>
<text xml:space="preserve" text-anchor="start" x="777.88" y="-1711" font-family="Helvetica,sans-Serif" font-size="9.00">5</text>
<text xml:space="preserve" text-anchor="start" x="675.12" y="-1695.2" font-family="Helvetica,sans-Serif" font-weight="bold" font-size="9.00">Total</text>
<text xml:space="preserve" text-anchor="start" x="767.38" y="-1695.2" font-family="Helvetica,sans-Serif" font-weight="bold" font-size="9.00">409</text>
</g>
</g>
</svg>
