<?xml version="1.0" encoding="UTF-8" standalone="no"?>
<!DOCTYPE svg PUBLIC "-//W3C//DTD SVG 1.1//EN"
 "http://www.w3.org/Graphics/SVG/1.1/DTD/svg11.dtd">
<!-- Generated by graphviz version 14.1.4 (20260321.0153)
 -->
<!-- Title: feature_embedding Pages: 1 -->
<svg width="576pt" height="1530pt"
 viewBox="0.00 0.00 576.00 1530.00" xmlns="http://www.w3.org/2000/svg" xmlns:xlink="http://www.w3.org/1999/xlink">
<g id="graph0" class="graph" transform="scale(1 1) rotate(0) translate(28.8 1500.8)">
<title>feature_embedding</title>
<polygon fill="white" stroke="none" points="-28.8,28.8 -28.8,-1500.8 546.8,-1500.8 546.8,28.8 -28.8,28.8"/>
<g id="clust1" class="cluster">
<title>cluster_token_raw</title>
<path fill="white" stroke="#1565c0" stroke-dasharray="5,2" d="M20.38,-8C20.38,-8 161.38,-8 161.38,-8 167.38,-8 173.38,-14 173.38,-20 173.38,-20 173.38,-395 173.38,-395 173.38,-401 167.38,-407 161.38,-407 161.38,-407 20.38,-407 20.38,-407 14.38,-407 8.38,-401 8.38,-395 8.38,-395 8.38,-20 8.38,-20 8.38,-14 14.38,-8 20.38,-8"/>
<text xml:space="preserve" text-anchor="middle" x="71.88" y="-393.5" font-family="Helvetica,sans-Serif" font-size="10.00" fill="#1565c0">TOKEN features (2638&#45;d)</text>
</g>
<g id="clust2" class="cluster">
<title>cluster_tp_raw</title>
<path fill="white" stroke="#2e7d32" stroke-dasharray="5,2" d="M25.25,-463C25.25,-463 156.5,-463 156.5,-463 162.5,-463 168.5,-469 168.5,-475 168.5,-475 168.5,-742 168.5,-742 168.5,-748 162.5,-754 156.5,-754 156.5,-754 25.25,-754 25.25,-754 19.25,-754 13.25,-748 13.25,-742 13.25,-742 13.25,-475 13.25,-475 13.25,-469 19.25,-463 25.25,-463"/>
<text xml:space="preserve" text-anchor="middle" x="88" y="-740.5" font-family="Helvetica,sans-Serif" font-size="10.00" fill="#2e7d32">TOKEN_PAIR features (163&#45;d)</text>
</g>
<g id="clust3" class="cluster">
<title>cluster_atom_raw</title>
<path fill="white" stroke="#e65100" stroke-dasharray="5,2" d="M20,-762C20,-762 161.75,-762 161.75,-762 167.75,-762 173.75,-768 173.75,-774 173.75,-774 173.75,-933 173.75,-933 173.75,-939 167.75,-945 161.75,-945 161.75,-945 20,-945 20,-945 14,-945 8,-939 8,-933 8,-933 8,-774 8,-774 8,-768 14,-762 20,-762"/>
<text xml:space="preserve" text-anchor="middle" x="65.5" y="-931.5" font-family="Helvetica,sans-Serif" font-size="10.00" fill="#e65100">ATOM features (395&#45;d)</text>
</g>
<g id="clust4" class="cluster">
<title>cluster_ap_raw</title>
<path fill="white" stroke="#ad1457" stroke-dasharray="5,2" d="M24.5,-953C24.5,-953 157.25,-953 157.25,-953 163.25,-953 169.25,-959 169.25,-965 169.25,-965 169.25,-1070 169.25,-1070 169.25,-1076 163.25,-1082 157.25,-1082 157.25,-1082 24.5,-1082 24.5,-1082 18.5,-1082 12.5,-1076 12.5,-1070 12.5,-1070 12.5,-965 12.5,-965 12.5,-959 18.5,-953 24.5,-953"/>
<text xml:space="preserve" text-anchor="middle" x="81.25" y="-1068.5" font-family="Helvetica,sans-Serif" font-size="10.00" fill="#ad1457">ATOM_PAIR features (14&#45;d)</text>
</g>
<g id="clust5" class="cluster">
<title>cluster_msa_raw</title>
<path fill="white" stroke="#4527a0" stroke-dasharray="5,2" d="M33.88,-1090C33.88,-1090 147.88,-1090 147.88,-1090 153.88,-1090 159.88,-1096 159.88,-1102 159.88,-1102 159.88,-1261 159.88,-1261 159.88,-1267 153.88,-1273 147.88,-1273 147.88,-1273 33.87,-1273 33.87,-1273 27.87,-1273 21.88,-1267 21.88,-1261 21.88,-1261 21.88,-1102 21.88,-1102 21.88,-1096 27.88,-1090 33.88,-1090"/>
<text xml:space="preserve" text-anchor="middle" x="73.38" y="-1259.5" font-family="Helvetica,sans-Serif" font-size="10.00" fill="#4527a0">MSA features (42&#45;d)</text>
</g>
<g id="clust6" class="cluster">
<title>cluster_templ_raw</title>
<path fill="white" stroke="#00695c" stroke-dasharray="5,2" d="M33.12,-1281C33.12,-1281 149.62,-1281 149.62,-1281 155.62,-1281 161.62,-1287 161.62,-1293 161.62,-1293 161.62,-1452 161.62,-1452 161.62,-1458 155.62,-1464 149.62,-1464 149.62,-1464 33.12,-1464 33.12,-1464 27.12,-1464 21.12,-1458 21.12,-1452 21.12,-1452 21.12,-1293 21.12,-1293 21.12,-1287 27.12,-1281 33.12,-1281"/>
<text xml:space="preserve" text-anchor="middle" x="91.38" y="-1450.5" font-family="Helvetica,sans-Serif" font-size="10.00" fill="#00695c">TEMPLATES features (76&#45;d)</text>
</g>
<!-- t1 -->
<g id="node1" class="node">
<title>t1</title>
<path fill="#bbdefb" stroke="#1565c0" d="M115.38,-378C115.38,-378 66.38,-378 66.38,-378 60.38,-378 54.38,-372 54.38,-366 54.38,-366 54.38,-354 54.38,-354 54.38,-348 60.38,-342 66.38,-342 66.38,-342 115.38,-342 115.38,-342 121.38,-342 127.38,-348 127.38,-354 127.38,-354 127.38,-366 127.38,-366 127.38,-372 121.38,-378 115.38,-378"/>
<text xml:space="preserve" text-anchor="middle" x="90.88" y="-361.75" font-family="Helvetica,sans-Serif" font-size="10.00">ResidueType</text>
<text xml:space="preserve" text-anchor="middle" x="90.88" y="-350.5" font-family="Helvetica,sans-Serif" font-size="10.00">33</text>
</g>
<!-- proj_t -->
<g id="node24" class="node">
<title>proj_t</title>
<path fill="#e8eaf6" stroke="#283593" d="M301.62,-216C301.62,-216 234.62,-216 234.62,-216 228.62,-216 222.62,-210 222.62,-204 222.62,-204 222.62,-192 222.62,-192 222.62,-186 228.62,-180 234.62,-180 234.62,-180 301.62,-180 301.62,-180 307.62,-180 313.62,-186 313.62,-192 313.62,-192 313.62,-204 313.62,-204 313.62,-210 307.62,-216 301.62,-216"/>
<text xml:space="preserve" text-anchor="middle" x="268.12" y="-199.75" font-family="Helvetica,sans-Serif" font-size="10.00">Linear(2638, 384)</text>
<text xml:space="preserve" text-anchor="middle" x="268.12" y="-188.5" font-family="Helvetica,sans-Serif" font-size="10.00">+ bias</text>
</g>
<!-- t1&#45;&gt;proj_t -->
<g id="edge1" class="edge">
<title>t1&#45;&gt;proj_t</title>
<path fill="none" stroke="black" d="M127.71,-353.51C142.98,-349.46 160.33,-343.04 173.75,-333 213,-303.65 241.66,-252.8 256.24,-222.59"/>
<polygon fill="black" stroke="black" points="257.99,-223.8 258.66,-217.47 254.19,-222 257.99,-223.8"/>
</g>
<!-- t2 -->
<g id="node2" class="node">
<title>t2</title>
<path fill="#bbdefb" stroke="#1565c0" d="M128.88,-324C128.88,-324 52.88,-324 52.88,-324 46.88,-324 40.88,-318 40.88,-312 40.88,-312 40.88,-300 40.88,-300 40.88,-294 46.88,-288 52.88,-288 52.88,-288 128.88,-288 128.88,-288 134.88,-288 140.88,-294 140.88,-300 140.88,-300 140.88,-312 140.88,-312 140.88,-318 134.88,-324 128.88,-324"/>
<text xml:space="preserve" text-anchor="middle" x="90.88" y="-307.75" font-family="Helvetica,sans-Serif" font-size="10.00">ESM2 Embeddings</text>
<text xml:space="preserve" text-anchor="middle" x="90.88" y="-296.5" font-family="Helvetica,sans-Serif" font-size="10.00">2560</text>
</g>
<!-- t2&#45;&gt;proj_t -->
<g id="edge2" class="edge">
<title>t2&#45;&gt;proj_t</title>
<path fill="none" stroke="black" d="M141.29,-293.21C152.33,-289.4 163.73,-284.69 173.75,-279 200.81,-263.63 227.17,-239.69 244.94,-221.81"/>
<polygon fill="black" stroke="black" points="246.42,-223.31 249.12,-217.56 243.42,-220.37 246.42,-223.31"/>
</g>
<!-- t3 -->
<g id="node3" class="node">
<title>t3</title>
<path fill="#bbdefb" stroke="#1565c0" d="M112.75,-270C112.75,-270 69,-270 69,-270 63,-270 57,-264 57,-258 57,-258 57,-246 57,-246 57,-240 63,-234 69,-234 69,-234 112.75,-234 112.75,-234 118.75,-234 124.75,-240 124.75,-246 124.75,-246 124.75,-258 124.75,-258 124.75,-264 118.75,-270 112.75,-270"/>
<text xml:space="preserve" text-anchor="middle" x="90.88" y="-253.75" font-family="Helvetica,sans-Serif" font-size="10.00">MSA Profile</text>
<text xml:space="preserve" text-anchor="middle" x="90.88" y="-242.5" font-family="Helvetica,sans-Serif" font-size="10.00">33</text>
</g>
<!-- t3&#45;&gt;proj_t -->
<g id="edge3" class="edge">
<title>t3&#45;&gt;proj_t</title>
<path fill="none" stroke="black" d="M124.84,-241.84C150.36,-233.98 186.17,-222.94 215.49,-213.91"/>
<polygon fill="black" stroke="black" points="215.84,-216 220.96,-212.23 214.6,-211.99 215.84,-216"/>
</g>
<!-- t4 -->
<g id="node4" class="node">
<title>t4</title>
<path fill="#bbdefb" stroke="#1565c0" d="M130.38,-216C130.38,-216 51.37,-216 51.37,-216 45.38,-216 39.38,-210 39.38,-204 39.38,-204 39.38,-192 39.38,-192 39.38,-186 45.38,-180 51.38,-180 51.38,-180 130.38,-180 130.38,-180 136.38,-180 142.38,-186 142.38,-192 142.38,-192 142.38,-204 142.38,-204 142.38,-210 136.38,-216 130.38,-216"/>
<text xml:space="preserve" text-anchor="middle" x="90.88" y="-199.75" font-family="Helvetica,sans-Serif" font-size="10.00">MSA Deletion Mean</text>
<text xml:space="preserve" text-anchor="middle" x="90.88" y="-188.5" font-family="Helvetica,sans-Serif" font-size="10.00">1</text>
</g>
<!-- t4&#45;&gt;proj_t -->
<g id="edge4" class="edge">
<title>t4&#45;&gt;proj_t</title>
<path fill="none" stroke="black" d="M142.56,-198C165.28,-198 192.04,-198 214.93,-198"/>
<polygon fill="black" stroke="black" points="214.7,-200.1 220.7,-198 214.7,-195.9 214.7,-200.1"/>
</g>
<!-- t5 -->
<g id="node5" class="node">
<title>t5</title>
<path fill="#bbdefb" stroke="#1565c0" d="M113.88,-162C113.88,-162 67.88,-162 67.88,-162 61.88,-162 55.88,-156 55.88,-150 55.88,-150 55.88,-138 55.88,-138 55.88,-132 61.88,-126 67.88,-126 67.88,-126 113.88,-126 113.88,-126 119.88,-126 125.88,-132 125.88,-138 125.88,-138 125.88,-150 125.88,-150 125.88,-156 119.88,-162 113.88,-162"/>
<text xml:space="preserve" text-anchor="middle" x="90.88" y="-145.75" font-family="Helvetica,sans-Serif" font-size="10.00">IsDistillation</text>
<text xml:space="preserve" text-anchor="middle" x="90.88" y="-134.5" font-family="Helvetica,sans-Serif" font-size="10.00">2</text>
</g>
<!-- t5&#45;&gt;proj_t -->
<g id="edge5" class="edge">
<title>t5&#45;&gt;proj_t</title>
<path fill="none" stroke="black" d="M126.08,-154.54C151.43,-162.35 186.41,-173.13 215.2,-182"/>
<polygon fill="black" stroke="black" points="214.58,-184.01 220.93,-183.77 215.81,-179.99 214.58,-184.01"/>
</g>
<!-- t6 -->
<g id="node6" class="node">
<title>t6</title>
<path fill="#bbdefb" stroke="#1565c0" d="M151.38,-108C151.38,-108 30.37,-108 30.37,-108 24.37,-108 18.38,-102 18.38,-96 18.38,-96 18.38,-84 18.38,-84 18.38,-78 24.38,-72 30.38,-72 30.38,-72 151.38,-72 151.38,-72 157.38,-72 163.38,-78 163.38,-84 163.38,-84 163.38,-96 163.38,-96 163.38,-102 157.38,-108 151.38,-108"/>
<text xml:space="preserve" text-anchor="middle" x="90.88" y="-91.75" font-family="Helvetica,sans-Serif" font-size="10.00">TokenBFactor · TokenPLDDT</text>
<text xml:space="preserve" text-anchor="middle" x="90.88" y="-80.5" font-family="Helvetica,sans-Serif" font-size="10.00">3 + 4</text>
</g>
<!-- t6&#45;&gt;proj_t -->
<g id="edge6" class="edge">
<title>t6&#45;&gt;proj_t</title>
<path fill="none" stroke="black" d="M155.97,-108.37C162.13,-110.95 168.15,-113.82 173.75,-117 200.81,-132.37 227.17,-156.31 244.94,-174.19"/>
<polygon fill="black" stroke="black" points="243.42,-175.63 249.12,-178.44 246.42,-172.69 243.42,-175.63"/>
</g>
<!-- t7 -->
<g id="node7" class="node">
<title>t7</title>
<path fill="#bbdefb" stroke="#1565c0" d="M143.5,-54C143.5,-54 38.25,-54 38.25,-54 32.25,-54 26.25,-48 26.25,-42 26.25,-42 26.25,-30 26.25,-30 26.25,-24 32.25,-18 38.25,-18 38.25,-18 143.5,-18 143.5,-18 149.5,-18 155.5,-24 155.5,-30 155.5,-30 155.5,-42 155.5,-42 155.5,-48 149.5,-54 143.5,-54"/>
<text xml:space="preserve" text-anchor="middle" x="90.88" y="-37.75" font-family="Helvetica,sans-Serif" font-size="10.00">ChainIsCropped · Missing</text>
<text xml:space="preserve" text-anchor="middle" x="90.88" y="-26.5" font-family="Helvetica,sans-Serif" font-size="10.00">1 + 1</text>
</g>
<!-- t7&#45;&gt;proj_t -->
<g id="edge7" class="edge">
<title>t7&#45;&gt;proj_t</title>
<path fill="none" stroke="black" d="M155.64,-52.37C162.06,-55.36 168.24,-58.88 173.75,-63 213,-92.35 241.66,-143.2 256.24,-173.41"/>
<polygon fill="black" stroke="black" points="254.19,-174 258.66,-178.53 257.99,-172.2 254.19,-174"/>
</g>
<!-- tp1 -->
<g id="node8" class="node">
<title>tp1</title>
<path fill="#c8e6c9" stroke="#2e7d32" d="M122.12,-671C122.12,-671 59.62,-671 59.62,-671 53.62,-671 47.62,-665 47.62,-659 47.62,-659 47.62,-647 47.62,-647 47.62,-641 53.62,-635 59.62,-635 59.62,-635 122.12,-635 122.12,-635 128.12,-635 134.12,-641 134.12,-647 134.12,-647 134.12,-659 134.12,-659 134.12,-665 128.12,-671 122.12,-671"/>
<text xml:space="preserve" text-anchor="middle" x="90.88" y="-654.75" font-family="Helvetica,sans-Serif" font-size="10.00">RelativeSeqSep</text>
<text xml:space="preserve" text-anchor="middle" x="90.88" y="-643.5" font-family="Helvetica,sans-Serif" font-size="10.00">67</text>
</g>
<!-- proj_tp -->
<g id="node25" class="node">
<title>proj_tp</title>
<path fill="#e8eaf6" stroke="#283593" d="M303.88,-594.62C303.88,-594.62 232.38,-594.62 232.38,-594.62 226.38,-594.62 220.38,-588.62 220.38,-582.62 220.38,-582.62 220.38,-563.38 220.38,-563.38 220.38,-557.38 226.38,-551.38 232.38,-551.38 232.38,-551.38 303.88,-551.38 303.88,-551.38 309.88,-551.38 315.88,-557.38 315.88,-563.38 315.88,-563.38 315.88,-582.62 315.88,-582.62 315.88,-588.62 309.88,-594.62 303.88,-594.62"/>
<text xml:space="preserve" text-anchor="middle" x="268.12" y="-581.12" font-family="Helvetica,sans-Serif" font-size="10.00">Linear(163, 512)</text>
<text xml:space="preserve" text-anchor="middle" x="268.12" y="-569.88" font-family="Helvetica,sans-Serif" font-size="10.00">+ bias</text>
<text xml:space="preserve" text-anchor="middle" x="268.12" y="-558.62" font-family="Helvetica,sans-Serif" font-size="10.00">chunk → 256+256</text>
</g>
<!-- tp1&#45;&gt;proj_tp -->
<g id="edge8" class="edge">
<title>tp1&#45;&gt;proj_tp</title>
<path fill="none" stroke="black" d="M134.55,-640.69C147.35,-636.53 161.3,-631.52 173.75,-626 191.35,-618.19 209.95,-608.06 225.87,-598.75"/>
<polygon fill="black" stroke="black" points="226.67,-600.72 230.76,-595.86 224.53,-597.1 226.67,-600.72"/>
</g>
<!-- tp2 -->
<g id="node9" class="node">
<title>tp2</title>
<path fill="#c8e6c9" stroke="#2e7d32" d="M126.62,-617C126.62,-617 55.12,-617 55.12,-617 49.12,-617 43.12,-611 43.12,-605 43.12,-605 43.12,-593 43.12,-593 43.12,-587 49.12,-581 55.12,-581 55.12,-581 126.62,-581 126.62,-581 132.62,-581 138.62,-587 138.62,-593 138.62,-593 138.62,-605 138.62,-605 138.62,-611 132.62,-617 126.62,-617"/>
<text xml:space="preserve" text-anchor="middle" x="90.88" y="-600.75" font-family="Helvetica,sans-Serif" font-size="10.00">RelativeTokenSep</text>
<text xml:space="preserve" text-anchor="middle" x="90.88" y="-589.5" font-family="Helvetica,sans-Serif" font-size="10.00">67</text>
</g>
<!-- tp2&#45;&gt;proj_tp -->
<g id="edge9" class="edge">
<title>tp2&#45;&gt;proj_tp</title>
<path fill="none" stroke="black" d="M138.84,-592.03C161.63,-588.65 189.13,-584.57 212.81,-581.06"/>
<polygon fill="black" stroke="black" points="212.91,-583.17 218.53,-580.21 212.29,-579.01 212.91,-583.17"/>
</g>
<!-- tp3 -->
<g id="node10" class="node">
<title>tp3</title>
<path fill="#c8e6c9" stroke="#2e7d32" d="M117.62,-563C117.62,-563 64.12,-563 64.12,-563 58.12,-563 52.12,-557 52.12,-551 52.12,-551 52.12,-539 52.12,-539 52.12,-533 58.12,-527 64.12,-527 64.12,-527 117.62,-527 117.62,-527 123.62,-527 129.62,-533 129.62,-539 129.62,-539 129.62,-551 129.62,-551 129.62,-557 123.62,-563 117.62,-563"/>
<text xml:space="preserve" text-anchor="middle" x="90.88" y="-546.75" font-family="Helvetica,sans-Serif" font-size="10.00">RelativeEntity</text>
<text xml:space="preserve" text-anchor="middle" x="90.88" y="-535.5" font-family="Helvetica,sans-Serif" font-size="10.00">3</text>
</g>
<!-- tp3&#45;&gt;proj_tp -->
<g id="edge10" class="edge">
<title>tp3&#45;&gt;proj_tp</title>
<path fill="none" stroke="black" d="M129.9,-551.08C154.21,-554.96 186.1,-560.05 213.02,-564.36"/>
<polygon fill="black" stroke="black" points="212.36,-566.38 218.62,-565.25 213.02,-562.23 212.36,-566.38"/>
</g>
<!-- tp4 -->
<g id="node11" class="node">
<title>tp4</title>
<path fill="#c8e6c9" stroke="#2e7d32" d="M117.62,-509C117.62,-509 64.12,-509 64.12,-509 58.12,-509 52.12,-503 52.12,-497 52.12,-497 52.12,-485 52.12,-485 52.12,-479 58.12,-473 64.12,-473 64.12,-473 117.62,-473 117.62,-473 123.62,-473 129.62,-479 129.62,-485 129.62,-485 129.62,-497 129.62,-497 129.62,-503 123.62,-509 117.62,-509"/>
<text xml:space="preserve" text-anchor="middle" x="90.88" y="-492.75" font-family="Helvetica,sans-Serif" font-size="10.00">RelativeChain</text>
<text xml:space="preserve" text-anchor="middle" x="90.88" y="-481.5" font-family="Helvetica,sans-Serif" font-size="10.00">6</text>
</g>
<!-- tp4&#45;&gt;proj_tp -->
<g id="edge11" class="edge">
<title>tp4&#45;&gt;proj_tp</title>
<path fill="none" stroke="black" d="M130.02,-501.72C144.02,-506.13 159.84,-511.7 173.75,-518 192.06,-526.29 211.34,-537.24 227.6,-547.19"/>
<polygon fill="black" stroke="black" points="226.42,-548.92 232.62,-550.29 228.62,-545.35 226.42,-548.92"/>
</g>
<!-- tp5 -->
<g id="node12" class="node">
<title>tp5</title>
<path fill="#c8e6c9" stroke="#2e7d32" d="M146.5,-725C146.5,-725 35.25,-725 35.25,-725 29.25,-725 23.25,-719 23.25,-713 23.25,-713 23.25,-701 23.25,-701 23.25,-695 29.25,-689 35.25,-689 35.25,-689 146.5,-689 146.5,-689 152.5,-689 158.5,-695 158.5,-701 158.5,-701 158.5,-713 158.5,-713 158.5,-719 152.5,-725 146.5,-725"/>
<text xml:space="preserve" text-anchor="middle" x="90.88" y="-708.75" font-family="Helvetica,sans-Serif" font-size="10.00">Docking · Contact · Pocket</text>
<text xml:space="preserve" text-anchor="middle" x="90.88" y="-697.5" font-family="Helvetica,sans-Serif" font-size="10.00">6 + 7 + 7</text>
</g>
<!-- tp5&#45;&gt;proj_tp -->
<g id="edge12" class="edge">
<title>tp5&#45;&gt;proj_tp</title>
<path fill="none" stroke="black" d="M158.14,-688.65C163.6,-686.1 168.89,-683.23 173.75,-680 205.19,-659.14 232.41,-624.98 249.22,-600.88"/>
<polygon fill="black" stroke="black" points="250.74,-602.37 252.41,-596.23 247.28,-599.99 250.74,-602.37"/>
</g>
<!-- a1 -->
<g id="node13" class="node">
<title>a1</title>
<path fill="#ffe0b2" stroke="#e65100" d="M128.5,-916C128.5,-916 53.25,-916 53.25,-916 47.25,-916 41.25,-910 41.25,-904 41.25,-904 41.25,-892 41.25,-892 41.25,-886 47.25,-880 53.25,-880 53.25,-880 128.5,-880 128.5,-880 134.5,-880 140.5,-886 140.5,-892 140.5,-892 140.5,-904 140.5,-904 140.5,-910 134.5,-916 128.5,-916"/>
<text xml:space="preserve" text-anchor="middle" x="90.88" y="-899.75" font-family="Helvetica,sans-Serif" font-size="10.00">AtomNameOneHot</text>
<text xml:space="preserve" text-anchor="middle" x="90.88" y="-888.5" font-family="Helvetica,sans-Serif" font-size="10.00">260 (4×65)</text>
</g>
<!-- proj_a -->
<g id="node26" class="node">
<title>proj_a</title>
<path fill="#e8eaf6" stroke="#283593" d="M303.88,-865.62C303.88,-865.62 232.38,-865.62 232.38,-865.62 226.38,-865.62 220.38,-859.62 220.38,-853.62 220.38,-853.62 220.38,-834.38 220.38,-834.38 220.38,-828.38 226.38,-822.38 232.38,-822.38 232.38,-822.38 303.88,-822.38 303.88,-822.38 309.88,-822.38 315.88,-828.38 315.88,-834.38 315.88,-834.38 315.88,-853.62 315.88,-853.62 315.88,-859.62 309.88,-865.62 303.88,-865.62"/>
<text xml:space="preserve" text-anchor="middle" x="268.12" y="-852.12" font-family="Helvetica,sans-Serif" font-size="10.00">Linear(395, 256)</text>
<text xml:space="preserve" text-anchor="middle" x="268.12" y="-840.88" font-family="Helvetica,sans-Serif" font-size="10.00">+ bias</text>
<text xml:space="preserve" text-anchor="middle" x="268.12" y="-829.62" font-family="Helvetica,sans-Serif" font-size="10.00">chunk → 128+128</text>
</g>
<!-- a1&#45;&gt;proj_a -->
<g id="edge13" class="edge">
<title>a1&#45;&gt;proj_a</title>
<path fill="none" stroke="black" d="M140.69,-882.96C163.18,-876.03 189.94,-867.78 213.04,-860.67"/>
<polygon fill="black" stroke="black" points="213.52,-862.72 218.63,-858.94 212.28,-858.7 213.52,-862.72"/>
</g>
<!-- a2 -->
<g id="node14" class="node">
<title>a2</title>
<path fill="#ffe0b2" stroke="#e65100" d="M151.75,-862C151.75,-862 30,-862 30,-862 24,-862 18,-856 18,-850 18,-850 18,-838 18,-838 18,-832 24,-826 30,-826 30,-826 151.75,-826 151.75,-826 157.75,-826 163.75,-832 163.75,-838 163.75,-838 163.75,-850 163.75,-850 163.75,-856 157.75,-862 151.75,-862"/>
<text xml:space="preserve" text-anchor="middle" x="90.88" y="-845.75" font-family="Helvetica,sans-Serif" font-size="10.00">AtomRefCharge · Mask · Pos</text>
<text xml:space="preserve" text-anchor="middle" x="90.88" y="-834.5" font-family="Helvetica,sans-Serif" font-size="10.00">1 + 1 + 3</text>
</g>
<!-- a2&#45;&gt;proj_a -->
<g id="edge14" class="edge">
<title>a2&#45;&gt;proj_a</title>
<path fill="none" stroke="black" d="M164.17,-844C180.37,-844 197.3,-844 212.64,-844"/>
<polygon fill="black" stroke="black" points="212.52,-846.1 218.52,-844 212.52,-841.9 212.52,-846.1"/>
</g>
<!-- a3 -->
<g id="node15" class="node">
<title>a3</title>
<path fill="#ffe0b2" stroke="#e65100" d="M124.38,-808C124.38,-808 57.38,-808 57.38,-808 51.38,-808 45.38,-802 45.38,-796 45.38,-796 45.38,-784 45.38,-784 45.38,-778 51.38,-772 57.38,-772 57.38,-772 124.38,-772 124.38,-772 130.38,-772 136.38,-778 136.38,-784 136.38,-784 136.38,-796 136.38,-796 136.38,-802 130.38,-808 124.38,-808"/>
<text xml:space="preserve" text-anchor="middle" x="90.88" y="-791.75" font-family="Helvetica,sans-Serif" font-size="10.00">AtomRefElement</text>
<text xml:space="preserve" text-anchor="middle" x="90.88" y="-780.5" font-family="Helvetica,sans-Serif" font-size="10.00">130</text>
</g>
<!-- a3&#45;&gt;proj_a -->
<g id="edge15" class="edge">
<title>a3&#45;&gt;proj_a</title>
<path fill="none" stroke="black" d="M136.55,-803.77C159.81,-810.93 188.43,-819.75 212.95,-827.31"/>
<polygon fill="black" stroke="black" points="212.28,-829.3 218.63,-829.06 213.52,-825.28 212.28,-829.3"/>
</g>
<!-- ap1 -->
<g id="node16" class="node">
<title>ap1</title>
<path fill="#f8bbd0" stroke="#ad1457" d="M147.25,-1053C147.25,-1053 34.5,-1053 34.5,-1053 28.5,-1053 22.5,-1047 22.5,-1041 22.5,-1041 22.5,-1029 22.5,-1029 22.5,-1023 28.5,-1017 34.5,-1017 34.5,-1017 147.25,-1017 147.25,-1017 153.25,-1017 159.25,-1023 159.25,-1029 159.25,-1029 159.25,-1041 159.25,-1041 159.25,-1047 153.25,-1053 147.25,-1053"/>
<text xml:space="preserve" text-anchor="middle" x="90.88" y="-1036.75" font-family="Helvetica,sans-Serif" font-size="10.00">BlockedAtomPairDistogram</text>
<text xml:space="preserve" text-anchor="middle" x="90.88" y="-1025.5" font-family="Helvetica,sans-Serif" font-size="10.00">12</text>
</g>
<!-- proj_ap -->
<g id="node27" class="node">
<title>proj_ap</title>
<path fill="#e8eaf6" stroke="#283593" d="M298.62,-1025.62C298.62,-1025.62 237.62,-1025.62 237.62,-1025.62 231.62,-1025.62 225.62,-1019.62 225.62,-1013.62 225.62,-1013.62 225.62,-994.38 225.62,-994.38 225.62,-988.38 231.62,-982.38 237.62,-982.38 237.62,-982.38 298.62,-982.38 298.62,-982.38 304.62,-982.38 310.62,-988.38 310.62,-994.38 310.62,-994.38 310.62,-1013.62 310.62,-1013.62 310.62,-1019.62 304.62,-1025.62 298.62,-1025.62"/>
<text xml:space="preserve" text-anchor="middle" x="268.12" y="-1012.12" font-family="Helvetica,sans-Serif" font-size="10.00">Linear(14, 32)</text>
<text xml:space="preserve" text-anchor="middle" x="268.12" y="-1000.88" font-family="Helvetica,sans-Serif" font-size="10.00">+ bias</text>
<text xml:space="preserve" text-anchor="middle" x="268.12" y="-989.62" font-family="Helvetica,sans-Serif" font-size="10.00">chunk → 16+16</text>
</g>
<!-- ap1&#45;&gt;proj_ap -->
<g id="edge16" class="edge">
<title>ap1&#45;&gt;proj_ap</title>
<path fill="none" stroke="black" d="M159.63,-1023.01C179.19,-1019.56 200.14,-1015.85 218.3,-1012.64"/>
<polygon fill="black" stroke="black" points="218.35,-1014.76 223.89,-1011.65 217.62,-1010.63 218.35,-1014.76"/>
</g>
<!-- ap2 -->
<g id="node17" class="node">
<title>ap2</title>
<path fill="#f8bbd0" stroke="#ad1457" d="M126.25,-999C126.25,-999 55.5,-999 55.5,-999 49.5,-999 43.5,-993 43.5,-987 43.5,-987 43.5,-975 43.5,-975 43.5,-969 49.5,-963 55.5,-963 55.5,-963 126.25,-963 126.25,-963 132.25,-963 138.25,-969 138.25,-975 138.25,-975 138.25,-987 138.25,-987 138.25,-993 132.25,-999 126.25,-999"/>
<text xml:space="preserve" text-anchor="middle" x="90.88" y="-982.75" font-family="Helvetica,sans-Serif" font-size="10.00">InvSqBlockedDist</text>
<text xml:space="preserve" text-anchor="middle" x="90.88" y="-971.5" font-family="Helvetica,sans-Serif" font-size="10.00">2</text>
</g>
<!-- ap2&#45;&gt;proj_ap -->
<g id="edge17" class="edge">
<title>ap2&#45;&gt;proj_ap</title>
<path fill="none" stroke="black" d="M138.38,-987.1C162.93,-990.33 193.05,-994.28 217.98,-997.55"/>
<polygon fill="black" stroke="black" points="217.48,-999.6 223.7,-998.3 218.03,-995.44 217.48,-999.6"/>
</g>
<!-- m1 -->
<g id="node18" class="node">
<title>m1</title>
<path fill="#d1c4e9" stroke="#4527a0" d="M114.62,-1244C114.62,-1244 67.12,-1244 67.12,-1244 61.12,-1244 55.12,-1238 55.12,-1232 55.12,-1232 55.12,-1220 55.12,-1220 55.12,-1214 61.12,-1208 67.12,-1208 67.12,-1208 114.62,-1208 114.62,-1208 120.62,-1208 126.62,-1214 126.62,-1220 126.62,-1220 126.62,-1232 126.62,-1232 126.62,-1238 120.62,-1244 114.62,-1244"/>
<text xml:space="preserve" text-anchor="middle" x="90.88" y="-1227.75" font-family="Helvetica,sans-Serif" font-size="10.00">MSAOneHot</text>
<text xml:space="preserve" text-anchor="middle" x="90.88" y="-1216.5" font-family="Helvetica,sans-Serif" font-size="10.00">33</text>
</g>
<!-- proj_m -->
<g id="node28" class="node">
<title>proj_m</title>
<path fill="#e8eaf6" stroke="#283593" d="M293.75,-1190C293.75,-1190 242.5,-1190 242.5,-1190 236.5,-1190 230.5,-1184 230.5,-1178 230.5,-1178 230.5,-1166 230.5,-1166 230.5,-1160 236.5,-1154 242.5,-1154 242.5,-1154 293.75,-1154 293.75,-1154 299.75,-1154 305.75,-1160 305.75,-1166 305.75,-1166 305.75,-1178 305.75,-1178 305.75,-1184 299.75,-1190 293.75,-1190"/>
<text xml:space="preserve" text-anchor="middle" x="268.12" y="-1173.75" font-family="Helvetica,sans-Serif" font-size="10.00">Linear(42, 64)</text>
<text xml:space="preserve" text-anchor="middle" x="268.12" y="-1162.5" font-family="Helvetica,sans-Serif" font-size="10.00">+ bias</text>
</g>
<!-- m1&#45;&gt;proj_m -->
<g id="edge18" class="edge">
<title>m1&#45;&gt;proj_m</title>
<path fill="none" stroke="black" d="M126.92,-1215.2C154.57,-1206.68 193.3,-1194.75 223.05,-1185.58"/>
<polygon fill="black" stroke="black" points="223.46,-1187.65 228.58,-1183.88 222.23,-1183.64 223.46,-1187.65"/>
</g>
<!-- m2 -->
<g id="node19" class="node">
<title>m2</title>
<path fill="#d1c4e9" stroke="#4527a0" d="M135.25,-1190C135.25,-1190 46.5,-1190 46.5,-1190 40.5,-1190 34.5,-1184 34.5,-1178 34.5,-1178 34.5,-1166 34.5,-1166 34.5,-1160 40.5,-1154 46.5,-1154 46.5,-1154 135.25,-1154 135.25,-1154 141.25,-1154 147.25,-1160 147.25,-1166 147.25,-1166 147.25,-1178 147.25,-1178 147.25,-1184 141.25,-1190 135.25,-1190"/>
<text xml:space="preserve" text-anchor="middle" x="90.88" y="-1173.75" font-family="Helvetica,sans-Serif" font-size="10.00">DataSource · IsPaired</text>
<text xml:space="preserve" text-anchor="middle" x="90.88" y="-1162.5" font-family="Helvetica,sans-Serif" font-size="10.00">6 + 1</text>
</g>
<!-- m2&#45;&gt;proj_m -->
<g id="edge19" class="edge">
<title>m2&#45;&gt;proj_m</title>
<path fill="none" stroke="black" d="M147.33,-1172C171.67,-1172 199.85,-1172 222.77,-1172"/>
<polygon fill="black" stroke="black" points="222.5,-1174.1 228.5,-1172 222.5,-1169.9 222.5,-1174.1"/>
</g>
<!-- m3 -->
<g id="node20" class="node">
<title>m3</title>
<path fill="#d1c4e9" stroke="#4527a0" d="M137.88,-1136C137.88,-1136 43.87,-1136 43.87,-1136 37.88,-1136 31.88,-1130 31.88,-1124 31.88,-1124 31.88,-1112 31.88,-1112 31.88,-1106 37.88,-1100 43.88,-1100 43.88,-1100 137.88,-1100 137.88,-1100 143.88,-1100 149.88,-1106 149.88,-1112 149.88,-1112 149.88,-1124 149.88,-1124 149.88,-1130 143.88,-1136 137.88,-1136"/>
<text xml:space="preserve" text-anchor="middle" x="90.88" y="-1119.75" font-family="Helvetica,sans-Serif" font-size="10.00">DeletionValue · HasDel</text>
<text xml:space="preserve" text-anchor="middle" x="90.88" y="-1108.5" font-family="Helvetica,sans-Serif" font-size="10.00">1 + 1</text>
</g>
<!-- m3&#45;&gt;proj_m -->
<g id="edge20" class="edge">
<title>m3&#45;&gt;proj_m</title>
<path fill="none" stroke="black" d="M150.23,-1135.98C174.04,-1143.32 201.11,-1151.66 223.2,-1158.46"/>
<polygon fill="black" stroke="black" points="222.38,-1160.41 228.74,-1160.17 223.62,-1156.4 222.38,-1160.41"/>
</g>
<!-- tl1 -->
<g id="node21" class="node">
<title>tl1</title>
<path fill="#b2dfdb" stroke="#00695c" d="M129.25,-1435C129.25,-1435 52.5,-1435 52.5,-1435 46.5,-1435 40.5,-1429 40.5,-1423 40.5,-1423 40.5,-1411 40.5,-1411 40.5,-1405 46.5,-1399 52.5,-1399 52.5,-1399 129.25,-1399 129.25,-1399 135.25,-1399 141.25,-1405 141.25,-1411 141.25,-1411 141.25,-1423 141.25,-1423 141.25,-1429 135.25,-1435 129.25,-1435"/>
<text xml:space="preserve" text-anchor="middle" x="90.88" y="-1418.75" font-family="Helvetica,sans-Serif" font-size="10.00">TemplateDistogram</text>
<text xml:space="preserve" text-anchor="middle" x="90.88" y="-1407.5" font-family="Helvetica,sans-Serif" font-size="10.00">39</text>
</g>
<!-- proj_tl -->
<g id="node29" class="node">
<title>proj_tl</title>
<path fill="#e8eaf6" stroke="#283593" d="M293.75,-1381C293.75,-1381 242.5,-1381 242.5,-1381 236.5,-1381 230.5,-1375 230.5,-1369 230.5,-1369 230.5,-1357 230.5,-1357 230.5,-1351 236.5,-1345 242.5,-1345 242.5,-1345 293.75,-1345 293.75,-1345 299.75,-1345 305.75,-1351 305.75,-1357 305.75,-1357 305.75,-1369 305.75,-1369 305.75,-1375 299.75,-1381 293.75,-1381"/>
<text xml:space="preserve" text-anchor="middle" x="268.12" y="-1364.75" font-family="Helvetica,sans-Serif" font-size="10.00">Linear(76, 64)</text>
<text xml:space="preserve" text-anchor="middle" x="268.12" y="-1353.5" font-family="Helvetica,sans-Serif" font-size="10.00">+ bias</text>
</g>
<!-- tl1&#45;&gt;proj_tl -->
<g id="edge21" class="edge">
<title>tl1&#45;&gt;proj_tl</title>
<path fill="none" stroke="black" d="M141.63,-1401.67C167.23,-1393.78 198.18,-1384.24 222.93,-1376.62"/>
<polygon fill="black" stroke="black" points="223.51,-1378.64 228.63,-1374.86 222.27,-1374.62 223.51,-1378.64"/>
</g>
<!-- tl2 -->
<g id="node22" class="node">
<title>tl2</title>
<path fill="#b2dfdb" stroke="#00695c" d="M126.25,-1381C126.25,-1381 55.5,-1381 55.5,-1381 49.5,-1381 43.5,-1375 43.5,-1369 43.5,-1369 43.5,-1357 43.5,-1357 43.5,-1351 49.5,-1345 55.5,-1345 55.5,-1345 126.25,-1345 126.25,-1345 132.25,-1345 138.25,-1351 138.25,-1357 138.25,-1357 138.25,-1369 138.25,-1369 138.25,-1375 132.25,-1381 126.25,-1381"/>
<text xml:space="preserve" text-anchor="middle" x="90.88" y="-1365.5" font-family="Helvetica,sans-Serif" font-size="10.00">TemplateResType</text>
<text xml:space="preserve" text-anchor="middle" x="90.88" y="-1354.25" font-family="Helvetica,sans-Serif" font-size="10.00">32 (Emb 33→32)</text>
</g>
<!-- tl2&#45;&gt;proj_tl -->
<g id="edge22" class="edge">
<title>tl2&#45;&gt;proj_tl</title>
<path fill="none" stroke="black" d="M138.38,-1363C164.5,-1363 196.92,-1363 222.69,-1363"/>
<polygon fill="black" stroke="black" points="222.61,-1365.1 228.61,-1363 222.61,-1360.9 222.61,-1365.1"/>
</g>
<!-- tl3 -->
<g id="node23" class="node">
<title>tl3</title>
<path fill="#b2dfdb" stroke="#00695c" d="M126.62,-1327C126.62,-1327 55.12,-1327 55.12,-1327 49.12,-1327 43.12,-1321 43.12,-1315 43.12,-1315 43.12,-1303 43.12,-1303 43.12,-1297 49.12,-1291 55.12,-1291 55.12,-1291 126.62,-1291 126.62,-1291 132.62,-1291 138.62,-1297 138.62,-1303 138.62,-1303 138.62,-1315 138.62,-1315 138.62,-1321 132.62,-1327 126.62,-1327"/>
<text xml:space="preserve" text-anchor="middle" x="90.88" y="-1310.75" font-family="Helvetica,sans-Serif" font-size="10.00">UnitVector · Mask</text>
<text xml:space="preserve" text-anchor="middle" x="90.88" y="-1299.5" font-family="Helvetica,sans-Serif" font-size="10.00">3 + 2</text>
</g>
<!-- tl3&#45;&gt;proj_tl -->
<g id="edge23" class="edge">
<title>tl3&#45;&gt;proj_tl</title>
<path fill="none" stroke="black" d="M138.84,-1323.47C164.97,-1331.52 197.31,-1341.49 222.98,-1349.4"/>
<polygon fill="black" stroke="black" points="222.23,-1351.36 228.58,-1351.12 223.47,-1347.35 222.23,-1351.36"/>
</g>
<!-- out_t -->
<g id="node30" class="node">
<title>out_t</title>
<path fill="#c5cae9" stroke="#1a237e" d="M483.12,-216C483.12,-216 446.88,-216 446.88,-216 440.88,-216 434.88,-210 434.88,-204 434.88,-204 434.88,-192 434.88,-192 434.88,-186 440.88,-180 446.88,-180 446.88,-180 483.12,-180 483.12,-180 489.12,-180 495.12,-186 495.12,-192 495.12,-192 495.12,-204 495.12,-204 495.12,-210 489.12,-216 483.12,-216"/>
<text xml:space="preserve" text-anchor="middle" x="465" y="-199.75" font-family="Helvetica,sans-Serif" font-size="10.00">TOKEN</text>
<text xml:space="preserve" text-anchor="middle" x="465" y="-188.5" font-family="Helvetica,sans-Serif" font-size="10.00">[b, n, 384]</text>
</g>
<!-- proj_t&#45;&gt;out_t -->
<g id="edge24" class="edge">
<title>proj_t&#45;&gt;out_t</title>
<path fill="none" stroke="black" d="M313.83,-198C346.86,-198 391.45,-198 423.45,-198"/>
<polygon fill="black" stroke="black" points="423.11,-201.5 433.11,-198 423.11,-194.5 423.11,-201.5"/>
</g>
<!-- out_tp_t -->
<g id="node31" class="node">
<title>out_tp_t</title>
<path fill="#c5cae9" stroke="#1a237e" d="M504.5,-581C504.5,-581 425.5,-581 425.5,-581 419.5,-581 413.5,-575 413.5,-569 413.5,-569 413.5,-557 413.5,-557 413.5,-551 419.5,-545 425.5,-545 425.5,-545 504.5,-545 504.5,-545 510.5,-545 516.5,-551 516.5,-557 516.5,-557 516.5,-569 516.5,-569 516.5,-575 510.5,-581 504.5,-581"/>
<text xml:space="preserve" text-anchor="middle" x="465" y="-564.75" font-family="Helvetica,sans-Serif" font-size="10.00">TOKEN_PAIR trunk</text>
<text xml:space="preserve" text-anchor="middle" x="465" y="-553.5" font-family="Helvetica,sans-Serif" font-size="10.00">[b, n, n, 256]</text>
</g>
<!-- proj_tp&#45;&gt;out_tp_t -->
<g id="edge25" class="edge">
<title>proj_tp&#45;&gt;out_tp_t</title>
<path fill="none" stroke="black" d="M316.3,-570.58C342.04,-569.26 374.23,-567.61 401.98,-566.18"/>
<polygon fill="black" stroke="black" points="401.85,-569.69 411.65,-565.69 401.49,-562.7 401.85,-569.69"/>
<text xml:space="preserve" text-anchor="middle" x="369.75" y="-570" font-family="Helvetica,sans-Serif" font-size="8.00">first half</text>
</g>
<!-- out_tp_s -->
<g id="node32" class="node">
<title>out_tp_s</title>
<path fill="#c5cae9" stroke="#1a237e" d="M506,-506C506,-506 424,-506 424,-506 418,-506 412,-500 412,-494 412,-494 412,-482 412,-482 412,-476 418,-470 424,-470 424,-470 506,-470 506,-470 512,-470 518,-476 518,-482 518,-482 518,-494 518,-494 518,-500 512,-506 506,-506"/>
<text xml:space="preserve" text-anchor="middle" x="465" y="-489.75" font-family="Helvetica,sans-Serif" font-size="10.00">TOKEN_PAIR struct</text>
<text xml:space="preserve" text-anchor="middle" x="465" y="-478.5" font-family="Helvetica,sans-Serif" font-size="10.00">[b, n, n, 256]</text>
</g>
<!-- proj_tp&#45;&gt;out_tp_s -->
<g id="edge26" class="edge">
<title>proj_tp&#45;&gt;out_tp_s</title>
<path fill="none" stroke="black" d="M316.3,-552.42C345.12,-539.85 382.01,-523.76 411.72,-510.8"/>
<polygon fill="black" stroke="black" points="412.75,-514.17 420.52,-506.97 409.95,-507.76 412.75,-514.17"/>
<text xml:space="preserve" text-anchor="middle" x="369.75" y="-536.99" font-family="Helvetica,sans-Serif" font-size="8.00">second half</text>
</g>
<!-- out_a_t -->
<g id="node33" class="node">
<title>out_a_t</title>
<path fill="#c5cae9" stroke="#1a237e" d="M487.25,-889C487.25,-889 442.75,-889 442.75,-889 436.75,-889 430.75,-883 430.75,-877 430.75,-877 430.75,-865 430.75,-865 430.75,-859 436.75,-853 442.75,-853 442.75,-853 487.25,-853 487.25,-853 493.25,-853 499.25,-859 499.25,-865 499.25,-865 499.25,-877 499.25,-877 499.25,-883 493.25,-889 487.25,-889"/>
<text xml:space="preserve" text-anchor="middle" x="465" y="-872.75" font-family="Helvetica,sans-Serif" font-size="10.00">ATOM trunk</text>
<text xml:space="preserve" text-anchor="middle" x="465" y="-861.5" font-family="Helvetica,sans-Serif" font-size="10.00">[b, a, 128]</text>
</g>
<!-- proj_a&#45;&gt;out_a_t -->
<g id="edge27" class="edge">
<title>proj_a&#45;&gt;out_a_t</title>
<path fill="none" stroke="black" d="M316.3,-850.54C347.56,-854.87 388.33,-860.52 419.12,-864.78"/>
<polygon fill="black" stroke="black" points="418.5,-868.23 428.89,-866.13 419.46,-861.3 418.5,-868.23"/>
<text xml:space="preserve" text-anchor="middle" x="369.75" y="-862.11" font-family="Helvetica,sans-Serif" font-size="8.00">first half</text>
</g>
<!-- out_a_s -->
<g id="node34" class="node">
<title>out_a_s</title>
<path fill="#c5cae9" stroke="#1a237e" d="M488.75,-835C488.75,-835 441.25,-835 441.25,-835 435.25,-835 429.25,-829 429.25,-823 429.25,-823 429.25,-811 429.25,-811 429.25,-805 435.25,-799 441.25,-799 441.25,-799 488.75,-799 488.75,-799 494.75,-799 500.75,-805 500.75,-811 500.75,-811 500.75,-823 500.75,-823 500.75,-829 494.75,-835 488.75,-835"/>
<text xml:space="preserve" text-anchor="middle" x="465" y="-818.75" font-family="Helvetica,sans-Serif" font-size="10.00">ATOM struct</text>
<text xml:space="preserve" text-anchor="middle" x="465" y="-807.5" font-family="Helvetica,sans-Serif" font-size="10.00">[b, a, 128]</text>
</g>
<!-- proj_a&#45;&gt;out_a_s -->
<g id="edge28" class="edge">
<title>proj_a&#45;&gt;out_a_s</title>
<path fill="none" stroke="black" d="M316.3,-837.46C347.06,-833.2 387.03,-827.66 417.63,-823.42"/>
<polygon fill="black" stroke="black" points="417.94,-826.92 427.37,-822.08 416.98,-819.98 417.94,-826.92"/>
<text xml:space="preserve" text-anchor="middle" x="369.75" y="-833.52" font-family="Helvetica,sans-Serif" font-size="8.00">second half</text>
</g>
<!-- out_ap_t -->
<g id="node35" class="node">
<title>out_ap_t</title>
<path fill="#c5cae9" stroke="#1a237e" d="M501.12,-1049C501.12,-1049 428.88,-1049 428.88,-1049 422.88,-1049 416.88,-1043 416.88,-1037 416.88,-1037 416.88,-1025 416.88,-1025 416.88,-1019 422.88,-1013 428.88,-1013 428.88,-1013 501.12,-1013 501.12,-1013 507.12,-1013 513.12,-1019 513.12,-1025 513.12,-1025 513.12,-1037 513.12,-1037 513.12,-1043 507.12,-1049 501.12,-1049"/>
<text xml:space="preserve" text-anchor="middle" x="465" y="-1032.75" font-family="Helvetica,sans-Serif" font-size="10.00">ATOM_PAIR trunk</text>
<text xml:space="preserve" text-anchor="middle" x="465" y="-1021.5" font-family="Helvetica,sans-Serif" font-size="10.00">[b, bl, 32, 128, 16]</text>
</g>
<!-- proj_ap&#45;&gt;out_ap_t -->
<g id="edge29" class="edge">
<title>proj_ap&#45;&gt;out_ap_t</title>
<path fill="none" stroke="black" d="M310.93,-1009.79C338.4,-1013.6 374.74,-1018.63 405.12,-1022.84"/>
<polygon fill="black" stroke="black" points="404.56,-1026.3 414.94,-1024.2 405.52,-1019.36 404.56,-1026.3"/>
<text xml:space="preserve" text-anchor="middle" x="369.75" y="-1022.11" font-family="Helvetica,sans-Serif" font-size="8.00">first half</text>
</g>
<!-- out_ap_s -->
<g id="node36" class="node">
<title>out_ap_s</title>
<path fill="#c5cae9" stroke="#1a237e" d="M502.62,-995C502.62,-995 427.38,-995 427.38,-995 421.38,-995 415.38,-989 415.38,-983 415.38,-983 415.38,-971 415.38,-971 415.38,-965 421.38,-959 427.38,-959 427.38,-959 502.62,-959 502.62,-959 508.62,-959 514.62,-965 514.62,-971 514.62,-971 514.62,-983 514.62,-983 514.62,-989 508.62,-995 502.62,-995"/>
<text xml:space="preserve" text-anchor="middle" x="465" y="-978.75" font-family="Helvetica,sans-Serif" font-size="10.00">ATOM_PAIR struct</text>
<text xml:space="preserve" text-anchor="middle" x="465" y="-967.5" font-family="Helvetica,sans-Serif" font-size="10.00">[b, bl, 32, 128, 16]</text>
</g>
<!-- proj_ap&#45;&gt;out_ap_s -->
<g id="edge30" class="edge">
<title>proj_ap&#45;&gt;out_ap_s</title>
<path fill="none" stroke="black" d="M310.93,-998.21C338,-994.46 373.69,-989.51 403.8,-985.34"/>
<polygon fill="black" stroke="black" points="404.11,-988.83 413.54,-983.99 403.15,-981.9 404.11,-988.83"/>
<text xml:space="preserve" text-anchor="middle" x="369.75" y="-993.52" font-family="Helvetica,sans-Serif" font-size="8.00">second half</text>
</g>
<!-- out_m -->
<g id="node37" class="node">
<title>out_m</title>
<path fill="#c5cae9" stroke="#1a237e" d="M495.5,-1190C495.5,-1190 434.5,-1190 434.5,-1190 428.5,-1190 422.5,-1184 422.5,-1178 422.5,-1178 422.5,-1166 422.5,-1166 422.5,-1160 428.5,-1154 434.5,-1154 434.5,-1154 495.5,-1154 495.5,-1154 501.5,-1154 507.5,-1160 507.5,-1166 507.5,-1166 507.5,-1178 507.5,-1178 507.5,-1184 501.5,-1190 495.5,-1190"/>
<text xml:space="preserve" text-anchor="middle" x="465" y="-1173.75" font-family="Helvetica,sans-Serif" font-size="10.00">MSA</text>
<text xml:space="preserve" text-anchor="middle" x="465" y="-1162.5" font-family="Helvetica,sans-Serif" font-size="10.00">[b, depth, n, 64]</text>
</g>
<!-- proj_m&#45;&gt;out_m -->
<g id="edge31" class="edge">
<title>proj_m&#45;&gt;out_m</title>
<path fill="none" stroke="black" d="M306.24,-1172C335.87,-1172 377.78,-1172 410.96,-1172"/>
<polygon fill="black" stroke="black" points="410.78,-1175.5 420.78,-1172 410.78,-1168.5 410.78,-1175.5"/>
</g>
<!-- out_tl -->
<g id="node38" class="node">
<title>out_tl</title>
<path fill="#c5cae9" stroke="#1a237e" d="M491.75,-1381C491.75,-1381 438.25,-1381 438.25,-1381 432.25,-1381 426.25,-1375 426.25,-1369 426.25,-1369 426.25,-1357 426.25,-1357 426.25,-1351 432.25,-1345 438.25,-1345 438.25,-1345 491.75,-1345 491.75,-1345 497.75,-1345 503.75,-1351 503.75,-1357 503.75,-1357 503.75,-1369 503.75,-1369 503.75,-1375 497.75,-1381 491.75,-1381"/>
<text xml:space="preserve" text-anchor="middle" x="465" y="-1364.75" font-family="Helvetica,sans-Serif" font-size="10.00">TEMPLATES</text>
<text xml:space="preserve" text-anchor="middle" x="465" y="-1353.5" font-family="Helvetica,sans-Serif" font-size="10.00">[b, 4, n, n, 64]</text>
</g>
<!-- proj_tl&#45;&gt;out_tl -->
<g id="edge32" class="edge">
<title>proj_tl&#45;&gt;out_tl</title>
<path fill="none" stroke="black" d="M306.24,-1363C336.96,-1363 380.87,-1363 414.57,-1363"/>
<polygon fill="black" stroke="black" points="414.51,-1366.5 424.51,-1363 414.51,-1359.5 414.51,-1366.5"/>
</g>
<!-- bond_feat -->
<g id="node39" class="node">
<title>bond_feat</title>
<path fill="#fff9c4" stroke="#f57f17" d="M131.12,-453C131.12,-453 50.63,-453 50.63,-453 44.62,-453 38.62,-447 38.62,-441 38.62,-441 38.62,-429 38.62,-429 38.62,-423 44.62,-417 50.62,-417 50.62,-417 131.12,-417 131.12,-417 137.12,-417 143.12,-423 143.12,-429 143.12,-429 143.12,-441 143.12,-441 143.12,-447 137.12,-453 131.12,-453"/>
<text xml:space="preserve" text-anchor="middle" x="90.88" y="-436.75" font-family="Helvetica,sans-Serif" font-size="10.00">TokenBondRestraint</text>
<text xml:space="preserve" text-anchor="middle" x="90.88" y="-425.5" font-family="Helvetica,sans-Serif" font-size="10.00">binary [n, n, 1]</text>
</g>
<!-- bond_proj -->
<g id="node40" class="node">
<title>bond_proj</title>
<path fill="#fff9c4" stroke="#f57f17" d="M315.5,-498.62C315.5,-498.62 220.75,-498.62 220.75,-498.62 214.75,-498.62 208.75,-492.62 208.75,-486.62 208.75,-486.62 208.75,-467.38 208.75,-467.38 208.75,-461.38 214.75,-455.38 220.75,-455.38 220.75,-455.38 315.5,-455.38 315.5,-455.38 321.5,-455.38 327.5,-461.38 327.5,-467.38 327.5,-467.38 327.5,-486.62 327.5,-486.62 327.5,-492.62 321.5,-498.62 315.5,-498.62"/>
<text xml:space="preserve" text-anchor="middle" x="268.12" y="-485.12" font-family="Helvetica,sans-Serif" font-size="10.00">bond_loss_input_proj.pt</text>
<text xml:space="preserve" text-anchor="middle" x="268.12" y="-473.88" font-family="Helvetica,sans-Serif" font-size="10.00">Linear(1, 512, no bias)</text>
<text xml:space="preserve" text-anchor="middle" x="268.12" y="-462.62" font-family="Helvetica,sans-Serif" font-size="10.00">chunk → 256+256</text>
</g>
<!-- bond_feat&#45;&gt;bond_proj -->
<g id="edge33" class="edge">
<title>bond_feat&#45;&gt;bond_proj</title>
<path fill="none" stroke="black" d="M143.51,-447.37C160.4,-451.42 179.45,-455.99 197.44,-460.3"/>
<polygon fill="black" stroke="black" points="196.47,-463.67 207.01,-462.59 198.1,-456.86 196.47,-463.67"/>
</g>
<!-- bond_proj&#45;&gt;out_tp_t -->
<g id="edge34" class="edge">
<title>bond_proj&#45;&gt;out_tp_t</title>
<path fill="none" stroke="#f57f17" d="M327.81,-488.57C348.07,-493.72 370.55,-500.75 390,-510 405.39,-517.32 420.94,-527.88 433.79,-537.64"/>
<polygon fill="#f57f17" stroke="#f57f17" points="431.4,-540.22 441.44,-543.63 435.72,-534.71 431.4,-540.22"/>
<text xml:space="preserve" text-anchor="middle" x="369.75" y="-511.4" font-family="Helvetica,sans-Serif" font-size="8.00">+</text>
</g>
<!-- bond_proj&#45;&gt;out_tp_s -->
<g id="edge35" class="edge">
<title>bond_proj&#45;&gt;out_tp_s</title>
<path fill="none" stroke="#f57f17" d="M327.9,-476C347.65,-476.06 369.8,-476.56 390,-478 393.38,-478.24 396.85,-478.54 400.34,-478.88"/>
<polygon fill="#f57f17" stroke="#f57f17" points="399.71,-482.33 410.03,-479.92 400.46,-475.37 399.71,-482.33"/>
<text xml:space="preserve" text-anchor="middle" x="369.75" y="-479.4" font-family="Helvetica,sans-Serif" font-size="8.00">+</text>
</g>
</g>
</svg>
