<?xml version="1.0" encoding="UTF-8" standalone="no"?>
<!DOCTYPE svg PUBLIC "-//W3C//DTD SVG 1.1//EN"
 "http://www.w3.org/Graphics/SVG/1.1/DTD/svg11.dtd">
<!-- Generated by graphviz version 14.1.4 (20260321.0153)
 -->
<!-- Title: token_input_embedder Pages: 1 -->
<svg width="764pt" height="1265pt"
 viewBox="0.00 0.00 764.00 1265.00" xmlns="http://www.w3.org/2000/svg" xmlns:xlink="http://www.w3.org/1999/xlink">
<g id="graph0" class="graph" transform="scale(1 1) rotate(0) translate(28.8 1236.55)">
<title>token_input_embedder</title>
<polygon fill="white" stroke="none" points="-28.8,28.8 -28.8,-1236.55 735.67,-1236.55 735.67,28.8 -28.8,28.8"/>
<g id="clust1" class="cluster">
<title>cluster_pair_update</title>
<path fill="#fff3e0" stroke="#e65100" d="M152.62,-860.5C152.62,-860.5 503.62,-860.5 503.62,-860.5 509.62,-860.5 515.62,-866.5 515.62,-872.5 515.62,-872.5 515.62,-1065.75 515.62,-1065.75 515.62,-1071.75 509.62,-1077.75 503.62,-1077.75 503.62,-1077.75 152.62,-1077.75 152.62,-1077.75 146.62,-1077.75 140.62,-1071.75 140.62,-1065.75 140.62,-1065.75 140.62,-872.5 140.62,-872.5 140.62,-866.5 146.62,-860.5 152.62,-860.5"/>
<text xml:space="preserve" text-anchor="middle" x="214.25" y="-1064.25" font-family="Helvetica,sans-Serif" font-size="10.00">Pair Update Block (runs once)</text>
</g>
<g id="clust2" class="cluster">
<title>cluster_attn</title>
<path fill="#e8f5e9" stroke="#2e7d32" d="M318.62,-586.75C318.62,-586.75 502.62,-586.75 502.62,-586.75 508.62,-586.75 514.62,-592.75 514.62,-598.75 514.62,-598.75 514.62,-831.5 514.62,-831.5 514.62,-837.5 508.62,-843.5 502.62,-843.5 502.62,-843.5 318.62,-843.5 318.62,-843.5 312.62,-843.5 306.62,-837.5 306.62,-831.5 306.62,-831.5 306.62,-598.75 306.62,-598.75 306.62,-592.75 312.62,-586.75 318.62,-586.75"/>
<text xml:space="preserve" text-anchor="middle" x="399.38" y="-830" font-family="Helvetica,sans-Serif" font-size="10.00">Local Diffusion Transformer &#160;×3 blocks</text>
</g>
<!-- in_tok -->
<g id="node1" class="node">
<title>in_tok</title>
<path fill="#e3f2fd" stroke="#1565c0" d="M287.12,-466.5C287.12,-466.5 214.12,-466.5 214.12,-466.5 208.12,-466.5 202.12,-460.5 202.12,-454.5 202.12,-454.5 202.12,-442.5 202.12,-442.5 202.12,-436.5 208.12,-430.5 214.12,-430.5 214.12,-430.5 287.12,-430.5 287.12,-430.5 293.12,-430.5 299.12,-436.5 299.12,-442.5 299.12,-442.5 299.12,-454.5 299.12,-454.5 299.12,-460.5 293.12,-466.5 287.12,-466.5"/>
<text xml:space="preserve" text-anchor="middle" x="250.62" y="-450.25" font-family="Helvetica,sans-Serif" font-size="10.00">token_single_input</text>
<text xml:space="preserve" text-anchor="middle" x="250.62" y="-439" font-family="Helvetica,sans-Serif" font-size="10.00">[b, n_tokens, 384]</text>
</g>
<!-- concat -->
<g id="node14" class="node">
<title>concat</title>
<path fill="#ce93d8" stroke="#6a1b9a" d="M342.38,-388.25C342.38,-388.25 186.88,-388.25 186.88,-388.25 180.88,-388.25 174.88,-382.25 174.88,-376.25 174.88,-376.25 174.88,-357 174.88,-357 174.88,-351 180.88,-345 186.88,-345 186.88,-345 342.38,-345 342.38,-345 348.38,-345 354.38,-351 354.38,-357 354.38,-357 354.38,-376.25 354.38,-376.25 354.38,-382.25 348.38,-388.25 342.38,-388.25"/>
<text xml:space="preserve" text-anchor="middle" x="264.62" y="-374.75" font-family="Helvetica,sans-Serif" font-size="10.00">Concatenate</text>
<text xml:space="preserve" text-anchor="middle" x="264.62" y="-363.5" font-family="Helvetica,sans-Serif" font-size="10.00">[token_single (384) ‖ atom_agg (384)]</text>
<text xml:space="preserve" text-anchor="middle" x="264.62" y="-352.25" font-family="Helvetica,sans-Serif" font-size="10.00">→ [b, n_tokens, 768]</text>
</g>
<!-- in_tok&#45;&gt;concat -->
<g id="edge14" class="edge">
<title>in_tok&#45;&gt;concat</title>
<path fill="none" stroke="black" d="M253.66,-430.17C255.22,-421.3 257.16,-410.22 258.98,-399.85"/>
<polygon fill="black" stroke="black" points="262.41,-400.56 260.69,-390.1 255.51,-399.35 262.41,-400.56"/>
</g>
<!-- in_atom -->
<g id="node2" class="node">
<title>in_atom</title>
<path fill="#e3f2fd" stroke="#1565c0" d="M581,-1207.75C581,-1207.75 510.25,-1207.75 510.25,-1207.75 504.25,-1207.75 498.25,-1201.75 498.25,-1195.75 498.25,-1195.75 498.25,-1183.75 498.25,-1183.75 498.25,-1177.75 504.25,-1171.75 510.25,-1171.75 510.25,-1171.75 581,-1171.75 581,-1171.75 587,-1171.75 593,-1177.75 593,-1183.75 593,-1183.75 593,-1195.75 593,-1195.75 593,-1201.75 587,-1207.75 581,-1207.75"/>
<text xml:space="preserve" text-anchor="middle" x="545.62" y="-1191.5" font-family="Helvetica,sans-Serif" font-size="10.00">atom_single_input</text>
<text xml:space="preserve" text-anchor="middle" x="545.62" y="-1180.25" font-family="Helvetica,sans-Serif" font-size="10.00">[b, n_atoms, 128]</text>
</g>
<!-- cond -->
<g id="node4" class="node">
<title>cond</title>
<path fill="#fff9c4" stroke="#f9a825" d="M451.5,-1138.75C451.5,-1138.75 389.75,-1138.75 389.75,-1138.75 383.75,-1138.75 377.75,-1132.75 377.75,-1126.75 377.75,-1126.75 377.75,-1114.75 377.75,-1114.75 377.75,-1108.75 383.75,-1102.75 389.75,-1102.75 389.75,-1102.75 451.5,-1102.75 451.5,-1102.75 457.5,-1102.75 463.5,-1108.75 463.5,-1114.75 463.5,-1114.75 463.5,-1126.75 463.5,-1126.75 463.5,-1132.75 457.5,-1138.75 451.5,-1138.75"/>
<text xml:space="preserve" text-anchor="middle" x="420.62" y="-1122.5" font-family="Helvetica,sans-Serif" font-size="10.00">to_atom_cond</text>
<text xml:space="preserve" text-anchor="middle" x="420.62" y="-1111.25" font-family="Helvetica,sans-Serif" font-size="10.00">Linear(128, 128)</text>
</g>
<!-- in_atom&#45;&gt;cond -->
<g id="edge1" class="edge">
<title>in_atom&#45;&gt;cond</title>
<path fill="none" stroke="black" d="M513.11,-1171.32C497.77,-1163.1 479.28,-1153.19 462.88,-1144.4"/>
<polygon fill="black" stroke="black" points="464.78,-1141.45 454.31,-1139.81 461.47,-1147.62 464.78,-1141.45"/>
</g>
<!-- attn_block -->
<g id="node10" class="node">
<title>attn_block</title>
<path fill="#a5d6a7" stroke="#2e7d32" d="M485.38,-728C485.38,-728 365.88,-728 365.88,-728 359.88,-728 353.88,-722 353.88,-716 353.88,-716 353.88,-687 353.88,-687 353.88,-681 359.88,-675 365.88,-675 365.88,-675 485.38,-675 485.38,-675 491.38,-675 497.38,-681 497.38,-687 497.38,-687 497.38,-716 497.38,-716 497.38,-722 491.38,-728 485.38,-728"/>
<text xml:space="preserve" text-anchor="middle" x="425.62" y="-714.5" font-family="Helvetica,sans-Serif" font-size="10.00">LocalAttentionPairBiasBlock</text>
<text xml:space="preserve" text-anchor="middle" x="425.62" y="-703.25" font-family="Helvetica,sans-Serif" font-size="10.00">4 heads, 32 head_dim</text>
<text xml:space="preserve" text-anchor="middle" x="425.62" y="-692" font-family="Helvetica,sans-Serif" font-size="10.00">AdaLN conditioning</text>
<text xml:space="preserve" text-anchor="middle" x="425.62" y="-680.75" font-family="Helvetica,sans-Serif" font-size="10.00">Q block=32, KV window=128</text>
</g>
<!-- in_atom&#45;&gt;attn_block -->
<g id="edge9" class="edge">
<title>in_atom&#45;&gt;attn_block</title>
<path fill="none" stroke="black" d="M593.26,-1182.77C628.94,-1175.31 671.62,-1158.67 671.62,-1121.75 671.62,-1121.75 671.62,-1121.75 671.62,-789.62 671.62,-754.31 580.38,-729.69 509.03,-715.84"/>
<polygon fill="black" stroke="black" points="509.73,-712.41 499.26,-713.99 508.43,-719.29 509.73,-712.41"/>
<text xml:space="preserve" text-anchor="middle" x="689.25" y="-956.4" font-family="Helvetica,sans-Serif" font-size="8.00">atom repr</text>
</g>
<!-- in_pair -->
<g id="node3" class="node">
<title>in_pair</title>
<path fill="#e3f2fd" stroke="#1565c0" d="M625.12,-1046.5C625.12,-1046.5 540.12,-1046.5 540.12,-1046.5 534.12,-1046.5 528.12,-1040.5 528.12,-1034.5 528.12,-1034.5 528.12,-1022.5 528.12,-1022.5 528.12,-1016.5 534.12,-1010.5 540.12,-1010.5 540.12,-1010.5 625.12,-1010.5 625.12,-1010.5 631.12,-1010.5 637.12,-1016.5 637.12,-1022.5 637.12,-1022.5 637.12,-1034.5 637.12,-1034.5 637.12,-1040.5 631.12,-1046.5 625.12,-1046.5"/>
<text xml:space="preserve" text-anchor="middle" x="582.62" y="-1030.25" font-family="Helvetica,sans-Serif" font-size="10.00">block_atom_pair_feat</text>
<text xml:space="preserve" text-anchor="middle" x="582.62" y="-1019" font-family="Helvetica,sans-Serif" font-size="10.00">[b, bl, 32, 128, 16]</text>
</g>
<!-- outer_add -->
<g id="node7" class="node">
<title>outer_add</title>
<path fill="#ffcc80" stroke="#e65100" d="M484.12,-977.5C484.12,-977.5 351.12,-977.5 351.12,-977.5 345.12,-977.5 339.12,-971.5 339.12,-965.5 339.12,-965.5 339.12,-953.5 339.12,-953.5 339.12,-947.5 345.12,-941.5 351.12,-941.5 351.12,-941.5 484.12,-941.5 484.12,-941.5 490.12,-941.5 496.12,-947.5 496.12,-953.5 496.12,-953.5 496.12,-965.5 496.12,-965.5 496.12,-971.5 490.12,-977.5 484.12,-977.5"/>
<text xml:space="preserve" text-anchor="middle" x="417.62" y="-961.25" font-family="Helvetica,sans-Serif" font-size="10.00">pair += h[:,None,:] + w[:,:,None]</text>
<text xml:space="preserve" text-anchor="middle" x="417.62" y="-950" font-family="Helvetica,sans-Serif" font-size="10.00">outer&#45;sum addition</text>
</g>
<!-- in_pair&#45;&gt;outer_add -->
<g id="edge4" class="edge">
<title>in_pair&#45;&gt;outer_add</title>
<path fill="none" stroke="black" d="M539.7,-1010.07C518.78,-1001.57 493.4,-991.27 471.22,-982.26"/>
<polygon fill="black" stroke="black" points="472.6,-979.05 462.02,-978.53 469.97,-985.53 472.6,-979.05"/>
</g>
<!-- proj_h -->
<g id="node5" class="node">
<title>proj_h</title>
<path fill="#ffe0b2" stroke="#e65100" d="M304.12,-1046.5C304.12,-1046.5 165.12,-1046.5 165.12,-1046.5 159.12,-1046.5 153.12,-1040.5 153.12,-1034.5 153.12,-1034.5 153.12,-1022.5 153.12,-1022.5 153.12,-1016.5 159.12,-1010.5 165.12,-1010.5 165.12,-1010.5 304.12,-1010.5 304.12,-1010.5 310.12,-1010.5 316.12,-1016.5 316.12,-1022.5 316.12,-1022.5 316.12,-1034.5 316.12,-1034.5 316.12,-1040.5 310.12,-1046.5 304.12,-1046.5"/>
<text xml:space="preserve" text-anchor="middle" x="234.62" y="-1031.75" font-family="Helvetica,sans-Serif" font-size="10.00">proj_h: LN(128) → Linear(128, 16)</text>
<text xml:space="preserve" text-anchor="middle" x="234.62" y="-1019" font-family="Helvetica,sans-Serif" font-size="10.00">query atoms → [b, bl, 32, 16]</text>
</g>
<!-- cond&#45;&gt;proj_h -->
<g id="edge2" class="edge">
<title>cond&#45;&gt;proj_h</title>
<path fill="none" stroke="black" d="M380.11,-1102.32C363.44,-1094.97 343.99,-1086.17 326.62,-1077.75 310.12,-1069.74 292.2,-1060.48 276.61,-1052.23"/>
<polygon fill="black" stroke="black" points="278.54,-1049.29 268.07,-1047.68 275.25,-1055.47 278.54,-1049.29"/>
</g>
<!-- proj_w -->
<g id="node6" class="node">
<title>proj_w</title>
<path fill="#ffe0b2" stroke="#e65100" d="M491.25,-1046.5C491.25,-1046.5 350,-1046.5 350,-1046.5 344,-1046.5 338,-1040.5 338,-1034.5 338,-1034.5 338,-1022.5 338,-1022.5 338,-1016.5 344,-1010.5 350,-1010.5 350,-1010.5 491.25,-1010.5 491.25,-1010.5 497.25,-1010.5 503.25,-1016.5 503.25,-1022.5 503.25,-1022.5 503.25,-1034.5 503.25,-1034.5 503.25,-1040.5 497.25,-1046.5 491.25,-1046.5"/>
<text xml:space="preserve" text-anchor="middle" x="420.62" y="-1031.75" font-family="Helvetica,sans-Serif" font-size="10.00">proj_w: LN(128) → Linear(128, 16)</text>
<text xml:space="preserve" text-anchor="middle" x="420.62" y="-1019" font-family="Helvetica,sans-Serif" font-size="10.00">key atoms → [b, bl, 128, 16]</text>
</g>
<!-- cond&#45;&gt;proj_w -->
<g id="edge3" class="edge">
<title>cond&#45;&gt;proj_w</title>
<path fill="none" stroke="black" d="M420.62,-1102.35C420.62,-1089.86 420.62,-1072.76 420.62,-1058.26"/>
<polygon fill="black" stroke="black" points="424.13,-1058.36 420.63,-1048.36 417.13,-1058.36 424.13,-1058.36"/>
</g>
<!-- proj_h&#45;&gt;outer_add -->
<g id="edge5" class="edge">
<title>proj_h&#45;&gt;outer_add</title>
<path fill="none" stroke="black" d="M282.23,-1010.07C305.75,-1001.46 334.35,-990.99 359.19,-981.89"/>
<polygon fill="black" stroke="black" points="360.33,-985.2 368.52,-978.48 357.93,-978.63 360.33,-985.2"/>
</g>
<!-- proj_w&#45;&gt;outer_add -->
<g id="edge6" class="edge">
<title>proj_w&#45;&gt;outer_add</title>
<path fill="none" stroke="black" d="M419.85,-1010.25C419.57,-1003.89 419.24,-996.5 418.92,-989.39"/>
<polygon fill="black" stroke="black" points="422.42,-989.27 418.47,-979.44 415.42,-989.59 422.42,-989.27"/>
</g>
<!-- mlp -->
<g id="node8" class="node">
<title>mlp</title>
<path fill="#ffe0b2" stroke="#e65100" d="M491.38,-908.5C491.38,-908.5 329.88,-908.5 329.88,-908.5 323.88,-908.5 317.88,-902.5 317.88,-896.5 317.88,-896.5 317.88,-884.5 317.88,-884.5 317.88,-878.5 323.88,-872.5 329.88,-872.5 329.88,-872.5 491.38,-872.5 491.38,-872.5 497.38,-872.5 503.38,-878.5 503.38,-884.5 503.38,-884.5 503.38,-896.5 503.38,-896.5 503.38,-902.5 497.38,-908.5 491.38,-908.5"/>
<text xml:space="preserve" text-anchor="middle" x="410.62" y="-893" font-family="Helvetica,sans-Serif" font-size="10.00">pair += MLP(pair)</text>
<text xml:space="preserve" text-anchor="middle" x="410.62" y="-881.75" font-family="Helvetica,sans-Serif" font-size="10.00">Linear(16,16) → ReLU → Linear(16,16)</text>
</g>
<!-- outer_add&#45;&gt;mlp -->
<g id="edge7" class="edge">
<title>outer_add&#45;&gt;mlp</title>
<path fill="none" stroke="black" d="M415.82,-941.25C415.15,-934.81 414.37,-927.32 413.62,-920.13"/>
<polygon fill="black" stroke="black" points="417.12,-920.02 412.6,-910.43 410.16,-920.74 417.12,-920.02"/>
</g>
<!-- pair_bias -->
<g id="node9" class="node">
<title>pair_bias</title>
<path fill="#c8e6c9" stroke="#2e7d32" d="M491,-812.25C491,-812.25 330.25,-812.25 330.25,-812.25 324.25,-812.25 318.25,-806.25 318.25,-800.25 318.25,-800.25 318.25,-781 318.25,-781 318.25,-775 324.25,-769 330.25,-769 330.25,-769 491,-769 491,-769 497,-769 503,-775 503,-781 503,-781 503,-800.25 503,-800.25 503,-806.25 497,-812.25 491,-812.25"/>
<text xml:space="preserve" text-anchor="middle" x="410.62" y="-798.75" font-family="Helvetica,sans-Serif" font-size="10.00">blocked_pairs2blocked_bias</text>
<text xml:space="preserve" text-anchor="middle" x="410.62" y="-787.5" font-family="Helvetica,sans-Serif" font-size="10.00">LN(16) → Linear(16, 12)</text>
<text xml:space="preserve" text-anchor="middle" x="410.62" y="-774.75" font-family="Helvetica,sans-Serif" font-size="10.00">3 blocks × 4 heads = 12 bias channels</text>
</g>
<!-- mlp&#45;&gt;pair_bias -->
<g id="edge8" class="edge">
<title>mlp&#45;&gt;pair_bias</title>
<path fill="none" stroke="black" d="M410.62,-872C410.62,-858.64 410.62,-839.85 410.62,-823.8"/>
<polygon fill="black" stroke="black" points="414.13,-824.23 410.63,-814.23 407.13,-824.23 414.13,-824.23"/>
</g>
<!-- pair_bias&#45;&gt;attn_block -->
<g id="edge10" class="edge">
<title>pair_bias&#45;&gt;attn_block</title>
<path fill="none" stroke="black" d="M414.26,-768.53C415.75,-759.85 417.53,-749.52 419.23,-739.64"/>
<polygon fill="black" stroke="black" points="422.67,-740.32 420.91,-729.87 415.77,-739.13 422.67,-740.32"/>
<text xml:space="preserve" text-anchor="middle" x="442.88" y="-745.4" font-family="Helvetica,sans-Serif" font-size="8.00">per&#45;head bias</text>
</g>
<!-- trans_block -->
<g id="node11" class="node">
<title>trans_block</title>
<path fill="#c8e6c9" stroke="#2e7d32" d="M481.25,-642C481.25,-642 370,-642 370,-642 364,-642 358,-636 358,-630 358,-630 358,-610.75 358,-610.75 358,-604.75 364,-598.75 370,-598.75 370,-598.75 481.25,-598.75 481.25,-598.75 487.25,-598.75 493.25,-604.75 493.25,-610.75 493.25,-610.75 493.25,-630 493.25,-630 493.25,-636 487.25,-642 481.25,-642"/>
<text xml:space="preserve" text-anchor="middle" x="425.62" y="-628.5" font-family="Helvetica,sans-Serif" font-size="10.00">ConditionedTransitionBlock</text>
<text xml:space="preserve" text-anchor="middle" x="425.62" y="-617.25" font-family="Helvetica,sans-Serif" font-size="10.00">AdaLN → SwiGLU (4×)</text>
<text xml:space="preserve" text-anchor="middle" x="425.62" y="-604.5" font-family="Helvetica,sans-Serif" font-size="10.00">Sigmoid gate (bias init &#45;2)</text>
</g>
<!-- attn_block&#45;&gt;trans_block -->
<g id="edge11" class="edge">
<title>attn_block&#45;&gt;trans_block</title>
<path fill="none" stroke="black" d="M425.62,-674.59C425.62,-667.89 425.62,-660.6 425.62,-653.62"/>
<polygon fill="black" stroke="black" points="429.13,-653.85 425.63,-643.85 422.13,-653.85 429.13,-653.85"/>
</g>
<!-- to_tok -->
<g id="node12" class="node">
<title>to_tok</title>
<path fill="#e1bee7" stroke="#7b1fa2" d="M475.25,-544.75C475.25,-544.75 376,-544.75 376,-544.75 370,-544.75 364,-538.75 364,-532.75 364,-532.75 364,-520.75 364,-520.75 364,-514.75 370,-508.75 376,-508.75 376,-508.75 475.25,-508.75 475.25,-508.75 481.25,-508.75 487.25,-514.75 487.25,-520.75 487.25,-520.75 487.25,-532.75 487.25,-532.75 487.25,-538.75 481.25,-544.75 475.25,-544.75"/>
<text xml:space="preserve" text-anchor="middle" x="425.62" y="-528.5" font-family="Helvetica,sans-Serif" font-size="10.00">to_token_single</text>
<text xml:space="preserve" text-anchor="middle" x="425.62" y="-517.25" font-family="Helvetica,sans-Serif" font-size="10.00">Linear(128, 384, no bias)</text>
</g>
<!-- trans_block&#45;&gt;to_tok -->
<g id="edge12" class="edge">
<title>trans_block&#45;&gt;to_tok</title>
<path fill="none" stroke="black" d="M425.62,-598.58C425.62,-586.09 425.62,-570.01 425.62,-556.33"/>
<polygon fill="black" stroke="black" points="429.13,-556.59 425.63,-546.59 422.13,-556.59 429.13,-556.59"/>
<text xml:space="preserve" text-anchor="middle" x="456.75" y="-571.15" font-family="Helvetica,sans-Serif" font-size="8.00">atom repr</text>
<text xml:space="preserve" text-anchor="middle" x="456.75" y="-562.15" font-family="Helvetica,sans-Serif" font-size="8.00">[b, n_atoms, 128]</text>
</g>
<!-- agg -->
<g id="node13" class="node">
<title>agg</title>
<path fill="#e1bee7" stroke="#7b1fa2" d="M518,-475.75C518,-475.75 333.25,-475.75 333.25,-475.75 327.25,-475.75 321.25,-469.75 321.25,-463.75 321.25,-463.75 321.25,-433.25 321.25,-433.25 321.25,-427.25 327.25,-421.25 333.25,-421.25 333.25,-421.25 518,-421.25 518,-421.25 524,-421.25 530,-427.25 530,-433.25 530,-433.25 530,-463.75 530,-463.75 530,-469.75 524,-475.75 518,-475.75"/>
<text xml:space="preserve" text-anchor="middle" x="425.62" y="-462.25" font-family="Helvetica,sans-Serif" font-size="10.00">Masked Mean Aggregation</text>
<text xml:space="preserve" text-anchor="middle" x="425.62" y="-451" font-family="Helvetica,sans-Serif" font-size="10.00">scatter_reduce(&quot;sum&quot;) by atom_token_index</text>
<text xml:space="preserve" text-anchor="middle" x="425.62" y="-439.75" font-family="Helvetica,sans-Serif" font-size="10.00">÷ count per token</text>
<text xml:space="preserve" text-anchor="middle" x="425.62" y="-428.5" font-family="Helvetica,sans-Serif" font-size="10.00">→ [b, n_tokens, 384]</text>
</g>
<!-- to_tok&#45;&gt;agg -->
<g id="edge13" class="edge">
<title>to_tok&#45;&gt;agg</title>
<path fill="none" stroke="black" d="M425.62,-508.45C425.62,-502.16 425.62,-494.79 425.62,-487.42"/>
<polygon fill="black" stroke="black" points="429.13,-487.53 425.63,-477.53 422.13,-487.53 429.13,-487.53"/>
</g>
<!-- agg&#45;&gt;concat -->
<g id="edge15" class="edge">
<title>agg&#45;&gt;concat</title>
<path fill="none" stroke="black" d="M372.01,-420.9C354.35,-412.14 334.74,-402.41 317.15,-393.68"/>
<polygon fill="black" stroke="black" points="318.94,-390.66 308.42,-389.35 315.82,-396.93 318.94,-390.66"/>
</g>
<!-- proj_trunk -->
<g id="node15" class="node">
<title>proj_trunk</title>
<path fill="#c5cae9" stroke="#283593" d="M235.25,-312C235.25,-312 136,-312 136,-312 130,-312 124,-306 124,-300 124,-300 124,-288 124,-288 124,-282 130,-276 136,-276 136,-276 235.25,-276 235.25,-276 241.25,-276 247.25,-282 247.25,-288 247.25,-288 247.25,-300 247.25,-300 247.25,-306 241.25,-312 235.25,-312"/>
<text xml:space="preserve" text-anchor="middle" x="185.62" y="-296.5" font-family="Helvetica,sans-Serif" font-size="10.00">Linear(768, 384, no bias)</text>
<text xml:space="preserve" text-anchor="middle" x="185.62" y="-285.25" font-family="Helvetica,sans-Serif" font-size="10.00">→ single_initial</text>
</g>
<!-- concat&#45;&gt;proj_trunk -->
<g id="edge16" class="edge">
<title>concat&#45;&gt;proj_trunk</title>
<path fill="none" stroke="black" d="M241.35,-344.82C232.59,-336.99 222.54,-328 213.41,-319.84"/>
<polygon fill="black" stroke="black" points="215.92,-317.39 206.14,-313.34 211.26,-322.61 215.92,-317.39"/>
</g>
<!-- proj_struct -->
<g id="node16" class="node">
<title>proj_struct</title>
<path fill="#c5cae9" stroke="#283593" d="M387.25,-312C387.25,-312 288,-312 288,-312 282,-312 276,-306 276,-300 276,-300 276,-288 276,-288 276,-282 282,-276 288,-276 288,-276 387.25,-276 387.25,-276 393.25,-276 399.25,-282 399.25,-288 399.25,-288 399.25,-300 399.25,-300 399.25,-306 393.25,-312 387.25,-312"/>
<text xml:space="preserve" text-anchor="middle" x="337.62" y="-296.5" font-family="Helvetica,sans-Serif" font-size="10.00">Linear(768, 384, no bias)</text>
<text xml:space="preserve" text-anchor="middle" x="337.62" y="-285.25" font-family="Helvetica,sans-Serif" font-size="10.00">→ single_structure</text>
</g>
<!-- concat&#45;&gt;proj_struct -->
<g id="edge17" class="edge">
<title>concat&#45;&gt;proj_struct</title>
<path fill="none" stroke="black" d="M286.13,-344.82C294.21,-337 303.47,-328.05 311.89,-319.9"/>
<polygon fill="black" stroke="black" points="314.11,-322.62 318.87,-313.15 309.25,-317.59 314.11,-322.62"/>
</g>
<!-- s2p -->
<g id="node17" class="node">
<title>s2p</title>
<path fill="#b2dfdb" stroke="#00695c" d="M268.25,-243C268.25,-243 103,-243 103,-243 97,-243 91,-237 91,-231 91,-231 91,-219 91,-219 91,-213 97,-207 103,-207 103,-207 268.25,-207 268.25,-207 274.25,-207 280.25,-213 280.25,-219 280.25,-219 280.25,-231 280.25,-231 280.25,-237 274.25,-243 268.25,-243"/>
<text xml:space="preserve" text-anchor="middle" x="185.62" y="-227.5" font-family="Helvetica,sans-Serif" font-size="10.00">single_to_pair: Linear(384, 512, no bias)</text>
<text xml:space="preserve" text-anchor="middle" x="185.62" y="-216.25" font-family="Helvetica,sans-Serif" font-size="10.00">chunk → half_row[256] + half_col[256]</text>
</g>
<!-- proj_trunk&#45;&gt;s2p -->
<g id="edge20" class="edge">
<title>proj_trunk&#45;&gt;s2p</title>
<path fill="none" stroke="black" d="M185.62,-275.75C185.62,-269.39 185.62,-262 185.62,-254.89"/>
<polygon fill="black" stroke="black" points="189.13,-254.94 185.63,-244.94 182.13,-254.94 189.13,-254.94"/>
</g>
<!-- out_si -->
<g id="node20" class="node">
<title>out_si</title>
<path fill="#f5f5f5" stroke="#424242" d="M57.25,-243C57.25,-243 12,-243 12,-243 6,-243 0,-237 0,-231 0,-231 0,-219 0,-219 0,-213 6,-207 12,-207 12,-207 57.25,-207 57.25,-207 63.25,-207 69.25,-213 69.25,-219 69.25,-219 69.25,-231 69.25,-231 69.25,-237 63.25,-243 57.25,-243"/>
<text xml:space="preserve" text-anchor="middle" x="34.62" y="-226.75" font-family="Helvetica,sans-Serif" font-size="10.00">single_initial</text>
<text xml:space="preserve" text-anchor="middle" x="34.62" y="-215.5" font-family="Helvetica,sans-Serif" font-size="10.00">[b, n, 384]</text>
</g>
<!-- proj_trunk&#45;&gt;out_si -->
<g id="edge18" class="edge">
<title>proj_trunk&#45;&gt;out_si</title>
<path fill="none" stroke="black" d="M146.35,-275.57C126.01,-266.55 101.09,-255.49 79.94,-246.11"/>
<polygon fill="black" stroke="black" points="81.53,-242.98 70.97,-242.13 78.69,-249.38 81.53,-242.98"/>
</g>
<!-- out_ss -->
<g id="node21" class="node">
<title>out_ss</title>
<path fill="#f5f5f5" stroke="#424242" d="M375.12,-243C375.12,-243 314.12,-243 314.12,-243 308.12,-243 302.12,-237 302.12,-231 302.12,-231 302.12,-219 302.12,-219 302.12,-213 308.12,-207 314.12,-207 314.12,-207 375.12,-207 375.12,-207 381.12,-207 387.12,-213 387.12,-219 387.12,-219 387.12,-231 387.12,-231 387.12,-237 381.12,-243 375.12,-243"/>
<text xml:space="preserve" text-anchor="middle" x="344.62" y="-226.75" font-family="Helvetica,sans-Serif" font-size="10.00">single_structure</text>
<text xml:space="preserve" text-anchor="middle" x="344.62" y="-215.5" font-family="Helvetica,sans-Serif" font-size="10.00">[b, n, 384]</text>
</g>
<!-- proj_struct&#45;&gt;out_ss -->
<g id="edge19" class="edge">
<title>proj_struct&#45;&gt;out_ss</title>
<path fill="none" stroke="black" d="M339.43,-275.75C340.1,-269.31 340.88,-261.82 341.63,-254.63"/>
<polygon fill="black" stroke="black" points="345.09,-255.24 342.65,-244.93 338.13,-254.52 345.09,-255.24"/>
</g>
<!-- pair_out -->
<g id="node18" class="node">
<title>pair_out</title>
<path fill="#b2dfdb" stroke="#00695c" d="M235.62,-174C235.62,-174 135.62,-174 135.62,-174 129.62,-174 123.62,-168 123.62,-162 123.62,-162 123.62,-150 123.62,-150 123.62,-144 129.62,-138 135.62,-138 135.62,-138 235.62,-138 235.62,-138 241.62,-138 247.62,-144 247.62,-150 247.62,-150 247.62,-162 247.62,-162 247.62,-168 241.62,-174 235.62,-174"/>
<text xml:space="preserve" text-anchor="middle" x="185.62" y="-157.75" font-family="Helvetica,sans-Serif" font-size="10.00">pair[i,j] = pair_input[i,j]</text>
<text xml:space="preserve" text-anchor="middle" x="185.62" y="-146.5" font-family="Helvetica,sans-Serif" font-size="10.00">+ half_row[i] + half_col[j]</text>
</g>
<!-- s2p&#45;&gt;pair_out -->
<g id="edge21" class="edge">
<title>s2p&#45;&gt;pair_out</title>
<path fill="none" stroke="black" d="M185.62,-206.75C185.62,-200.39 185.62,-193 185.62,-185.89"/>
<polygon fill="black" stroke="black" points="189.13,-185.94 185.63,-175.94 182.13,-185.94 189.13,-185.94"/>
</g>
<!-- pair_proj -->
<g id="node19" class="node">
<title>pair_proj</title>
<path fill="#c5cae9" stroke="#283593" d="M235.25,-105C235.25,-105 136,-105 136,-105 130,-105 124,-99 124,-93 124,-93 124,-81 124,-81 124,-75 130,-69 136,-69 136,-69 235.25,-69 235.25,-69 241.25,-69 247.25,-75 247.25,-81 247.25,-81 247.25,-93 247.25,-93 247.25,-99 241.25,-105 235.25,-105"/>
<text xml:space="preserve" text-anchor="middle" x="185.62" y="-89.5" font-family="Helvetica,sans-Serif" font-size="10.00">Linear(256, 256, no bias)</text>
<text xml:space="preserve" text-anchor="middle" x="185.62" y="-78.25" font-family="Helvetica,sans-Serif" font-size="10.00">→ pair_initial</text>
</g>
<!-- pair_out&#45;&gt;pair_proj -->
<g id="edge22" class="edge">
<title>pair_out&#45;&gt;pair_proj</title>
<path fill="none" stroke="black" d="M185.62,-137.75C185.62,-131.39 185.62,-124 185.62,-116.89"/>
<polygon fill="black" stroke="black" points="189.13,-116.94 185.63,-106.94 182.13,-116.94 189.13,-116.94"/>
</g>
<!-- out_pi -->
<g id="node22" class="node">
<title>out_pi</title>
<path fill="#f5f5f5" stroke="#424242" d="M209.38,-36C209.38,-36 161.88,-36 161.88,-36 155.88,-36 149.88,-30 149.88,-24 149.88,-24 149.88,-12 149.88,-12 149.88,-6 155.88,0 161.88,0 161.88,0 209.38,0 209.38,0 215.38,0 221.38,-6 221.38,-12 221.38,-12 221.38,-24 221.38,-24 221.38,-30 215.38,-36 209.38,-36"/>
<text xml:space="preserve" text-anchor="middle" x="185.62" y="-19.75" font-family="Helvetica,sans-Serif" font-size="10.00">pair_initial</text>
<text xml:space="preserve" text-anchor="middle" x="185.62" y="-8.5" font-family="Helvetica,sans-Serif" font-size="10.00">[b, n, n, 256]</text>
</g>
<!-- pair_proj&#45;&gt;out_pi -->
<g id="edge23" class="edge">
<title>pair_proj&#45;&gt;out_pi</title>
<path fill="none" stroke="black" d="M185.62,-68.75C185.62,-62.39 185.62,-55 185.62,-47.89"/>
<polygon fill="black" stroke="black" points="189.13,-47.94 185.63,-37.94 182.13,-47.94 189.13,-47.94"/>
</g>
</g>
</svg>
