<?xml version="1.0" encoding="UTF-8" standalone="no"?>
<!DOCTYPE svg PUBLIC "-//W3C//DTD SVG 1.1//EN"
 "http://www.w3.org/Graphics/SVG/1.1/DTD/svg11.dtd">
<!-- Generated by graphviz version 14.1.4 (20260321.0153)
 -->
<!-- Title: trunk Pages: 1 -->
<svg width="685pt" height="1584pt"
 viewBox="0.00 0.00 685.00 1584.00" xmlns="http://www.w3.org/2000/svg" xmlns:xlink="http://www.w3.org/1999/xlink">
<g id="graph0" class="graph" transform="scale(1 1) rotate(0) translate(28.8 1555.05)">
<title>trunk</title>
<polygon fill="white" stroke="none" points="-28.8,28.8 -28.8,-1555.05 656.3,-1555.05 656.3,28.8 -28.8,28.8"/>
<g id="clust1" class="cluster">
<title>cluster_recycle</title>
<path fill="white" stroke="#888888" stroke-dasharray="5,2" d="M182.25,-1386C182.25,-1386 552.25,-1386 552.25,-1386 558.25,-1386 564.25,-1392 564.25,-1398 564.25,-1398 564.25,-1453.25 564.25,-1453.25 564.25,-1459.25 558.25,-1465.25 552.25,-1465.25 552.25,-1465.25 182.25,-1465.25 182.25,-1465.25 176.25,-1465.25 170.25,-1459.25 170.25,-1453.25 170.25,-1453.25 170.25,-1398 170.25,-1398 170.25,-1392 176.25,-1386 182.25,-1386"/>
<text xml:space="preserve" text-anchor="middle" x="252.12" y="-1451.75" font-family="Helvetica,sans-Serif" font-size="10.00">Recycle Projections (×3 recycles)</text>
</g>
<g id="clust2" class="cluster">
<title>cluster_templ_emb</title>
<path fill="#e0f7fa" stroke="#00838f" d="M171.25,-1073.12C171.25,-1073.12 349.25,-1073.12 349.25,-1073.12 355.25,-1073.12 361.25,-1079.12 361.25,-1085.12 361.25,-1085.12 361.25,-1349 361.25,-1349 361.25,-1355 355.25,-1361 349.25,-1361 349.25,-1361 171.25,-1361 171.25,-1361 165.25,-1361 159.25,-1355 159.25,-1349 159.25,-1349 159.25,-1085.12 159.25,-1085.12 159.25,-1079.12 165.25,-1073.12 171.25,-1073.12"/>
<text xml:space="preserve" text-anchor="middle" x="210.75" y="-1347.5" font-family="Helvetica,sans-Serif" font-size="10.00">Template Embedder</text>
</g>
<g id="clust3" class="cluster">
<title>cluster_msa</title>
<path fill="#f3e5f5" stroke="#7b1fa2" d="M381.25,-526C381.25,-526 585.25,-526 585.25,-526 591.25,-526 597.25,-532 597.25,-538 597.25,-538 597.25,-1154 597.25,-1154 597.25,-1160 591.25,-1166 585.25,-1166 585.25,-1166 381.25,-1166 381.25,-1166 375.25,-1166 369.25,-1160 369.25,-1154 369.25,-1154 369.25,-538 369.25,-538 369.25,-532 375.25,-526 381.25,-526"/>
<text xml:space="preserve" text-anchor="middle" x="433.5" y="-1152.5" font-family="Helvetica,sans-Serif" font-size="10.00">MSA Module (4 iterations)</text>
</g>
<g id="clust4" class="cluster">
<title>cluster_msa_iter</title>
<path fill="white" stroke="#9c27b0" stroke-dasharray="5,2" d="M393.25,-538C393.25,-538 573.25,-538 573.25,-538 579.25,-538 585.25,-544 585.25,-550 585.25,-550 585.25,-1026.25 585.25,-1026.25 585.25,-1032.25 579.25,-1038.25 573.25,-1038.25 573.25,-1038.25 393.25,-1038.25 393.25,-1038.25 387.25,-1038.25 381.25,-1032.25 381.25,-1026.25 381.25,-1026.25 381.25,-550 381.25,-550 381.25,-544 387.25,-538 393.25,-538"/>
<text xml:space="preserve" text-anchor="middle" x="415.12" y="-1025.7" font-family="Helvetica,sans-Serif" font-size="9.00"> &#160;For i in 0..3:</text>
</g>
<g id="clust5" class="cluster">
<title>cluster_pf</title>
<path fill="#e8eaf6" stroke="#283593" d="M376.25,-69C376.25,-69 590.25,-69 590.25,-69 596.25,-69 602.25,-75 602.25,-81 602.25,-81 602.25,-480 602.25,-480 602.25,-486 596.25,-492 590.25,-492 590.25,-492 376.25,-492 376.25,-492 370.25,-492 364.25,-486 364.25,-480 364.25,-480 364.25,-81 364.25,-81 364.25,-75 370.25,-69 376.25,-69"/>
<text xml:space="preserve" text-anchor="middle" x="434.5" y="-478.5" font-family="Helvetica,sans-Serif" font-size="10.00">Pairformer Stack (48 blocks)</text>
</g>
<g id="clust6" class="cluster">
<title>cluster_pf_block</title>
<path fill="white" stroke="#3f51b5" stroke-dasharray="5,2" d="M388.25,-81C388.25,-81 578.25,-81 578.25,-81 584.25,-81 590.25,-87 590.25,-93 590.25,-93 590.25,-448.75 590.25,-448.75 590.25,-454.75 584.25,-460.75 578.25,-460.75 578.25,-460.75 388.25,-460.75 388.25,-460.75 382.25,-460.75 376.25,-454.75 376.25,-448.75 376.25,-448.75 376.25,-93 376.25,-93 376.25,-87 382.25,-81 388.25,-81"/>
<text xml:space="preserve" text-anchor="middle" x="422.12" y="-448.2" font-family="Helvetica,sans-Serif" font-size="9.00"> &#160;Each block (×48):</text>
</g>
<!-- in_s -->
<g id="node1" class="node">
<title>in_s</title>
<path fill="#e3f2fd" stroke="#1565c0" d="M511.5,-1526.25C511.5,-1526.25 419,-1526.25 419,-1526.25 413,-1526.25 407,-1520.25 407,-1514.25 407,-1514.25 407,-1502.25 407,-1502.25 407,-1496.25 413,-1490.25 419,-1490.25 419,-1490.25 511.5,-1490.25 511.5,-1490.25 517.5,-1490.25 523.5,-1496.25 523.5,-1502.25 523.5,-1502.25 523.5,-1514.25 523.5,-1514.25 523.5,-1520.25 517.5,-1526.25 511.5,-1526.25"/>
<text xml:space="preserve" text-anchor="middle" x="465.25" y="-1504.38" font-family="Helvetica,sans-Serif" font-size="10.00">single_initial [b, n, 384]</text>
</g>
<!-- rec_s -->
<g id="node5" class="node">
<title>rec_s</title>
<path fill="#f5f5f5" stroke="#616161" d="M540,-1434C540,-1434 390.5,-1434 390.5,-1434 384.5,-1434 378.5,-1428 378.5,-1422 378.5,-1422 378.5,-1410 378.5,-1410 378.5,-1404 384.5,-1398 390.5,-1398 390.5,-1398 540,-1398 540,-1398 546,-1398 552,-1404 552,-1410 552,-1410 552,-1422 552,-1422 552,-1428 546,-1434 540,-1434"/>
<text xml:space="preserve" text-anchor="middle" x="465.25" y="-1418.5" font-family="Helvetica,sans-Serif" font-size="10.00">LN(384) → Linear(384, 384, no bias)</text>
<text xml:space="preserve" text-anchor="middle" x="465.25" y="-1405.75" font-family="Helvetica,sans-Serif" font-size="10.00">token_single_recycle_proj</text>
</g>
<!-- in_s&#45;&gt;rec_s -->
<g id="edge1" class="edge">
<title>in_s&#45;&gt;rec_s</title>
<path fill="none" stroke="black" d="M465.25,-1489.85C465.25,-1477.36 465.25,-1460.26 465.25,-1445.76"/>
<polygon fill="black" stroke="black" points="468.75,-1445.86 465.25,-1435.86 461.75,-1445.86 468.75,-1445.86"/>
</g>
<!-- in_z -->
<g id="node2" class="node">
<title>in_z</title>
<path fill="#e3f2fd" stroke="#1565c0" d="M316.25,-1526.25C316.25,-1526.25 222.25,-1526.25 222.25,-1526.25 216.25,-1526.25 210.25,-1520.25 210.25,-1514.25 210.25,-1514.25 210.25,-1502.25 210.25,-1502.25 210.25,-1496.25 216.25,-1490.25 222.25,-1490.25 222.25,-1490.25 316.25,-1490.25 316.25,-1490.25 322.25,-1490.25 328.25,-1496.25 328.25,-1502.25 328.25,-1502.25 328.25,-1514.25 328.25,-1514.25 328.25,-1520.25 322.25,-1526.25 316.25,-1526.25"/>
<text xml:space="preserve" text-anchor="middle" x="269.25" y="-1504.38" font-family="Helvetica,sans-Serif" font-size="10.00">pair_initial [b, n, n, 256]</text>
</g>
<!-- rec_z -->
<g id="node6" class="node">
<title>rec_z</title>
<path fill="#f5f5f5" stroke="#616161" d="M344,-1434C344,-1434 194.5,-1434 194.5,-1434 188.5,-1434 182.5,-1428 182.5,-1422 182.5,-1422 182.5,-1410 182.5,-1410 182.5,-1404 188.5,-1398 194.5,-1398 194.5,-1398 344,-1398 344,-1398 350,-1398 356,-1404 356,-1410 356,-1410 356,-1422 356,-1422 356,-1428 350,-1434 344,-1434"/>
<text xml:space="preserve" text-anchor="middle" x="269.25" y="-1418.5" font-family="Helvetica,sans-Serif" font-size="10.00">LN(256) → Linear(256, 256, no bias)</text>
<text xml:space="preserve" text-anchor="middle" x="269.25" y="-1405.75" font-family="Helvetica,sans-Serif" font-size="10.00">token_pair_recycle_proj</text>
</g>
<!-- in_z&#45;&gt;rec_z -->
<g id="edge2" class="edge">
<title>in_z&#45;&gt;rec_z</title>
<path fill="none" stroke="black" d="M269.25,-1489.85C269.25,-1477.36 269.25,-1460.26 269.25,-1445.76"/>
<polygon fill="black" stroke="black" points="272.75,-1445.86 269.25,-1435.86 265.75,-1445.86 272.75,-1445.86"/>
</g>
<!-- in_msa -->
<g id="node3" class="node">
<title>in_msa</title>
<path fill="#e3f2fd" stroke="#1565c0" d="M615.5,-1235.5C615.5,-1235.5 511,-1235.5 511,-1235.5 505,-1235.5 499,-1229.5 499,-1223.5 499,-1223.5 499,-1211.5 499,-1211.5 499,-1205.5 505,-1199.5 511,-1199.5 511,-1199.5 615.5,-1199.5 615.5,-1199.5 621.5,-1199.5 627.5,-1205.5 627.5,-1211.5 627.5,-1211.5 627.5,-1223.5 627.5,-1223.5 627.5,-1229.5 621.5,-1235.5 615.5,-1235.5"/>
<text xml:space="preserve" text-anchor="middle" x="563.25" y="-1213.62" font-family="Helvetica,sans-Serif" font-size="10.00">MSA features [b, d, n, 64]</text>
</g>
<!-- s2m -->
<g id="node10" class="node">
<title>s2m</title>
<path fill="#e1bee7" stroke="#7b1fa2" d="M513.25,-1134.75C513.25,-1134.75 419.25,-1134.75 419.25,-1134.75 413.25,-1134.75 407.25,-1128.75 407.25,-1122.75 407.25,-1122.75 407.25,-1092.25 407.25,-1092.25 407.25,-1086.25 413.25,-1080.25 419.25,-1080.25 419.25,-1080.25 513.25,-1080.25 513.25,-1080.25 519.25,-1080.25 525.25,-1086.25 525.25,-1092.25 525.25,-1092.25 525.25,-1122.75 525.25,-1122.75 525.25,-1128.75 519.25,-1134.75 513.25,-1134.75"/>
<text xml:space="preserve" text-anchor="middle" x="466.25" y="-1121.25" font-family="Helvetica,sans-Serif" font-size="10.00">linear_s2m</text>
<text xml:space="preserve" text-anchor="middle" x="466.25" y="-1110" font-family="Helvetica,sans-Serif" font-size="10.00">Linear(384, 64, no bias)</text>
<text xml:space="preserve" text-anchor="middle" x="466.25" y="-1098.75" font-family="Helvetica,sans-Serif" font-size="10.00">single → first MSA row</text>
<text xml:space="preserve" text-anchor="middle" x="466.25" y="-1086" font-family="Helvetica,sans-Serif" font-size="10.00">(once at start)</text>
</g>
<!-- in_msa&#45;&gt;s2m -->
<g id="edge9" class="edge">
<title>in_msa&#45;&gt;s2m</title>
<path fill="none" stroke="black" d="M547.67,-1199.15C534.26,-1184.22 514.5,-1162.22 497.8,-1143.63"/>
<polygon fill="black" stroke="black" points="500.43,-1141.32 491.15,-1136.22 495.23,-1146 500.43,-1141.32"/>
</g>
<!-- in_templ -->
<g id="node4" class="node">
<title>in_templ</title>
<path fill="#e3f2fd" stroke="#1565c0" d="M146.5,-1434C146.5,-1434 12,-1434 12,-1434 6,-1434 0,-1428 0,-1422 0,-1422 0,-1410 0,-1410 0,-1404 6,-1398 12,-1398 12,-1398 146.5,-1398 146.5,-1398 152.5,-1398 158.5,-1404 158.5,-1410 158.5,-1410 158.5,-1422 158.5,-1422 158.5,-1428 152.5,-1434 146.5,-1434"/>
<text xml:space="preserve" text-anchor="middle" x="79.25" y="-1412.12" font-family="Helvetica,sans-Serif" font-size="10.00">Template features [b, 4, n, n, 64]</text>
</g>
<!-- te_proj -->
<g id="node7" class="node">
<title>te_proj</title>
<path fill="#b2ebf2" stroke="#00838f" d="M332.38,-1329.75C332.38,-1329.75 188.12,-1329.75 188.12,-1329.75 182.12,-1329.75 176.12,-1323.75 176.12,-1317.75 176.12,-1317.75 176.12,-1297 176.12,-1297 176.12,-1291 182.12,-1285 188.12,-1285 188.12,-1285 332.38,-1285 332.38,-1285 338.38,-1285 344.38,-1291 344.38,-1297 344.38,-1297 344.38,-1317.75 344.38,-1317.75 344.38,-1323.75 338.38,-1329.75 332.38,-1329.75"/>
<text xml:space="preserve" text-anchor="middle" x="260.25" y="-1316.25" font-family="Helvetica,sans-Serif" font-size="10.00">proj_in</text>
<text xml:space="preserve" text-anchor="middle" x="260.25" y="-1305" font-family="Helvetica,sans-Serif" font-size="10.00">LN(256) → Linear(256, 64, no bias)</text>
<text xml:space="preserve" text-anchor="middle" x="260.25" y="-1292.25" font-family="Helvetica,sans-Serif" font-size="10.00">pair → template dim</text>
</g>
<!-- in_templ&#45;&gt;te_proj -->
<g id="edge5" class="edge">
<title>in_templ&#45;&gt;te_proj</title>
<path fill="none" stroke="black" d="M108.73,-1397.63C137.06,-1380.95 180.31,-1355.47 213.36,-1336"/>
<polygon fill="black" stroke="black" points="215.12,-1339.02 221.96,-1330.93 211.56,-1332.99 215.12,-1339.02"/>
<text xml:space="preserve" text-anchor="middle" x="170.79" y="-1370.4" font-family="Helvetica,sans-Serif" font-size="8.00">templates</text>
</g>
<!-- rec_s&#45;&gt;s2m -->
<g id="edge3" class="edge">
<title>rec_s&#45;&gt;s2m</title>
<path fill="none" stroke="black" d="M465.31,-1397.64C465.46,-1349.38 465.91,-1212.76 466.13,-1146.06"/>
<polygon fill="black" stroke="black" points="469.63,-1146.36 466.16,-1136.35 462.63,-1146.34 469.63,-1146.36"/>
<text xml:space="preserve" text-anchor="middle" x="489" y="-1261.4" font-family="Helvetica,sans-Serif" font-size="8.00">s += recycled</text>
</g>
<!-- rec_z&#45;&gt;te_proj -->
<g id="edge4" class="edge">
<title>rec_z&#45;&gt;te_proj</title>
<path fill="none" stroke="black" d="M267.8,-1397.87C266.52,-1382.63 264.6,-1359.93 263.02,-1341.21"/>
<polygon fill="black" stroke="black" points="266.52,-1341.06 262.19,-1331.39 259.55,-1341.65 266.52,-1341.06"/>
<text xml:space="preserve" text-anchor="middle" x="289.33" y="-1370.4" font-family="Helvetica,sans-Serif" font-size="8.00">z += recycled</text>
</g>
<!-- te_pf -->
<g id="node8" class="node">
<title>te_pf</title>
<path fill="#80deea" stroke="#00695c" d="M336.88,-1244C336.88,-1244 183.62,-1244 183.62,-1244 177.62,-1244 171.62,-1238 171.62,-1232 171.62,-1232 171.62,-1203 171.62,-1203 171.62,-1197 177.62,-1191 183.62,-1191 183.62,-1191 336.88,-1191 336.88,-1191 342.88,-1191 348.88,-1197 348.88,-1203 348.88,-1203 348.88,-1232 348.88,-1232 348.88,-1238 342.88,-1244 336.88,-1244"/>
<text xml:space="preserve" text-anchor="middle" x="260.25" y="-1230.5" font-family="Helvetica,sans-Serif" font-size="10.00">2× PairformerBlock (dim 64)</text>
<text xml:space="preserve" text-anchor="middle" x="260.25" y="-1219.25" font-family="Helvetica,sans-Serif" font-size="10.00">─ SwiGLU transition</text>
<text xml:space="preserve" text-anchor="middle" x="260.25" y="-1208" font-family="Helvetica,sans-Serif" font-size="10.00">─ Triangle multiplication (both dirs)</text>
<text xml:space="preserve" text-anchor="middle" x="260.25" y="-1196.75" font-family="Helvetica,sans-Serif" font-size="10.00">─ Triangle attention (8 heads, 16 hd)</text>
</g>
<!-- te_proj&#45;&gt;te_pf -->
<g id="edge6" class="edge">
<title>te_proj&#45;&gt;te_pf</title>
<path fill="none" stroke="black" d="M260.25,-1284.65C260.25,-1275.89 260.25,-1265.52 260.25,-1255.62"/>
<polygon fill="black" stroke="black" points="263.75,-1255.86 260.25,-1245.86 256.75,-1255.86 263.75,-1255.86"/>
</g>
<!-- te_out -->
<g id="node9" class="node">
<title>te_out</title>
<path fill="#b2ebf2" stroke="#00838f" d="M334.75,-1129.88C334.75,-1129.88 195.75,-1129.88 195.75,-1129.88 189.75,-1129.88 183.75,-1123.88 183.75,-1117.88 183.75,-1117.88 183.75,-1097.12 183.75,-1097.12 183.75,-1091.12 189.75,-1085.12 195.75,-1085.12 195.75,-1085.12 334.75,-1085.12 334.75,-1085.12 340.75,-1085.12 346.75,-1091.12 346.75,-1097.12 346.75,-1097.12 346.75,-1117.88 346.75,-1117.88 346.75,-1123.88 340.75,-1129.88 334.75,-1129.88"/>
<text xml:space="preserve" text-anchor="middle" x="265.25" y="-1116.38" font-family="Helvetica,sans-Serif" font-size="10.00">LN(64) → Linear(64, 256, no bias)</text>
<text xml:space="preserve" text-anchor="middle" x="265.25" y="-1103.62" font-family="Helvetica,sans-Serif" font-size="10.00">template → pair dim</text>
<text xml:space="preserve" text-anchor="middle" x="265.25" y="-1090.88" font-family="Helvetica,sans-Serif" font-size="10.00">mean over 4 templates</text>
</g>
<!-- te_pf&#45;&gt;te_out -->
<g id="edge7" class="edge">
<title>te_pf&#45;&gt;te_out</title>
<path fill="none" stroke="black" d="M261.45,-1190.63C262.13,-1175.91 262.99,-1157.32 263.72,-1141.55"/>
<polygon fill="black" stroke="black" points="267.21,-1141.82 264.18,-1131.67 260.22,-1141.5 267.21,-1141.82"/>
</g>
<!-- opm -->
<g id="node11" class="node">
<title>opm</title>
<path fill="#ce93d8" stroke="#7b1fa2" d="M522.25,-1010.5C522.25,-1010.5 410.25,-1010.5 410.25,-1010.5 404.25,-1010.5 398.25,-1004.5 398.25,-998.5 398.25,-998.5 398.25,-966.5 398.25,-966.5 398.25,-960.5 404.25,-954.5 410.25,-954.5 410.25,-954.5 522.25,-954.5 522.25,-954.5 528.25,-954.5 534.25,-960.5 534.25,-966.5 534.25,-966.5 534.25,-998.5 534.25,-998.5 534.25,-1004.5 528.25,-1010.5 522.25,-1010.5"/>
<text xml:space="preserve" text-anchor="middle" x="466.25" y="-997" font-family="Helvetica,sans-Serif" font-size="10.00">outer_product_mean[i]</text>
<text xml:space="preserve" text-anchor="middle" x="466.25" y="-985.75" font-family="Helvetica,sans-Serif" font-size="10.00">MSA → pair update</text>
<text xml:space="preserve" text-anchor="middle" x="466.25" y="-973" font-family="Helvetica,sans-Serif" font-size="10.00">weight_ab [2,8,8,64]</text>
<text xml:space="preserve" text-anchor="middle" x="466.25" y="-961.75" font-family="Helvetica,sans-Serif" font-size="10.00">LN(512) → Linear(512, 256)</text>
</g>
<!-- te_out&#45;&gt;opm -->
<g id="edge8" class="edge">
<title>te_out&#45;&gt;opm</title>
<path fill="none" stroke="black" d="M279.71,-1084.73C288.95,-1072.15 301.88,-1056.78 316.25,-1046.25 337.57,-1030.63 363.37,-1018.04 387.51,-1008.35"/>
<polygon fill="black" stroke="black" points="388.63,-1011.67 396.69,-1004.79 386.1,-1005.15 388.63,-1011.67"/>
<text xml:space="preserve" text-anchor="middle" x="340.25" y="-1056.65" font-family="Helvetica,sans-Serif" font-size="8.00">z += template</text>
<text xml:space="preserve" text-anchor="middle" x="340.25" y="-1047.65" font-family="Helvetica,sans-Serif" font-size="8.00">embedding</text>
</g>
<!-- s2m&#45;&gt;opm -->
<g id="edge10" class="edge">
<title>s2m&#45;&gt;opm</title>
<path fill="none" stroke="black" d="M466.25,-1079.81C466.25,-1063.04 466.25,-1041.12 466.25,-1022.43"/>
<polygon fill="black" stroke="black" points="469.75,-1022.5 466.25,-1012.5 462.75,-1022.5 469.75,-1022.5"/>
<text xml:space="preserve" text-anchor="middle" x="483.5" y="-1052.15" font-family="Helvetica,sans-Serif" font-size="8.00">MSA repr</text>
</g>
<!-- pt -->
<g id="node12" class="node">
<title>pt</title>
<path fill="#ce93d8" stroke="#7b1fa2" d="M527.62,-921.5C527.62,-921.5 414.88,-921.5 414.88,-921.5 408.88,-921.5 402.88,-915.5 402.88,-909.5 402.88,-909.5 402.88,-890.25 402.88,-890.25 402.88,-884.25 408.88,-878.25 414.88,-878.25 414.88,-878.25 527.62,-878.25 527.62,-878.25 533.62,-878.25 539.62,-884.25 539.62,-890.25 539.62,-890.25 539.62,-909.5 539.62,-909.5 539.62,-915.5 533.62,-921.5 527.62,-921.5"/>
<text xml:space="preserve" text-anchor="middle" x="471.25" y="-908" font-family="Helvetica,sans-Serif" font-size="10.00">pair_transition[i]</text>
<text xml:space="preserve" text-anchor="middle" x="471.25" y="-896.75" font-family="Helvetica,sans-Serif" font-size="10.00">SwiGLU (8×)</text>
<text xml:space="preserve" text-anchor="middle" x="471.25" y="-885.5" font-family="Helvetica,sans-Serif" font-size="10.00">256 → 2048 → 1024 → 256</text>
</g>
<!-- opm&#45;&gt;pt -->
<g id="edge11" class="edge">
<title>opm&#45;&gt;pt</title>
<path fill="none" stroke="black" d="M467.94,-954.2C468.36,-947.41 468.82,-940.07 469.25,-933.07"/>
<polygon fill="black" stroke="black" points="472.73,-933.48 469.86,-923.28 465.75,-933.04 472.73,-933.48"/>
</g>
<!-- msa_attn -->
<g id="node13" class="node">
<title>msa_attn</title>
<path fill="#ba68c8" stroke="#6a1b9a" d="M534.88,-845.25C534.88,-845.25 411.62,-845.25 411.62,-845.25 405.62,-845.25 399.62,-839.25 399.62,-833.25 399.62,-833.25 399.62,-802.75 399.62,-802.75 399.62,-796.75 405.62,-790.75 411.62,-790.75 411.62,-790.75 534.88,-790.75 534.88,-790.75 540.88,-790.75 546.88,-796.75 546.88,-802.75 546.88,-802.75 546.88,-833.25 546.88,-833.25 546.88,-839.25 540.88,-845.25 534.88,-845.25"/>
<text xml:space="preserve" text-anchor="middle" x="473.25" y="-831.75" font-family="Helvetica,sans-Serif" font-size="10.00">if i &lt; 3:</text>
<text xml:space="preserve" text-anchor="middle" x="473.25" y="-820.5" font-family="Helvetica,sans-Serif" font-size="10.00"> &#160;msa_pair_weighted_avg[i]</text>
<text xml:space="preserve" text-anchor="middle" x="473.25" y="-809.25" font-family="Helvetica,sans-Serif" font-size="10.00"> &#160;8 heads, 32 value_dim</text>
<text xml:space="preserve" text-anchor="middle" x="473.25" y="-798" font-family="Helvetica,sans-Serif" font-size="10.00"> &#160;pair → per&#45;head attn weights</text>
</g>
<!-- pt&#45;&gt;msa_attn -->
<g id="edge12" class="edge">
<title>pt&#45;&gt;msa_attn</title>
<path fill="none" stroke="black" d="M471.78,-877.89C471.94,-871.47 472.12,-864.21 472.3,-857.03"/>
<polygon fill="black" stroke="black" points="475.8,-857.17 472.55,-847.09 468.8,-857 475.8,-857.17"/>
</g>
<!-- msa_trans -->
<g id="node14" class="node">
<title>msa_trans</title>
<path fill="#ba68c8" stroke="#6a1b9a" d="M563.62,-757.75C563.62,-757.75 402.88,-757.75 402.88,-757.75 396.88,-757.75 390.88,-751.75 390.88,-745.75 390.88,-745.75 390.88,-726.5 390.88,-726.5 390.88,-720.5 396.88,-714.5 402.88,-714.5 402.88,-714.5 563.62,-714.5 563.62,-714.5 569.62,-714.5 575.62,-720.5 575.62,-726.5 575.62,-726.5 575.62,-745.75 575.62,-745.75 575.62,-751.75 569.62,-757.75 563.62,-757.75"/>
<text xml:space="preserve" text-anchor="middle" x="483.25" y="-744.25" font-family="Helvetica,sans-Serif" font-size="10.00">if i &lt; 3:</text>
<text xml:space="preserve" text-anchor="middle" x="483.25" y="-733" font-family="Helvetica,sans-Serif" font-size="10.00"> &#160;msa_transition[i]</text>
<text xml:space="preserve" text-anchor="middle" x="483.25" y="-721.75" font-family="Helvetica,sans-Serif" font-size="10.00"> &#160;SwiGLU (8×) &#160;64 → 512 → 256 → 64</text>
</g>
<!-- msa_attn&#45;&gt;msa_trans -->
<g id="edge13" class="edge">
<title>msa_attn&#45;&gt;msa_trans</title>
<path fill="none" stroke="black" d="M476.58,-790.4C477.42,-783.66 478.34,-776.34 479.22,-769.35"/>
<polygon fill="black" stroke="black" points="482.67,-769.91 480.44,-759.55 475.73,-769.04 482.67,-769.91"/>
</g>
<!-- tri_mul -->
<g id="node15" class="node">
<title>tri_mul</title>
<path fill="#ce93d8" stroke="#7b1fa2" d="M534.38,-664.5C534.38,-664.5 432.12,-664.5 432.12,-664.5 426.12,-664.5 420.12,-658.5 420.12,-652.5 420.12,-652.5 420.12,-634.75 420.12,-634.75 420.12,-628.75 426.12,-622.75 432.12,-622.75 432.12,-622.75 534.38,-622.75 534.38,-622.75 540.38,-622.75 546.38,-628.75 546.38,-634.75 546.38,-634.75 546.38,-652.5 546.38,-652.5 546.38,-658.5 540.38,-664.5 534.38,-664.5"/>
<text xml:space="preserve" text-anchor="middle" x="483.25" y="-651" font-family="Helvetica,sans-Serif" font-size="10.00">triangular_multiplication[i]</text>
<text xml:space="preserve" text-anchor="middle" x="483.25" y="-639.75" font-family="Helvetica,sans-Serif" font-size="10.00">both outgoing + incoming</text>
<text xml:space="preserve" text-anchor="middle" x="483.25" y="-628.5" font-family="Helvetica,sans-Serif" font-size="10.00">sigmoid gated</text>
</g>
<!-- msa_trans&#45;&gt;tri_mul -->
<g id="edge14" class="edge">
<title>msa_trans&#45;&gt;tri_mul</title>
<path fill="none" stroke="black" d="M483.25,-714.14C483.25,-702.9 483.25,-688.82 483.25,-676.29"/>
<polygon fill="black" stroke="black" points="486.75,-676.39 483.25,-666.39 479.75,-676.39 486.75,-676.39"/>
<text xml:space="preserve" text-anchor="middle" x="498.25" y="-690.9" font-family="Helvetica,sans-Serif" font-size="8.00">(skipped</text>
<text xml:space="preserve" text-anchor="middle" x="498.25" y="-681.9" font-family="Helvetica,sans-Serif" font-size="8.00">at i=3)</text>
</g>
<!-- tri_att -->
<g id="node16" class="node">
<title>tri_att</title>
<path fill="#ce93d8" stroke="#7b1fa2" d="M538.5,-589.75C538.5,-589.75 428,-589.75 428,-589.75 422,-589.75 416,-583.75 416,-577.75 416,-577.75 416,-560 416,-560 416,-554 422,-548 428,-548 428,-548 538.5,-548 538.5,-548 544.5,-548 550.5,-554 550.5,-560 550.5,-560 550.5,-577.75 550.5,-577.75 550.5,-583.75 544.5,-589.75 538.5,-589.75"/>
<text xml:space="preserve" text-anchor="middle" x="483.25" y="-576.25" font-family="Helvetica,sans-Serif" font-size="10.00">triangular_attention[i]</text>
<text xml:space="preserve" text-anchor="middle" x="483.25" y="-565" font-family="Helvetica,sans-Serif" font-size="10.00">both starting + ending node</text>
<text xml:space="preserve" text-anchor="middle" x="483.25" y="-553.75" font-family="Helvetica,sans-Serif" font-size="10.00">8 heads, 32 head_dim</text>
</g>
<!-- tri_mul&#45;&gt;tri_att -->
<g id="edge15" class="edge">
<title>tri_mul&#45;&gt;tri_att</title>
<path fill="none" stroke="black" d="M483.25,-622.36C483.25,-615.9 483.25,-608.58 483.25,-601.51"/>
<polygon fill="black" stroke="black" points="486.75,-601.54 483.25,-591.54 479.75,-601.54 486.75,-601.54"/>
</g>
<!-- pf_pt -->
<g id="node17" class="node">
<title>pf_pt</title>
<path fill="#c5cae9" stroke="#283593" d="M568.5,-433C568.5,-433 398,-433 398,-433 392,-433 386,-427 386,-421 386,-421 386,-409 386,-409 386,-403 392,-397 398,-397 398,-397 568.5,-397 568.5,-397 574.5,-397 580.5,-403 580.5,-409 580.5,-409 580.5,-421 580.5,-421 580.5,-427 574.5,-433 568.5,-433"/>
<text xml:space="preserve" text-anchor="middle" x="483.25" y="-417.5" font-family="Helvetica,sans-Serif" font-size="10.00">1. Pair Transition</text>
<text xml:space="preserve" text-anchor="middle" x="483.25" y="-406.25" font-family="Helvetica,sans-Serif" font-size="10.00">SwiGLU (4×) &#160;256 → 1024 → 512 → 256</text>
</g>
<!-- tri_att&#45;&gt;pf_pt -->
<g id="edge16" class="edge">
<title>tri_att&#45;&gt;pf_pt</title>
<path fill="none" stroke="black" d="M483.25,-547.71C483.25,-521.33 483.25,-474.93 483.25,-444.84"/>
<polygon fill="black" stroke="black" points="486.75,-444.94 483.25,-434.94 479.75,-444.94 486.75,-444.94"/>
<text xml:space="preserve" text-anchor="middle" x="511" y="-510.4" font-family="Helvetica,sans-Serif" font-size="8.00">single, pair</text>
<text xml:space="preserve" text-anchor="middle" x="511" y="-501.4" font-family="Helvetica,sans-Serif" font-size="8.00">representations</text>
</g>
<!-- pf_apb -->
<g id="node18" class="node">
<title>pf_apb</title>
<path fill="#9fa8da" stroke="#1a237e" d="M534,-364C534,-364 432.5,-364 432.5,-364 426.5,-364 420.5,-358 420.5,-352 420.5,-352 420.5,-321.5 420.5,-321.5 420.5,-315.5 426.5,-309.5 432.5,-309.5 432.5,-309.5 534,-309.5 534,-309.5 540,-309.5 546,-315.5 546,-321.5 546,-321.5 546,-352 546,-352 546,-358 540,-364 534,-364"/>
<text xml:space="preserve" text-anchor="middle" x="483.25" y="-350.5" font-family="Helvetica,sans-Serif" font-size="10.00">2. Attention Pair Bias</text>
<text xml:space="preserve" text-anchor="middle" x="483.25" y="-339.25" font-family="Helvetica,sans-Serif" font-size="10.00">16 heads, 24 head_dim</text>
<text xml:space="preserve" text-anchor="middle" x="483.25" y="-328" font-family="Helvetica,sans-Serif" font-size="10.00">pair → per&#45;head attn bias</text>
<text xml:space="preserve" text-anchor="middle" x="483.25" y="-315.25" font-family="Helvetica,sans-Serif" font-size="10.00">singleton gated output</text>
</g>
<!-- pf_pt&#45;&gt;pf_apb -->
<g id="edge17" class="edge">
<title>pf_pt&#45;&gt;pf_apb</title>
<path fill="none" stroke="black" d="M483.25,-396.7C483.25,-390.41 483.25,-383.04 483.25,-375.67"/>
<polygon fill="black" stroke="black" points="486.75,-375.78 483.25,-365.78 479.75,-375.78 486.75,-375.78"/>
</g>
<!-- pf_st -->
<g id="node19" class="node">
<title>pf_st</title>
<path fill="#c5cae9" stroke="#283593" d="M568.5,-276.5C568.5,-276.5 398,-276.5 398,-276.5 392,-276.5 386,-270.5 386,-264.5 386,-264.5 386,-252.5 386,-252.5 386,-246.5 392,-240.5 398,-240.5 398,-240.5 568.5,-240.5 568.5,-240.5 574.5,-240.5 580.5,-246.5 580.5,-252.5 580.5,-252.5 580.5,-264.5 580.5,-264.5 580.5,-270.5 574.5,-276.5 568.5,-276.5"/>
<text xml:space="preserve" text-anchor="middle" x="483.25" y="-261" font-family="Helvetica,sans-Serif" font-size="10.00">3. Single Transition</text>
<text xml:space="preserve" text-anchor="middle" x="483.25" y="-249.75" font-family="Helvetica,sans-Serif" font-size="10.00">SwiGLU (4×) &#160;384 → 1536 → 768 → 384</text>
</g>
<!-- pf_apb&#45;&gt;pf_st -->
<g id="edge18" class="edge">
<title>pf_apb&#45;&gt;pf_st</title>
<path fill="none" stroke="black" d="M483.25,-309.08C483.25,-302.34 483.25,-295.08 483.25,-288.24"/>
<polygon fill="black" stroke="black" points="486.75,-288.47 483.25,-278.47 479.75,-288.47 486.75,-288.47"/>
</g>
<!-- pf_tm -->
<g id="node20" class="node">
<title>pf_tm</title>
<path fill="#c5cae9" stroke="#283593" d="M534,-207.5C534,-207.5 432.5,-207.5 432.5,-207.5 426.5,-207.5 420.5,-201.5 420.5,-195.5 420.5,-195.5 420.5,-177.75 420.5,-177.75 420.5,-171.75 426.5,-165.75 432.5,-165.75 432.5,-165.75 534,-165.75 534,-165.75 540,-165.75 546,-171.75 546,-177.75 546,-177.75 546,-195.5 546,-195.5 546,-201.5 540,-207.5 534,-207.5"/>
<text xml:space="preserve" text-anchor="middle" x="483.25" y="-194" font-family="Helvetica,sans-Serif" font-size="10.00">4. Triangle Multiplication</text>
<text xml:space="preserve" text-anchor="middle" x="483.25" y="-182.75" font-family="Helvetica,sans-Serif" font-size="10.00">both outgoing + incoming</text>
<text xml:space="preserve" text-anchor="middle" x="483.25" y="-171.5" font-family="Helvetica,sans-Serif" font-size="10.00">sigmoid gated</text>
</g>
<!-- pf_st&#45;&gt;pf_tm -->
<g id="edge19" class="edge">
<title>pf_st&#45;&gt;pf_tm</title>
<path fill="none" stroke="black" d="M483.25,-240.23C483.25,-233.89 483.25,-226.49 483.25,-219.28"/>
<polygon fill="black" stroke="black" points="486.75,-219.44 483.25,-209.44 479.75,-219.44 486.75,-219.44"/>
</g>
<!-- pf_ta -->
<g id="node21" class="node">
<title>pf_ta</title>
<path fill="#c5cae9" stroke="#283593" d="M538.5,-132.75C538.5,-132.75 428,-132.75 428,-132.75 422,-132.75 416,-126.75 416,-120.75 416,-120.75 416,-103 416,-103 416,-97 422,-91 428,-91 428,-91 538.5,-91 538.5,-91 544.5,-91 550.5,-97 550.5,-103 550.5,-103 550.5,-120.75 550.5,-120.75 550.5,-126.75 544.5,-132.75 538.5,-132.75"/>
<text xml:space="preserve" text-anchor="middle" x="483.25" y="-119.25" font-family="Helvetica,sans-Serif" font-size="10.00">5. Triangle Attention</text>
<text xml:space="preserve" text-anchor="middle" x="483.25" y="-108" font-family="Helvetica,sans-Serif" font-size="10.00">both starting + ending node</text>
<text xml:space="preserve" text-anchor="middle" x="483.25" y="-96.75" font-family="Helvetica,sans-Serif" font-size="10.00">8 heads, 32 head_dim</text>
</g>
<!-- pf_tm&#45;&gt;pf_ta -->
<g id="edge20" class="edge">
<title>pf_tm&#45;&gt;pf_ta</title>
<path fill="none" stroke="black" d="M483.25,-165.36C483.25,-158.9 483.25,-151.58 483.25,-144.51"/>
<polygon fill="black" stroke="black" points="486.75,-144.54 483.25,-134.54 479.75,-144.54 486.75,-144.54"/>
</g>
<!-- out_s -->
<g id="node22" class="node">
<title>out_s</title>
<path fill="#f5f5f5" stroke="#424242" d="M459.12,-36C459.12,-36 367.38,-36 367.38,-36 361.38,-36 355.38,-30 355.38,-24 355.38,-24 355.38,-12 355.38,-12 355.38,-6 361.38,0 367.38,0 367.38,0 459.12,0 459.12,0 465.12,0 471.12,-6 471.12,-12 471.12,-12 471.12,-24 471.12,-24 471.12,-30 465.12,-36 459.12,-36"/>
<text xml:space="preserve" text-anchor="middle" x="413.25" y="-14.12" font-family="Helvetica,sans-Serif" font-size="10.00">single_trunk [b, n, 384]</text>
</g>
<!-- pf_ta&#45;&gt;out_s -->
<g id="edge21" class="edge">
<title>pf_ta&#45;&gt;out_s</title>
<path fill="none" stroke="black" d="M468.06,-90.94C457.9,-77.61 444.42,-59.91 433.37,-45.41"/>
<polygon fill="black" stroke="black" points="436.28,-43.46 427.44,-37.62 430.72,-47.7 436.28,-43.46"/>
<text xml:space="preserve" text-anchor="middle" x="454.18" y="-53.4" font-family="Helvetica,sans-Serif" font-size="8.00">single</text>
</g>
<!-- out_z -->
<g id="node23" class="node">
<title>out_z</title>
<path fill="#f5f5f5" stroke="#424242" d="M598.88,-36C598.88,-36 505.62,-36 505.62,-36 499.62,-36 493.62,-30 493.62,-24 493.62,-24 493.62,-12 493.62,-12 493.62,-6 499.62,0 505.62,0 505.62,0 598.88,0 598.88,0 604.88,0 610.88,-6 610.88,-12 610.88,-12 610.88,-24 610.88,-24 610.88,-30 604.88,-36 598.88,-36"/>
<text xml:space="preserve" text-anchor="middle" x="552.25" y="-14.12" font-family="Helvetica,sans-Serif" font-size="10.00">pair_trunk [b, n, n, 256]</text>
</g>
<!-- pf_ta&#45;&gt;out_z -->
<g id="edge22" class="edge">
<title>pf_ta&#45;&gt;out_z</title>
<path fill="none" stroke="black" d="M498.22,-90.94C508.24,-77.61 521.52,-59.91 532.41,-45.41"/>
<polygon fill="black" stroke="black" points="535.05,-47.73 538.26,-37.63 529.45,-43.52 535.05,-47.73"/>
<text xml:space="preserve" text-anchor="middle" x="532.71" y="-53.4" font-family="Helvetica,sans-Serif" font-size="8.00">pair</text>
</g>
</g>
</svg>
