<?xml version="1.0" encoding="UTF-8" standalone="no"?>
<!DOCTYPE svg PUBLIC "-//W3C//DTD SVG 1.1//EN"
 "http://www.w3.org/Graphics/SVG/1.1/DTD/svg11.dtd">
<!-- Generated by graphviz version 14.1.4 (20260321.0153)
 -->
<!-- Title: diffusion_module Pages: 1 -->
<svg width="1160pt" height="1520pt"
 viewBox="0.00 0.00 1160.00 1520.00" xmlns="http://www.w3.org/2000/svg" xmlns:xlink="http://www.w3.org/1999/xlink">
<g id="graph0" class="graph" transform="scale(1 1) rotate(0) translate(28.8 1491.05)">
<title>diffusion_module</title>
<polygon fill="white" stroke="none" points="-28.8,28.8 -28.8,-1491.05 1130.8,-1491.05 1130.8,28.8 -28.8,28.8"/>
<g id="clust1" class="cluster">
<title>cluster_cond</title>
<path fill="#fff3e0" stroke="#e65100" d="M72.88,-998C72.88,-998 442.88,-998 442.88,-998 448.88,-998 454.88,-1004 454.88,-1010 454.88,-1010 454.88,-1389.25 454.88,-1389.25 454.88,-1395.25 448.88,-1401.25 442.88,-1401.25 442.88,-1401.25 72.87,-1401.25 72.87,-1401.25 66.88,-1401.25 60.88,-1395.25 60.88,-1389.25 60.88,-1389.25 60.88,-1010 60.88,-1010 60.88,-1004 66.88,-998 72.88,-998"/>
<text xml:space="preserve" text-anchor="middle" x="116.88" y="-1387.75" font-family="Helvetica,sans-Serif" font-size="10.00">Diffusion Conditioning</text>
</g>
<g id="clust2" class="cluster">
<title>cluster_enc</title>
<path fill="#e8f5e9" stroke="#2e7d32" d="M474.88,-726.75C474.88,-726.75 898.88,-726.75 898.88,-726.75 904.88,-726.75 910.88,-732.75 910.88,-738.75 910.88,-738.75 910.88,-1065.25 910.88,-1065.25 910.88,-1071.25 904.88,-1077.25 898.88,-1077.25 898.88,-1077.25 474.88,-1077.25 474.88,-1077.25 468.88,-1077.25 462.88,-1071.25 462.88,-1065.25 462.88,-1065.25 462.88,-738.75 462.88,-738.75 462.88,-732.75 468.88,-726.75 474.88,-726.75"/>
<text xml:space="preserve" text-anchor="middle" x="522.62" y="-1063.75" font-family="Helvetica,sans-Serif" font-size="10.00">Atom Attention Encoder</text>
</g>
<g id="clust3" class="cluster">
<title>cluster_xfmr</title>
<path fill="#fce4ec" stroke="#c62828" d="M713.88,-450.5C713.88,-450.5 889.88,-450.5 889.88,-450.5 895.88,-450.5 901.88,-456.5 901.88,-462.5 901.88,-462.5 901.88,-680.75 901.88,-680.75 901.88,-686.75 895.88,-692.75 889.88,-692.75 889.88,-692.75 713.88,-692.75 713.88,-692.75 707.88,-692.75 701.88,-686.75 701.88,-680.75 701.88,-680.75 701.88,-462.5 701.88,-462.5 701.88,-456.5 707.88,-450.5 713.88,-450.5"/>
<text xml:space="preserve" text-anchor="middle" x="782.62" y="-679.25" font-family="Helvetica,sans-Serif" font-size="10.00">Diffusion Transformer (16 blocks)</text>
</g>
<g id="clust4" class="cluster">
<title>cluster_xfmr_block</title>
<path fill="white" stroke="#e53935" stroke-dasharray="5,2" d="M725.88,-462.5C725.88,-462.5 877.88,-462.5 877.88,-462.5 883.88,-462.5 889.88,-468.5 889.88,-474.5 889.88,-474.5 889.88,-649.5 889.88,-649.5 889.88,-655.5 883.88,-661.5 877.88,-661.5 877.88,-661.5 725.88,-661.5 725.88,-661.5 719.88,-661.5 713.88,-655.5 713.88,-649.5 713.88,-649.5 713.88,-474.5 713.88,-474.5 713.88,-468.5 719.88,-462.5 725.88,-462.5"/>
<text xml:space="preserve" text-anchor="middle" x="759.75" y="-648.95" font-family="Helvetica,sans-Serif" font-size="9.00"> &#160;Each block (×16):</text>
</g>
<g id="clust5" class="cluster">
<title>cluster_dec</title>
<path fill="#e0f2f1" stroke="#00695c" d="M781.88,-166.25C781.88,-166.25 945.88,-166.25 945.88,-166.25 951.88,-166.25 957.88,-172.25 957.88,-178.25 957.88,-178.25 957.88,-404.5 957.88,-404.5 957.88,-410.5 951.88,-416.5 945.88,-416.5 945.88,-416.5 781.88,-416.5 781.88,-416.5 775.88,-416.5 769.88,-410.5 769.88,-404.5 769.88,-404.5 769.88,-178.25 769.88,-178.25 769.88,-172.25 775.88,-166.25 781.88,-166.25"/>
<text xml:space="preserve" text-anchor="middle" x="830" y="-403" font-family="Helvetica,sans-Serif" font-size="10.00">Atom Attention Decoder</text>
</g>
<!-- in_s_init -->
<g id="node1" class="node">
<title>in_s_init</title>
<path fill="#e3f2fd" stroke="#1565c0" d="M97.75,-1462.25C97.75,-1462.25 12,-1462.25 12,-1462.25 6,-1462.25 0,-1456.25 0,-1450.25 0,-1450.25 0,-1438.25 0,-1438.25 0,-1432.25 6,-1426.25 12,-1426.25 12,-1426.25 97.75,-1426.25 97.75,-1426.25 103.75,-1426.25 109.75,-1432.25 109.75,-1438.25 109.75,-1438.25 109.75,-1450.25 109.75,-1450.25 109.75,-1456.25 103.75,-1462.25 97.75,-1462.25"/>
<text xml:space="preserve" text-anchor="middle" x="54.88" y="-1440.38" font-family="Helvetica,sans-Serif" font-size="10.00">single_structure [384]</text>
</g>
<!-- cat_s -->
<g id="node8" class="node">
<title>cat_s</title>
<path fill="#ffe0b2" stroke="#e65100" d="M234.62,-1370C234.62,-1370 85.12,-1370 85.12,-1370 79.13,-1370 73.12,-1364 73.12,-1358 73.12,-1358 73.12,-1346 73.12,-1346 73.12,-1340 79.12,-1334 85.12,-1334 85.12,-1334 234.62,-1334 234.62,-1334 240.62,-1334 246.62,-1340 246.62,-1346 246.62,-1346 246.62,-1358 246.62,-1358 246.62,-1364 240.62,-1370 234.62,-1370"/>
<text xml:space="preserve" text-anchor="middle" x="159.88" y="-1354.5" font-family="Helvetica,sans-Serif" font-size="10.00">concat [384 ‖ 384] = 768</text>
<text xml:space="preserve" text-anchor="middle" x="159.88" y="-1343.25" font-family="Helvetica,sans-Serif" font-size="10.00">LN(768) → Linear(768, 384, no bias)</text>
</g>
<!-- in_s_init&#45;&gt;cat_s -->
<g id="edge1" class="edge">
<title>in_s_init&#45;&gt;cat_s</title>
<path fill="none" stroke="black" d="M75.12,-1425.85C91.1,-1412.12 113.59,-1392.79 131.38,-1377.49"/>
<polygon fill="black" stroke="black" points="133.24,-1380.51 138.54,-1371.33 128.68,-1375.2 133.24,-1380.51"/>
</g>
<!-- in_s_trunk -->
<g id="node2" class="node">
<title>in_s_trunk</title>
<path fill="#e3f2fd" stroke="#1565c0" d="M213.5,-1462.25C213.5,-1462.25 144.25,-1462.25 144.25,-1462.25 138.25,-1462.25 132.25,-1456.25 132.25,-1450.25 132.25,-1450.25 132.25,-1438.25 132.25,-1438.25 132.25,-1432.25 138.25,-1426.25 144.25,-1426.25 144.25,-1426.25 213.5,-1426.25 213.5,-1426.25 219.5,-1426.25 225.5,-1432.25 225.5,-1438.25 225.5,-1438.25 225.5,-1450.25 225.5,-1450.25 225.5,-1456.25 219.5,-1462.25 213.5,-1462.25"/>
<text xml:space="preserve" text-anchor="middle" x="178.88" y="-1440.38" font-family="Helvetica,sans-Serif" font-size="10.00">single_trunk [384]</text>
</g>
<!-- in_s_trunk&#45;&gt;cat_s -->
<g id="edge2" class="edge">
<title>in_s_trunk&#45;&gt;cat_s</title>
<path fill="none" stroke="black" d="M175.21,-1425.85C172.56,-1413.24 168.91,-1395.91 165.84,-1381.32"/>
<polygon fill="black" stroke="black" points="169.32,-1380.89 163.84,-1371.83 162.47,-1382.34 169.32,-1380.89"/>
</g>
<!-- in_z_init -->
<g id="node3" class="node">
<title>in_z_init</title>
<path fill="#e3f2fd" stroke="#1565c0" d="M373.88,-1462.25C373.88,-1462.25 297.88,-1462.25 297.88,-1462.25 291.88,-1462.25 285.88,-1456.25 285.88,-1450.25 285.88,-1450.25 285.88,-1438.25 285.88,-1438.25 285.88,-1432.25 291.88,-1426.25 297.88,-1426.25 297.88,-1426.25 373.88,-1426.25 373.88,-1426.25 379.88,-1426.25 385.88,-1432.25 385.88,-1438.25 385.88,-1438.25 385.88,-1450.25 385.88,-1450.25 385.88,-1456.25 379.88,-1462.25 373.88,-1462.25"/>
<text xml:space="preserve" text-anchor="middle" x="335.88" y="-1440.38" font-family="Helvetica,sans-Serif" font-size="10.00">pair_structure [256]</text>
</g>
<!-- cat_z -->
<g id="node13" class="node">
<title>cat_z</title>
<path fill="#ffe0b2" stroke="#e65100" d="M430.62,-1370C430.62,-1370 281.12,-1370 281.12,-1370 275.12,-1370 269.12,-1364 269.12,-1358 269.12,-1358 269.12,-1346 269.12,-1346 269.12,-1340 275.12,-1334 281.12,-1334 281.12,-1334 430.62,-1334 430.62,-1334 436.62,-1334 442.62,-1340 442.62,-1346 442.62,-1346 442.62,-1358 442.62,-1358 442.62,-1364 436.62,-1370 430.62,-1370"/>
<text xml:space="preserve" text-anchor="middle" x="355.88" y="-1354.5" font-family="Helvetica,sans-Serif" font-size="10.00">concat [256 ‖ 256] = 512</text>
<text xml:space="preserve" text-anchor="middle" x="355.88" y="-1343.25" font-family="Helvetica,sans-Serif" font-size="10.00">LN(512) → Linear(512, 256, no bias)</text>
</g>
<!-- in_z_init&#45;&gt;cat_z -->
<g id="edge8" class="edge">
<title>in_z_init&#45;&gt;cat_z</title>
<path fill="none" stroke="black" d="M339.73,-1425.85C342.53,-1413.24 346.37,-1395.91 349.6,-1381.32"/>
<polygon fill="black" stroke="black" points="352.96,-1382.35 351.7,-1371.83 346.12,-1380.83 352.96,-1382.35"/>
</g>
<!-- in_z_trunk -->
<g id="node4" class="node">
<title>in_z_trunk</title>
<path fill="#e3f2fd" stroke="#1565c0" d="M479.62,-1462.25C479.62,-1462.25 420.12,-1462.25 420.12,-1462.25 414.12,-1462.25 408.12,-1456.25 408.12,-1450.25 408.12,-1450.25 408.12,-1438.25 408.12,-1438.25 408.12,-1432.25 414.12,-1426.25 420.12,-1426.25 420.12,-1426.25 479.62,-1426.25 479.62,-1426.25 485.62,-1426.25 491.62,-1432.25 491.62,-1438.25 491.62,-1438.25 491.62,-1450.25 491.62,-1450.25 491.62,-1456.25 485.62,-1462.25 479.62,-1462.25"/>
<text xml:space="preserve" text-anchor="middle" x="449.88" y="-1440.38" font-family="Helvetica,sans-Serif" font-size="10.00">pair_trunk [256]</text>
</g>
<!-- in_z_trunk&#45;&gt;cat_z -->
<g id="edge9" class="edge">
<title>in_z_trunk&#45;&gt;cat_z</title>
<path fill="none" stroke="black" d="M431.75,-1425.85C417.58,-1412.24 397.68,-1393.14 381.82,-1377.91"/>
<polygon fill="black" stroke="black" points="384.67,-1375.8 375.04,-1371.4 379.82,-1380.85 384.67,-1375.8"/>
</g>
<!-- in_sigma -->
<g id="node5" class="node">
<title>in_sigma</title>
<ellipse fill="#ffecb3" stroke="#ff8f00" cx="512.88" cy="-1283" rx="45.86" ry="18"/>
<text xml:space="preserve" text-anchor="middle" x="512.88" y="-1279.12" font-family="Helvetica,sans-Serif" font-size="10.00">σ (noise level)</text>
</g>
<!-- fourier -->
<g id="node10" class="node">
<title>fourier</title>
<path fill="#ffcc80" stroke="#e65100" d="M311.12,-1224C311.12,-1224 182.62,-1224 182.62,-1224 176.62,-1224 170.62,-1218 170.62,-1212 170.62,-1212 170.62,-1191.25 170.62,-1191.25 170.62,-1185.25 176.62,-1179.25 182.62,-1179.25 182.62,-1179.25 311.12,-1179.25 311.12,-1179.25 317.12,-1179.25 323.12,-1185.25 323.12,-1191.25 323.12,-1191.25 323.12,-1212 323.12,-1212 323.12,-1218 317.12,-1224 311.12,-1224"/>
<text xml:space="preserve" text-anchor="middle" x="246.88" y="-1210.5" font-family="Helvetica,sans-Serif" font-size="10.00">Fourier Embedding</text>
<text xml:space="preserve" text-anchor="middle" x="246.88" y="-1199.25" font-family="Helvetica,sans-Serif" font-size="10.00">cos(w·ln(σ)/4 + b) · 2π → 256&#45;d</text>
<text xml:space="preserve" text-anchor="middle" x="246.88" y="-1186.5" font-family="Helvetica,sans-Serif" font-size="10.00">→ LN(256) → Linear(256, 384)</text>
</g>
<!-- in_sigma&#45;&gt;fourier -->
<g id="edge4" class="edge">
<title>in_sigma&#45;&gt;fourier</title>
<path fill="none" stroke="black" d="M478.42,-1270.81C472.25,-1268.84 465.88,-1266.84 459.88,-1265 418.46,-1252.3 372.34,-1238.72 333.63,-1227.49"/>
<polygon fill="black" stroke="black" points="334.95,-1224.23 324.38,-1224.81 333.01,-1230.95 334.95,-1224.23"/>
</g>
<!-- in_noised -->
<g id="node6" class="node">
<title>in_noised</title>
<path fill="#ffecb3" stroke="#ff8f00" d="M1068.62,-1046C1068.62,-1046 991.12,-1046 991.12,-1046 985.12,-1046 979.12,-1040 979.12,-1034 979.12,-1034 979.12,-1022 979.12,-1022 979.12,-1016 985.12,-1010 991.12,-1010 991.12,-1010 1068.62,-1010 1068.62,-1010 1074.62,-1010 1080.62,-1016 1080.62,-1022 1080.62,-1022 1080.62,-1034 1080.62,-1034 1080.62,-1040 1074.62,-1046 1068.62,-1046"/>
<text xml:space="preserve" text-anchor="middle" x="1029.88" y="-1029.75" font-family="Helvetica,sans-Serif" font-size="10.00">noised atom coords</text>
<text xml:space="preserve" text-anchor="middle" x="1029.88" y="-1018.5" font-family="Helvetica,sans-Serif" font-size="10.00">[b, ds, n_atoms, 3]</text>
</g>
<!-- prev_pos -->
<g id="node17" class="node">
<title>prev_pos</title>
<path fill="#c8e6c9" stroke="#2e7d32" d="M887,-963.5C887,-963.5 796.75,-963.5 796.75,-963.5 790.75,-963.5 784.75,-957.5 784.75,-951.5 784.75,-951.5 784.75,-933.75 784.75,-933.75 784.75,-927.75 790.75,-921.75 796.75,-921.75 796.75,-921.75 887,-921.75 887,-921.75 893,-921.75 899,-927.75 899,-933.75 899,-933.75 899,-951.5 899,-951.5 899,-957.5 893,-963.5 887,-963.5"/>
<text xml:space="preserve" text-anchor="middle" x="841.88" y="-950" font-family="Helvetica,sans-Serif" font-size="10.00">prev_pos_embed</text>
<text xml:space="preserve" text-anchor="middle" x="841.88" y="-938.75" font-family="Helvetica,sans-Serif" font-size="10.00">Linear(3, 128, no bias)</text>
<text xml:space="preserve" text-anchor="middle" x="841.88" y="-927.5" font-family="Helvetica,sans-Serif" font-size="10.00">embeds noised coords</text>
</g>
<!-- in_noised&#45;&gt;prev_pos -->
<g id="edge14" class="edge">
<title>in_noised&#45;&gt;prev_pos</title>
<path fill="none" stroke="black" d="M990.46,-1009.52C963.59,-997.6 927.61,-981.65 897.79,-968.42"/>
<polygon fill="black" stroke="black" points="899.46,-965.34 888.9,-964.48 896.63,-971.74 899.46,-965.34"/>
</g>
<!-- edm -->
<g id="node27" class="node">
<title>edm</title>
<path fill="#f5f5f5" stroke="#424242" d="M1090,-133.25C1090,-133.25 795.75,-133.25 795.75,-133.25 789.75,-133.25 783.75,-127.25 783.75,-121.25 783.75,-121.25 783.75,-81 783.75,-81 783.75,-75 789.75,-69 795.75,-69 795.75,-69 1090,-69 1090,-69 1096,-69 1102,-75 1102,-81 1102,-81 1102,-121.25 1102,-121.25 1102,-127.25 1096,-133.25 1090,-133.25"/>
<text xml:space="preserve" text-anchor="middle" x="942.88" y="-119.75" font-family="Helvetica,sans-Serif" font-size="10.00">EDM Output Formula</text>
<text xml:space="preserve" text-anchor="middle" x="942.88" y="-108.5" font-family="Helvetica,sans-Serif" font-size="10.00">D(x;σ) = c_skip·x + c_out·F_θ(c_in·x; σ)</text>
<text xml:space="preserve" text-anchor="middle" x="942.88" y="-97.25" font-family="Helvetica,sans-Serif" font-size="10.00">───────────────────────────────</text>
<text xml:space="preserve" text-anchor="middle" x="942.88" y="-86" font-family="Helvetica,sans-Serif" font-size="10.00">c_in = (σ²+σ_d²)^(&#45;½) &#160;&#160;c_skip = σ_d²/(σ²+σ_d²)</text>
<text xml:space="preserve" text-anchor="middle" x="942.88" y="-74.75" font-family="Helvetica,sans-Serif" font-size="10.00">c_out = σ·σ_d/√(σ²+σ_d²) &#160;&#160;σ_data = 16</text>
</g>
<!-- in_noised&#45;&gt;edm -->
<g id="edge29" class="edge">
<title>in_noised&#45;&gt;edm</title>
<path fill="none" stroke="black" stroke-dasharray="5,2" d="M1027.26,-1009.8C1024.92,-992.97 1021.88,-966.6 1021.88,-943.62 1021.88,-943.62 1021.88,-943.62 1021.88,-199.62 1021.88,-177.55 1009.5,-157.67 994.54,-141.71"/>
<polygon fill="black" stroke="black" points="997.16,-139.38 987.61,-134.8 992.22,-144.34 997.16,-139.38"/>
<text xml:space="preserve" text-anchor="middle" x="1034.62" y="-544.4" font-family="Helvetica,sans-Serif" font-size="8.00">x (skip)</text>
</g>
<!-- in_atom_feats -->
<g id="node7" class="node">
<title>in_atom_feats</title>
<path fill="#e3f2fd" stroke="#1565c0" d="M439.25,-960.62C439.25,-960.62 326.5,-960.62 326.5,-960.62 320.5,-960.62 314.5,-954.62 314.5,-948.62 314.5,-948.62 314.5,-936.62 314.5,-936.62 314.5,-930.62 320.5,-924.62 326.5,-924.62 326.5,-924.62 439.25,-924.62 439.25,-924.62 445.25,-924.62 451.25,-930.62 451.25,-936.62 451.25,-936.62 451.25,-948.62 451.25,-948.62 451.25,-954.62 445.25,-960.62 439.25,-960.62"/>
<text xml:space="preserve" text-anchor="middle" x="382.88" y="-944.38" font-family="Helvetica,sans-Serif" font-size="10.00">atom_single_struct [128]</text>
<text xml:space="preserve" text-anchor="middle" x="382.88" y="-933.12" font-family="Helvetica,sans-Serif" font-size="10.00">block_atom_pair_struct [16]</text>
</g>
<!-- enc_attn -->
<g id="node20" class="node">
<title>enc_attn</title>
<path fill="#a5d6a7" stroke="#1b5e20" d="M756.88,-879.25C756.88,-879.25 638.88,-879.25 638.88,-879.25 632.88,-879.25 626.88,-873.25 626.88,-867.25 626.88,-867.25 626.88,-838.25 626.88,-838.25 626.88,-832.25 632.88,-826.25 638.88,-826.25 638.88,-826.25 756.88,-826.25 756.88,-826.25 762.88,-826.25 768.88,-832.25 768.88,-838.25 768.88,-838.25 768.88,-867.25 768.88,-867.25 768.88,-873.25 762.88,-879.25 756.88,-879.25"/>
<text xml:space="preserve" text-anchor="middle" x="697.88" y="-865.75" font-family="Helvetica,sans-Serif" font-size="10.00">3× Local Attention Blocks</text>
<text xml:space="preserve" text-anchor="middle" x="697.88" y="-854.5" font-family="Helvetica,sans-Serif" font-size="10.00">4 heads, 32 head_dim</text>
<text xml:space="preserve" text-anchor="middle" x="697.88" y="-843.25" font-family="Helvetica,sans-Serif" font-size="10.00">+ 3× Conditioned Transitions</text>
<text xml:space="preserve" text-anchor="middle" x="697.88" y="-832" font-family="Helvetica,sans-Serif" font-size="10.00">(blocked Q=32, KV=128)</text>
</g>
<!-- in_atom_feats&#45;&gt;enc_attn -->
<g id="edge13" class="edge">
<title>in_atom_feats&#45;&gt;enc_attn</title>
<path fill="none" stroke="black" d="M443.85,-924.21C448.6,-922.86 453.31,-921.53 457.88,-920.25 510.28,-905.52 569.19,-889.2 615.53,-876.41"/>
<polygon fill="black" stroke="black" points="616.26,-879.84 624.97,-873.8 614.4,-873.09 616.26,-879.84"/>
<text xml:space="preserve" text-anchor="middle" x="562.37" y="-896.65" font-family="Helvetica,sans-Serif" font-size="8.00">atom feats</text>
</g>
<!-- s_trans1 -->
<g id="node9" class="node">
<title>s_trans1</title>
<path fill="#ffe0b2" stroke="#e65100" d="M238.75,-1301C238.75,-1301 189,-1301 189,-1301 183,-1301 177,-1295 177,-1289 177,-1289 177,-1277 177,-1277 177,-1271 183,-1265 189,-1265 189,-1265 238.75,-1265 238.75,-1265 244.75,-1265 250.75,-1271 250.75,-1277 250.75,-1277 250.75,-1289 250.75,-1289 250.75,-1295 244.75,-1301 238.75,-1301"/>
<text xml:space="preserve" text-anchor="middle" x="213.88" y="-1284.75" font-family="Helvetica,sans-Serif" font-size="10.00">single_trans1</text>
<text xml:space="preserve" text-anchor="middle" x="213.88" y="-1273.5" font-family="Helvetica,sans-Serif" font-size="10.00">SwiGLU (4×)</text>
</g>
<!-- cat_s&#45;&gt;s_trans1 -->
<g id="edge3" class="edge">
<title>cat_s&#45;&gt;s_trans1</title>
<path fill="none" stroke="black" d="M173.78,-1333.75C179.53,-1326.61 186.33,-1318.18 192.67,-1310.31"/>
<polygon fill="black" stroke="black" points="195.33,-1312.59 198.88,-1302.61 189.88,-1308.2 195.33,-1312.59"/>
</g>
<!-- s_trans1&#45;&gt;fourier -->
<g id="edge5" class="edge">
<title>s_trans1&#45;&gt;fourier</title>
<path fill="none" stroke="black" d="M221.04,-1264.78C225.96,-1252.92 232.55,-1237.08 237.84,-1224.36"/>
<text xml:space="preserve" text-anchor="middle" x="232.62" y="-1241.4" font-family="Helvetica,sans-Serif" font-size="8.00">+</text>
</g>
<!-- s_trans2 -->
<g id="node11" class="node">
<title>s_trans2</title>
<path fill="#ffe0b2" stroke="#e65100" d="M293.75,-1138.25C293.75,-1138.25 244,-1138.25 244,-1138.25 238,-1138.25 232,-1132.25 232,-1126.25 232,-1126.25 232,-1114.25 232,-1114.25 232,-1108.25 238,-1102.25 244,-1102.25 244,-1102.25 293.75,-1102.25 293.75,-1102.25 299.75,-1102.25 305.75,-1108.25 305.75,-1114.25 305.75,-1114.25 305.75,-1126.25 305.75,-1126.25 305.75,-1132.25 299.75,-1138.25 293.75,-1138.25"/>
<text xml:space="preserve" text-anchor="middle" x="268.88" y="-1122" font-family="Helvetica,sans-Serif" font-size="10.00">single_trans2</text>
<text xml:space="preserve" text-anchor="middle" x="268.88" y="-1110.75" font-family="Helvetica,sans-Serif" font-size="10.00">SwiGLU (4×)</text>
</g>
<!-- fourier&#45;&gt;s_trans2 -->
<g id="edge6" class="edge">
<title>fourier&#45;&gt;s_trans2</title>
<path fill="none" stroke="black" d="M252.89,-1178.94C255.38,-1169.93 258.31,-1159.35 260.98,-1149.73"/>
<polygon fill="black" stroke="black" points="264.35,-1150.67 263.65,-1140.1 257.61,-1148.81 264.35,-1150.67"/>
<text xml:space="preserve" text-anchor="middle" x="286.19" y="-1155.65" font-family="Helvetica,sans-Serif" font-size="8.00">+ σ embedding</text>
</g>
<!-- s_ln -->
<g id="node12" class="node">
<title>s_ln</title>
<path fill="#ffe0b2" stroke="#e65100" d="M317.75,-1046C317.75,-1046 244,-1046 244,-1046 238,-1046 232,-1040 232,-1034 232,-1034 232,-1022 232,-1022 232,-1016 238,-1010 244,-1010 244,-1010 317.75,-1010 317.75,-1010 323.75,-1010 329.75,-1016 329.75,-1022 329.75,-1022 329.75,-1034 329.75,-1034 329.75,-1040 323.75,-1046 317.75,-1046"/>
<text xml:space="preserve" text-anchor="middle" x="280.88" y="-1024.88" font-family="Helvetica,sans-Serif" font-size="10.00">LN(384) → s_cond</text>
</g>
<!-- s_trans2&#45;&gt;s_ln -->
<g id="edge7" class="edge">
<title>s_trans2&#45;&gt;s_ln</title>
<path fill="none" stroke="black" d="M271.19,-1101.85C272.85,-1089.36 275.12,-1072.26 277.05,-1057.76"/>
<polygon fill="black" stroke="black" points="280.52,-1058.22 278.37,-1047.85 273.58,-1057.3 280.52,-1058.22"/>
</g>
<!-- tok2atom -->
<g id="node16" class="node">
<title>tok2atom</title>
<path fill="#c8e6c9" stroke="#2e7d32" d="M598.88,-965C598.88,-965 486.88,-965 486.88,-965 480.88,-965 474.88,-959 474.88,-953 474.88,-953 474.88,-932.25 474.88,-932.25 474.88,-926.25 480.88,-920.25 486.88,-920.25 486.88,-920.25 598.88,-920.25 598.88,-920.25 604.88,-920.25 610.88,-926.25 610.88,-932.25 610.88,-932.25 610.88,-953 610.88,-953 610.88,-959 604.88,-965 598.88,-965"/>
<text xml:space="preserve" text-anchor="middle" x="542.88" y="-951.5" font-family="Helvetica,sans-Serif" font-size="10.00">token_to_atom_single</text>
<text xml:space="preserve" text-anchor="middle" x="542.88" y="-940.25" font-family="Helvetica,sans-Serif" font-size="10.00">LN(384) → Linear(384, 128)</text>
<text xml:space="preserve" text-anchor="middle" x="542.88" y="-927.5" font-family="Helvetica,sans-Serif" font-size="10.00">broadcast token → atom</text>
</g>
<!-- s_ln&#45;&gt;tok2atom -->
<g id="edge12" class="edge">
<title>s_ln&#45;&gt;tok2atom</title>
<path fill="none" stroke="black" d="M330.16,-1011.32C367.73,-999.36 420.25,-982.65 463.7,-968.82"/>
<polygon fill="black" stroke="black" points="464.63,-972.2 473.1,-965.83 462.5,-965.53 464.63,-972.2"/>
<text xml:space="preserve" text-anchor="middle" x="432.48" y="-982.4" font-family="Helvetica,sans-Serif" font-size="8.00">s_cond</text>
</g>
<!-- dx_attn -->
<g id="node22" class="node">
<title>dx_attn</title>
<path fill="#f8bbd0" stroke="#c62828" d="M856.5,-633.75C856.5,-633.75 739.25,-633.75 739.25,-633.75 733.25,-633.75 727.25,-627.75 727.25,-621.75 727.25,-621.75 727.25,-580 727.25,-580 727.25,-574 733.25,-568 739.25,-568 739.25,-568 856.5,-568 856.5,-568 862.5,-568 868.5,-574 868.5,-580 868.5,-580 868.5,-621.75 868.5,-621.75 868.5,-627.75 862.5,-633.75 856.5,-633.75"/>
<text xml:space="preserve" text-anchor="middle" x="797.88" y="-620.25" font-family="Helvetica,sans-Serif" font-size="10.00">1. Conditioned Self&#45;Attention</text>
<text xml:space="preserve" text-anchor="middle" x="797.88" y="-609" font-family="Helvetica,sans-Serif" font-size="10.00">AdaLN(s_cond) → QKV</text>
<text xml:space="preserve" text-anchor="middle" x="797.88" y="-596.25" font-family="Helvetica,sans-Serif" font-size="10.00">16 heads, 48 head_dim</text>
<text xml:space="preserve" text-anchor="middle" x="797.88" y="-585" font-family="Helvetica,sans-Serif" font-size="10.00">+ pair bias from z_cond</text>
<text xml:space="preserve" text-anchor="middle" x="797.88" y="-573.75" font-family="Helvetica,sans-Serif" font-size="10.00">+ sigmoid gate from s_cond</text>
</g>
<!-- s_ln&#45;&gt;dx_attn -->
<g id="edge22" class="edge">
<title>s_ln&#45;&gt;dx_attn</title>
<path fill="none" stroke="black" d="M280.88,-1009.75C280.88,-992.89 280.88,-966.5 280.88,-943.62 280.88,-943.62 280.88,-943.62 280.88,-765 280.88,-674.93 569.84,-628.36 715.7,-610.59"/>
<polygon fill="black" stroke="black" points="715.79,-614.11 725.3,-609.44 714.95,-607.16 715.79,-614.11"/>
<text xml:space="preserve" text-anchor="middle" x="308.62" y="-854.15" font-family="Helvetica,sans-Serif" font-size="8.00">s_cond</text>
<text xml:space="preserve" text-anchor="middle" x="308.62" y="-845.15" font-family="Helvetica,sans-Serif" font-size="8.00">(AdaLN + gate)</text>
</g>
<!-- z_trans -->
<g id="node14" class="node">
<title>z_trans</title>
<path fill="#ffe0b2" stroke="#e65100" d="M426.75,-1301C426.75,-1301 323,-1301 323,-1301 317,-1301 311,-1295 311,-1289 311,-1289 311,-1277 311,-1277 311,-1271 317,-1265 323,-1265 323,-1265 426.75,-1265 426.75,-1265 432.75,-1265 438.75,-1271 438.75,-1277 438.75,-1277 438.75,-1289 438.75,-1289 438.75,-1295 432.75,-1301 426.75,-1301"/>
<text xml:space="preserve" text-anchor="middle" x="374.88" y="-1285.5" font-family="Helvetica,sans-Serif" font-size="10.00">pair_trans1 → pair_trans2</text>
<text xml:space="preserve" text-anchor="middle" x="374.88" y="-1272.75" font-family="Helvetica,sans-Serif" font-size="10.00">2× SwiGLU (4×)</text>
</g>
<!-- cat_z&#45;&gt;z_trans -->
<g id="edge10" class="edge">
<title>cat_z&#45;&gt;z_trans</title>
<path fill="none" stroke="black" d="M360.77,-1333.75C362.62,-1327.23 364.77,-1319.64 366.83,-1312.37"/>
<polygon fill="black" stroke="black" points="370.16,-1313.46 369.52,-1302.88 363.42,-1311.55 370.16,-1313.46"/>
</g>
<!-- z_ln -->
<g id="node15" class="node">
<title>z_ln</title>
<path fill="#ffe0b2" stroke="#e65100" d="M430.75,-1219.62C430.75,-1219.62 357,-1219.62 357,-1219.62 351,-1219.62 345,-1213.62 345,-1207.62 345,-1207.62 345,-1195.62 345,-1195.62 345,-1189.62 351,-1183.62 357,-1183.62 357,-1183.62 430.75,-1183.62 430.75,-1183.62 436.75,-1183.62 442.75,-1189.62 442.75,-1195.62 442.75,-1195.62 442.75,-1207.62 442.75,-1207.62 442.75,-1213.62 436.75,-1219.62 430.75,-1219.62"/>
<text xml:space="preserve" text-anchor="middle" x="393.88" y="-1198.5" font-family="Helvetica,sans-Serif" font-size="10.00">LN(256) → z_cond</text>
</g>
<!-- z_trans&#45;&gt;z_ln -->
<g id="edge11" class="edge">
<title>z_trans&#45;&gt;z_ln</title>
<path fill="none" stroke="black" d="M379,-1264.78C381.35,-1254.96 384.35,-1242.42 387.04,-1231.17"/>
<polygon fill="black" stroke="black" points="390.42,-1232.1 389.34,-1221.56 383.61,-1230.47 390.42,-1232.1"/>
</g>
<!-- pair2ap -->
<g id="node18" class="node">
<title>pair2ap</title>
<path fill="#c8e6c9" stroke="#2e7d32" d="M672.25,-1046C672.25,-1046 565.5,-1046 565.5,-1046 559.5,-1046 553.5,-1040 553.5,-1034 553.5,-1034 553.5,-1022 553.5,-1022 553.5,-1016 559.5,-1010 565.5,-1010 565.5,-1010 672.25,-1010 672.25,-1010 678.25,-1010 684.25,-1016 684.25,-1022 684.25,-1022 684.25,-1034 684.25,-1034 684.25,-1040 678.25,-1046 672.25,-1046"/>
<text xml:space="preserve" text-anchor="middle" x="618.88" y="-1030.5" font-family="Helvetica,sans-Serif" font-size="10.00">token_pair_to_atom_pair</text>
<text xml:space="preserve" text-anchor="middle" x="618.88" y="-1019.25" font-family="Helvetica,sans-Serif" font-size="10.00">LN(256) → Linear(256, 16)</text>
</g>
<!-- z_ln&#45;&gt;pair2ap -->
<g id="edge17" class="edge">
<title>z_ln&#45;&gt;pair2ap</title>
<path fill="none" stroke="black" d="M416.69,-1183.22C457.03,-1152.45 541.05,-1088.36 587.06,-1053.27"/>
<polygon fill="black" stroke="black" points="588.97,-1056.21 594.8,-1047.36 584.73,-1050.65 588.97,-1056.21"/>
<text xml:space="preserve" text-anchor="middle" x="534.09" y="-1117.15" font-family="Helvetica,sans-Serif" font-size="8.00">z_cond</text>
</g>
<!-- z_ln&#45;&gt;dx_attn -->
<g id="edge23" class="edge">
<title>z_ln&#45;&gt;dx_attn</title>
<path fill="none" stroke="black" stroke-dasharray="1,5" d="M442.77,-1198.69C577.62,-1192.7 944.88,-1171.75 944.88,-1121.25 944.88,-1121.25 944.88,-1121.25 944.88,-765 944.88,-712.59 902.48,-669.43 863.23,-640.69"/>
<polygon fill="black" stroke="black" points="865.29,-637.86 855.1,-634.94 861.24,-643.57 865.29,-637.86"/>
<text xml:space="preserve" text-anchor="middle" x="962.88" y="-944.02" font-family="Helvetica,sans-Serif" font-size="8.00">z_cond</text>
<text xml:space="preserve" text-anchor="middle" x="962.88" y="-935.02" font-family="Helvetica,sans-Serif" font-size="8.00">(pair bias)</text>
</g>
<!-- tok2atom&#45;&gt;enc_attn -->
<g id="edge16" class="edge">
<title>tok2atom&#45;&gt;enc_attn</title>
<path fill="none" stroke="black" d="M581.19,-919.9C599.68,-909.42 622.21,-896.65 642.52,-885.13"/>
<polygon fill="black" stroke="black" points="644,-888.32 650.97,-880.34 640.54,-882.23 644,-888.32"/>
<text xml:space="preserve" text-anchor="middle" x="639.12" y="-896.65" font-family="Helvetica,sans-Serif" font-size="8.00">atom cond</text>
</g>
<!-- prev_pos&#45;&gt;enc_attn -->
<g id="edge15" class="edge">
<title>prev_pos&#45;&gt;enc_attn</title>
<path fill="none" stroke="black" d="M808.84,-921.46C791.44,-910.84 769.69,-897.57 750.06,-885.6"/>
<polygon fill="black" stroke="black" points="751.98,-882.67 741.63,-880.45 748.34,-888.65 751.98,-882.67"/>
<text xml:space="preserve" text-anchor="middle" x="801.75" y="-896.65" font-family="Helvetica,sans-Serif" font-size="8.00">+ pos embed</text>
</g>
<!-- enc_pair_upd -->
<g id="node19" class="node">
<title>enc_pair_upd</title>
<path fill="#c8e6c9" stroke="#2e7d32" d="M750.88,-960.62C750.88,-960.62 644.88,-960.62 644.88,-960.62 638.88,-960.62 632.88,-954.62 632.88,-948.62 632.88,-948.62 632.88,-936.62 632.88,-936.62 632.88,-930.62 638.88,-924.62 644.88,-924.62 644.88,-924.62 750.88,-924.62 750.88,-924.62 756.88,-924.62 762.88,-930.62 762.88,-936.62 762.88,-936.62 762.88,-948.62 762.88,-948.62 762.88,-954.62 756.88,-960.62 750.88,-960.62"/>
<text xml:space="preserve" text-anchor="middle" x="697.88" y="-944.38" font-family="Helvetica,sans-Serif" font-size="10.00">Pair Update Block</text>
<text xml:space="preserve" text-anchor="middle" x="697.88" y="-933.12" font-family="Helvetica,sans-Serif" font-size="10.00">outer&#45;sum + MLP (dim 16)</text>
</g>
<!-- pair2ap&#45;&gt;enc_pair_upd -->
<g id="edge18" class="edge">
<title>pair2ap&#45;&gt;enc_pair_upd</title>
<path fill="none" stroke="black" d="M635.24,-1009.72C646.37,-997.99 661.27,-982.26 673.74,-969.09"/>
<polygon fill="black" stroke="black" points="676.15,-971.64 680.49,-961.98 671.07,-966.83 676.15,-971.64"/>
</g>
<!-- enc_pair_upd&#45;&gt;enc_attn -->
<g id="edge19" class="edge">
<title>enc_pair_upd&#45;&gt;enc_attn</title>
<path fill="none" stroke="black" d="M697.88,-924.26C697.88,-914.74 697.88,-902.54 697.88,-890.97"/>
<polygon fill="black" stroke="black" points="701.38,-891.26 697.88,-881.26 694.38,-891.26 701.38,-891.26"/>
<text xml:space="preserve" text-anchor="middle" x="712.88" y="-896.65" font-family="Helvetica,sans-Serif" font-size="8.00">pair bias</text>
</g>
<!-- enc_agg -->
<g id="node21" class="node">
<title>enc_agg</title>
<path fill="#c8e6c9" stroke="#2e7d32" d="M830.75,-793.25C830.75,-793.25 715,-793.25 715,-793.25 709,-793.25 703,-787.25 703,-781.25 703,-781.25 703,-750.75 703,-750.75 703,-744.75 709,-738.75 715,-738.75 715,-738.75 830.75,-738.75 830.75,-738.75 836.75,-738.75 842.75,-744.75 842.75,-750.75 842.75,-750.75 842.75,-781.25 842.75,-781.25 842.75,-787.25 836.75,-793.25 830.75,-793.25"/>
<text xml:space="preserve" text-anchor="middle" x="772.88" y="-779.75" font-family="Helvetica,sans-Serif" font-size="10.00">to_token_single</text>
<text xml:space="preserve" text-anchor="middle" x="772.88" y="-768.5" font-family="Helvetica,sans-Serif" font-size="10.00">Linear(128, 768, no bias)</text>
<text xml:space="preserve" text-anchor="middle" x="772.88" y="-757.25" font-family="Helvetica,sans-Serif" font-size="10.00">+ masked mean aggregation</text>
<text xml:space="preserve" text-anchor="middle" x="772.88" y="-746" font-family="Helvetica,sans-Serif" font-size="10.00">→ [b, n_tokens, 768]</text>
</g>
<!-- enc_attn&#45;&gt;enc_agg -->
<g id="edge20" class="edge">
<title>enc_attn&#45;&gt;enc_agg</title>
<path fill="none" stroke="black" d="M720.78,-825.86C727.43,-818.35 734.8,-810.03 741.85,-802.06"/>
<polygon fill="black" stroke="black" points="744.32,-804.55 748.32,-794.74 739.08,-799.91 744.32,-804.55"/>
</g>
<!-- enc_agg&#45;&gt;dx_attn -->
<g id="edge21" class="edge">
<title>enc_agg&#45;&gt;dx_attn</title>
<path fill="none" stroke="black" d="M776.95,-738.43C780.81,-713.24 786.67,-674.96 791.21,-645.34"/>
<polygon fill="black" stroke="black" points="794.66,-645.96 792.72,-635.54 787.74,-644.9 794.66,-645.96"/>
<text xml:space="preserve" text-anchor="middle" x="800.78" y="-711.15" font-family="Helvetica,sans-Serif" font-size="8.00">token repr</text>
<text xml:space="preserve" text-anchor="middle" x="800.78" y="-702.15" font-family="Helvetica,sans-Serif" font-size="8.00">[768]</text>
</g>
<!-- dx_trans -->
<g id="node23" class="node">
<title>dx_trans</title>
<path fill="#f8bbd0" stroke="#c62828" d="M868,-527C868,-527 735.75,-527 735.75,-527 729.75,-527 723.75,-521 723.75,-515 723.75,-515 723.75,-484.5 723.75,-484.5 723.75,-478.5 729.75,-472.5 735.75,-472.5 735.75,-472.5 868,-472.5 868,-472.5 874,-472.5 880,-478.5 880,-484.5 880,-484.5 880,-515 880,-515 880,-521 874,-527 868,-527"/>
<text xml:space="preserve" text-anchor="middle" x="801.88" y="-513.5" font-family="Helvetica,sans-Serif" font-size="10.00">2. Conditioned Transition</text>
<text xml:space="preserve" text-anchor="middle" x="801.88" y="-502.25" font-family="Helvetica,sans-Serif" font-size="10.00">AdaLN(s_cond) → SwiGLU (4×)</text>
<text xml:space="preserve" text-anchor="middle" x="801.88" y="-489.5" font-family="Helvetica,sans-Serif" font-size="10.00">working dim 768</text>
<text xml:space="preserve" text-anchor="middle" x="801.88" y="-478.25" font-family="Helvetica,sans-Serif" font-size="10.00">sigmoid gate (bias init &#45;2)</text>
</g>
<!-- dx_attn&#45;&gt;dx_trans -->
<g id="edge24" class="edge">
<title>dx_attn&#45;&gt;dx_trans</title>
<path fill="none" stroke="black" d="M799.17,-567.69C799.55,-558.45 799.96,-548.28 800.34,-538.72"/>
<polygon fill="black" stroke="black" points="803.83,-539.11 800.74,-528.98 796.84,-538.83 803.83,-539.11"/>
</g>
<!-- tok2atom_dec -->
<g id="node24" class="node">
<title>tok2atom_dec</title>
<path fill="#b2dfdb" stroke="#00695c" d="M895.5,-385.25C895.5,-385.25 796.25,-385.25 796.25,-385.25 790.25,-385.25 784.25,-379.25 784.25,-373.25 784.25,-373.25 784.25,-354 784.25,-354 784.25,-348 790.25,-342 796.25,-342 796.25,-342 895.5,-342 895.5,-342 901.5,-342 907.5,-348 907.5,-354 907.5,-354 907.5,-373.25 907.5,-373.25 907.5,-379.25 901.5,-385.25 895.5,-385.25"/>
<text xml:space="preserve" text-anchor="middle" x="845.88" y="-371.75" font-family="Helvetica,sans-Serif" font-size="10.00">token_to_atom</text>
<text xml:space="preserve" text-anchor="middle" x="845.88" y="-360.5" font-family="Helvetica,sans-Serif" font-size="10.00">Linear(768, 128, no bias)</text>
<text xml:space="preserve" text-anchor="middle" x="845.88" y="-349.25" font-family="Helvetica,sans-Serif" font-size="10.00">broadcast token → atom</text>
</g>
<!-- dx_trans&#45;&gt;tok2atom_dec -->
<g id="edge25" class="edge">
<title>dx_trans&#45;&gt;tok2atom_dec</title>
<path fill="none" stroke="black" d="M810.57,-472.25C817.76,-450.34 827.98,-419.17 835.58,-396.01"/>
<polygon fill="black" stroke="black" points="838.81,-397.39 838.6,-386.8 832.16,-395.21 838.81,-397.39"/>
<text xml:space="preserve" text-anchor="middle" x="843.57" y="-434.9" font-family="Helvetica,sans-Serif" font-size="8.00">token repr</text>
<text xml:space="preserve" text-anchor="middle" x="843.57" y="-425.9" font-family="Helvetica,sans-Serif" font-size="8.00">[768]</text>
</g>
<!-- dec_attn -->
<g id="node25" class="node">
<title>dec_attn</title>
<path fill="#80cbc4" stroke="#004d40" d="M916.88,-309C916.88,-309 798.88,-309 798.88,-309 792.88,-309 786.88,-303 786.88,-297 786.88,-297 786.88,-268 786.88,-268 786.88,-262 792.88,-256 798.88,-256 798.88,-256 916.88,-256 916.88,-256 922.88,-256 928.88,-262 928.88,-268 928.88,-268 928.88,-297 928.88,-297 928.88,-303 922.88,-309 916.88,-309"/>
<text xml:space="preserve" text-anchor="middle" x="857.88" y="-295.5" font-family="Helvetica,sans-Serif" font-size="10.00">3× Local Attention Blocks</text>
<text xml:space="preserve" text-anchor="middle" x="857.88" y="-284.25" font-family="Helvetica,sans-Serif" font-size="10.00">4 heads, 32 head_dim</text>
<text xml:space="preserve" text-anchor="middle" x="857.88" y="-273" font-family="Helvetica,sans-Serif" font-size="10.00">+ 3× Conditioned Transitions</text>
<text xml:space="preserve" text-anchor="middle" x="857.88" y="-261.75" font-family="Helvetica,sans-Serif" font-size="10.00">(blocked Q=32, KV=128)</text>
</g>
<!-- tok2atom_dec&#45;&gt;dec_attn -->
<g id="edge26" class="edge">
<title>tok2atom_dec&#45;&gt;dec_attn</title>
<path fill="none" stroke="black" d="M849.03,-341.84C850.02,-335.29 851.15,-327.84 852.26,-320.51"/>
<polygon fill="black" stroke="black" points="855.71,-321.15 853.74,-310.74 848.78,-320.1 855.71,-321.15"/>
</g>
<!-- to_pos -->
<g id="node26" class="node">
<title>to_pos</title>
<path fill="#b2dfdb" stroke="#00695c" d="M933.38,-223C933.38,-223 794.38,-223 794.38,-223 788.38,-223 782.38,-217 782.38,-211 782.38,-211 782.38,-190.25 782.38,-190.25 782.38,-184.25 788.38,-178.25 794.38,-178.25 794.38,-178.25 933.38,-178.25 933.38,-178.25 939.38,-178.25 945.38,-184.25 945.38,-190.25 945.38,-190.25 945.38,-211 945.38,-211 945.38,-217 939.38,-223 933.38,-223"/>
<text xml:space="preserve" text-anchor="middle" x="863.88" y="-209.5" font-family="Helvetica,sans-Serif" font-size="10.00">to_pos_updates</text>
<text xml:space="preserve" text-anchor="middle" x="863.88" y="-198.25" font-family="Helvetica,sans-Serif" font-size="10.00">LN(128) → Linear(128, 3, no bias)</text>
<text xml:space="preserve" text-anchor="middle" x="863.88" y="-185.5" font-family="Helvetica,sans-Serif" font-size="10.00">→ Δxyz per atom</text>
</g>
<!-- dec_attn&#45;&gt;to_pos -->
<g id="edge27" class="edge">
<title>dec_attn&#45;&gt;to_pos</title>
<path fill="none" stroke="black" d="M859.81,-255.79C860.31,-249.07 860.86,-241.73 861.39,-234.69"/>
<polygon fill="black" stroke="black" points="864.88,-235.01 862.14,-224.78 857.9,-234.49 864.88,-235.01"/>
</g>
<!-- to_pos&#45;&gt;edm -->
<g id="edge28" class="edge">
<title>to_pos&#45;&gt;edm</title>
<path fill="none" stroke="black" d="M881.41,-177.99C889.89,-167.51 900.36,-154.59 910.24,-142.4"/>
<polygon fill="black" stroke="black" points="912.77,-144.85 916.34,-134.87 907.33,-140.44 912.77,-144.85"/>
<text xml:space="preserve" text-anchor="middle" x="923.25" y="-150.65" font-family="Helvetica,sans-Serif" font-size="8.00">F_θ output</text>
</g>
<!-- out -->
<g id="node28" class="node">
<title>out</title>
<path fill="#f5f5f5" stroke="#424242" d="M986.88,-36C986.88,-36 898.88,-36 898.88,-36 892.88,-36 886.88,-30 886.88,-24 886.88,-24 886.88,-12 886.88,-12 886.88,-6 892.88,0 898.88,0 898.88,0 986.88,0 986.88,0 992.88,0 998.88,-6 998.88,-12 998.88,-12 998.88,-24 998.88,-24 998.88,-30 992.88,-36 986.88,-36"/>
<text xml:space="preserve" text-anchor="middle" x="942.88" y="-19.75" font-family="Helvetica,sans-Serif" font-size="10.00">denoised atom coords</text>
<text xml:space="preserve" text-anchor="middle" x="942.88" y="-8.5" font-family="Helvetica,sans-Serif" font-size="10.00">[b, ds, n_atoms, 3]</text>
</g>
<!-- edm&#45;&gt;out -->
<g id="edge30" class="edge">
<title>edm&#45;&gt;out</title>
<path fill="none" stroke="black" d="M942.88,-68.53C942.88,-61.63 942.88,-54.37 942.88,-47.6"/>
<polygon fill="black" stroke="black" points="946.38,-47.64 942.88,-37.64 939.38,-47.64 946.38,-47.64"/>
</g>
</g>
</svg>
