<?xml version="1.0" encoding="UTF-8" standalone="no"?>
<!DOCTYPE svg PUBLIC "-//W3C//DTD SVG 1.1//EN"
 "http://www.w3.org/Graphics/SVG/1.1/DTD/svg11.dtd">
<!-- Generated by graphviz version 14.1.4 (20260321.0153)
 -->
<!-- Title: confidence_ranking Pages: 1 -->
<svg width="680pt" height="1211pt"
 viewBox="0.00 0.00 680.00 1211.00" xmlns="http://www.w3.org/2000/svg" xmlns:xlink="http://www.w3.org/1999/xlink">
<g id="graph0" class="graph" transform="scale(1 1) rotate(0) translate(28.8 1182.3)">
<title>confidence_ranking</title>
<polygon fill="white" stroke="none" points="-28.8,28.8 -28.8,-1182.3 650.8,-1182.3 650.8,28.8 -28.8,28.8"/>
<g id="clust1" class="cluster">
<title>cluster_conf</title>
<path fill="#e0f7fa" stroke="#00838f" d="M20,-343C20,-343 407,-343 407,-343 413,-343 419,-349 419,-355 419,-355 419,-1066.75 419,-1066.75 419,-1072.75 413,-1078.75 407,-1078.75 407,-1078.75 20,-1078.75 20,-1078.75 14,-1078.75 8,-1072.75 8,-1066.75 8,-1066.75 8,-355 8,-355 8,-349 14,-343 20,-343"/>
<text xml:space="preserve" text-anchor="middle" x="136.38" y="-1065.25" font-family="Helvetica,sans-Serif" font-size="10.00">Confidence Head &#160;(confidence_head.pt, 14.8M params)</text>
</g>
<g id="clust2" class="cluster">
<title>cluster_conf_pf</title>
<path fill="white" stroke="#0097a7" stroke-dasharray="5,2" d="M199,-455.25C199,-455.25 315,-455.25 315,-455.25 321,-455.25 327,-461.25 327,-467.25 327,-467.25 327,-838.25 327,-838.25 327,-844.25 321,-850.25 315,-850.25 315,-850.25 199,-850.25 199,-850.25 193,-850.25 187,-844.25 187,-838.25 187,-838.25 187,-467.25 187,-467.25 187,-461.25 193,-455.25 199,-455.25"/>
<text xml:space="preserve" text-anchor="middle" x="236.25" y="-837.7" font-family="Helvetica,sans-Serif" font-size="9.00"> &#160;4× PairformerBlock</text>
</g>
<g id="clust3" class="cluster">
<title>cluster_scoring</title>
<path fill="#fff3e0" stroke="#e65100" d="M120,-143.75C120,-143.75 602,-143.75 602,-143.75 608,-143.75 614,-149.75 614,-155.75 614,-155.75 614,-314 614,-314 614,-320 608,-326 602,-326 602,-326 120,-326 120,-326 114,-326 108,-320 108,-314 108,-314 108,-155.75 108,-155.75 108,-149.75 114,-143.75 120,-143.75"/>
<text xml:space="preserve" text-anchor="middle" x="177.88" y="-312.5" font-family="Helvetica,sans-Serif" font-size="10.00">Score Computation (Python)</text>
</g>
<!-- in_s_init -->
<g id="node1" class="node">
<title>in_s_init</title>
<path fill="#e3f2fd" stroke="#1565c0" d="M151,-1150.62C151,-1150.62 81,-1150.62 81,-1150.62 75,-1150.62 69,-1144.62 69,-1138.62 69,-1138.62 69,-1126.62 69,-1126.62 69,-1120.62 75,-1114.62 81,-1114.62 81,-1114.62 151,-1114.62 151,-1114.62 157,-1114.62 163,-1120.62 163,-1126.62 163,-1126.62 163,-1138.62 163,-1138.62 163,-1144.62 157,-1150.62 151,-1150.62"/>
<text xml:space="preserve" text-anchor="middle" x="116" y="-1128.75" font-family="Helvetica,sans-Serif" font-size="10.00">single_initial [384]</text>
</g>
<!-- s2p -->
<g id="node5" class="node">
<title>s2p</title>
<path fill="#b2ebf2" stroke="#00838f" d="M223.62,-1035.5C223.62,-1035.5 124.38,-1035.5 124.38,-1035.5 118.38,-1035.5 112.38,-1029.5 112.38,-1023.5 112.38,-1023.5 112.38,-991.5 112.38,-991.5 112.38,-985.5 118.38,-979.5 124.38,-979.5 124.38,-979.5 223.62,-979.5 223.62,-979.5 229.62,-979.5 235.62,-985.5 235.62,-991.5 235.62,-991.5 235.62,-1023.5 235.62,-1023.5 235.62,-1029.5 229.62,-1035.5 223.62,-1035.5"/>
<text xml:space="preserve" text-anchor="middle" x="174" y="-1022" font-family="Helvetica,sans-Serif" font-size="10.00">single_to_pair_proj</text>
<text xml:space="preserve" text-anchor="middle" x="174" y="-1010.75" font-family="Helvetica,sans-Serif" font-size="10.00">Linear(384, 512, no bias)</text>
<text xml:space="preserve" text-anchor="middle" x="174" y="-999.5" font-family="Helvetica,sans-Serif" font-size="10.00">chunk → 256+256</text>
<text xml:space="preserve" text-anchor="middle" x="174" y="-986.75" font-family="Helvetica,sans-Serif" font-size="10.00">outer sum → pair init</text>
</g>
<!-- in_s_init&#45;&gt;s2p -->
<g id="edge1" class="edge">
<title>in_s_init&#45;&gt;s2p</title>
<path fill="none" stroke="black" d="M124.19,-1114.25C132.49,-1096.62 145.6,-1068.78 156.29,-1046.09"/>
<polygon fill="black" stroke="black" points="159.42,-1047.67 160.51,-1037.13 153.09,-1044.69 159.42,-1047.67"/>
<text xml:space="preserve" text-anchor="middle" x="146.54" y="-1088.15" font-family="Helvetica,sans-Serif" font-size="8.00">single</text>
</g>
<!-- in_s_trunk -->
<g id="node2" class="node">
<title>in_s_trunk</title>
<path fill="#e3f2fd" stroke="#1565c0" d="M266.62,-1150.62C266.62,-1150.62 197.38,-1150.62 197.38,-1150.62 191.38,-1150.62 185.38,-1144.62 185.38,-1138.62 185.38,-1138.62 185.38,-1126.62 185.38,-1126.62 185.38,-1120.62 191.38,-1114.62 197.38,-1114.62 197.38,-1114.62 266.62,-1114.62 266.62,-1114.62 272.62,-1114.62 278.62,-1120.62 278.62,-1126.62 278.62,-1126.62 278.62,-1138.62 278.62,-1138.62 278.62,-1144.62 272.62,-1150.62 266.62,-1150.62"/>
<text xml:space="preserve" text-anchor="middle" x="232" y="-1128.75" font-family="Helvetica,sans-Serif" font-size="10.00">single_trunk [384]</text>
</g>
<!-- in_s_trunk&#45;&gt;s2p -->
<g id="edge2" class="edge">
<title>in_s_trunk&#45;&gt;s2p</title>
<path fill="none" stroke="black" stroke-dasharray="1,5" d="M223.81,-1114.25C215.51,-1096.62 202.4,-1068.78 191.71,-1046.09"/>
<polygon fill="black" stroke="black" points="194.91,-1044.69 187.49,-1037.13 188.58,-1047.67 194.91,-1044.69"/>
</g>
<!-- in_z_trunk -->
<g id="node3" class="node">
<title>in_z_trunk</title>
<path fill="#e3f2fd" stroke="#1565c0" d="M502.75,-922.88C502.75,-922.88 443.25,-922.88 443.25,-922.88 437.25,-922.88 431.25,-916.88 431.25,-910.88 431.25,-910.88 431.25,-898.88 431.25,-898.88 431.25,-892.88 437.25,-886.88 443.25,-886.88 443.25,-886.88 502.75,-886.88 502.75,-886.88 508.75,-886.88 514.75,-892.88 514.75,-898.88 514.75,-898.88 514.75,-910.88 514.75,-910.88 514.75,-916.88 508.75,-922.88 502.75,-922.88"/>
<text xml:space="preserve" text-anchor="middle" x="473" y="-901" font-family="Helvetica,sans-Serif" font-size="10.00">pair_trunk [256]</text>
</g>
<!-- cf_pt -->
<g id="node8" class="node">
<title>cf_pt</title>
<path fill="#80deea" stroke="#00838f" d="M303.75,-822.5C303.75,-822.5 214.25,-822.5 214.25,-822.5 208.25,-822.5 202.25,-816.5 202.25,-810.5 202.25,-810.5 202.25,-798.5 202.25,-798.5 202.25,-792.5 208.25,-786.5 214.25,-786.5 214.25,-786.5 303.75,-786.5 303.75,-786.5 309.75,-786.5 315.75,-792.5 315.75,-798.5 315.75,-798.5 315.75,-810.5 315.75,-810.5 315.75,-816.5 309.75,-822.5 303.75,-822.5"/>
<text xml:space="preserve" text-anchor="middle" x="259" y="-806.25" font-family="Helvetica,sans-Serif" font-size="10.00">Pair Transition</text>
<text xml:space="preserve" text-anchor="middle" x="259" y="-795" font-family="Helvetica,sans-Serif" font-size="10.00">SwiGLU (4×) &#160;dim 256</text>
</g>
<!-- in_z_trunk&#45;&gt;cf_pt -->
<g id="edge3" class="edge">
<title>in_z_trunk&#45;&gt;cf_pt</title>
<path fill="none" stroke="black" d="M458.13,-886.7C449.09,-877.17 436.84,-865.77 424,-858.25 394.3,-840.86 358.17,-828.48 327.31,-820.1"/>
<polygon fill="black" stroke="black" points="328.22,-816.72 317.66,-817.58 326.45,-823.49 328.22,-816.72"/>
<text xml:space="preserve" text-anchor="middle" x="442.81" y="-859.65" font-family="Helvetica,sans-Serif" font-size="8.00">pair</text>
</g>
<!-- in_coords -->
<g id="node4" class="node">
<title>in_coords</title>
<path fill="#ffecb3" stroke="#ff8f00" d="M489.12,-1153.5C489.12,-1153.5 392.88,-1153.5 392.88,-1153.5 386.88,-1153.5 380.88,-1147.5 380.88,-1141.5 380.88,-1141.5 380.88,-1123.75 380.88,-1123.75 380.88,-1117.75 386.88,-1111.75 392.88,-1111.75 392.88,-1111.75 489.12,-1111.75 489.12,-1111.75 495.12,-1111.75 501.12,-1117.75 501.12,-1123.75 501.12,-1123.75 501.12,-1141.5 501.12,-1141.5 501.12,-1147.5 495.12,-1153.5 489.12,-1153.5"/>
<text xml:space="preserve" text-anchor="middle" x="441" y="-1140" font-family="Helvetica,sans-Serif" font-size="10.00">predicted atom coords</text>
<text xml:space="preserve" text-anchor="middle" x="441" y="-1128.75" font-family="Helvetica,sans-Serif" font-size="10.00">[1, n_atoms, 3]</text>
<text xml:space="preserve" text-anchor="middle" x="441" y="-1117.5" font-family="Helvetica,sans-Serif" font-size="10.00">(per sample, sequential)</text>
</g>
<!-- dist -->
<g id="node6" class="node">
<title>dist</title>
<path fill="#b2ebf2" stroke="#00838f" d="M394.75,-1047.5C394.75,-1047.5 269.25,-1047.5 269.25,-1047.5 263.25,-1047.5 257.25,-1041.5 257.25,-1035.5 257.25,-1035.5 257.25,-979.5 257.25,-979.5 257.25,-973.5 263.25,-967.5 269.25,-967.5 269.25,-967.5 394.75,-967.5 394.75,-967.5 400.75,-967.5 406.75,-973.5 406.75,-979.5 406.75,-979.5 406.75,-1035.5 406.75,-1035.5 406.75,-1041.5 400.75,-1047.5 394.75,-1047.5"/>
<text xml:space="preserve" text-anchor="middle" x="332" y="-1034" font-family="Helvetica,sans-Serif" font-size="10.00">Pairwise Distances</text>
<text xml:space="preserve" text-anchor="middle" x="332" y="-1022.75" font-family="Helvetica,sans-Serif" font-size="10.00">select repr atoms via</text>
<text xml:space="preserve" text-anchor="middle" x="332" y="-1011.5" font-family="Helvetica,sans-Serif" font-size="10.00">token_reference_atom_index</text>
<text xml:space="preserve" text-anchor="middle" x="332" y="-1000.25" font-family="Helvetica,sans-Serif" font-size="10.00">→ torch.cdist</text>
<text xml:space="preserve" text-anchor="middle" x="332" y="-987.5" font-family="Helvetica,sans-Serif" font-size="10.00">→ searchsorted (15 bin edges)</text>
<text xml:space="preserve" text-anchor="middle" x="332" y="-974.75" font-family="Helvetica,sans-Serif" font-size="10.00">→ one_hot(16 classes)</text>
</g>
<!-- in_coords&#45;&gt;dist -->
<g id="edge4" class="edge">
<title>in_coords&#45;&gt;dist</title>
<path fill="none" stroke="black" d="M423,-1111.29C409.79,-1096.37 391.27,-1075.46 374.39,-1056.39"/>
<polygon fill="black" stroke="black" points="377.03,-1054.09 367.78,-1048.92 371.79,-1058.73 377.03,-1054.09"/>
</g>
<!-- clash -->
<g id="node20" class="node">
<title>clash</title>
<path fill="#ffe0b2" stroke="#e65100" d="M590.12,-294.75C590.12,-294.75 499.88,-294.75 499.88,-294.75 493.88,-294.75 487.88,-288.75 487.88,-282.75 487.88,-282.75 487.88,-242.5 487.88,-242.5 487.88,-236.5 493.88,-230.5 499.88,-230.5 499.88,-230.5 590.12,-230.5 590.12,-230.5 596.12,-230.5 602.12,-236.5 602.12,-242.5 602.12,-242.5 602.12,-282.75 602.12,-282.75 602.12,-288.75 596.12,-294.75 590.12,-294.75"/>
<text xml:space="preserve" text-anchor="middle" x="545" y="-281.25" font-family="Helvetica,sans-Serif" font-size="10.00">Clash Detection</text>
<text xml:space="preserve" text-anchor="middle" x="545" y="-270" font-family="Helvetica,sans-Serif" font-size="10.00">cdist &lt; 1.1 Å</text>
<text xml:space="preserve" text-anchor="middle" x="545" y="-258.75" font-family="Helvetica,sans-Serif" font-size="10.00">polymer–polymer pairs</text>
<text xml:space="preserve" text-anchor="middle" x="545" y="-247.5" font-family="Helvetica,sans-Serif" font-size="10.00">max_clashes=100</text>
<text xml:space="preserve" text-anchor="middle" x="545" y="-236.25" font-family="Helvetica,sans-Serif" font-size="10.00">max_clash_ratio=0.5</text>
</g>
<!-- in_coords&#45;&gt;clash -->
<g id="edge17" class="edge">
<title>in_coords&#45;&gt;clash</title>
<path fill="none" stroke="black" d="M476.06,-1111.26C507.6,-1090.03 549,-1053.57 549,-1008.5 549,-1008.5 549,-1008.5 549,-387.62 549,-360.72 548.05,-330.56 547.07,-306.71"/>
<polygon fill="black" stroke="black" points="550.57,-306.57 546.65,-296.73 543.58,-306.87 550.57,-306.57"/>
<text xml:space="preserve" text-anchor="middle" x="564.38" y="-693.9" font-family="Helvetica,sans-Serif" font-size="8.00">atom</text>
<text xml:space="preserve" text-anchor="middle" x="564.38" y="-684.9" font-family="Helvetica,sans-Serif" font-size="8.00">positions</text>
</g>
<!-- dist_proj -->
<g id="node7" class="node">
<title>dist_proj</title>
<path fill="#b2ebf2" stroke="#00838f" d="M322.12,-926.5C322.12,-926.5 195.88,-926.5 195.88,-926.5 189.88,-926.5 183.88,-920.5 183.88,-914.5 183.88,-914.5 183.88,-895.25 183.88,-895.25 183.88,-889.25 189.88,-883.25 195.88,-883.25 195.88,-883.25 322.12,-883.25 322.12,-883.25 328.12,-883.25 334.12,-889.25 334.12,-895.25 334.12,-895.25 334.12,-914.5 334.12,-914.5 334.12,-920.5 328.12,-926.5 322.12,-926.5"/>
<text xml:space="preserve" text-anchor="middle" x="259" y="-913" font-family="Helvetica,sans-Serif" font-size="10.00">atom_distance_bins_projection</text>
<text xml:space="preserve" text-anchor="middle" x="259" y="-901.75" font-family="Helvetica,sans-Serif" font-size="10.00">Linear(16, 256, no bias)</text>
<text xml:space="preserve" text-anchor="middle" x="259" y="-890.5" font-family="Helvetica,sans-Serif" font-size="10.00">→ added to pair repr</text>
</g>
<!-- s2p&#45;&gt;dist_proj -->
<g id="edge5" class="edge">
<title>s2p&#45;&gt;dist_proj</title>
<path fill="none" stroke="black" d="M197.23,-979C208.6,-965.54 222.3,-949.32 233.91,-935.57"/>
<polygon fill="black" stroke="black" points="236.44,-938.01 240.22,-928.11 231.09,-933.49 236.44,-938.01"/>
<text xml:space="preserve" text-anchor="middle" x="239.36" y="-943.9" font-family="Helvetica,sans-Serif" font-size="8.00">pair init</text>
</g>
<!-- dist&#45;&gt;dist_proj -->
<g id="edge6" class="edge">
<title>dist&#45;&gt;dist_proj</title>
<path fill="none" stroke="black" d="M303.36,-967.02C295.93,-956.78 288.04,-945.91 281.01,-936.22"/>
<polygon fill="black" stroke="black" points="283.91,-934.25 275.21,-928.21 278.25,-938.36 283.91,-934.25"/>
</g>
<!-- dist_proj&#45;&gt;cf_pt -->
<g id="edge7" class="edge">
<title>dist_proj&#45;&gt;cf_pt</title>
<path fill="none" stroke="black" d="M259,-883.01C259,-868.72 259,-849.59 259,-833.91"/>
<polygon fill="black" stroke="black" points="262.5,-834.24 259,-824.24 255.5,-834.24 262.5,-834.24"/>
</g>
<!-- cf_apb -->
<g id="node9" class="node">
<title>cf_apb</title>
<path fill="#80deea" stroke="#00838f" d="M303.62,-753.5C303.62,-753.5 210.38,-753.5 210.38,-753.5 204.38,-753.5 198.38,-747.5 198.38,-741.5 198.38,-741.5 198.38,-729.5 198.38,-729.5 198.38,-723.5 204.38,-717.5 210.38,-717.5 210.38,-717.5 303.62,-717.5 303.62,-717.5 309.62,-717.5 315.62,-723.5 315.62,-729.5 315.62,-729.5 315.62,-741.5 315.62,-741.5 315.62,-747.5 309.62,-753.5 303.62,-753.5"/>
<text xml:space="preserve" text-anchor="middle" x="257" y="-737.25" font-family="Helvetica,sans-Serif" font-size="10.00">Attention Pair Bias</text>
<text xml:space="preserve" text-anchor="middle" x="257" y="-726" font-family="Helvetica,sans-Serif" font-size="10.00">16 heads, 24 head_dim</text>
</g>
<!-- cf_pt&#45;&gt;cf_apb -->
<g id="edge8" class="edge">
<title>cf_pt&#45;&gt;cf_apb</title>
<path fill="none" stroke="black" d="M258.48,-786.25C258.3,-779.89 258.07,-772.5 257.86,-765.39"/>
<polygon fill="black" stroke="black" points="261.36,-765.33 257.57,-755.44 254.37,-765.54 261.36,-765.33"/>
</g>
<!-- cf_st -->
<g id="node10" class="node">
<title>cf_st</title>
<path fill="#80deea" stroke="#00838f" d="M301.75,-667.5C301.75,-667.5 212.25,-667.5 212.25,-667.5 206.25,-667.5 200.25,-661.5 200.25,-655.5 200.25,-655.5 200.25,-643.5 200.25,-643.5 200.25,-637.5 206.25,-631.5 212.25,-631.5 212.25,-631.5 301.75,-631.5 301.75,-631.5 307.75,-631.5 313.75,-637.5 313.75,-643.5 313.75,-643.5 313.75,-655.5 313.75,-655.5 313.75,-661.5 307.75,-667.5 301.75,-667.5"/>
<text xml:space="preserve" text-anchor="middle" x="257" y="-651.25" font-family="Helvetica,sans-Serif" font-size="10.00">Single Transition</text>
<text xml:space="preserve" text-anchor="middle" x="257" y="-640" font-family="Helvetica,sans-Serif" font-size="10.00">SwiGLU (4×) &#160;dim 384</text>
</g>
<!-- cf_apb&#45;&gt;cf_st -->
<g id="edge9" class="edge">
<title>cf_apb&#45;&gt;cf_st</title>
<path fill="none" stroke="black" d="M257,-717.1C257,-706.17 257,-691.82 257,-679.23"/>
<polygon fill="black" stroke="black" points="260.5,-679.4 257,-669.4 253.5,-679.4 260.5,-679.4"/>
</g>
<!-- cf_tm -->
<g id="node11" class="node">
<title>cf_tm</title>
<path fill="#80deea" stroke="#00838f" d="M305.12,-598.5C305.12,-598.5 208.88,-598.5 208.88,-598.5 202.88,-598.5 196.88,-592.5 196.88,-586.5 196.88,-586.5 196.88,-574.5 196.88,-574.5 196.88,-568.5 202.88,-562.5 208.88,-562.5 208.88,-562.5 305.12,-562.5 305.12,-562.5 311.12,-562.5 317.12,-568.5 317.12,-574.5 317.12,-574.5 317.12,-586.5 317.12,-586.5 317.12,-592.5 311.12,-598.5 305.12,-598.5"/>
<text xml:space="preserve" text-anchor="middle" x="257" y="-582.25" font-family="Helvetica,sans-Serif" font-size="10.00">Triangle Multiplication</text>
<text xml:space="preserve" text-anchor="middle" x="257" y="-571" font-family="Helvetica,sans-Serif" font-size="10.00">both dirs, sigmoid gated</text>
</g>
<!-- cf_st&#45;&gt;cf_tm -->
<g id="edge10" class="edge">
<title>cf_st&#45;&gt;cf_tm</title>
<path fill="none" stroke="black" d="M257,-631.25C257,-624.89 257,-617.5 257,-610.39"/>
<polygon fill="black" stroke="black" points="260.5,-610.44 257,-600.44 253.5,-610.44 260.5,-610.44"/>
</g>
<!-- cf_ta -->
<g id="node12" class="node">
<title>cf_ta</title>
<path fill="#4dd0e1" stroke="#006064" d="M302.62,-529.5C302.62,-529.5 209.38,-529.5 209.38,-529.5 203.38,-529.5 197.38,-523.5 197.38,-517.5 197.38,-517.5 197.38,-477.25 197.38,-477.25 197.38,-471.25 203.38,-465.25 209.38,-465.25 209.38,-465.25 302.62,-465.25 302.62,-465.25 308.62,-465.25 314.62,-471.25 314.62,-477.25 314.62,-477.25 314.62,-517.5 314.62,-517.5 314.62,-523.5 308.62,-529.5 302.62,-529.5"/>
<text xml:space="preserve" text-anchor="middle" x="256" y="-516" font-family="Helvetica,sans-Serif" font-size="10.00">Triangle Attention</text>
<text xml:space="preserve" text-anchor="middle" x="256" y="-504.75" font-family="Helvetica,sans-Serif" font-size="10.00">(different variant)</text>
<text xml:space="preserve" text-anchor="middle" x="256" y="-493.5" font-family="Helvetica,sans-Serif" font-size="10.00">8 heads, 64 head_dim</text>
<text xml:space="preserve" text-anchor="middle" x="256" y="-482.25" font-family="Helvetica,sans-Serif" font-size="10.00">fused 2056&#45;d projection</text>
<text xml:space="preserve" text-anchor="middle" x="256" y="-471" font-family="Helvetica,sans-Serif" font-size="10.00">both dirs</text>
</g>
<!-- cf_tm&#45;&gt;cf_ta -->
<g id="edge11" class="edge">
<title>cf_tm&#45;&gt;cf_ta</title>
<path fill="none" stroke="black" d="M256.79,-562.3C256.71,-556.06 256.62,-548.7 256.53,-541.24"/>
<polygon fill="black" stroke="black" points="260.03,-541.43 256.41,-531.48 253.03,-541.52 260.03,-541.43"/>
</g>
<!-- plddt_head -->
<g id="node13" class="node">
<title>plddt_head</title>
<path fill="#b2ebf2" stroke="#00838f" d="M394.62,-422.25C394.62,-422.25 289.38,-422.25 289.38,-422.25 283.38,-422.25 277.38,-416.25 277.38,-410.25 277.38,-410.25 277.38,-367 277.38,-367 277.38,-361 283.38,-355 289.38,-355 289.38,-355 394.62,-355 394.62,-355 400.62,-355 406.62,-361 406.62,-367 406.62,-367 406.62,-410.25 406.62,-410.25 406.62,-416.25 400.62,-422.25 394.62,-422.25"/>
<text xml:space="preserve" text-anchor="middle" x="342" y="-408.75" font-family="Helvetica,sans-Serif" font-size="10.00">pLDDT</text>
<text xml:space="preserve" text-anchor="middle" x="342" y="-397.5" font-family="Helvetica,sans-Serif" font-size="10.00">Linear(384, 1850)</text>
<text xml:space="preserve" text-anchor="middle" x="342" y="-386.25" font-family="Helvetica,sans-Serif" font-size="10.00">reshape → [n_tok, 37, 50]</text>
<text xml:space="preserve" text-anchor="middle" x="342" y="-373.5" font-family="Helvetica,sans-Serif" font-size="10.00">scatter to atoms</text>
<text xml:space="preserve" text-anchor="middle" x="342" y="-362.25" font-family="Helvetica,sans-Serif" font-size="10.00">→ [n_atoms, 50]</text>
</g>
<!-- cf_ta&#45;&gt;plddt_head -->
<g id="edge12" class="edge">
<title>cf_ta&#45;&gt;plddt_head</title>
<path fill="none" stroke="black" d="M281.34,-464.92C289.78,-454.44 299.33,-442.59 308.3,-431.45"/>
<polygon fill="black" stroke="black" points="310.85,-433.87 314.4,-423.89 305.4,-429.48 310.85,-433.87"/>
<text xml:space="preserve" text-anchor="middle" x="311.7" y="-439.65" font-family="Helvetica,sans-Serif" font-size="8.00">single</text>
</g>
<!-- pae_head -->
<g id="node14" class="node">
<title>pae_head</title>
<path fill="#b2ebf2" stroke="#00838f" d="M243.38,-415.88C243.38,-415.88 160.62,-415.88 160.62,-415.88 154.62,-415.88 148.62,-409.88 148.62,-403.88 148.62,-403.88 148.62,-373.38 148.62,-373.38 148.62,-367.38 154.62,-361.38 160.62,-361.38 160.62,-361.38 243.38,-361.38 243.38,-361.38 249.38,-361.38 255.38,-367.38 255.38,-373.38 255.38,-373.38 255.38,-403.88 255.38,-403.88 255.38,-409.88 249.38,-415.88 243.38,-415.88"/>
<text xml:space="preserve" text-anchor="middle" x="202" y="-402.38" font-family="Helvetica,sans-Serif" font-size="10.00">PAE</text>
<text xml:space="preserve" text-anchor="middle" x="202" y="-391.12" font-family="Helvetica,sans-Serif" font-size="10.00">Linear(256, 64)</text>
<text xml:space="preserve" text-anchor="middle" x="202" y="-379.88" font-family="Helvetica,sans-Serif" font-size="10.00">→ [n_tok, n_tok, 64]</text>
<text xml:space="preserve" text-anchor="middle" x="202" y="-367.12" font-family="Helvetica,sans-Serif" font-size="10.00">64 bins over [0, 32]Å</text>
</g>
<!-- cf_ta&#45;&gt;pae_head -->
<g id="edge13" class="edge">
<title>cf_ta&#45;&gt;pae_head</title>
<path fill="none" stroke="black" d="M240.09,-464.92C233.97,-452.82 226.92,-438.89 220.57,-426.33"/>
<polygon fill="black" stroke="black" points="223.75,-424.86 216.11,-417.52 217.5,-428.02 223.75,-424.86"/>
<text xml:space="preserve" text-anchor="middle" x="237.37" y="-439.65" font-family="Helvetica,sans-Serif" font-size="8.00">pair</text>
</g>
<!-- pde_head -->
<g id="node15" class="node">
<title>pde_head</title>
<path fill="#b2ebf2" stroke="#00838f" d="M114.38,-415.88C114.38,-415.88 31.62,-415.88 31.62,-415.88 25.62,-415.88 19.63,-409.88 19.63,-403.88 19.63,-403.88 19.63,-373.38 19.63,-373.38 19.63,-367.38 25.63,-361.38 31.63,-361.38 31.63,-361.38 114.38,-361.38 114.38,-361.38 120.38,-361.38 126.38,-367.38 126.38,-373.38 126.38,-373.38 126.38,-403.88 126.38,-403.88 126.38,-409.88 120.38,-415.88 114.38,-415.88"/>
<text xml:space="preserve" text-anchor="middle" x="73" y="-402.38" font-family="Helvetica,sans-Serif" font-size="10.00">PDE</text>
<text xml:space="preserve" text-anchor="middle" x="73" y="-391.12" font-family="Helvetica,sans-Serif" font-size="10.00">Linear(256, 64)</text>
<text xml:space="preserve" text-anchor="middle" x="73" y="-379.88" font-family="Helvetica,sans-Serif" font-size="10.00">→ [n_tok, n_tok, 64]</text>
<text xml:space="preserve" text-anchor="middle" x="73" y="-367.12" font-family="Helvetica,sans-Serif" font-size="10.00">64 bins over [0, 32]Å</text>
</g>
<!-- cf_ta&#45;&gt;pde_head -->
<g id="edge14" class="edge">
<title>cf_ta&#45;&gt;pde_head</title>
<path fill="none" stroke="black" d="M202.08,-464.92C178.93,-451.42 151.89,-435.64 128.55,-422.03"/>
<polygon fill="black" stroke="black" points="130.51,-419.12 120.11,-417.11 126.98,-425.17 130.51,-419.12"/>
<text xml:space="preserve" text-anchor="middle" x="176.74" y="-439.65" font-family="Helvetica,sans-Serif" font-size="8.00">pair</text>
</g>
<!-- plddt_score -->
<g id="node16" class="node">
<title>plddt_score</title>
<path fill="#ffe0b2" stroke="#e65100" d="M453.62,-284.25C453.62,-284.25 318.38,-284.25 318.38,-284.25 312.38,-284.25 306.38,-278.25 306.38,-272.25 306.38,-272.25 306.38,-253 306.38,-253 306.38,-247 312.38,-241 318.38,-241 318.38,-241 453.62,-241 453.62,-241 459.62,-241 465.62,-247 465.62,-253 465.62,-253 465.62,-272.25 465.62,-272.25 465.62,-278.25 459.62,-284.25 453.62,-284.25"/>
<text xml:space="preserve" text-anchor="middle" x="386" y="-270.75" font-family="Helvetica,sans-Serif" font-size="10.00">pLDDT Score</text>
<text xml:space="preserve" text-anchor="middle" x="386" y="-259.5" font-family="Helvetica,sans-Serif" font-size="10.00">softmax → weighted expectation</text>
<text xml:space="preserve" text-anchor="middle" x="386" y="-246.75" font-family="Helvetica,sans-Serif" font-size="10.00">of bin centers over [0, 1]</text>
</g>
<!-- plddt_head&#45;&gt;plddt_score -->
<g id="edge15" class="edge">
<title>plddt_head&#45;&gt;plddt_score</title>
<path fill="none" stroke="black" d="M353.68,-354.72C360.21,-336.3 368.32,-313.45 374.78,-295.24"/>
<polygon fill="black" stroke="black" points="378.01,-296.61 378.06,-286.02 371.41,-294.27 378.01,-296.61"/>
</g>
<!-- tm_score -->
<g id="node17" class="node">
<title>tm_score</title>
<path fill="#ffe0b2" stroke="#e65100" d="M272.25,-284.25C272.25,-284.25 131.75,-284.25 131.75,-284.25 125.75,-284.25 119.75,-278.25 119.75,-272.25 119.75,-272.25 119.75,-253 119.75,-253 119.75,-247 125.75,-241 131.75,-241 131.75,-241 272.25,-241 272.25,-241 278.25,-241 284.25,-247 284.25,-253 284.25,-253 284.25,-272.25 284.25,-272.25 284.25,-278.25 278.25,-284.25 272.25,-284.25"/>
<text xml:space="preserve" text-anchor="middle" x="202" y="-270.75" font-family="Helvetica,sans-Serif" font-size="10.00">TM&#45;Score</text>
<text xml:space="preserve" text-anchor="middle" x="202" y="-259.5" font-family="Helvetica,sans-Serif" font-size="10.00">d₀ = 1.24·(max(N,19)−15)^⅓ − 1.8</text>
<text xml:space="preserve" text-anchor="middle" x="202" y="-246.75" font-family="Helvetica,sans-Serif" font-size="10.00">TM = 1/(1 + (PAE/d₀)²)</text>
</g>
<!-- pae_head&#45;&gt;tm_score -->
<g id="edge16" class="edge">
<title>pae_head&#45;&gt;tm_score</title>
<path fill="none" stroke="black" d="M202,-361.02C202,-341.96 202,-316.18 202,-295.93"/>
<polygon fill="black" stroke="black" points="205.5,-295.96 202,-285.96 198.5,-295.96 205.5,-295.96"/>
</g>
<!-- out -->
<g id="node22" class="node">
<title>out</title>
<path fill="#f5f5f5" stroke="#424242" d="M421.62,-41.75C421.62,-41.75 310.38,-41.75 310.38,-41.75 304.38,-41.75 298.38,-35.75 298.38,-29.75 298.38,-29.75 298.38,-12 298.38,-12 298.38,-6 304.38,0 310.38,0 310.38,0 421.62,0 421.62,0 427.62,0 433.62,-6 433.62,-12 433.62,-12 433.62,-29.75 433.62,-29.75 433.62,-35.75 427.62,-41.75 421.62,-41.75"/>
<text xml:space="preserve" text-anchor="middle" x="366" y="-28.25" font-family="Helvetica,sans-Serif" font-size="10.00">Ranked CIF files</text>
<text xml:space="preserve" text-anchor="middle" x="366" y="-17" font-family="Helvetica,sans-Serif" font-size="10.00">+ per&#45;sample scores</text>
<text xml:space="preserve" text-anchor="middle" x="366" y="-5.75" font-family="Helvetica,sans-Serif" font-size="10.00">(no relaxation/minimization)</text>
</g>
<!-- plddt_score&#45;&gt;out -->
<g id="edge23" class="edge">
<title>plddt_score&#45;&gt;out</title>
<path fill="none" stroke="black" stroke-dasharray="1,5" d="M394.16,-240.52C406.56,-205.21 426.72,-132.36 407,-74.75 404.09,-66.25 399.2,-58.06 393.78,-50.77"/>
<polygon fill="black" stroke="black" points="396.71,-48.82 387.71,-43.23 391.26,-53.22 396.71,-48.82"/>
<text xml:space="preserve" text-anchor="middle" x="431.39" y="-128.15" font-family="Helvetica,sans-Serif" font-size="8.00">B&#45;factors</text>
</g>
<!-- ptm -->
<g id="node18" class="node">
<title>ptm</title>
<path fill="#ffe0b2" stroke="#e65100" d="M368.75,-197.5C368.75,-197.5 267.25,-197.5 267.25,-197.5 261.25,-197.5 255.25,-191.5 255.25,-185.5 255.25,-185.5 255.25,-167.75 255.25,-167.75 255.25,-161.75 261.25,-155.75 267.25,-155.75 267.25,-155.75 368.75,-155.75 368.75,-155.75 374.75,-155.75 380.75,-161.75 380.75,-167.75 380.75,-167.75 380.75,-185.5 380.75,-185.5 380.75,-191.5 374.75,-197.5 368.75,-197.5"/>
<text xml:space="preserve" text-anchor="middle" x="318" y="-184" font-family="Helvetica,sans-Serif" font-size="10.00">pTM</text>
<text xml:space="preserve" text-anchor="middle" x="318" y="-172.75" font-family="Helvetica,sans-Serif" font-size="10.00">max over alignment rows</text>
<text xml:space="preserve" text-anchor="middle" x="318" y="-161.5" font-family="Helvetica,sans-Serif" font-size="10.00">of sum of pairwise TM</text>
</g>
<!-- tm_score&#45;&gt;ptm -->
<g id="edge18" class="edge">
<title>tm_score&#45;&gt;ptm</title>
<path fill="none" stroke="black" d="M230.97,-240.64C246.12,-229.68 264.82,-216.13 281.01,-204.41"/>
<polygon fill="black" stroke="black" points="282.92,-207.35 288.97,-198.65 278.82,-201.68 282.92,-207.35"/>
</g>
<!-- iptm -->
<g id="node19" class="node">
<title>iptm</title>
<path fill="#ffe0b2" stroke="#e65100" d="M221.12,-197.5C221.12,-197.5 148.88,-197.5 148.88,-197.5 142.88,-197.5 136.88,-191.5 136.88,-185.5 136.88,-185.5 136.88,-167.75 136.88,-167.75 136.88,-161.75 142.88,-155.75 148.88,-155.75 148.88,-155.75 221.12,-155.75 221.12,-155.75 227.12,-155.75 233.12,-161.75 233.12,-167.75 233.12,-167.75 233.12,-185.5 233.12,-185.5 233.12,-191.5 227.12,-197.5 221.12,-197.5"/>
<text xml:space="preserve" text-anchor="middle" x="185" y="-184" font-family="Helvetica,sans-Serif" font-size="10.00">ipTM</text>
<text xml:space="preserve" text-anchor="middle" x="185" y="-172.75" font-family="Helvetica,sans-Serif" font-size="10.00">max over chains c</text>
<text xml:space="preserve" text-anchor="middle" x="185" y="-161.5" font-family="Helvetica,sans-Serif" font-size="10.00">of pTM(c vs rest)</text>
</g>
<!-- tm_score&#45;&gt;iptm -->
<g id="edge19" class="edge">
<title>tm_score&#45;&gt;iptm</title>
<path fill="none" stroke="black" d="M197.8,-240.86C195.85,-231.23 193.49,-219.57 191.33,-208.9"/>
<polygon fill="black" stroke="black" points="194.81,-208.45 189.4,-199.34 187.95,-209.84 194.81,-208.45"/>
</g>
<!-- agg -->
<g id="node21" class="node">
<title>agg</title>
<path fill="#fce4ec" stroke="#c62828" d="M383.88,-110.75C383.88,-110.75 220.12,-110.75 220.12,-110.75 214.12,-110.75 208.12,-104.75 208.12,-98.75 208.12,-98.75 208.12,-86.75 208.12,-86.75 208.12,-80.75 214.12,-74.75 220.12,-74.75 220.12,-74.75 383.88,-74.75 383.88,-74.75 389.88,-74.75 395.88,-80.75 395.88,-86.75 395.88,-86.75 395.88,-98.75 395.88,-98.75 395.88,-104.75 389.88,-110.75 383.88,-110.75"/>
<text xml:space="preserve" text-anchor="middle" x="302" y="-94.5" font-family="Helvetica,sans-Serif" font-size="10.00">Aggregate Score</text>
<text xml:space="preserve" text-anchor="middle" x="302" y="-83.25" font-family="Helvetica,sans-Serif" font-size="10.00">0.2·pTM + 0.8·ipTM − 100·has_clashes</text>
</g>
<!-- ptm&#45;&gt;agg -->
<g id="edge20" class="edge">
<title>ptm&#45;&gt;agg</title>
<path fill="none" stroke="black" d="M314.04,-155.39C312.09,-145.37 309.69,-133.11 307.55,-122.17"/>
<polygon fill="black" stroke="black" points="311.01,-121.62 305.66,-112.47 304.14,-122.96 311.01,-121.62"/>
</g>
<!-- iptm&#45;&gt;agg -->
<g id="edge21" class="edge">
<title>iptm&#45;&gt;agg</title>
<path fill="none" stroke="black" d="M213.92,-155.39C230.37,-143.88 251.04,-129.41 268.23,-117.38"/>
<polygon fill="black" stroke="black" points="269.94,-120.46 276.13,-111.86 265.93,-114.72 269.94,-120.46"/>
</g>
<!-- clash&#45;&gt;agg -->
<g id="edge22" class="edge">
<title>clash&#45;&gt;agg</title>
<path fill="none" stroke="black" d="M535.37,-230.17C524.12,-198.93 502.4,-152.12 467,-126.75 456.4,-119.15 433.14,-112.84 407.33,-107.85"/>
<polygon fill="black" stroke="black" points="408.1,-104.43 397.63,-106.06 406.83,-111.31 408.1,-104.43"/>
</g>
<!-- agg&#45;&gt;out -->
<g id="edge24" class="edge">
<title>agg&#45;&gt;out</title>
<path fill="none" stroke="black" d="M317.82,-74.48C324.47,-67.22 332.38,-58.58 339.85,-50.42"/>
<polygon fill="black" stroke="black" points="342.21,-53.03 346.39,-43.29 337.05,-48.3 342.21,-53.03"/>
</g>
</g>
</svg>
