<?xml version="1.0" encoding="UTF-8" standalone="no"?>
<!DOCTYPE svg PUBLIC "-//W3C//DTD SVG 1.1//EN"
 "http://www.w3.org/Graphics/SVG/1.1/DTD/svg11.dtd">
<!-- Generated by graphviz version 14.1.4 (20260321.0153)
 -->
<!-- Title: building_blocks Pages: 1 -->
<svg width="1497pt" height="670pt"
 viewBox="0.00 0.00 1497.00 670.00" xmlns="http://www.w3.org/2000/svg" xmlns:xlink="http://www.w3.org/1999/xlink">
<g id="graph0" class="graph" transform="scale(1 1) rotate(0) translate(36 633.77)">
<title>building_blocks</title>
<polygon fill="white" stroke="none" points="-36,36 -36,-633.77 1461.12,-633.77 1461.12,36 -36,36"/>
<g id="clust1" class="cluster">
<title>cluster_swiglu</title>
<path fill="#e8f5e9" stroke="#2e7d32" d="M20,-8C20,-8 190,-8 190,-8 196,-8 202,-14 202,-20 202,-20 202,-574.2 202,-574.2 202,-580.2 196,-586.2 190,-586.2 190,-586.2 20,-586.2 20,-586.2 14,-586.2 8,-580.2 8,-574.2 8,-574.2 8,-20 8,-20 8,-14 14,-8 20,-8"/>
<text xml:space="preserve" text-anchor="middle" x="61.38" y="-571.75" font-family="Helvetica,sans-Serif" font-size="11.00">SwiGLU Transition</text>
</g>
<g id="clust2" class="cluster">
<title>cluster_adaln</title>
<path fill="#fff3e0" stroke="#e65100" d="M222,-342.88C222,-342.88 430,-342.88 430,-342.88 436,-342.88 442,-348.88 442,-354.88 442,-354.88 442,-574.2 442,-574.2 442,-580.2 436,-586.2 430,-586.2 430,-586.2 222,-586.2 222,-586.2 216,-586.2 210,-580.2 210,-574.2 210,-574.2 210,-354.88 210,-354.88 210,-348.88 216,-342.88 222,-342.88"/>
<text xml:space="preserve" text-anchor="middle" x="311" y="-571.75" font-family="Helvetica,sans-Serif" font-size="11.00">AdaLayerNorm (Adaptive Layer Norm)</text>
</g>
<g id="clust3" class="cluster">
<title>cluster_gate</title>
<path fill="#fce4ec" stroke="#c62828" d="M462,-240.76C462,-240.76 622,-240.76 622,-240.76 628,-240.76 634,-246.76 634,-252.76 634,-252.76 634,-574.2 634,-574.2 634,-580.2 628,-586.2 622,-586.2 622,-586.2 462,-586.2 462,-586.2 456,-586.2 450,-580.2 450,-574.2 450,-574.2 450,-252.76 450,-252.76 450,-246.76 456,-240.76 462,-240.76"/>
<text xml:space="preserve" text-anchor="middle" x="519.88" y="-571.75" font-family="Helvetica,sans-Serif" font-size="11.00">Gated Output (bias init &#45;2)</text>
</g>
<g id="clust4" class="cluster">
<title>cluster_trimul</title>
<path fill="#e8eaf6" stroke="#283593" d="M654,-89.13C654,-89.13 920,-89.13 920,-89.13 926,-89.13 932,-95.13 932,-101.13 932,-101.13 932,-577.77 932,-577.77 932,-583.77 926,-589.77 920,-589.77 920,-589.77 654,-589.77 654,-589.77 648,-589.77 642,-583.77 642,-577.77 642,-577.77 642,-101.13 642,-101.13 642,-95.13 648,-89.13 654,-89.13"/>
<text xml:space="preserve" text-anchor="middle" x="765.12" y="-575.32" font-family="Helvetica,sans-Serif" font-size="11.00">Triangle Multiplication (both directions per block)</text>
</g>
<g id="clust5" class="cluster">
<title>cluster_triatt</title>
<path fill="#f3e5f5" stroke="#7b1fa2" d="M952,-163.13C952,-163.13 1396,-163.13 1396,-163.13 1402,-163.13 1408,-169.13 1408,-175.13 1408,-175.13 1408,-577.77 1408,-577.77 1408,-583.77 1402,-589.77 1396,-589.77 1396,-589.77 952,-589.77 952,-589.77 946,-589.77 940,-583.77 940,-577.77 940,-577.77 940,-175.13 940,-175.13 940,-169.13 946,-163.13 952,-163.13"/>
<text xml:space="preserve" text-anchor="middle" x="1053.38" y="-575.32" font-family="Helvetica,sans-Serif" font-size="11.00">Triangle Attention (both directions per block)</text>
</g>
<!-- sg_in -->
<g id="node1" class="node">
<title>sg_in</title>
<ellipse fill="#c8e6c9" stroke="#2e7d32" cx="89" cy="-534.2" rx="27" ry="18"/>
<text xml:space="preserve" text-anchor="middle" x="89" y="-530.33" font-family="Helvetica,sans-Serif" font-size="10.00">x [d]</text>
</g>
<!-- sg_ln -->
<g id="node2" class="node">
<title>sg_ln</title>
<path fill="#c8e6c9" stroke="#2e7d32" d="M114.62,-478.01C114.62,-478.01 63.37,-478.01 63.37,-478.01 57.38,-478.01 51.38,-472.01 51.38,-466.01 51.38,-466.01 51.38,-454.01 51.38,-454.01 51.38,-448.01 57.38,-442.01 63.38,-442.01 63.38,-442.01 114.62,-442.01 114.62,-442.01 120.62,-442.01 126.62,-448.01 126.62,-454.01 126.62,-454.01 126.62,-466.01 126.62,-466.01 126.62,-472.01 120.62,-478.01 114.62,-478.01"/>
<text xml:space="preserve" text-anchor="middle" x="89" y="-456.13" font-family="Helvetica,sans-Serif" font-size="10.00">LayerNorm(d)</text>
</g>
<!-- sg_in&#45;&gt;sg_ln -->
<g id="edge1" class="edge">
<title>sg_in&#45;&gt;sg_ln</title>
<path fill="none" stroke="black" d="M89,-515.72C89,-507.92 89,-498.52 89,-489.73"/>
<polygon fill="black" stroke="black" points="92.5,-489.84 89,-479.84 85.5,-489.84 92.5,-489.84"/>
</g>
<!-- sg_res -->
<g id="node7" class="node">
<title>sg_res</title>
<ellipse fill="#c8e6c9" stroke="#2e7d32" cx="76" cy="-43.57" rx="42.6" ry="21.57"/>
<text xml:space="preserve" text-anchor="middle" x="76" y="-45.32" font-family="Helvetica,sans-Serif" font-size="10.00">x + output</text>
<text xml:space="preserve" text-anchor="middle" x="76" y="-34.07" font-family="Helvetica,sans-Serif" font-size="10.00">(residual)</text>
</g>
<!-- sg_in&#45;&gt;sg_res -->
<g id="edge7" class="edge">
<title>sg_in&#45;&gt;sg_res</title>
<path fill="none" stroke="black" stroke-dasharray="5,2" d="M104.81,-519.6C115.33,-509.88 128.86,-496.02 138,-481.63 157,-451.73 160.44,-442.2 167,-407.38 185.67,-308.29 147.58,-122.34 129,-89.13 124.58,-81.24 118.18,-74.14 111.35,-68.04"/>
<polygon fill="black" stroke="black" points="113.71,-65.45 103.75,-61.83 109.28,-70.87 113.71,-65.45"/>
<text xml:space="preserve" text-anchor="middle" x="176.73" y="-269.66" font-family="Helvetica,sans-Serif" font-size="8.00">skip</text>
</g>
<!-- sg_up -->
<g id="node3" class="node">
<title>sg_up</title>
<path fill="#a5d6a7" stroke="#1b5e20" d="M144.25,-407.38C144.25,-407.38 33.75,-407.38 33.75,-407.38 27.75,-407.38 21.75,-401.38 21.75,-395.38 21.75,-395.38 21.75,-354.38 21.75,-354.38 21.75,-348.38 27.75,-342.38 33.75,-342.38 33.75,-342.38 144.25,-342.38 144.25,-342.38 150.25,-342.38 156.25,-348.38 156.25,-354.38 156.25,-354.38 156.25,-395.38 156.25,-395.38 156.25,-401.38 150.25,-407.38 144.25,-407.38"/>
<text xml:space="preserve" text-anchor="middle" x="89" y="-393.88" font-family="Helvetica,sans-Serif" font-size="10.00">Linear(d, n×d, no bias)</text>
<text xml:space="preserve" text-anchor="middle" x="89" y="-370.63" font-family="Helvetica,sans-Serif" font-size="10.00">n=4× (Pairformer, diffusion,</text>
<text xml:space="preserve" text-anchor="middle" x="89" y="-359.38" font-family="Helvetica,sans-Serif" font-size="10.00">atom transformer)</text>
<text xml:space="preserve" text-anchor="middle" x="89" y="-348.13" font-family="Helvetica,sans-Serif" font-size="10.00">n=8× (MSA module)</text>
</g>
<!-- sg_ln&#45;&gt;sg_up -->
<g id="edge2" class="edge">
<title>sg_ln&#45;&gt;sg_up</title>
<path fill="none" stroke="black" d="M89,-441.78C89,-435.13 89,-427.18 89,-419.15"/>
<polygon fill="black" stroke="black" points="92.5,-419.38 89,-409.38 85.5,-419.38 92.5,-419.38"/>
</g>
<!-- sg_chunk -->
<g id="node4" class="node">
<title>sg_chunk</title>
<path fill="#c8e6c9" stroke="#2e7d32" d="M118.12,-290.76C118.12,-290.76 33.88,-290.76 33.88,-290.76 27.88,-290.76 21.88,-284.76 21.88,-278.76 21.88,-278.76 21.88,-266.76 21.88,-266.76 21.88,-260.76 27.88,-254.76 33.88,-254.76 33.88,-254.76 118.12,-254.76 118.12,-254.76 124.12,-254.76 130.12,-260.76 130.12,-266.76 130.12,-266.76 130.12,-278.76 130.12,-278.76 130.12,-284.76 124.12,-290.76 118.12,-290.76"/>
<text xml:space="preserve" text-anchor="middle" x="76" y="-274.51" font-family="Helvetica,sans-Serif" font-size="10.00">chunk(2)</text>
<text xml:space="preserve" text-anchor="middle" x="76" y="-263.26" font-family="Helvetica,sans-Serif" font-size="10.00">a [n×d/2] &#160;| &#160;b [n×d/2]</text>
</g>
<!-- sg_up&#45;&gt;sg_chunk -->
<g id="edge3" class="edge">
<title>sg_up&#45;&gt;sg_chunk</title>
<path fill="none" stroke="black" d="M84.85,-341.93C83.2,-329.18 81.3,-314.62 79.7,-302.23"/>
<polygon fill="black" stroke="black" points="83.21,-302.13 78.45,-292.66 76.27,-303.03 83.21,-302.13"/>
</g>
<!-- sg_gate -->
<g id="node5" class="node">
<title>sg_gate</title>
<path fill="#81c784" stroke="#1b5e20" d="M98.62,-213.13C98.62,-213.13 53.38,-213.13 53.38,-213.13 47.38,-213.13 41.38,-207.13 41.38,-201.13 41.38,-201.13 41.38,-189.13 41.38,-189.13 41.38,-183.13 47.38,-177.13 53.38,-177.13 53.38,-177.13 98.62,-177.13 98.62,-177.13 104.62,-177.13 110.62,-183.13 110.62,-189.13 110.62,-189.13 110.62,-201.13 110.62,-201.13 110.62,-207.13 104.62,-213.13 98.62,-213.13"/>
<text xml:space="preserve" text-anchor="middle" x="76" y="-199.51" font-family="Helvetica,sans-Serif" font-size="10.00">SiLU(a) ⊙ b</text>
<text xml:space="preserve" text-anchor="middle" x="76" y="-184.51" font-family="Helvetica,sans-Serif" font-size="10.00">→ [n×d/2]</text>
</g>
<!-- sg_chunk&#45;&gt;sg_gate -->
<g id="edge4" class="edge">
<title>sg_chunk&#45;&gt;sg_gate</title>
<path fill="none" stroke="black" d="M76,-254.6C76,-245.77 76,-234.76 76,-224.69"/>
<polygon fill="black" stroke="black" points="79.5,-225 76,-215 72.5,-225 79.5,-225"/>
</g>
<!-- sg_down -->
<g id="node6" class="node">
<title>sg_down</title>
<path fill="#c8e6c9" stroke="#2e7d32" d="M106.12,-139.13C106.12,-139.13 45.88,-139.13 45.88,-139.13 39.88,-139.13 33.88,-133.13 33.88,-127.13 33.88,-127.13 33.88,-115.13 33.88,-115.13 33.88,-109.13 39.88,-103.13 45.88,-103.13 45.88,-103.13 106.12,-103.13 106.12,-103.13 112.12,-103.13 118.12,-109.13 118.12,-115.13 118.12,-115.13 118.12,-127.13 118.12,-127.13 118.12,-133.13 112.12,-139.13 106.12,-139.13"/>
<text xml:space="preserve" text-anchor="middle" x="76" y="-117.26" font-family="Helvetica,sans-Serif" font-size="10.00">Linear(n×d/2, d)</text>
</g>
<!-- sg_gate&#45;&gt;sg_down -->
<g id="edge5" class="edge">
<title>sg_gate&#45;&gt;sg_down</title>
<path fill="none" stroke="black" d="M76,-176.7C76,-168.92 76,-159.54 76,-150.78"/>
<polygon fill="black" stroke="black" points="79.5,-150.92 76,-140.92 72.5,-150.92 79.5,-150.92"/>
</g>
<!-- sg_down&#45;&gt;sg_res -->
<g id="edge6" class="edge">
<title>sg_down&#45;&gt;sg_res</title>
<path fill="none" stroke="black" d="M76,-102.99C76,-95.24 76,-85.81 76,-76.82"/>
<polygon fill="black" stroke="black" points="79.5,-76.93 76,-66.93 72.5,-76.93 79.5,-76.93"/>
</g>
<!-- aln_x -->
<g id="node8" class="node">
<title>aln_x</title>
<ellipse fill="#ffe0b2" stroke="#e65100" cx="262" cy="-534.2" rx="27" ry="18"/>
<text xml:space="preserve" text-anchor="middle" x="262" y="-530.33" font-family="Helvetica,sans-Serif" font-size="10.00">x [d]</text>
</g>
<!-- aln_ln -->
<g id="node11" class="node">
<title>aln_ln</title>
<path fill="#ffe0b2" stroke="#e65100" d="M287.62,-478.01C287.62,-478.01 236.38,-478.01 236.38,-478.01 230.38,-478.01 224.38,-472.01 224.38,-466.01 224.38,-466.01 224.38,-454.01 224.38,-454.01 224.38,-448.01 230.38,-442.01 236.38,-442.01 236.38,-442.01 287.62,-442.01 287.62,-442.01 293.62,-442.01 299.62,-448.01 299.62,-454.01 299.62,-454.01 299.62,-466.01 299.62,-466.01 299.62,-472.01 293.62,-478.01 287.62,-478.01"/>
<text xml:space="preserve" text-anchor="middle" x="262" y="-456.13" font-family="Helvetica,sans-Serif" font-size="10.00">LayerNorm(x)</text>
</g>
<!-- aln_x&#45;&gt;aln_ln -->
<g id="edge9" class="edge">
<title>aln_x&#45;&gt;aln_ln</title>
<path fill="none" stroke="black" d="M262,-515.72C262,-507.92 262,-498.52 262,-489.73"/>
<polygon fill="black" stroke="black" points="265.5,-489.84 262,-479.84 258.5,-489.84 265.5,-489.84"/>
</g>
<!-- aln_cond -->
<g id="node9" class="node">
<title>aln_cond</title>
<ellipse fill="#ffcc80" stroke="#e65100" cx="373" cy="-534.2" rx="54.73" ry="18"/>
<text xml:space="preserve" text-anchor="middle" x="373" y="-530.33" font-family="Helvetica,sans-Serif" font-size="10.00">conditioning [d_c]</text>
</g>
<!-- aln_proj -->
<g id="node10" class="node">
<title>aln_proj</title>
<path fill="#ffe0b2" stroke="#e65100" d="M416,-478.01C416,-478.01 334,-478.01 334,-478.01 328,-478.01 322,-472.01 322,-466.01 322,-466.01 322,-454.01 322,-454.01 322,-448.01 328,-442.01 334,-442.01 334,-442.01 416,-442.01 416,-442.01 422,-442.01 428,-448.01 428,-454.01 428,-454.01 428,-466.01 428,-466.01 428,-472.01 422,-478.01 416,-478.01"/>
<text xml:space="preserve" text-anchor="middle" x="375" y="-462.51" font-family="Helvetica,sans-Serif" font-size="10.00">Linear(d_c, 2d)</text>
<text xml:space="preserve" text-anchor="middle" x="375" y="-451.26" font-family="Helvetica,sans-Serif" font-size="10.00">chunk → scale, shift</text>
</g>
<!-- aln_cond&#45;&gt;aln_proj -->
<g id="edge8" class="edge">
<title>aln_cond&#45;&gt;aln_proj</title>
<path fill="none" stroke="black" d="M373.48,-515.72C373.7,-507.92 373.96,-498.52 374.2,-489.73"/>
<polygon fill="black" stroke="black" points="377.7,-489.93 374.48,-479.84 370.7,-489.74 377.7,-489.93"/>
</g>
<!-- aln_apply -->
<g id="node12" class="node">
<title>aln_apply</title>
<path fill="#ffcc80" stroke="#e65100" d="M378.62,-392.88C378.62,-392.88 273.38,-392.88 273.38,-392.88 267.38,-392.88 261.38,-386.88 261.38,-380.88 261.38,-380.88 261.38,-368.88 261.38,-368.88 261.38,-362.88 267.38,-356.88 273.38,-356.88 273.38,-356.88 378.62,-356.88 378.62,-356.88 384.62,-356.88 390.62,-362.88 390.62,-368.88 390.62,-368.88 390.62,-380.88 390.62,-380.88 390.62,-386.88 384.62,-392.88 378.62,-392.88"/>
<text xml:space="preserve" text-anchor="middle" x="326" y="-371.01" font-family="Helvetica,sans-Serif" font-size="10.00">LN(x) × (1 + scale) + shift</text>
</g>
<!-- aln_proj&#45;&gt;aln_apply -->
<g id="edge11" class="edge">
<title>aln_proj&#45;&gt;aln_apply</title>
<path fill="none" stroke="black" d="M364.85,-441.78C358.26,-430.6 349.53,-415.79 342.01,-403.04"/>
<polygon fill="black" stroke="black" points="345.17,-401.51 337.08,-394.67 339.14,-405.07 345.17,-401.51"/>
</g>
<!-- aln_ln&#45;&gt;aln_apply -->
<g id="edge10" class="edge">
<title>aln_ln&#45;&gt;aln_apply</title>
<path fill="none" stroke="black" d="M275.26,-441.78C284.04,-430.38 295.73,-415.2 305.67,-402.29"/>
<polygon fill="black" stroke="black" points="308.29,-404.63 311.61,-394.57 302.74,-400.36 308.29,-404.63"/>
</g>
<!-- g_cond -->
<g id="node13" class="node">
<title>g_cond</title>
<ellipse fill="#f8bbd0" stroke="#c62828" cx="526" cy="-534.2" rx="54.73" ry="18"/>
<text xml:space="preserve" text-anchor="middle" x="526" y="-530.33" font-family="Helvetica,sans-Serif" font-size="10.00">conditioning [d_c]</text>
</g>
<!-- g_proj -->
<g id="node15" class="node">
<title>g_proj</title>
<path fill="#f8bbd0" stroke="#c62828" d="M576.38,-478.01C576.38,-478.01 475.62,-478.01 475.62,-478.01 469.62,-478.01 463.62,-472.01 463.62,-466.01 463.62,-466.01 463.62,-454.01 463.62,-454.01 463.62,-448.01 469.62,-442.01 475.62,-442.01 475.62,-442.01 576.38,-442.01 576.38,-442.01 582.38,-442.01 588.38,-448.01 588.38,-454.01 588.38,-454.01 588.38,-466.01 588.38,-466.01 588.38,-472.01 582.38,-478.01 576.38,-478.01"/>
<text xml:space="preserve" text-anchor="middle" x="526" y="-461.76" font-family="Helvetica,sans-Serif" font-size="10.00">Linear(d_c, d, bias=True)</text>
<text xml:space="preserve" text-anchor="middle" x="526" y="-450.51" font-family="Helvetica,sans-Serif" font-size="10.00">bias initialized to &#45;2</text>
</g>
<!-- g_cond&#45;&gt;g_proj -->
<g id="edge12" class="edge">
<title>g_cond&#45;&gt;g_proj</title>
<path fill="none" stroke="black" d="M526,-515.72C526,-507.92 526,-498.52 526,-489.73"/>
<polygon fill="black" stroke="black" points="529.5,-489.84 526,-479.84 522.5,-489.84 529.5,-489.84"/>
</g>
<!-- g_val -->
<g id="node14" class="node">
<title>g_val</title>
<ellipse fill="#f8bbd0" stroke="#c62828" cx="588" cy="-374.88" rx="31.66" ry="18"/>
<text xml:space="preserve" text-anchor="middle" x="588" y="-371.01" font-family="Helvetica,sans-Serif" font-size="10.00">value [d]</text>
</g>
<!-- g_mul -->
<g id="node17" class="node">
<title>g_mul</title>
<path fill="#f8bbd0" stroke="#c62828" d="M548.5,-290.76C548.5,-290.76 499.5,-290.76 499.5,-290.76 493.5,-290.76 487.5,-284.76 487.5,-278.76 487.5,-278.76 487.5,-266.76 487.5,-266.76 487.5,-260.76 493.5,-254.76 499.5,-254.76 499.5,-254.76 548.5,-254.76 548.5,-254.76 554.5,-254.76 560.5,-260.76 560.5,-266.76 560.5,-266.76 560.5,-278.76 560.5,-278.76 560.5,-284.76 554.5,-290.76 548.5,-290.76"/>
<text xml:space="preserve" text-anchor="middle" x="524" y="-270.76" font-family="Helvetica,sans-Serif" font-size="10.00">gate ⊙ value</text>
</g>
<!-- g_val&#45;&gt;g_mul -->
<g id="edge15" class="edge">
<title>g_val&#45;&gt;g_mul</title>
<path fill="none" stroke="black" d="M577.72,-357.8C567.88,-342.4 552.85,-318.9 541.19,-300.66"/>
<polygon fill="black" stroke="black" points="544.27,-298.97 535.93,-292.43 538.37,-302.74 544.27,-298.97"/>
</g>
<!-- g_sig -->
<g id="node16" class="node">
<title>g_sig</title>
<path fill="#ef9a9a" stroke="#b71c1c" d="M522.38,-392.88C522.38,-392.88 475.62,-392.88 475.62,-392.88 469.62,-392.88 463.62,-386.88 463.62,-380.88 463.62,-380.88 463.62,-368.88 463.62,-368.88 463.62,-362.88 469.62,-356.88 475.62,-356.88 475.62,-356.88 522.38,-356.88 522.38,-356.88 528.38,-356.88 534.38,-362.88 534.38,-368.88 534.38,-368.88 534.38,-380.88 534.38,-380.88 534.38,-386.88 528.38,-392.88 522.38,-392.88"/>
<text xml:space="preserve" text-anchor="middle" x="499" y="-376.63" font-family="Helvetica,sans-Serif" font-size="10.00">sigmoid</text>
<text xml:space="preserve" text-anchor="middle" x="499" y="-365.38" font-family="Helvetica,sans-Serif" font-size="10.00">starts ≈ 0.12</text>
</g>
<!-- g_proj&#45;&gt;g_sig -->
<g id="edge13" class="edge">
<title>g_proj&#45;&gt;g_sig</title>
<path fill="none" stroke="black" d="M520.41,-441.78C516.88,-430.94 512.25,-416.67 508.19,-404.19"/>
<polygon fill="black" stroke="black" points="511.57,-403.24 505.15,-394.81 504.91,-405.4 511.57,-403.24"/>
</g>
<!-- g_sig&#45;&gt;g_mul -->
<g id="edge14" class="edge">
<title>g_sig&#45;&gt;g_mul</title>
<path fill="none" stroke="black" d="M503.35,-356.44C507.1,-341.44 512.58,-319.51 516.95,-302.01"/>
<polygon fill="black" stroke="black" points="520.3,-303.02 519.33,-292.47 513.51,-301.32 520.3,-303.02"/>
</g>
<!-- tm_in -->
<g id="node18" class="node">
<title>tm_in</title>
<ellipse fill="#c5cae9" stroke="#283593" cx="762" cy="-534.2" rx="41.01" ry="21.57"/>
<text xml:space="preserve" text-anchor="middle" x="762" y="-535.95" font-family="Helvetica,sans-Serif" font-size="10.00">z [n, n, d]</text>
<text xml:space="preserve" text-anchor="middle" x="762" y="-524.7" font-family="Helvetica,sans-Serif" font-size="10.00">(pair repr)</text>
</g>
<!-- tm_ln -->
<g id="node19" class="node">
<title>tm_ln</title>
<path fill="#c5cae9" stroke="#283593" d="M787.62,-478.01C787.62,-478.01 736.38,-478.01 736.38,-478.01 730.38,-478.01 724.38,-472.01 724.38,-466.01 724.38,-466.01 724.38,-454.01 724.38,-454.01 724.38,-448.01 730.38,-442.01 736.38,-442.01 736.38,-442.01 787.62,-442.01 787.62,-442.01 793.62,-442.01 799.62,-448.01 799.62,-454.01 799.62,-454.01 799.62,-466.01 799.62,-466.01 799.62,-472.01 793.62,-478.01 787.62,-478.01"/>
<text xml:space="preserve" text-anchor="middle" x="762" y="-456.13" font-family="Helvetica,sans-Serif" font-size="10.00">LayerNorm(d)</text>
</g>
<!-- tm_in&#45;&gt;tm_ln -->
<g id="edge16" class="edge">
<title>tm_in&#45;&gt;tm_ln</title>
<path fill="none" stroke="black" d="M762,-512.32C762,-505.21 762,-497.15 762,-489.55"/>
<polygon fill="black" stroke="black" points="765.5,-489.71 762,-479.71 758.5,-489.71 765.5,-489.71"/>
</g>
<!-- tm_res -->
<g id="node24" class="node">
<title>tm_res</title>
<ellipse fill="#c5cae9" stroke="#283593" cx="750" cy="-121.13" rx="39.2" ry="18"/>
<text xml:space="preserve" text-anchor="middle" x="750" y="-117.26" font-family="Helvetica,sans-Serif" font-size="10.00">z += output</text>
</g>
<!-- tm_in&#45;&gt;tm_res -->
<g id="edge24" class="edge">
<title>tm_in&#45;&gt;tm_res</title>
<path fill="none" stroke="black" stroke-dasharray="5,2" d="M790.52,-518.19C825.07,-498.19 881.57,-459.21 905,-407.38 916.9,-381.06 910.55,-370.73 905,-342.38 888.47,-257.97 890.44,-226.25 832,-163.13 821.23,-151.5 806.42,-142.71 792.36,-136.32"/>
<polygon fill="black" stroke="black" points="793.79,-133.12 783.22,-132.47 791.08,-139.58 793.79,-133.12"/>
<text xml:space="preserve" text-anchor="middle" x="908.87" y="-315.28" font-family="Helvetica,sans-Serif" font-size="8.00">skip</text>
</g>
<!-- tm_p -->
<g id="node20" class="node">
<title>tm_p</title>
<path fill="#c5cae9" stroke="#283593" d="M751.75,-396.51C751.75,-396.51 668.25,-396.51 668.25,-396.51 662.25,-396.51 656.25,-390.51 656.25,-384.51 656.25,-384.51 656.25,-365.26 656.25,-365.26 656.25,-359.26 662.25,-353.26 668.25,-353.26 668.25,-353.26 751.75,-353.26 751.75,-353.26 757.75,-353.26 763.75,-359.26 763.75,-365.26 763.75,-365.26 763.75,-384.51 763.75,-384.51 763.75,-390.51 757.75,-396.51 751.75,-396.51"/>
<text xml:space="preserve" text-anchor="middle" x="710" y="-383.01" font-family="Helvetica,sans-Serif" font-size="10.00">merged_linear_p</text>
<text xml:space="preserve" text-anchor="middle" x="710" y="-371.76" font-family="Helvetica,sans-Serif" font-size="10.00">Linear(d, 4d, no bias)</text>
<text xml:space="preserve" text-anchor="middle" x="710" y="-360.51" font-family="Helvetica,sans-Serif" font-size="10.00">→ a₁, b₁, a₂, b₂</text>
</g>
<!-- tm_ln&#45;&gt;tm_p -->
<g id="edge17" class="edge">
<title>tm_ln&#45;&gt;tm_p</title>
<path fill="none" stroke="black" d="M751.23,-441.78C744.86,-431.61 736.61,-418.42 729.16,-406.52"/>
<polygon fill="black" stroke="black" points="732.23,-404.82 723.96,-398.2 726.3,-408.54 732.23,-404.82"/>
</g>
<!-- tm_g -->
<g id="node21" class="node">
<title>tm_g</title>
<path fill="#c5cae9" stroke="#283593" d="M881.75,-396.51C881.75,-396.51 798.25,-396.51 798.25,-396.51 792.25,-396.51 786.25,-390.51 786.25,-384.51 786.25,-384.51 786.25,-365.26 786.25,-365.26 786.25,-359.26 792.25,-353.26 798.25,-353.26 798.25,-353.26 881.75,-353.26 881.75,-353.26 887.75,-353.26 893.75,-359.26 893.75,-365.26 893.75,-365.26 893.75,-384.51 893.75,-384.51 893.75,-390.51 887.75,-396.51 881.75,-396.51"/>
<text xml:space="preserve" text-anchor="middle" x="840" y="-383.01" font-family="Helvetica,sans-Serif" font-size="10.00">merged_linear_g</text>
<text xml:space="preserve" text-anchor="middle" x="840" y="-371.76" font-family="Helvetica,sans-Serif" font-size="10.00">Linear(d, 5d, no bias)</text>
<text xml:space="preserve" text-anchor="middle" x="840" y="-360.51" font-family="Helvetica,sans-Serif" font-size="10.00">→ sigmoid gates</text>
</g>
<!-- tm_ln&#45;&gt;tm_g -->
<g id="edge18" class="edge">
<title>tm_ln&#45;&gt;tm_g</title>
<path fill="none" stroke="black" d="M778.16,-441.78C788.1,-431.2 801.08,-417.36 812.59,-405.1"/>
<polygon fill="black" stroke="black" points="814.94,-407.71 819.23,-398.02 809.83,-402.92 814.94,-407.71"/>
</g>
<!-- tm_out_e -->
<g id="node22" class="node">
<title>tm_out_e</title>
<path fill="#9fa8da" stroke="#1a237e" d="M783.5,-290.76C783.5,-290.76 674.5,-290.76 674.5,-290.76 668.5,-290.76 662.5,-284.76 662.5,-278.76 662.5,-278.76 662.5,-266.76 662.5,-266.76 662.5,-260.76 668.5,-254.76 674.5,-254.76 674.5,-254.76 783.5,-254.76 783.5,-254.76 789.5,-254.76 795.5,-260.76 795.5,-266.76 795.5,-266.76 795.5,-278.76 795.5,-278.76 795.5,-284.76 789.5,-290.76 783.5,-290.76"/>
<text xml:space="preserve" text-anchor="middle" x="729" y="-274.51" font-family="Helvetica,sans-Serif" font-size="10.00">outgoing: Σ_k a₁(i,k)·b₁(j,k)</text>
<text xml:space="preserve" text-anchor="middle" x="729" y="-263.26" font-family="Helvetica,sans-Serif" font-size="10.00">incoming: Σ_k a₂(k,i)·b₂(k,j)</text>
</g>
<!-- tm_p&#45;&gt;tm_out_e -->
<g id="edge19" class="edge">
<title>tm_p&#45;&gt;tm_out_e</title>
<path fill="none" stroke="black" d="M713.94,-353.14C716.74,-338.39 720.53,-318.4 723.61,-302.17"/>
<polygon fill="black" stroke="black" points="726.99,-303.11 725.42,-292.63 720.12,-301.8 726.99,-303.11"/>
<text xml:space="preserve" text-anchor="middle" x="737.14" y="-319.78" font-family="Helvetica,sans-Serif" font-size="8.00">gated by</text>
<text xml:space="preserve" text-anchor="middle" x="737.14" y="-310.78" font-family="Helvetica,sans-Serif" font-size="8.00">g[:4d]</text>
</g>
<!-- tm_g&#45;&gt;tm_out_e -->
<g id="edge20" class="edge">
<title>tm_g&#45;&gt;tm_out_e</title>
<path fill="none" stroke="black" stroke-dasharray="5,2" d="M816.73,-352.89C799.17,-337.05 775.02,-315.27 756.5,-298.57"/>
<polygon fill="black" stroke="black" points="759.07,-296.17 749.3,-292.07 754.38,-301.37 759.07,-296.17"/>
</g>
<!-- tm_combine -->
<g id="node23" class="node">
<title>tm_combine</title>
<path fill="#c5cae9" stroke="#283593" d="M808.62,-216.76C808.62,-216.76 691.38,-216.76 691.38,-216.76 685.38,-216.76 679.38,-210.76 679.38,-204.76 679.38,-204.76 679.38,-185.51 679.38,-185.51 679.38,-179.51 685.38,-173.51 691.38,-173.51 691.38,-173.51 808.62,-173.51 808.62,-173.51 814.62,-173.51 820.62,-179.51 820.62,-185.51 820.62,-185.51 820.62,-204.76 820.62,-204.76 820.62,-210.76 814.62,-216.76 808.62,-216.76"/>
<text xml:space="preserve" text-anchor="middle" x="750" y="-203.26" font-family="Helvetica,sans-Serif" font-size="10.00">LN(outgoing) + LN(incoming)</text>
<text xml:space="preserve" text-anchor="middle" x="750" y="-192.01" font-family="Helvetica,sans-Serif" font-size="10.00">→ Linear(d, d, no bias)</text>
<text xml:space="preserve" text-anchor="middle" x="750" y="-179.26" font-family="Helvetica,sans-Serif" font-size="10.00">× gate[4d:]</text>
</g>
<!-- tm_g&#45;&gt;tm_combine -->
<g id="edge22" class="edge">
<title>tm_g&#45;&gt;tm_combine</title>
<path fill="none" stroke="black" stroke-dasharray="5,2" d="M838.98,-352.84C836.76,-325.1 829.65,-275.73 807,-240.76 803.14,-234.81 798.22,-229.31 792.88,-224.36"/>
<polygon fill="black" stroke="black" points="795.29,-221.81 785.4,-218.01 790.77,-227.15 795.29,-221.81"/>
<text xml:space="preserve" text-anchor="middle" x="839.4" y="-269.66" font-family="Helvetica,sans-Serif" font-size="8.00">g[4d:]</text>
</g>
<!-- tm_out_e&#45;&gt;tm_combine -->
<g id="edge21" class="edge">
<title>tm_out_e&#45;&gt;tm_combine</title>
<path fill="none" stroke="black" d="M733.77,-254.6C735.97,-246.67 738.66,-236.99 741.21,-227.8"/>
<polygon fill="black" stroke="black" points="744.5,-229.03 743.8,-218.46 737.75,-227.16 744.5,-229.03"/>
</g>
<!-- tm_combine&#45;&gt;tm_res -->
<g id="edge23" class="edge">
<title>tm_combine&#45;&gt;tm_res</title>
<path fill="none" stroke="black" d="M750,-173.31C750,-166.22 750,-158.18 750,-150.6"/>
<polygon fill="black" stroke="black" points="753.5,-150.79 750,-140.79 746.5,-150.79 753.5,-150.79"/>
</g>
<!-- ta_in -->
<g id="node25" class="node">
<title>ta_in</title>
<ellipse fill="#e1bee7" stroke="#7b1fa2" cx="1176" cy="-534.2" rx="41.01" ry="21.57"/>
<text xml:space="preserve" text-anchor="middle" x="1176" y="-535.95" font-family="Helvetica,sans-Serif" font-size="10.00">z [n, n, d]</text>
<text xml:space="preserve" text-anchor="middle" x="1176" y="-524.7" font-family="Helvetica,sans-Serif" font-size="10.00">(pair repr)</text>
</g>
<!-- ta_qkv1 -->
<g id="node26" class="node">
<title>ta_qkv1</title>
<path fill="#e1bee7" stroke="#7b1fa2" d="M1076.25,-481.63C1076.25,-481.63 965.75,-481.63 965.75,-481.63 959.75,-481.63 953.75,-475.63 953.75,-469.63 953.75,-469.63 953.75,-450.38 953.75,-450.38 953.75,-444.38 959.75,-438.38 965.75,-438.38 965.75,-438.38 1076.25,-438.38 1076.25,-438.38 1082.25,-438.38 1088.25,-444.38 1088.25,-450.38 1088.25,-450.38 1088.25,-469.63 1088.25,-469.63 1088.25,-475.63 1082.25,-481.63 1076.25,-481.63"/>
<text xml:space="preserve" text-anchor="middle" x="1021" y="-468.13" font-family="Helvetica,sans-Serif" font-size="10.00">pair2qkvg1</text>
<text xml:space="preserve" text-anchor="middle" x="1021" y="-456.88" font-family="Helvetica,sans-Serif" font-size="10.00">Linear(d, 4·h·hd, no bias)</text>
<text xml:space="preserve" text-anchor="middle" x="1021" y="-445.63" font-family="Helvetica,sans-Serif" font-size="10.00">→ q, k, v, g &#160;(starting node)</text>
</g>
<!-- ta_in&#45;&gt;ta_qkv1 -->
<g id="edge25" class="edge">
<title>ta_in&#45;&gt;ta_qkv1</title>
<path fill="none" stroke="black" d="M1145.75,-519.11C1126.02,-509.92 1099.7,-497.66 1076.32,-486.77"/>
<polygon fill="black" stroke="black" points="1078.07,-483.73 1067.53,-482.68 1075.12,-490.08 1078.07,-483.73"/>
</g>
<!-- ta_qkv2 -->
<g id="node27" class="node">
<title>ta_qkv2</title>
<path fill="#e1bee7" stroke="#7b1fa2" d="M1229.38,-481.63C1229.38,-481.63 1122.62,-481.63 1122.62,-481.63 1116.62,-481.63 1110.62,-475.63 1110.62,-469.63 1110.62,-469.63 1110.62,-450.38 1110.62,-450.38 1110.62,-444.38 1116.62,-438.38 1122.62,-438.38 1122.62,-438.38 1229.38,-438.38 1229.38,-438.38 1235.38,-438.38 1241.38,-444.38 1241.38,-450.38 1241.38,-450.38 1241.38,-469.63 1241.38,-469.63 1241.38,-475.63 1235.38,-481.63 1229.38,-481.63"/>
<text xml:space="preserve" text-anchor="middle" x="1176" y="-468.13" font-family="Helvetica,sans-Serif" font-size="10.00">pair2qkvg2</text>
<text xml:space="preserve" text-anchor="middle" x="1176" y="-456.88" font-family="Helvetica,sans-Serif" font-size="10.00">Linear(d, 4·h·hd, no bias)</text>
<text xml:space="preserve" text-anchor="middle" x="1176" y="-445.63" font-family="Helvetica,sans-Serif" font-size="10.00">→ q, k, v, g &#160;(ending node)</text>
</g>
<!-- ta_in&#45;&gt;ta_qkv2 -->
<g id="edge26" class="edge">
<title>ta_in&#45;&gt;ta_qkv2</title>
<path fill="none" stroke="black" d="M1176,-512.32C1176,-506.39 1176,-499.78 1176,-493.34"/>
<polygon fill="black" stroke="black" points="1179.5,-493.61 1176,-483.61 1172.5,-493.61 1179.5,-493.61"/>
</g>
<!-- ta_bias -->
<g id="node28" class="node">
<title>ta_bias</title>
<path fill="#e1bee7" stroke="#7b1fa2" d="M1358.38,-481.63C1358.38,-481.63 1275.62,-481.63 1275.62,-481.63 1269.62,-481.63 1263.62,-475.63 1263.62,-469.63 1263.62,-469.63 1263.62,-450.38 1263.62,-450.38 1263.62,-444.38 1269.62,-438.38 1275.62,-438.38 1275.62,-438.38 1358.38,-438.38 1358.38,-438.38 1364.38,-438.38 1370.38,-444.38 1370.38,-450.38 1370.38,-450.38 1370.38,-469.63 1370.38,-469.63 1370.38,-475.63 1364.38,-481.63 1358.38,-481.63"/>
<text xml:space="preserve" text-anchor="middle" x="1317" y="-468.13" font-family="Helvetica,sans-Serif" font-size="10.00">pair2b</text>
<text xml:space="preserve" text-anchor="middle" x="1317" y="-456.88" font-family="Helvetica,sans-Serif" font-size="10.00">Linear(d, h, no bias)</text>
<text xml:space="preserve" text-anchor="middle" x="1317" y="-445.63" font-family="Helvetica,sans-Serif" font-size="10.00">→ per&#45;head attn bias</text>
</g>
<!-- ta_in&#45;&gt;ta_bias -->
<g id="edge27" class="edge">
<title>ta_in&#45;&gt;ta_bias</title>
<path fill="none" stroke="black" d="M1204.87,-518.42C1222.38,-509.45 1245.22,-497.76 1265.72,-487.26"/>
<polygon fill="black" stroke="black" points="1267.22,-490.43 1274.52,-482.76 1264.03,-484.2 1267.22,-490.43"/>
</g>
<!-- ta_res -->
<g id="node31" class="node">
<title>ta_res</title>
<ellipse fill="#e1bee7" stroke="#7b1fa2" cx="1176" cy="-195.13" rx="39.2" ry="18"/>
<text xml:space="preserve" text-anchor="middle" x="1176" y="-191.26" font-family="Helvetica,sans-Serif" font-size="10.00">z += output</text>
</g>
<!-- ta_in&#45;&gt;ta_res -->
<g id="edge33" class="edge">
<title>ta_in&#45;&gt;ta_res</title>
<path fill="none" stroke="black" stroke-dasharray="5,2" d="M1215.9,-528.93C1269.65,-522.26 1360.92,-507.39 1381,-481.63 1444.4,-400.32 1420.21,-397.37 1255,-240.76 1243.25,-229.62 1228.2,-220.23 1214.39,-212.98"/>
<polygon fill="black" stroke="black" points="1216.01,-209.88 1205.5,-208.54 1212.88,-216.14 1216.01,-209.88"/>
<text xml:space="preserve" text-anchor="middle" x="1418.37" y="-371.78" font-family="Helvetica,sans-Serif" font-size="8.00">skip</text>
</g>
<!-- ta_sdpa -->
<g id="node29" class="node">
<title>ta_sdpa</title>
<path fill="#ce93d8" stroke="#6a1b9a" d="M1228.25,-395.76C1228.25,-395.76 1123.75,-395.76 1123.75,-395.76 1117.75,-395.76 1111.75,-389.76 1111.75,-383.76 1111.75,-383.76 1111.75,-366.01 1111.75,-366.01 1111.75,-360.01 1117.75,-354.01 1123.75,-354.01 1123.75,-354.01 1228.25,-354.01 1228.25,-354.01 1234.25,-354.01 1240.25,-360.01 1240.25,-366.01 1240.25,-366.01 1240.25,-383.76 1240.25,-383.76 1240.25,-389.76 1234.25,-395.76 1228.25,-395.76"/>
<text xml:space="preserve" text-anchor="middle" x="1176" y="-382.26" font-family="Helvetica,sans-Serif" font-size="10.00">2× SDPA</text>
<text xml:space="preserve" text-anchor="middle" x="1176" y="-371.01" font-family="Helvetica,sans-Serif" font-size="10.00">starting: attn over rows</text>
<text xml:space="preserve" text-anchor="middle" x="1176" y="-359.76" font-family="Helvetica,sans-Serif" font-size="10.00">ending: attn over columns</text>
</g>
<!-- ta_qkv1&#45;&gt;ta_sdpa -->
<g id="edge28" class="edge">
<title>ta_qkv1&#45;&gt;ta_sdpa</title>
<path fill="none" stroke="black" d="M1060.11,-438.03C1080.78,-426.95 1106.33,-413.25 1128.17,-401.53"/>
<polygon fill="black" stroke="black" points="1129.75,-404.66 1136.9,-396.85 1126.44,-398.49 1129.75,-404.66"/>
</g>
<!-- ta_qkv2&#45;&gt;ta_sdpa -->
<g id="edge29" class="edge">
<title>ta_qkv2&#45;&gt;ta_sdpa</title>
<path fill="none" stroke="black" d="M1176,-438.03C1176,-428.77 1176,-417.68 1176,-407.45"/>
<polygon fill="black" stroke="black" points="1179.5,-407.51 1176,-397.51 1172.5,-407.51 1179.5,-407.51"/>
</g>
<!-- ta_bias&#45;&gt;ta_sdpa -->
<g id="edge30" class="edge">
<title>ta_bias&#45;&gt;ta_sdpa</title>
<path fill="none" stroke="black" d="M1279.24,-437.92C1270.9,-433.19 1262.13,-428.15 1254,-423.38 1242.47,-416.62 1230.08,-409.16 1218.64,-402.19"/>
<polygon fill="black" stroke="black" points="1220.53,-399.24 1210.17,-397.02 1216.88,-405.22 1220.53,-399.24"/>
</g>
<!-- ta_out -->
<g id="node30" class="node">
<title>ta_out</title>
<path fill="#e1bee7" stroke="#7b1fa2" d="M1232.38,-294.38C1232.38,-294.38 1119.62,-294.38 1119.62,-294.38 1113.62,-294.38 1107.62,-288.38 1107.62,-282.38 1107.62,-282.38 1107.62,-263.13 1107.62,-263.13 1107.62,-257.13 1113.62,-251.13 1119.62,-251.13 1119.62,-251.13 1232.38,-251.13 1232.38,-251.13 1238.38,-251.13 1244.38,-257.13 1244.38,-263.13 1244.38,-263.13 1244.38,-282.38 1244.38,-282.38 1244.38,-288.38 1238.38,-294.38 1232.38,-294.38"/>
<text xml:space="preserve" text-anchor="middle" x="1176" y="-280.88" font-family="Helvetica,sans-Serif" font-size="10.00">concat both directions</text>
<text xml:space="preserve" text-anchor="middle" x="1176" y="-269.63" font-family="Helvetica,sans-Serif" font-size="10.00">→ Linear(2·h·hd, d, no bias)</text>
<text xml:space="preserve" text-anchor="middle" x="1176" y="-256.88" font-family="Helvetica,sans-Serif" font-size="10.00">× out_scalers [d]</text>
</g>
<!-- ta_sdpa&#45;&gt;ta_out -->
<g id="edge31" class="edge">
<title>ta_sdpa&#45;&gt;ta_out</title>
<path fill="none" stroke="black" d="M1176,-353.62C1176,-339.96 1176,-321.65 1176,-306"/>
<polygon fill="black" stroke="black" points="1179.5,-306.19 1176,-296.19 1172.5,-306.19 1179.5,-306.19"/>
<text xml:space="preserve" text-anchor="middle" x="1194.75" y="-319.78" font-family="Helvetica,sans-Serif" font-size="8.00">sigmoid(g)</text>
<text xml:space="preserve" text-anchor="middle" x="1194.75" y="-310.78" font-family="Helvetica,sans-Serif" font-size="8.00">gating</text>
</g>
<!-- ta_out&#45;&gt;ta_res -->
<g id="edge32" class="edge">
<title>ta_out&#45;&gt;ta_res</title>
<path fill="none" stroke="black" d="M1176,-250.69C1176,-242.73 1176,-233.53 1176,-224.98"/>
<polygon fill="black" stroke="black" points="1179.5,-225.03 1176,-215.03 1172.5,-225.03 1179.5,-225.03"/>
</g>
</g>
</svg>
