<?xml version="1.0" encoding="UTF-8" standalone="no"?>
<!DOCTYPE svg PUBLIC "-//W3C//DTD SVG 1.1//EN"
 "http://www.w3.org/Graphics/SVG/1.1/DTD/svg11.dtd">
<!-- Generated by graphviz version 14.1.4 (20260321.0153)
 -->
<!-- Title: blocked_attention Pages: 1 -->
<svg width="1197pt" height="1061pt"
 viewBox="0.00 0.00 1197.00 1061.00" xmlns="http://www.w3.org/2000/svg" xmlns:xlink="http://www.w3.org/1999/xlink">
<g id="graph0" class="graph" transform="scale(1 1) rotate(0) translate(36 1025)">
<title>blocked_attention</title>
<polygon fill="white" stroke="none" points="-36,36 -36,-1025 1161,-1025 1161,36 -36,36"/>
<g id="clust1" class="cluster">
<title>cluster_hier</title>
<path fill="#e8f5e9" stroke="#2e7d32" d="M20,-588.25C20,-588.25 382,-588.25 382,-588.25 388,-588.25 394,-594.25 394,-600.25 394,-600.25 394,-914 394,-914 394,-920 388,-926 382,-926 382,-926 20,-926 20,-926 14,-926 8,-920 8,-914 8,-914 8,-600.25 8,-600.25 8,-594.25 14,-588.25 20,-588.25"/>
<text xml:space="preserve" text-anchor="middle" x="70.75" y="-911.55" font-family="Helvetica,sans-Serif" font-size="11.00">Token–Atom Hierarchy</text>
</g>
<g id="clust2" class="cluster">
<title>cluster_blocks</title>
<path fill="#e3f2fd" stroke="#1565c0" d="M414,-299C414,-299 588,-299 588,-299 594,-299 600,-305 600,-311 600,-311 600,-771.75 600,-771.75 600,-777.75 594,-783.75 588,-783.75 588,-783.75 414,-783.75 414,-783.75 408,-783.75 402,-777.75 402,-771.75 402,-771.75 402,-311 402,-311 402,-305 408,-299 414,-299"/>
<text xml:space="preserve" text-anchor="middle" x="491" y="-769.3" font-family="Helvetica,sans-Serif" font-size="11.00">Blocked Local Attention Geometry</text>
</g>
<g id="clust3" class="cluster">
<title>cluster_visual</title>
<path fill="#fff9c4" stroke="#f57f17" d="M620,-419.25C620,-419.25 882,-419.25 882,-419.25 888,-419.25 894,-425.25 894,-431.25 894,-431.25 894,-559.25 894,-559.25 894,-565.25 888,-571.25 882,-571.25 882,-571.25 620,-571.25 620,-571.25 614,-571.25 608,-565.25 608,-559.25 608,-559.25 608,-431.25 608,-431.25 608,-425.25 614,-419.25 620,-419.25"/>
<text xml:space="preserve" text-anchor="middle" x="689.88" y="-556.8" font-family="Helvetica,sans-Serif" font-size="11.00">Block Layout (one query block)</text>
</g>
<g id="clust4" class="cluster">
<title>cluster_pair</title>
<path fill="#f3e5f5" stroke="#7b1fa2" d="M650,-109C650,-109 852,-109 852,-109 858,-109 864,-115 864,-121 864,-121 864,-390.25 864,-390.25 864,-396.25 858,-402.25 852,-402.25 852,-402.25 650,-402.25 650,-402.25 644,-402.25 638,-396.25 638,-390.25 638,-390.25 638,-121 638,-121 638,-115 644,-109 650,-109"/>
<text xml:space="preserve" text-anchor="middle" x="699.25" y="-387.8" font-family="Helvetica,sans-Serif" font-size="11.00">Blocked Pair Features</text>
</g>
<g id="clust5" class="cluster">
<title>cluster_usage</title>
<path fill="white" stroke="#888888" stroke-dasharray="5,2" d="M687,-8C687,-8 1105,-8 1105,-8 1111,-8 1117,-14 1117,-20 1117,-20 1117,-80 1117,-80 1117,-86 1111,-92 1105,-92 1105,-92 687,-92 687,-92 681,-92 675,-86 675,-80 675,-80 675,-20 675,-20 675,-14 681,-8 687,-8"/>
<text xml:space="preserve" text-anchor="middle" x="762.12" y="-77.55" font-family="Helvetica,sans-Serif" font-size="11.00">Where Blocked Attention Is Used</text>
</g>
<!-- title -->
<g id="node1" class="node">
<title>title</title>
<path fill="lightgrey" stroke="none" d="M360.62,-989C360.62,-989 51.37,-989 51.37,-989 45.37,-989 39.38,-983 39.38,-977 39.38,-977 39.38,-965 39.38,-965 39.38,-959 45.38,-953 51.38,-953 51.38,-953 360.62,-953 360.62,-953 366.62,-953 372.62,-959 372.62,-965 372.62,-965 372.62,-977 372.62,-977 372.62,-983 366.62,-989 360.62,-989"/>
<text xml:space="preserve" text-anchor="start" x="47.38" y="-966.2" font-family="Helvetica,sans-Serif" font-weight="bold" font-size="14.00" fill="#1a237e">Token&#45;Atom Hierarchy &amp; Blocked Local Attention</text>
</g>
<!-- tokens -->
<g id="node2" class="node">
<title>tokens</title>
<path fill="#c8e6c9" stroke="#2e7d32" d="M362.88,-892C362.88,-892 49.13,-892 49.13,-892 43.12,-892 37.12,-886 37.12,-880 37.12,-880 37.12,-839.75 37.12,-839.75 37.12,-833.75 43.12,-827.75 49.12,-827.75 49.12,-827.75 362.88,-827.75 362.88,-827.75 368.88,-827.75 374.88,-833.75 374.88,-839.75 374.88,-839.75 374.88,-880 374.88,-880 374.88,-886 368.88,-892 362.88,-892"/>
<text xml:space="preserve" text-anchor="middle" x="206" y="-878.5" font-family="Helvetica,sans-Serif" font-size="10.00">Tokens &#160;(n_tokens)</text>
<text xml:space="preserve" text-anchor="middle" x="206" y="-867.25" font-family="Helvetica,sans-Serif" font-size="10.00">─────────────────────────────────</text>
<text xml:space="preserve" text-anchor="middle" x="206" y="-856" font-family="Helvetica,sans-Serif" font-size="10.00">1 per residue (protein/nucleotide)</text>
<text xml:space="preserve" text-anchor="middle" x="206" y="-844.75" font-family="Helvetica,sans-Serif" font-size="10.00">1 per atom (ligands/modified res)</text>
<text xml:space="preserve" text-anchor="middle" x="206" y="-833.5" font-family="Helvetica,sans-Serif" font-size="10.00">Model sizes: 256 … 2048</text>
</g>
<!-- title&#45;&gt;tokens -->
<!-- atoms -->
<g id="node3" class="node">
<title>atoms</title>
<path fill="#a5d6a7" stroke="#1b5e20" d="M367.62,-761C367.62,-761 34.37,-761 34.37,-761 28.38,-761 22.38,-755 22.38,-749 22.38,-749 22.38,-708.75 22.38,-708.75 22.38,-702.75 28.38,-696.75 34.38,-696.75 34.38,-696.75 367.62,-696.75 367.62,-696.75 373.62,-696.75 379.62,-702.75 379.62,-708.75 379.62,-708.75 379.62,-749 379.62,-749 379.62,-755 373.62,-761 367.62,-761"/>
<text xml:space="preserve" text-anchor="middle" x="201" y="-747.5" font-family="Helvetica,sans-Serif" font-size="10.00">Atoms &#160;(n_atoms = 23 × n_tokens)</text>
<text xml:space="preserve" text-anchor="middle" x="201" y="-736.25" font-family="Helvetica,sans-Serif" font-size="10.00">───────────────────────────────────</text>
<text xml:space="preserve" text-anchor="middle" x="201" y="-725" font-family="Helvetica,sans-Serif" font-size="10.00">Up to 23 atoms per token</text>
<text xml:space="preserve" text-anchor="middle" x="201" y="-713.75" font-family="Helvetica,sans-Serif" font-size="10.00">n_atoms always divisible by 32</text>
<text xml:space="preserve" text-anchor="middle" x="201" y="-702.5" font-family="Helvetica,sans-Serif" font-size="10.00">Padding with atom_exists_mask</text>
</g>
<!-- tokens&#45;&gt;atoms -->
<g id="edge1" class="edge">
<title>tokens&#45;&gt;atoms</title>
<path fill="none" stroke="black" d="M204.78,-827.32C204.14,-810.8 203.34,-790.34 202.65,-772.43"/>
<polygon fill="black" stroke="black" points="206.15,-772.48 202.27,-762.62 199.16,-772.75 206.15,-772.48"/>
<text xml:space="preserve" text-anchor="middle" x="229.97" y="-797.65" font-family="Helvetica,sans-Serif" font-size="8.00">23× expansion</text>
</g>
<!-- block_q -->
<g id="node5" class="node">
<title>block_q</title>
<path fill="#bbdefb" stroke="#1565c0" d="M549.75,-749.75C549.75,-749.75 436.25,-749.75 436.25,-749.75 430.25,-749.75 424.25,-743.75 424.25,-737.75 424.25,-737.75 424.25,-720 424.25,-720 424.25,-714 430.25,-708 436.25,-708 436.25,-708 549.75,-708 549.75,-708 555.75,-708 561.75,-714 561.75,-720 561.75,-720 561.75,-737.75 561.75,-737.75 561.75,-743.75 555.75,-749.75 549.75,-749.75"/>
<text xml:space="preserve" text-anchor="middle" x="493" y="-736.25" font-family="Helvetica,sans-Serif" font-size="10.00">Query Block</text>
<text xml:space="preserve" text-anchor="middle" x="493" y="-725" font-family="Helvetica,sans-Serif" font-size="10.00">32 atoms (non&#45;overlapping)</text>
<text xml:space="preserve" text-anchor="middle" x="493" y="-713.75" font-family="Helvetica,sans-Serif" font-size="10.00">num_blocks = n_atoms / 32</text>
</g>
<!-- tokens&#45;&gt;block_q -->
<g id="edge6" class="edge">
<title>tokens&#45;&gt;block_q</title>
<path fill="none" stroke="black" d="M295.09,-827.38C328.18,-814.85 365.75,-799.64 399,-783.75 416.43,-775.42 435,-765.11 450.99,-755.74"/>
<polygon fill="black" stroke="black" points="452.46,-758.93 459.28,-750.82 448.89,-752.91 452.46,-758.93"/>
<text xml:space="preserve" text-anchor="middle" x="406.37" y="-802.15" font-family="Helvetica,sans-Serif" font-size="8.00">atom&#45;level</text>
<text xml:space="preserve" text-anchor="middle" x="406.37" y="-793.15" font-family="Helvetica,sans-Serif" font-size="8.00">representations</text>
</g>
<!-- tok2atom -->
<g id="node4" class="node">
<title>tok2atom</title>
<path fill="#c8e6c9" stroke="#2e7d32" d="M288.12,-659.75C288.12,-659.75 113.88,-659.75 113.88,-659.75 107.88,-659.75 101.88,-653.75 101.88,-647.75 101.88,-647.75 101.88,-614.25 101.88,-614.25 101.88,-608.25 107.88,-602.25 113.88,-602.25 113.88,-602.25 288.12,-602.25 288.12,-602.25 294.12,-602.25 300.12,-608.25 300.12,-614.25 300.12,-614.25 300.12,-647.75 300.12,-647.75 300.12,-653.75 294.12,-659.75 288.12,-659.75"/>
<text xml:space="preserve" text-anchor="middle" x="201" y="-646.25" font-family="Helvetica,sans-Serif" font-size="10.00">Mapping tensors:</text>
<text xml:space="preserve" text-anchor="middle" x="201" y="-635" font-family="Helvetica,sans-Serif" font-size="10.00">atom_token_index → parent token</text>
<text xml:space="preserve" text-anchor="middle" x="201" y="-622.25" font-family="Helvetica,sans-Serif" font-size="10.00">atom_within_token_index → slot</text>
<text xml:space="preserve" text-anchor="middle" x="201" y="-609.5" font-family="Helvetica,sans-Serif" font-size="10.00">token_reference_atom_index → repr atom</text>
</g>
<!-- atoms&#45;&gt;tok2atom -->
<g id="edge2" class="edge">
<title>atoms&#45;&gt;tok2atom</title>
<path fill="none" stroke="black" d="M201,-696.48C201,-688.54 201,-679.9 201,-671.61"/>
<polygon fill="black" stroke="black" points="204.5,-671.74 201,-661.74 197.5,-671.74 204.5,-671.74"/>
</g>
<!-- block_kv -->
<g id="node6" class="node">
<title>block_kv</title>
<path fill="#90caf9" stroke="#0d47a1" d="M563.38,-657.5C563.38,-657.5 438.62,-657.5 438.62,-657.5 432.62,-657.5 426.62,-651.5 426.62,-645.5 426.62,-645.5 426.62,-616.5 426.62,-616.5 426.62,-610.5 432.62,-604.5 438.62,-604.5 438.62,-604.5 563.38,-604.5 563.38,-604.5 569.38,-604.5 575.38,-610.5 575.38,-616.5 575.38,-616.5 575.38,-645.5 575.38,-645.5 575.38,-651.5 569.38,-657.5 563.38,-657.5"/>
<text xml:space="preserve" text-anchor="middle" x="501" y="-644" font-family="Helvetica,sans-Serif" font-size="10.00">KV Window</text>
<text xml:space="preserve" text-anchor="middle" x="501" y="-632.75" font-family="Helvetica,sans-Serif" font-size="10.00">128 atoms (centered on query)</text>
<text xml:space="preserve" text-anchor="middle" x="501" y="-621.5" font-family="Helvetica,sans-Serif" font-size="10.00">Q sits at positions 48–79</text>
<text xml:space="preserve" text-anchor="middle" x="501" y="-610.25" font-family="Helvetica,sans-Serif" font-size="10.00">within the 128&#45;wide window</text>
</g>
<!-- block_q&#45;&gt;block_kv -->
<g id="edge7" class="edge">
<title>block_q&#45;&gt;block_kv</title>
<path fill="none" stroke="black" d="M494.7,-707.54C495.63,-696.32 496.83,-682.03 497.92,-668.91"/>
<polygon fill="black" stroke="black" points="501.38,-669.55 498.72,-659.3 494.4,-668.97 501.38,-669.55"/>
</g>
<!-- overlap -->
<g id="node7" class="node">
<title>overlap</title>
<path fill="#bbdefb" stroke="#1565c0" d="M552.88,-511.75C552.88,-511.75 449.12,-511.75 449.12,-511.75 443.12,-511.75 437.12,-505.75 437.12,-499.75 437.12,-499.75 437.12,-470.75 437.12,-470.75 437.12,-464.75 443.12,-458.75 449.12,-458.75 449.12,-458.75 552.88,-458.75 552.88,-458.75 558.88,-458.75 564.88,-464.75 564.88,-470.75 564.88,-470.75 564.88,-499.75 564.88,-499.75 564.88,-505.75 558.88,-511.75 552.88,-511.75"/>
<text xml:space="preserve" text-anchor="middle" x="501" y="-498.25" font-family="Helvetica,sans-Serif" font-size="10.00">Consecutive Windows</text>
<text xml:space="preserve" text-anchor="middle" x="501" y="-487" font-family="Helvetica,sans-Serif" font-size="10.00">offset by 32 (query stride)</text>
<text xml:space="preserve" text-anchor="middle" x="501" y="-475.75" font-family="Helvetica,sans-Serif" font-size="10.00">overlap by 96 atoms</text>
<text xml:space="preserve" text-anchor="middle" x="501" y="-464.5" font-family="Helvetica,sans-Serif" font-size="10.00">(128 − 32 = 96)</text>
</g>
<!-- block_kv&#45;&gt;overlap -->
<g id="edge8" class="edge">
<title>block_kv&#45;&gt;overlap</title>
<path fill="none" stroke="black" d="M501,-604.3C501,-581.85 501,-548.98 501,-523.62"/>
<polygon fill="black" stroke="black" points="504.5,-523.73 501,-513.73 497.5,-523.73 504.5,-523.73"/>
</g>
<!-- layout -->
<g id="node9" class="node">
<title>layout</title>
<path fill="lightgrey" stroke="none" d="M868.12,-537.25C868.12,-537.25 633.88,-537.25 633.88,-537.25 627.88,-537.25 621.88,-531.25 621.88,-525.25 621.88,-525.25 621.88,-445.25 621.88,-445.25 621.88,-439.25 627.88,-433.25 633.88,-433.25 633.88,-433.25 868.12,-433.25 868.12,-433.25 874.12,-433.25 880.12,-439.25 880.12,-445.25 880.12,-445.25 880.12,-525.25 880.12,-525.25 880.12,-531.25 874.12,-537.25 868.12,-537.25"/>
<polygon fill="#ffe0b2" stroke="none" points="629.88,-508 629.88,-533.25 872.12,-533.25 872.12,-508 629.88,-508"/>
<polygon fill="none" stroke="black" points="629.88,-508 629.88,-533.25 872.12,-533.25 872.12,-508 629.88,-508"/>
<text xml:space="preserve" text-anchor="start" x="698.88" y="-518" font-family="Helvetica,sans-Serif" font-size="10.00">KV window (128 atoms)</text>
<polygon fill="#ffecb3" stroke="none" points="629.88,-464 629.88,-508 709.88,-508 709.88,-464 629.88,-464"/>
<polygon fill="none" stroke="black" points="629.88,-464 629.88,-508 709.88,-508 709.88,-464 629.88,-464"/>
<text xml:space="preserve" text-anchor="start" x="645.5" y="-489" font-family="Helvetica,sans-Serif" font-size="10.00">left context</text>
<text xml:space="preserve" text-anchor="start" x="649.62" y="-477.75" font-family="Helvetica,sans-Serif" font-size="10.00">48 atoms</text>
<polygon fill="#ff8a65" stroke="none" points="709.88,-464 709.88,-508 792.12,-508 792.12,-464 709.88,-464"/>
<polygon fill="none" stroke="black" points="709.88,-464 709.88,-508 792.12,-508 792.12,-464 709.88,-464"/>
<text xml:space="preserve" text-anchor="start" x="722.88" y="-492.5" font-family="Helvetica,sans-Serif" font-weight="bold" font-size="10.00">Query block</text>
<text xml:space="preserve" text-anchor="start" x="730" y="-482.5" font-family="Helvetica,sans-Serif" font-weight="bold" font-size="10.00">32 atoms</text>
<text xml:space="preserve" text-anchor="start" x="716.88" y="-472.5" font-family="Helvetica,sans-Serif" font-size="10.00">positions 48–79</text>
<polygon fill="#ffecb3" stroke="none" points="792.12,-464 792.12,-508 872.12,-508 872.12,-464 792.12,-464"/>
<polygon fill="none" stroke="black" points="792.12,-464 792.12,-508 872.12,-508 872.12,-464 792.12,-464"/>
<text xml:space="preserve" text-anchor="start" x="805.12" y="-489" font-family="Helvetica,sans-Serif" font-size="10.00">right context</text>
<text xml:space="preserve" text-anchor="start" x="811.88" y="-477.75" font-family="Helvetica,sans-Serif" font-size="10.00">48 atoms</text>
<polygon fill="#fff9c4" stroke="none" points="629.88,-437.25 629.88,-464 872.12,-464 872.12,-437.25 629.88,-437.25"/>
<polygon fill="none" stroke="black" points="629.88,-437.25 629.88,-464 872.12,-464 872.12,-437.25 629.88,-437.25"/>
<text xml:space="preserve" text-anchor="start" x="654.62" y="-447.25" font-family="Helvetica,sans-Serif" font-size="10.00">← stride 32 → &#160;overlap 96 with next window</text>
</g>
<!-- block_kv&#45;&gt;layout -->
<g id="edge10" class="edge">
<title>block_kv&#45;&gt;layout</title>
<path fill="none" stroke="black" d="M547.15,-604.1C565.22,-593.91 586.11,-582.08 605,-571.25 620.95,-562.1 637.85,-552.34 654.27,-542.8"/>
<polygon fill="black" stroke="black" points="655.67,-546.04 662.56,-537.99 652.15,-539.98 655.67,-546.04"/>
</g>
<!-- boundary -->
<g id="node8" class="node">
<title>boundary</title>
<path fill="#bbdefb" stroke="#1565c0" d="M573.88,-381.75C573.88,-381.75 428.12,-381.75 428.12,-381.75 422.12,-381.75 416.12,-375.75 416.12,-369.75 416.12,-369.75 416.12,-325 416.12,-325 416.12,-319 422.12,-313 428.12,-313 428.12,-313 573.88,-313 573.88,-313 579.88,-313 585.88,-319 585.88,-325 585.88,-325 585.88,-369.75 585.88,-369.75 585.88,-375.75 579.88,-381.75 573.88,-381.75"/>
<text xml:space="preserve" text-anchor="middle" x="501" y="-368.25" font-family="Helvetica,sans-Serif" font-size="10.00">Boundary Handling</text>
<text xml:space="preserve" text-anchor="middle" x="501" y="-357" font-family="Helvetica,sans-Serif" font-size="10.00">Out&#45;of&#45;range KV indices:</text>
<text xml:space="preserve" text-anchor="middle" x="501" y="-345.75" font-family="Helvetica,sans-Serif" font-size="10.00">→ marked invalid in kv_mask</text>
<text xml:space="preserve" text-anchor="middle" x="501" y="-333" font-family="Helvetica,sans-Serif" font-size="10.00">→ wrapped via % sequence_length</text>
<text xml:space="preserve" text-anchor="middle" x="501" y="-320.25" font-family="Helvetica,sans-Serif" font-size="10.00">→ excluded from attention</text>
</g>
<!-- overlap&#45;&gt;boundary -->
<g id="edge9" class="edge">
<title>overlap&#45;&gt;boundary</title>
<path fill="none" stroke="black" d="M501,-458.37C501,-440.03 501,-414.95 501,-393.37"/>
<polygon fill="black" stroke="black" points="504.5,-393.64 501,-383.64 497.5,-393.64 504.5,-393.64"/>
</g>
<!-- pair_layout -->
<g id="node10" class="node">
<title>pair_layout</title>
<path fill="#e1bee7" stroke="#7b1fa2" d="M829.5,-368.25C829.5,-368.25 672.5,-368.25 672.5,-368.25 666.5,-368.25 660.5,-362.25 660.5,-356.25 660.5,-356.25 660.5,-338.5 660.5,-338.5 660.5,-332.5 666.5,-326.5 672.5,-326.5 672.5,-326.5 829.5,-326.5 829.5,-326.5 835.5,-326.5 841.5,-332.5 841.5,-338.5 841.5,-338.5 841.5,-356.25 841.5,-356.25 841.5,-362.25 835.5,-368.25 829.5,-368.25"/>
<text xml:space="preserve" text-anchor="middle" x="751" y="-354.75" font-family="Helvetica,sans-Serif" font-size="10.00">Pair tensor shape:</text>
<text xml:space="preserve" text-anchor="middle" x="751" y="-343.5" font-family="Helvetica,sans-Serif" font-size="10.00">[b, num_blocks, 32, 128, feature_dim]</text>
<text xml:space="preserve" text-anchor="middle" x="751" y="-332.25" font-family="Helvetica,sans-Serif" font-size="10.00"> &#160;&#160;&#160;&#160;batch &#160;block &#160;&#160;Q &#160;&#160;&#160;KV &#160;&#160;&#160;channels</text>
</g>
<!-- layout&#45;&gt;pair_layout -->
<g id="edge11" class="edge">
<title>layout&#45;&gt;pair_layout</title>
<path fill="none" stroke="black" d="M751,-433.27C751,-415.39 751,-395.83 751,-380"/>
<polygon fill="black" stroke="black" points="754.5,-380.22 751,-370.22 747.5,-380.22 754.5,-380.22"/>
</g>
<!-- pair_mask -->
<g id="node11" class="node">
<title>pair_mask</title>
<path fill="#e1bee7" stroke="#7b1fa2" d="M823.12,-272C823.12,-272 678.88,-272 678.88,-272 672.88,-272 666.88,-266 666.88,-260 666.88,-260 666.88,-226.5 666.88,-226.5 666.88,-220.5 672.88,-214.5 678.88,-214.5 678.88,-214.5 823.12,-214.5 823.12,-214.5 829.12,-214.5 835.12,-220.5 835.12,-226.5 835.12,-226.5 835.12,-260 835.12,-260 835.12,-266 829.12,-272 823.12,-272"/>
<text xml:space="preserve" text-anchor="middle" x="751" y="-258.5" font-family="Helvetica,sans-Serif" font-size="10.00">block_atom_pair_mask</text>
<text xml:space="preserve" text-anchor="middle" x="751" y="-247.25" font-family="Helvetica,sans-Serif" font-size="10.00">[b, bl, 32, 128]</text>
<text xml:space="preserve" text-anchor="middle" x="751" y="-236" font-family="Helvetica,sans-Serif" font-size="10.00">= atom_q_mask ⊗ atom_kv_mask</text>
<text xml:space="preserve" text-anchor="middle" x="751" y="-224" font-family="Helvetica,sans-Serif" font-size="10.00"> &#160;∧ kv_is_valid_mask</text>
</g>
<!-- pair_layout&#45;&gt;pair_mask -->
<g id="edge3" class="edge">
<title>pair_layout&#45;&gt;pair_mask</title>
<path fill="none" stroke="black" d="M751,-326.2C751,-314 751,-298.03 751,-283.43"/>
<polygon fill="black" stroke="black" points="754.5,-283.63 751,-273.63 747.5,-283.63 754.5,-283.63"/>
</g>
<!-- pair_bias -->
<g id="node12" class="node">
<title>pair_bias</title>
<path fill="#ce93d8" stroke="#6a1b9a" d="M837.75,-177.5C837.75,-177.5 664.25,-177.5 664.25,-177.5 658.25,-177.5 652.25,-171.5 652.25,-165.5 652.25,-165.5 652.25,-135 652.25,-135 652.25,-129 658.25,-123 664.25,-123 664.25,-123 837.75,-123 837.75,-123 843.75,-123 849.75,-129 849.75,-135 849.75,-135 849.75,-165.5 849.75,-165.5 849.75,-171.5 843.75,-177.5 837.75,-177.5"/>
<text xml:space="preserve" text-anchor="middle" x="751" y="-164" font-family="Helvetica,sans-Serif" font-size="10.00">blocked_pairs2blocked_bias</text>
<text xml:space="preserve" text-anchor="middle" x="751" y="-152.75" font-family="Helvetica,sans-Serif" font-size="10.00">LN(16) → Linear(16, n_blocks × n_heads)</text>
<text xml:space="preserve" text-anchor="middle" x="751" y="-140" font-family="Helvetica,sans-Serif" font-size="10.00">projected to per&#45;head attention bias</text>
<text xml:space="preserve" text-anchor="middle" x="751" y="-128.75" font-family="Helvetica,sans-Serif" font-size="10.00">per local block</text>
</g>
<!-- pair_mask&#45;&gt;pair_bias -->
<g id="edge4" class="edge">
<title>pair_mask&#45;&gt;pair_bias</title>
<path fill="none" stroke="black" d="M751,-214.45C751,-206.57 751,-197.84 751,-189.45"/>
<polygon fill="black" stroke="black" points="754.5,-189.46 751,-179.46 747.5,-189.46 754.5,-189.46"/>
</g>
<!-- u1 -->
<g id="node13" class="node">
<title>u1</title>
<path fill="#f5f5f5" stroke="#616161" d="M800.62,-58C800.62,-58 701.38,-58 701.38,-58 695.38,-58 689.38,-52 689.38,-46 689.38,-46 689.38,-34 689.38,-34 689.38,-28 695.38,-22 701.38,-22 701.38,-22 800.62,-22 800.62,-22 806.62,-22 812.62,-28 812.62,-34 812.62,-34 812.62,-46 812.62,-46 812.62,-52 806.62,-58 800.62,-58"/>
<text xml:space="preserve" text-anchor="middle" x="751" y="-41.75" font-family="Helvetica,sans-Serif" font-size="10.00">Token Input Embedder</text>
<text xml:space="preserve" text-anchor="middle" x="751" y="-30.5" font-family="Helvetica,sans-Serif" font-size="10.00">3 blocks, 4 heads, 32 hd</text>
</g>
<!-- pair_bias&#45;&gt;u1 -->
<g id="edge12" class="edge">
<title>pair_bias&#45;&gt;u1</title>
<path fill="none" stroke="black" d="M751,-122.77C751,-106.65 751,-86.06 751,-69.58"/>
<polygon fill="black" stroke="black" points="754.5,-69.94 751,-59.94 747.5,-69.94 754.5,-69.94"/>
</g>
<!-- u2 -->
<g id="node14" class="node">
<title>u2</title>
<path fill="#f5f5f5" stroke="#616161" d="M945.62,-58C945.62,-58 846.38,-58 846.38,-58 840.38,-58 834.38,-52 834.38,-46 834.38,-46 834.38,-34 834.38,-34 834.38,-28 840.38,-22 846.38,-22 846.38,-22 945.62,-22 945.62,-22 951.62,-22 957.62,-28 957.62,-34 957.62,-34 957.62,-46 957.62,-46 957.62,-52 951.62,-58 945.62,-58"/>
<text xml:space="preserve" text-anchor="middle" x="896" y="-41.75" font-family="Helvetica,sans-Serif" font-size="10.00">Diffusion Atom Encoder</text>
<text xml:space="preserve" text-anchor="middle" x="896" y="-30.5" font-family="Helvetica,sans-Serif" font-size="10.00">3 blocks, 4 heads, 32 hd</text>
</g>
<!-- u3 -->
<g id="node15" class="node">
<title>u3</title>
<path fill="#f5f5f5" stroke="#616161" d="M1090.62,-58C1090.62,-58 991.38,-58 991.38,-58 985.38,-58 979.38,-52 979.38,-46 979.38,-46 979.38,-34 979.38,-34 979.38,-28 985.38,-22 991.38,-22 991.38,-22 1090.62,-22 1090.62,-22 1096.62,-22 1102.62,-28 1102.62,-34 1102.62,-34 1102.62,-46 1102.62,-46 1102.62,-52 1096.62,-58 1090.62,-58"/>
<text xml:space="preserve" text-anchor="middle" x="1041" y="-41.75" font-family="Helvetica,sans-Serif" font-size="10.00">Diffusion Atom Decoder</text>
<text xml:space="preserve" text-anchor="middle" x="1041" y="-30.5" font-family="Helvetica,sans-Serif" font-size="10.00">3 blocks, 4 heads, 32 hd</text>
</g>
</g>
</svg>
