<?xml version="1.0" encoding="UTF-8" standalone="no"?>
<!DOCTYPE svg PUBLIC "-//W3C//DTD SVG 1.1//EN"
 "http://www.w3.org/Graphics/SVG/1.1/DTD/svg11.dtd">
<!-- Generated by graphviz version 14.1.4 (20260321.0153)
 -->
<!-- Title: HighLevelPipeline Pages: 1 -->
<svg width="328pt" height="955pt"
 viewBox="0.00 0.00 328.00 955.00" xmlns="http://www.w3.org/2000/svg" xmlns:xlink="http://www.w3.org/1999/xlink">
<g id="graph0" class="graph" transform="scale(1 1) rotate(0) translate(21.6 933.7)">
<title>HighLevelPipeline</title>
<text xml:space="preserve" text-anchor="start" x="8" y="-895.8" font-family="Helvetica,sans-Serif" font-weight="bold" font-size="14.00">Chai&#45;1 Inference Pipeline (~314M params)</text>
<!-- input -->
<g id="node1" class="node">
<title>input</title>
<ellipse fill="#e3f2fd" stroke="#333333" stroke-width="1.2" cx="142.25" cy="-860.44" rx="116.57" ry="28.65"/>
<text xml:space="preserve" text-anchor="start" x="128.75" y="-865.49" font-family="Helvetica,sans-Serif" font-weight="bold" font-size="11.00">Input</text>
<text xml:space="preserve" text-anchor="start" x="70.62" y="-856.39" font-family="Helvetica,sans-Serif" font-size="9.00">FASTA + optional MSAs / templates</text>
<text xml:space="preserve" text-anchor="start" x="80.38" y="-847.39" font-family="Helvetica,sans-Serif" font-size="9.00">constraints / ESM embeddings</text>
</g>
<!-- feat_construction -->
<g id="node2" class="node">
<title>feat_construction</title>
<path fill="#fff3e0" stroke="#333333" stroke-width="1.2" d="M223.93,-788.79C223.93,-788.79 60.57,-788.79 60.57,-788.79 54.57,-788.79 48.58,-782.79 48.58,-776.79 48.58,-776.79 48.58,-760.27 48.58,-760.27 48.58,-754.27 54.58,-748.27 60.58,-748.27 60.58,-748.27 223.93,-748.27 223.93,-748.27 229.93,-748.27 235.93,-754.27 235.93,-760.27 235.93,-760.27 235.93,-776.79 235.93,-776.79 235.93,-782.79 229.93,-788.79 223.93,-788.79"/>
<text xml:space="preserve" text-anchor="start" x="86.38" y="-773.58" font-family="Helvetica,sans-Serif" font-weight="bold" font-size="11.00">Feature Construction</text>
<text xml:space="preserve" text-anchor="start" x="59.38" y="-764.48" font-family="Helvetica,sans-Serif" font-size="9.00">FeatureFactory + AllAtomFeatureContext</text>
<text xml:space="preserve" text-anchor="start" x="73.62" y="-755.48" font-family="Helvetica,sans-Serif" font-size="9.00">32 named features across 6 types</text>
</g>
<!-- input&#45;&gt;feat_construction -->
<g id="edge1" class="edge">
<title>input&#45;&gt;feat_construction</title>
<path fill="none" stroke="#555555" d="M142.25,-831.49C142.25,-821.63 142.25,-810.5 142.25,-800.41"/>
<polygon fill="#555555" stroke="#555555" points="145.75,-800.71 142.25,-790.71 138.75,-800.71 145.75,-800.71"/>
</g>
<!-- feat_embed -->
<g id="node3" class="node">
<title>feat_embed</title>
<path fill="#e8f5e9" stroke="#333333" stroke-width="1.2" d="M244.93,-705.27C244.93,-705.27 39.57,-705.27 39.57,-705.27 33.57,-705.27 27.58,-699.27 27.58,-693.27 27.58,-693.27 27.58,-667.75 27.58,-667.75 27.58,-661.75 33.58,-655.75 39.58,-655.75 39.58,-655.75 244.93,-655.75 244.93,-655.75 250.93,-655.75 256.93,-661.75 256.93,-667.75 256.93,-667.75 256.93,-693.27 256.93,-693.27 256.93,-699.27 250.93,-705.27 244.93,-705.27"/>
<text xml:space="preserve" text-anchor="start" x="90.88" y="-690.06" font-family="Helvetica,sans-Serif" font-weight="bold" font-size="11.00">Feature Embedding</text>
<text xml:space="preserve" text-anchor="start" x="62.75" y="-680.96" font-family="Helvetica,sans-Serif" font-size="9.00">feature_embedding.pt &#160;(~1.1M params)</text>
<text xml:space="preserve" text-anchor="start" x="41.38" y="-671.96" font-family="Helvetica,sans-Serif" font-size="9.00">TOKEN→384 &#160;PAIR→256+256 &#160;ATOM→128+128</text>
<text xml:space="preserve" text-anchor="start" x="38.38" y="-662.96" font-family="Helvetica,sans-Serif" font-size="9.00">ATOM_PAIR→16+16 &#160;MSA→64 &#160;TEMPLATES→64</text>
</g>
<!-- feat_construction&#45;&gt;feat_embed -->
<g id="edge2" class="edge">
<title>feat_construction&#45;&gt;feat_embed</title>
<path fill="none" stroke="#555555" d="M142.25,-748.01C142.25,-738.77 142.25,-727.43 142.25,-716.76"/>
<polygon fill="#555555" stroke="#555555" points="145.75,-717.07 142.25,-707.07 138.75,-717.07 145.75,-717.07"/>
</g>
<!-- bond_proj -->
<g id="node4" class="node">
<title>bond_proj</title>
<path fill="#e8f5e9" stroke="#333333" stroke-width="1.2" d="M246.05,-612.75C246.05,-612.75 38.45,-612.75 38.45,-612.75 32.45,-612.75 26.45,-606.75 26.45,-600.75 26.45,-600.75 26.45,-584.23 26.45,-584.23 26.45,-578.23 32.45,-572.23 38.45,-572.23 38.45,-572.23 246.05,-572.23 246.05,-572.23 252.05,-572.23 258.05,-578.23 258.05,-584.23 258.05,-584.23 258.05,-600.75 258.05,-600.75 258.05,-606.75 252.05,-612.75 246.05,-612.75"/>
<text xml:space="preserve" text-anchor="start" x="99.5" y="-597.54" font-family="Helvetica,sans-Serif" font-weight="bold" font-size="11.00">Bond Projection</text>
<text xml:space="preserve" text-anchor="start" x="63.12" y="-588.44" font-family="Helvetica,sans-Serif" font-size="9.00">bond_loss_input_proj.pt &#160;(512 params)</text>
<text xml:space="preserve" text-anchor="start" x="37.25" y="-579.44" font-family="Helvetica,sans-Serif" font-size="9.00">Linear(1→512) → 256+256 added to TOKEN_PAIR</text>
</g>
<!-- feat_embed&#45;&gt;bond_proj -->
<g id="edge3" class="edge">
<title>feat_embed&#45;&gt;bond_proj</title>
<path fill="none" stroke="#555555" d="M142.25,-655.55C142.25,-645.97 142.25,-634.82 142.25,-624.63"/>
<polygon fill="#555555" stroke="#555555" points="145.75,-624.78 142.25,-614.78 138.75,-624.78 145.75,-624.78"/>
</g>
<!-- token_embed -->
<g id="node5" class="node">
<title>token_embed</title>
<path fill="#e8eaf6" stroke="#333333" stroke-width="1.2" d="M261.43,-529.23C261.43,-529.23 23.07,-529.23 23.07,-529.23 17.07,-529.23 11.07,-523.23 11.07,-517.23 11.07,-517.23 11.07,-491.71 11.07,-491.71 11.07,-485.71 17.07,-479.71 23.07,-479.71 23.07,-479.71 261.43,-479.71 261.43,-479.71 267.43,-479.71 273.43,-485.71 273.43,-491.71 273.43,-491.71 273.43,-517.23 273.43,-517.23 273.43,-523.23 267.43,-529.23 261.43,-529.23"/>
<text xml:space="preserve" text-anchor="start" x="83.38" y="-514.02" font-family="Helvetica,sans-Serif" font-weight="bold" font-size="11.00">Token Input Embedder</text>
<text xml:space="preserve" text-anchor="start" x="68" y="-504.92" font-family="Helvetica,sans-Serif" font-size="9.00">token_embedder.pt &#160;(~1.5M params)</text>
<text xml:space="preserve" text-anchor="start" x="37.62" y="-495.92" font-family="Helvetica,sans-Serif" font-size="9.00">Atom Transformer (3 blocks) → aggregate to tokens</text>
<text xml:space="preserve" text-anchor="start" x="21.88" y="-486.92" font-family="Helvetica,sans-Serif" font-size="9.00">→ single_initial[384], single_structure[384], pair_initial[256]</text>
</g>
<!-- bond_proj&#45;&gt;token_embed -->
<g id="edge4" class="edge">
<title>bond_proj&#45;&gt;token_embed</title>
<path fill="none" stroke="#555555" d="M142.25,-571.97C142.25,-562.73 142.25,-551.39 142.25,-540.72"/>
<polygon fill="#555555" stroke="#555555" points="145.75,-541.03 142.25,-531.03 138.75,-541.03 145.75,-541.03"/>
</g>
<!-- trunk -->
<g id="node6" class="node">
<title>trunk</title>
<path fill="#fce4ec" stroke="#333333" stroke-width="1.2" d="M241.93,-436.71C241.93,-436.71 42.57,-436.71 42.57,-436.71 36.57,-436.71 30.58,-430.71 30.58,-424.71 30.58,-424.71 30.58,-381.19 30.58,-381.19 30.58,-375.19 36.58,-369.19 42.58,-369.19 42.58,-369.19 241.93,-369.19 241.93,-369.19 247.93,-369.19 253.93,-375.19 253.93,-381.19 253.93,-381.19 253.93,-424.71 253.93,-424.71 253.93,-430.71 247.93,-436.71 241.93,-436.71"/>
<text xml:space="preserve" text-anchor="start" x="94.62" y="-421.5" font-family="Helvetica,sans-Serif" font-weight="bold" font-size="11.00">Trunk &#160;×3 recycles</text>
<text xml:space="preserve" text-anchor="start" x="91.25" y="-412.4" font-family="Helvetica,sans-Serif" font-size="9.00">trunk.pt &#160;(~170M params)</text>
<text xml:space="preserve" text-anchor="start" x="41.38" y="-403.4" font-family="Helvetica,sans-Serif" font-size="9.00">Template Embedder (2 Pairformer blocks, dim 64)</text>
<text xml:space="preserve" text-anchor="start" x="59.75" y="-394.4" font-family="Helvetica,sans-Serif" font-size="9.00">MSA Module (4 iters, asymmetric blocks)</text>
<text xml:space="preserve" text-anchor="start" x="84.88" y="-385.4" font-family="Helvetica,sans-Serif" font-size="9.00">Pairformer Stack (48 blocks)</text>
<text xml:space="preserve" text-anchor="start" x="68.38" y="-376.4" font-family="Helvetica,sans-Serif" font-size="9.00">→ single_trunk[384], pair_trunk[256]</text>
</g>
<!-- token_embed&#45;&gt;trunk -->
<g id="edge5" class="edge">
<title>token_embed&#45;&gt;trunk</title>
<path fill="none" stroke="#555555" d="M142.25,-479.13C142.25,-469.83 142.25,-458.91 142.25,-448.33"/>
<polygon fill="#555555" stroke="#555555" points="145.75,-448.58 142.25,-438.58 138.75,-448.58 145.75,-448.58"/>
</g>
<!-- diffusion -->
<g id="node7" class="node">
<title>diffusion</title>
<path fill="#f3e5f5" stroke="#333333" stroke-width="1.2" d="M246.43,-326.19C246.43,-326.19 38.07,-326.19 38.07,-326.19 32.07,-326.19 26.08,-320.19 26.08,-314.19 26.08,-314.19 26.08,-279.67 26.08,-279.67 26.08,-273.67 32.08,-267.67 38.08,-267.67 38.08,-267.67 246.43,-267.67 246.43,-267.67 252.43,-267.67 258.43,-273.67 258.43,-279.67 258.43,-279.67 258.43,-314.19 258.43,-314.19 258.43,-320.19 252.43,-326.19 246.43,-326.19"/>
<text xml:space="preserve" text-anchor="start" x="66.5" y="-310.98" font-family="Helvetica,sans-Serif" font-weight="bold" font-size="11.00">Diffusion Module &#160;×200 steps</text>
<text xml:space="preserve" text-anchor="start" x="66.12" y="-301.88" font-family="Helvetica,sans-Serif" font-size="9.00">diffusion_module.pt &#160;(~128M params)</text>
<text xml:space="preserve" text-anchor="start" x="36.88" y="-292.88" font-family="Helvetica,sans-Serif" font-size="9.00">Conditioning (Fourier σ) → Atom Encoder (3 blocks)</text>
<text xml:space="preserve" text-anchor="start" x="56" y="-283.88" font-family="Helvetica,sans-Serif" font-size="9.00">Diffusion Transformer (16 blocks, dim 768)</text>
<text xml:space="preserve" text-anchor="start" x="65" y="-274.88" font-family="Helvetica,sans-Serif" font-size="9.00">Atom Decoder (3 blocks) → xyz deltas</text>
</g>
<!-- trunk&#45;&gt;diffusion -->
<g id="edge6" class="edge">
<title>trunk&#45;&gt;diffusion</title>
<path fill="none" stroke="#555555" d="M142.25,-368.75C142.25,-359.01 142.25,-348.25 142.25,-338.12"/>
<polygon fill="#555555" stroke="#555555" points="145.75,-338.13 142.25,-328.13 138.75,-338.13 145.75,-338.13"/>
</g>
<!-- confidence -->
<g id="node8" class="node">
<title>confidence</title>
<path fill="#e0f7fa" stroke="#333333" stroke-width="1.2" d="M247.92,-224.67C247.92,-224.67 36.58,-224.67 36.58,-224.67 30.58,-224.67 24.58,-218.67 24.58,-212.67 24.58,-212.67 24.58,-187.15 24.58,-187.15 24.58,-181.15 30.58,-175.15 36.58,-175.15 36.58,-175.15 247.92,-175.15 247.92,-175.15 253.92,-175.15 259.92,-181.15 259.92,-187.15 259.92,-187.15 259.92,-212.67 259.92,-212.67 259.92,-218.67 253.92,-224.67 247.92,-224.67"/>
<text xml:space="preserve" text-anchor="start" x="97.25" y="-209.46" font-family="Helvetica,sans-Serif" font-weight="bold" font-size="11.00">Confidence Head</text>
<text xml:space="preserve" text-anchor="start" x="64.62" y="-200.36" font-family="Helvetica,sans-Serif" font-size="9.00">confidence_head.pt &#160;(~14.8M params)</text>
<text xml:space="preserve" text-anchor="start" x="102.88" y="-191.36" font-family="Helvetica,sans-Serif" font-size="9.00">4 Pairformer blocks</text>
<text xml:space="preserve" text-anchor="start" x="35.38" y="-182.36" font-family="Helvetica,sans-Serif" font-size="9.00">→ PAE[n×n×64] &#160;PDE[n×n×64] &#160;pLDDT[n_atoms×50]</text>
</g>
<!-- diffusion&#45;&gt;confidence -->
<g id="edge7" class="edge">
<title>diffusion&#45;&gt;confidence</title>
<path fill="none" stroke="#555555" d="M142.25,-267.17C142.25,-257.51 142.25,-246.62 142.25,-236.5"/>
<polygon fill="#555555" stroke="#555555" points="145.75,-236.61 142.25,-226.61 138.75,-236.61 145.75,-236.61"/>
</g>
<!-- ranking -->
<g id="node9" class="node">
<title>ranking</title>
<ellipse fill="#fff9c4" stroke="#333333" stroke-width="1.2" cx="142.25" cy="-109.86" rx="126.64" ry="22.29"/>
<text xml:space="preserve" text-anchor="start" x="120.5" y="-110.41" font-family="Helvetica,sans-Serif" font-weight="bold" font-size="11.00">Ranking</text>
<text xml:space="preserve" text-anchor="start" x="63.5" y="-101.31" font-family="Helvetica,sans-Serif" font-size="9.00">0.2·pTM + 0.8·ipTM − 100·has_clashes</text>
</g>
<!-- confidence&#45;&gt;ranking -->
<g id="edge8" class="edge">
<title>confidence&#45;&gt;ranking</title>
<path fill="none" stroke="#555555" d="M142.25,-174.85C142.25,-165.34 142.25,-154.24 142.25,-143.99"/>
<polygon fill="#555555" stroke="#555555" points="145.75,-144 142.25,-134 138.75,-144 145.75,-144"/>
</g>
<!-- output -->
<g id="node10" class="node">
<title>output</title>
<ellipse fill="#e8f5e9" stroke="#333333" stroke-width="1.2" cx="142.25" cy="-22.29" rx="93.76" ry="22.29"/>
<text xml:space="preserve" text-anchor="start" x="124.25" y="-22.84" font-family="Helvetica,sans-Serif" font-weight="bold" font-size="11.00">Output</text>
<text xml:space="preserve" text-anchor="start" x="86.75" y="-13.74" font-family="Helvetica,sans-Serif" font-size="9.00">Ranked 3D structures (CIF)</text>
</g>
<!-- ranking&#45;&gt;output -->
<g id="edge9" class="edge">
<title>ranking&#45;&gt;output</title>
<path fill="none" stroke="#555555" d="M142.25,-87.27C142.25,-77.92 142.25,-66.75 142.25,-56.39"/>
<polygon fill="#555555" stroke="#555555" points="145.75,-56.69 142.25,-46.69 138.75,-56.69 145.75,-56.69"/>
</g>
</g>
</svg>
