<?xml version="1.0" encoding="UTF-8" standalone="no"?>
<!DOCTYPE svg PUBLIC "-//W3C//DTD SVG 1.1//EN"
 "http://www.w3.org/Graphics/SVG/1.1/DTD/svg11.dtd">
<!-- Generated by graphviz version 14.1.4 (20260321.0153)
 -->
<!-- Title: FeatureEmbedding Pages: 1 -->
<svg width="1196pt" height="362pt"
 viewBox="0.00 0.00 1196.00 362.00" xmlns="http://www.w3.org/2000/svg" xmlns:xlink="http://www.w3.org/1999/xlink">
<g id="graph0" class="graph" transform="scale(1 1) rotate(0) translate(21.6 340.74)">
<title>FeatureEmbedding</title>
<text xml:space="preserve" text-anchor="start" x="488.75" y="-303.79" font-family="Helvetica,sans-Serif" font-weight="bold" font-size="13.00">Feature Embedding Module</text>
<text xml:space="preserve" text-anchor="start" x="497" y="-294.59" font-family="Helvetica,sans-Serif" font-size="9.00">feature_embedding.pt &#160;(~1.1M params)</text>
<g id="clust1" class="cluster">
<title>cluster_inputs</title>
<polygon fill="none" stroke="#999999" stroke-dasharray="5,2" points="114,-201.25 114,-281.14 1145,-281.14 1145,-201.25 114,-201.25"/>
<text xml:space="preserve" text-anchor="start" x="554.12" y="-268.64" font-family="Helvetica,sans-Serif" font-weight="bold" font-size="10.00">32 Named Features (Raw Inputs)</text>
</g>
<g id="clust2" class="cluster">
<title>cluster_projections</title>
<polygon fill="none" stroke="#999999" stroke-dasharray="5,2" points="261,-109 261,-180.25 938,-180.25 938,-109 261,-109"/>
<text xml:space="preserve" text-anchor="start" x="491.5" y="-167.75" font-family="Helvetica,sans-Serif" font-weight="bold" font-size="10.00">Type&#45;Specific Input Projections (Linear + bias)</text>
</g>
<g id="clust3" class="cluster">
<title>cluster_outputs</title>
<polygon fill="none" stroke="#999999" stroke-dasharray="5,2" points="8,-8 8,-79.25 1094,-79.25 1094,-8 8,-8"/>
<text xml:space="preserve" text-anchor="start" x="486.5" y="-66.75" font-family="Helvetica,sans-Serif" font-weight="bold" font-size="10.00">Embedded Representations</text>
</g>
<!-- token_raw -->
<g id="node1" class="node">
<title>token_raw</title>
<path fill="#e3f2fd" stroke="#333333" stroke-width="1.2" d="M249.76,-253.89C249.76,-253.89 134.24,-253.89 134.24,-253.89 128.24,-253.89 122.23,-247.89 122.23,-241.89 122.23,-241.89 122.23,-221.25 122.23,-221.25 122.23,-215.25 128.23,-209.25 134.23,-209.25 134.23,-209.25 249.76,-209.25 249.76,-209.25 255.76,-209.25 261.76,-215.25 261.76,-221.25 261.76,-221.25 261.76,-241.89 261.76,-241.89 261.76,-247.89 255.76,-253.89 249.76,-253.89"/>
<text xml:space="preserve" text-anchor="start" x="174.38" y="-241.07" font-family="Helvetica,sans-Serif" font-weight="bold" font-size="10.00">TOKEN</text>
<text xml:space="preserve" text-anchor="start" x="172.12" y="-231.07" font-family="Helvetica,sans-Serif" font-size="10.00">2638&#45;dim</text>
<text xml:space="preserve" text-anchor="start" x="136.12" y="-222.97" font-family="Helvetica,sans-Serif" font-size="8.00">ResidueType(33) + ESM(2560)</text>
<text xml:space="preserve" text-anchor="start" x="130.88" y="-214.97" font-family="Helvetica,sans-Serif" font-size="8.00">MSAProfile(32) + DelMean(1) + ...</text>
</g>
<!-- proj_token -->
<g id="node7" class="node">
<title>proj_token</title>
<path fill="#fff3e0" stroke="#333333" stroke-width="1.2" d="M352.64,-153C352.64,-153 281.36,-153 281.36,-153 275.36,-153 269.36,-147 269.36,-141 269.36,-141 269.36,-129 269.36,-129 269.36,-123 275.36,-117 281.36,-117 281.36,-117 352.64,-117 352.64,-117 358.64,-117 364.64,-123 364.64,-129 364.64,-129 364.64,-141 364.64,-141 364.64,-147 358.64,-153 352.64,-153"/>
<text xml:space="preserve" text-anchor="start" x="278" y="-132.12" font-family="Helvetica,sans-Serif" font-weight="bold" font-size="10.00">Linear(2638, 384)</text>
</g>
<!-- token_raw&#45;&gt;proj_token -->
<g id="edge1" class="edge">
<title>token_raw&#45;&gt;proj_token</title>
<path fill="none" stroke="#555555" d="M220.68,-208.87C239.84,-194.37 265.08,-175.28 284.91,-160.28"/>
<polygon fill="#555555" stroke="#555555" points="286.81,-163.23 292.68,-154.4 282.59,-157.64 286.81,-163.23"/>
</g>
<!-- pair_raw -->
<g id="node2" class="node">
<title>pair_raw</title>
<path fill="#e3f2fd" stroke="#333333" stroke-width="1.2" d="M413.51,-253.89C413.51,-253.89 302.49,-253.89 302.49,-253.89 296.49,-253.89 290.49,-247.89 290.49,-241.89 290.49,-241.89 290.49,-221.25 290.49,-221.25 290.49,-215.25 296.49,-209.25 302.49,-209.25 302.49,-209.25 413.51,-209.25 413.51,-209.25 419.51,-209.25 425.51,-215.25 425.51,-221.25 425.51,-221.25 425.51,-241.89 425.51,-241.89 425.51,-247.89 419.51,-253.89 413.51,-253.89"/>
<text xml:space="preserve" text-anchor="start" x="326.12" y="-241.07" font-family="Helvetica,sans-Serif" font-weight="bold" font-size="10.00">TOKEN_PAIR</text>
<text xml:space="preserve" text-anchor="start" x="340.75" y="-231.07" font-family="Helvetica,sans-Serif" font-size="10.00">163&#45;dim</text>
<text xml:space="preserve" text-anchor="start" x="299.12" y="-222.97" font-family="Helvetica,sans-Serif" font-size="8.00">RelSeqSep(67) + RelTokSep(67)</text>
<text xml:space="preserve" text-anchor="start" x="302.88" y="-214.97" font-family="Helvetica,sans-Serif" font-size="8.00">RelEntity(3) + RelChain(6) + ...</text>
</g>
<!-- proj_pair -->
<g id="node8" class="node">
<title>proj_pair</title>
<path fill="#fff3e0" stroke="#333333" stroke-width="1.2" d="M472.01,-153C472.01,-153 405.99,-153 405.99,-153 399.99,-153 393.99,-147 393.99,-141 393.99,-141 393.99,-129 393.99,-129 393.99,-123 399.99,-117 405.99,-117 405.99,-117 472.01,-117 472.01,-117 478.01,-117 484.01,-123 484.01,-129 484.01,-129 484.01,-141 484.01,-141 484.01,-147 478.01,-153 472.01,-153"/>
<text xml:space="preserve" text-anchor="start" x="402.62" y="-132.12" font-family="Helvetica,sans-Serif" font-weight="bold" font-size="10.00">Linear(163, 512)</text>
</g>
<!-- pair_raw&#45;&gt;proj_pair -->
<g id="edge2" class="edge">
<title>pair_raw&#45;&gt;proj_pair</title>
<path fill="none" stroke="#555555" d="M376.38,-209.11C388.29,-195.21 403.87,-177.02 416.51,-162.25"/>
<polygon fill="#555555" stroke="#555555" points="419.11,-164.6 422.96,-154.73 413.8,-160.04 419.11,-164.6"/>
</g>
<!-- atom_raw -->
<g id="node3" class="node">
<title>atom_raw</title>
<path fill="#e3f2fd" stroke="#333333" stroke-width="1.2" d="M617.76,-253.89C617.76,-253.89 466.24,-253.89 466.24,-253.89 460.24,-253.89 454.24,-247.89 454.24,-241.89 454.24,-241.89 454.24,-221.25 454.24,-221.25 454.24,-215.25 460.24,-209.25 466.24,-209.25 466.24,-209.25 617.76,-209.25 617.76,-209.25 623.76,-209.25 629.76,-215.25 629.76,-221.25 629.76,-221.25 629.76,-241.89 629.76,-241.89 629.76,-247.89 623.76,-253.89 617.76,-253.89"/>
<text xml:space="preserve" text-anchor="start" x="527.75" y="-241.07" font-family="Helvetica,sans-Serif" font-weight="bold" font-size="10.00">ATOM</text>
<text xml:space="preserve" text-anchor="start" x="524.75" y="-231.07" font-family="Helvetica,sans-Serif" font-size="10.00">395&#45;dim</text>
<text xml:space="preserve" text-anchor="start" x="482.38" y="-222.97" font-family="Helvetica,sans-Serif" font-size="8.00">AtomName(260) + RefCharge(1)</text>
<text xml:space="preserve" text-anchor="start" x="462.88" y="-214.97" font-family="Helvetica,sans-Serif" font-size="8.00">RefElement(130) + RefMask(1) + RefPos(3)</text>
</g>
<!-- proj_atom -->
<g id="node9" class="node">
<title>proj_atom</title>
<path fill="#fff3e0" stroke="#333333" stroke-width="1.2" d="M591.01,-153C591.01,-153 524.99,-153 524.99,-153 518.99,-153 512.99,-147 512.99,-141 512.99,-141 512.99,-129 512.99,-129 512.99,-123 518.99,-117 524.99,-117 524.99,-117 591.01,-117 591.01,-117 597.01,-117 603.01,-123 603.01,-129 603.01,-129 603.01,-141 603.01,-141 603.01,-147 597.01,-153 591.01,-153"/>
<text xml:space="preserve" text-anchor="start" x="521.62" y="-132.12" font-family="Helvetica,sans-Serif" font-weight="bold" font-size="10.00">Linear(395, 256)</text>
</g>
<!-- atom_raw&#45;&gt;proj_atom -->
<g id="edge3" class="edge">
<title>atom_raw&#45;&gt;proj_atom</title>
<path fill="none" stroke="#555555" d="M545.63,-209.11C547.85,-196 550.71,-179.06 553.13,-164.79"/>
<polygon fill="#555555" stroke="#555555" points="556.56,-165.51 554.77,-155.07 549.65,-164.34 556.56,-165.51"/>
</g>
<!-- atompair_raw -->
<g id="node4" class="node">
<title>atompair_raw</title>
<path fill="#e3f2fd" stroke="#333333" stroke-width="1.2" d="M769.14,-249.89C769.14,-249.89 670.86,-249.89 670.86,-249.89 664.86,-249.89 658.86,-243.89 658.86,-237.89 658.86,-237.89 658.86,-225.25 658.86,-225.25 658.86,-219.25 664.86,-213.25 670.86,-213.25 670.86,-213.25 769.14,-213.25 769.14,-213.25 775.14,-213.25 781.14,-219.25 781.14,-225.25 781.14,-225.25 781.14,-237.89 781.14,-237.89 781.14,-243.89 775.14,-249.89 769.14,-249.89"/>
<text xml:space="preserve" text-anchor="start" x="691.5" y="-237.07" font-family="Helvetica,sans-Serif" font-weight="bold" font-size="10.00">ATOM_PAIR</text>
<text xml:space="preserve" text-anchor="start" x="705.38" y="-227.07" font-family="Helvetica,sans-Serif" font-size="10.00">14&#45;dim</text>
<text xml:space="preserve" text-anchor="start" x="667.5" y="-218.97" font-family="Helvetica,sans-Serif" font-size="8.00">Distogram(12) + InvSqDist(2)</text>
</g>
<!-- proj_atompair -->
<g id="node10" class="node">
<title>proj_atompair</title>
<path fill="#fff3e0" stroke="#333333" stroke-width="1.2" d="M699.76,-153C699.76,-153 644.24,-153 644.24,-153 638.24,-153 632.24,-147 632.24,-141 632.24,-141 632.24,-129 632.24,-129 632.24,-123 638.24,-117 644.24,-117 644.24,-117 699.76,-117 699.76,-117 705.76,-117 711.76,-123 711.76,-129 711.76,-129 711.76,-141 711.76,-141 711.76,-147 705.76,-153 699.76,-153"/>
<text xml:space="preserve" text-anchor="start" x="640.88" y="-132.12" font-family="Helvetica,sans-Serif" font-weight="bold" font-size="10.00">Linear(14, 32)</text>
</g>
<!-- atompair_raw&#45;&gt;proj_atompair -->
<g id="edge4" class="edge">
<title>atompair_raw&#45;&gt;proj_atompair</title>
<path fill="none" stroke="#555555" d="M710.97,-212.78C703.89,-198.82 693.91,-179.16 685.82,-163.22"/>
<polygon fill="#555555" stroke="#555555" points="689.16,-162.07 681.51,-154.74 682.92,-165.24 689.16,-162.07"/>
</g>
<!-- msa_raw -->
<g id="node5" class="node">
<title>msa_raw</title>
<path fill="#e3f2fd" stroke="#333333" stroke-width="1.2" d="M946.26,-253.89C946.26,-253.89 821.74,-253.89 821.74,-253.89 815.74,-253.89 809.74,-247.89 809.74,-241.89 809.74,-241.89 809.74,-221.25 809.74,-221.25 809.74,-215.25 815.74,-209.25 821.74,-209.25 821.74,-209.25 946.26,-209.25 946.26,-209.25 952.26,-209.25 958.26,-215.25 958.26,-221.25 958.26,-221.25 958.26,-241.89 958.26,-241.89 958.26,-247.89 952.26,-253.89 946.26,-253.89"/>
<text xml:space="preserve" text-anchor="start" x="872.75" y="-241.07" font-family="Helvetica,sans-Serif" font-weight="bold" font-size="10.00">MSA</text>
<text xml:space="preserve" text-anchor="start" x="869.38" y="-231.07" font-family="Helvetica,sans-Serif" font-size="10.00">42&#45;dim</text>
<text xml:space="preserve" text-anchor="start" x="818.38" y="-222.97" font-family="Helvetica,sans-Serif" font-size="8.00">OneHot(32) + HasDel(1) + DelVal(1)</text>
<text xml:space="preserve" text-anchor="start" x="833" y="-214.97" font-family="Helvetica,sans-Serif" font-size="8.00">IsPaired(1) + DataSource(7)</text>
</g>
<!-- proj_msa -->
<g id="node11" class="node">
<title>proj_msa</title>
<path fill="#fff3e0" stroke="#333333" stroke-width="1.2" d="M808.76,-153C808.76,-153 753.24,-153 753.24,-153 747.24,-153 741.24,-147 741.24,-141 741.24,-141 741.24,-129 741.24,-129 741.24,-123 747.24,-117 753.24,-117 753.24,-117 808.76,-117 808.76,-117 814.76,-117 820.76,-123 820.76,-129 820.76,-129 820.76,-141 820.76,-141 820.76,-147 814.76,-153 808.76,-153"/>
<text xml:space="preserve" text-anchor="start" x="749.88" y="-132.12" font-family="Helvetica,sans-Serif" font-weight="bold" font-size="10.00">Linear(42, 64)</text>
</g>
<!-- msa_raw&#45;&gt;proj_msa -->
<g id="edge5" class="edge">
<title>msa_raw&#45;&gt;proj_msa</title>
<path fill="none" stroke="#555555" d="M860.37,-208.87C844.79,-194.57 824.35,-175.8 808.11,-160.89"/>
<polygon fill="#555555" stroke="#555555" points="810.9,-158.7 801.16,-154.51 806.16,-163.85 810.9,-158.7"/>
</g>
<!-- template_raw -->
<g id="node6" class="node">
<title>template_raw</title>
<path fill="#e3f2fd" stroke="#333333" stroke-width="1.2" d="M1124.64,-253.89C1124.64,-253.89 999.36,-253.89 999.36,-253.89 993.36,-253.89 987.36,-247.89 987.36,-241.89 987.36,-241.89 987.36,-221.25 987.36,-221.25 987.36,-215.25 993.36,-209.25 999.36,-209.25 999.36,-209.25 1124.64,-209.25 1124.64,-209.25 1130.64,-209.25 1136.64,-215.25 1136.64,-221.25 1136.64,-221.25 1136.64,-241.89 1136.64,-241.89 1136.64,-247.89 1130.64,-253.89 1124.64,-253.89"/>
<text xml:space="preserve" text-anchor="start" x="1032" y="-241.07" font-family="Helvetica,sans-Serif" font-weight="bold" font-size="10.00">TEMPLATES</text>
<text xml:space="preserve" text-anchor="start" x="1047.38" y="-231.07" font-family="Helvetica,sans-Serif" font-size="10.00">76&#45;dim</text>
<text xml:space="preserve" text-anchor="start" x="996" y="-222.97" font-family="Helvetica,sans-Serif" font-size="8.00">Mask(2) + UnitVec(3) + ResType(32)</text>
<text xml:space="preserve" text-anchor="start" x="1036.12" y="-214.97" font-family="Helvetica,sans-Serif" font-size="8.00">Distogram(39)</text>
</g>
<!-- proj_template -->
<g id="node12" class="node">
<title>proj_template</title>
<path fill="#fff3e0" stroke="#333333" stroke-width="1.2" d="M917.76,-153C917.76,-153 862.24,-153 862.24,-153 856.24,-153 850.24,-147 850.24,-141 850.24,-141 850.24,-129 850.24,-129 850.24,-123 856.24,-117 862.24,-117 862.24,-117 917.76,-117 917.76,-117 923.76,-117 929.76,-123 929.76,-129 929.76,-129 929.76,-141 929.76,-141 929.76,-147 923.76,-153 917.76,-153"/>
<text xml:space="preserve" text-anchor="start" x="858.88" y="-132.12" font-family="Helvetica,sans-Serif" font-weight="bold" font-size="10.00">Linear(76, 64)</text>
</g>
<!-- template_raw&#45;&gt;proj_template -->
<g id="edge6" class="edge">
<title>template_raw&#45;&gt;proj_template</title>
<path fill="none" stroke="#555555" d="M1022.54,-208.87C995.33,-193.91 959.23,-174.07 931.58,-158.86"/>
<polygon fill="#555555" stroke="#555555" points="933.58,-155.97 923.13,-154.22 930.21,-162.1 933.58,-155.97"/>
</g>
<!-- out_token -->
<g id="node13" class="node">
<title>out_token</title>
<path fill="#e8f5e9" stroke="#333333" stroke-width="1.2" d="M58,-52C58,-52 28,-52 28,-52 22,-52 16,-46 16,-40 16,-40 16,-28 16,-28 16,-22 22,-16 28,-16 28,-16 58,-16 58,-16 64,-16 70,-22 70,-28 70,-28 70,-40 70,-40 70,-46 64,-52 58,-52"/>
<text xml:space="preserve" text-anchor="start" x="25.38" y="-35.5" font-family="Helvetica,sans-Serif" font-weight="bold" font-size="10.00">TOKEN</text>
<text xml:space="preserve" text-anchor="start" x="35.12" y="-25.5" font-family="Helvetica,sans-Serif" font-size="10.00">384</text>
</g>
<!-- proj_token&#45;&gt;out_token -->
<g id="edge7" class="edge">
<title>proj_token&#45;&gt;out_token</title>
<path fill="none" stroke="#555555" d="M268.9,-130.93C219.55,-125.96 142,-113.01 84,-79.25 75.98,-74.58 68.6,-67.85 62.38,-61.03"/>
<polygon fill="#555555" stroke="#555555" points="65.27,-59.03 56.14,-53.66 59.93,-63.55 65.27,-59.03"/>
</g>
<!-- out_pair_trunk -->
<g id="node14" class="node">
<title>out_pair_trunk</title>
<path fill="#e8f5e9" stroke="#333333" stroke-width="1.2" d="M201.01,-52C201.01,-52 110.98,-52 110.98,-52 104.98,-52 98.98,-46 98.98,-40 98.98,-40 98.98,-28 98.98,-28 98.98,-22 104.98,-16 110.98,-16 110.98,-16 201.01,-16 201.01,-16 207.01,-16 213.01,-22 213.01,-28 213.01,-28 213.01,-40 213.01,-40 213.01,-46 207.01,-52 201.01,-52"/>
<text xml:space="preserve" text-anchor="start" x="107.62" y="-35.5" font-family="Helvetica,sans-Serif" font-weight="bold" font-size="10.00">TOKEN_PAIR (trunk)</text>
<text xml:space="preserve" text-anchor="start" x="148.12" y="-25.5" font-family="Helvetica,sans-Serif" font-size="10.00">256</text>
</g>
<!-- proj_pair&#45;&gt;out_pair_trunk -->
<g id="edge8" class="edge">
<title>proj_pair&#45;&gt;out_pair_trunk</title>
<path fill="none" stroke="#555555" d="M400.04,-116.45C393.12,-113.71 385.91,-111.1 379,-109 313.55,-89.14 291.7,-104.16 228,-79.25 214.55,-73.99 200.8,-66.23 188.96,-58.68"/>
<polygon fill="#555555" stroke="#555555" points="191.06,-55.86 180.79,-53.27 187.2,-61.7 191.06,-55.86"/>
<text xml:space="preserve" text-anchor="middle" x="331.27" y="-88.45" font-family="Helvetica,sans-Serif" font-size="9.00">chunk(2)</text>
</g>
<!-- out_pair_struct -->
<g id="node15" class="node">
<title>out_pair_struct</title>
<path fill="#e8f5e9" stroke="#333333" stroke-width="1.2" d="M361.64,-52C361.64,-52 254.36,-52 254.36,-52 248.36,-52 242.36,-46 242.36,-40 242.36,-40 242.36,-28 242.36,-28 242.36,-22 248.36,-16 254.36,-16 254.36,-16 361.64,-16 361.64,-16 367.64,-16 373.64,-22 373.64,-28 373.64,-28 373.64,-40 373.64,-40 373.64,-46 367.64,-52 361.64,-52"/>
<text xml:space="preserve" text-anchor="start" x="251" y="-35.5" font-family="Helvetica,sans-Serif" font-weight="bold" font-size="10.00">TOKEN_PAIR (structure)</text>
<text xml:space="preserve" text-anchor="start" x="300.12" y="-25.5" font-family="Helvetica,sans-Serif" font-size="10.00">256</text>
</g>
<!-- proj_pair&#45;&gt;out_pair_struct -->
<g id="edge9" class="edge">
<title>proj_pair&#45;&gt;out_pair_struct</title>
<path fill="none" stroke="#555555" d="M415.88,-116.53C394.74,-100.55 363.28,-76.78 339.78,-59.02"/>
<polygon fill="#555555" stroke="#555555" points="342.18,-56.45 332.1,-53.21 337.96,-62.03 342.18,-56.45"/>
<text xml:space="preserve" text-anchor="middle" x="407.09" y="-88.45" font-family="Helvetica,sans-Serif" font-size="9.00">chunk(2)</text>
</g>
<!-- out_atom_trunk -->
<g id="node16" class="node">
<title>out_atom_trunk</title>
<path fill="#e8f5e9" stroke="#333333" stroke-width="1.2" d="M469.39,-52C469.39,-52 414.61,-52 414.61,-52 408.61,-52 402.61,-46 402.61,-40 402.61,-40 402.61,-28 402.61,-28 402.61,-22 408.61,-16 414.61,-16 414.61,-16 469.39,-16 469.39,-16 475.39,-16 481.39,-22 481.39,-28 481.39,-28 481.39,-40 481.39,-40 481.39,-46 475.39,-52 469.39,-52"/>
<text xml:space="preserve" text-anchor="start" x="411.25" y="-35.5" font-family="Helvetica,sans-Serif" font-weight="bold" font-size="10.00">ATOM (trunk)</text>
<text xml:space="preserve" text-anchor="start" x="434.12" y="-25.5" font-family="Helvetica,sans-Serif" font-size="10.00">128</text>
</g>
<!-- proj_atom&#45;&gt;out_atom_trunk -->
<g id="edge10" class="edge">
<title>proj_atom&#45;&gt;out_atom_trunk</title>
<path fill="none" stroke="#555555" d="M537.53,-116.53C519.06,-100.77 491.69,-77.41 470.98,-59.73"/>
<polygon fill="#555555" stroke="#555555" points="473.3,-57.11 463.42,-53.28 468.75,-62.43 473.3,-57.11"/>
<text xml:space="preserve" text-anchor="middle" x="531.8" y="-88.45" font-family="Helvetica,sans-Serif" font-size="9.00">chunk(2)</text>
</g>
<!-- out_atom_struct -->
<g id="node17" class="node">
<title>out_atom_struct</title>
<path fill="#e8f5e9" stroke="#333333" stroke-width="1.2" d="M594.01,-52C594.01,-52 521.99,-52 521.99,-52 515.99,-52 509.99,-46 509.99,-40 509.99,-40 509.99,-28 509.99,-28 509.99,-22 515.99,-16 521.99,-16 521.99,-16 594.01,-16 594.01,-16 600.01,-16 606.01,-22 606.01,-28 606.01,-28 606.01,-40 606.01,-40 606.01,-46 600.01,-52 594.01,-52"/>
<text xml:space="preserve" text-anchor="start" x="518.62" y="-35.5" font-family="Helvetica,sans-Serif" font-weight="bold" font-size="10.00">ATOM (structure)</text>
<text xml:space="preserve" text-anchor="start" x="550.12" y="-25.5" font-family="Helvetica,sans-Serif" font-size="10.00">128</text>
</g>
<!-- proj_atom&#45;&gt;out_atom_struct -->
<g id="edge11" class="edge">
<title>proj_atom&#45;&gt;out_atom_struct</title>
<path fill="none" stroke="#555555" d="M558,-116.76C558,-102.08 558,-80.71 558,-63.5"/>
<polygon fill="#555555" stroke="#555555" points="561.5,-63.89 558,-53.89 554.5,-63.89 561.5,-63.89"/>
<text xml:space="preserve" text-anchor="middle" x="576" y="-88.45" font-family="Helvetica,sans-Serif" font-size="9.00">chunk(2)</text>
</g>
<!-- out_atompair_trunk -->
<g id="node18" class="node">
<title>out_atompair_trunk</title>
<path fill="#e8f5e9" stroke="#333333" stroke-width="1.2" d="M730.64,-52C730.64,-52 647.36,-52 647.36,-52 641.36,-52 635.36,-46 635.36,-40 635.36,-40 635.36,-28 635.36,-28 635.36,-22 641.36,-16 647.36,-16 647.36,-16 730.64,-16 730.64,-16 736.64,-16 742.64,-22 742.64,-28 742.64,-28 742.64,-40 742.64,-40 742.64,-46 736.64,-52 730.64,-52"/>
<text xml:space="preserve" text-anchor="start" x="644" y="-35.5" font-family="Helvetica,sans-Serif" font-weight="bold" font-size="10.00">ATOM_PAIR (trunk)</text>
<text xml:space="preserve" text-anchor="start" x="683.75" y="-25.5" font-family="Helvetica,sans-Serif" font-size="10.00">16</text>
</g>
<!-- proj_atompair&#45;&gt;out_atompair_trunk -->
<g id="edge12" class="edge">
<title>proj_atompair&#45;&gt;out_atompair_trunk</title>
<path fill="none" stroke="#555555" d="M674.96,-116.76C677.48,-102.08 681.15,-80.71 684.11,-63.5"/>
<polygon fill="#555555" stroke="#555555" points="687.52,-64.32 685.76,-53.87 680.62,-63.13 687.52,-64.32"/>
<text xml:space="preserve" text-anchor="middle" x="697.99" y="-88.45" font-family="Helvetica,sans-Serif" font-size="9.00">chunk(2)</text>
</g>
<!-- out_atompair_struct -->
<g id="node19" class="node">
<title>out_atompair_struct</title>
<path fill="#e8f5e9" stroke="#333333" stroke-width="1.2" d="M884.26,-52C884.26,-52 783.74,-52 783.74,-52 777.74,-52 771.74,-46 771.74,-40 771.74,-40 771.74,-28 771.74,-28 771.74,-22 777.74,-16 783.74,-16 783.74,-16 884.26,-16 884.26,-16 890.26,-16 896.26,-22 896.26,-28 896.26,-28 896.26,-40 896.26,-40 896.26,-46 890.26,-52 884.26,-52"/>
<text xml:space="preserve" text-anchor="start" x="780.38" y="-35.5" font-family="Helvetica,sans-Serif" font-weight="bold" font-size="10.00">ATOM_PAIR (structure)</text>
<text xml:space="preserve" text-anchor="start" x="828.75" y="-25.5" font-family="Helvetica,sans-Serif" font-size="10.00">16</text>
</g>
<!-- proj_atompair&#45;&gt;out_atompair_struct -->
<g id="edge13" class="edge">
<title>proj_atompair&#45;&gt;out_atompair_struct</title>
<path fill="none" stroke="#555555" d="M700.59,-116.53C727.11,-100.32 766.77,-76.08 795.96,-58.25"/>
<polygon fill="#555555" stroke="#555555" points="797.43,-61.45 804.13,-53.25 793.77,-55.48 797.43,-61.45"/>
<text xml:space="preserve" text-anchor="middle" x="766.14" y="-88.45" font-family="Helvetica,sans-Serif" font-size="9.00">chunk(2)</text>
</g>
<!-- out_msa -->
<g id="node20" class="node">
<title>out_msa</title>
<path fill="#e8f5e9" stroke="#333333" stroke-width="1.2" d="M967,-52C967,-52 937,-52 937,-52 931,-52 925,-46 925,-40 925,-40 925,-28 925,-28 925,-22 931,-16 937,-16 937,-16 967,-16 967,-16 973,-16 979,-22 979,-28 979,-28 979,-40 979,-40 979,-46 973,-52 967,-52"/>
<text xml:space="preserve" text-anchor="start" x="940.75" y="-35.5" font-family="Helvetica,sans-Serif" font-weight="bold" font-size="10.00">MSA</text>
<text xml:space="preserve" text-anchor="start" x="946.75" y="-25.5" font-family="Helvetica,sans-Serif" font-size="10.00">64</text>
</g>
<!-- proj_msa&#45;&gt;out_msa -->
<g id="edge14" class="edge">
<title>proj_msa&#45;&gt;out_msa</title>
<path fill="none" stroke="#555555" d="M819.06,-116.41C824.72,-113.88 830.5,-111.34 836,-109 869,-94.97 881.41,-99.51 911,-79.25 918.53,-74.09 925.69,-67.31 931.86,-60.62"/>
<polygon fill="#555555" stroke="#555555" points="934.17,-63.29 938.09,-53.45 928.89,-58.7 934.17,-63.29"/>
</g>
<!-- out_template -->
<g id="node21" class="node">
<title>out_template</title>
<path fill="#e8f5e9" stroke="#333333" stroke-width="1.2" d="M1073.64,-52C1073.64,-52 1020.36,-52 1020.36,-52 1014.36,-52 1008.36,-46 1008.36,-40 1008.36,-40 1008.36,-28 1008.36,-28 1008.36,-22 1014.36,-16 1020.36,-16 1020.36,-16 1073.64,-16 1073.64,-16 1079.64,-16 1085.64,-22 1085.64,-28 1085.64,-28 1085.64,-40 1085.64,-40 1085.64,-46 1079.64,-52 1073.64,-52"/>
<text xml:space="preserve" text-anchor="start" x="1017" y="-35.5" font-family="Helvetica,sans-Serif" font-weight="bold" font-size="10.00">TEMPLATES</text>
<text xml:space="preserve" text-anchor="start" x="1041.75" y="-25.5" font-family="Helvetica,sans-Serif" font-size="10.00">64</text>
</g>
<!-- proj_template&#45;&gt;out_template -->
<g id="edge15" class="edge">
<title>proj_template&#45;&gt;out_template</title>
<path fill="none" stroke="#555555" d="M927.67,-116.57C947.92,-106.61 972.98,-93.33 994,-79.25 1002.68,-73.43 1011.6,-66.45 1019.58,-59.76"/>
<polygon fill="#555555" stroke="#555555" points="1021.68,-62.57 1026.99,-53.41 1017.12,-57.26 1021.68,-62.57"/>
</g>
</g>
</svg>
