<?xml version="1.0" encoding="UTF-8" standalone="no"?>
<!DOCTYPE svg PUBLIC "-//W3C//DTD SVG 1.1//EN"
 "http://www.w3.org/Graphics/SVG/1.1/DTD/svg11.dtd">
<!-- Generated by graphviz version 14.1.4 (20260321.0153)
 -->
<!-- Title: TokenInputEmbedder Pages: 1 -->
<svg width="811pt" height="917pt"
 viewBox="0.00 0.00 811.00 917.00" xmlns="http://www.w3.org/2000/svg" xmlns:xlink="http://www.w3.org/1999/xlink">
<g id="graph0" class="graph" transform="scale(1 1) rotate(0) translate(21.6 894.91)">
<title>TokenInputEmbedder</title>
<text xml:space="preserve" text-anchor="start" x="311.95" y="-857.96" font-family="Helvetica,sans-Serif" font-weight="bold" font-size="13.00">Token Input Embedder</text>
<text xml:space="preserve" text-anchor="start" x="309.7" y="-848.76" font-family="Helvetica,sans-Serif" font-size="9.00">token_embedder.pt &#160;(~1.5M params)</text>
<g id="clust1" class="cluster">
<title>cluster_atom_transformer</title>
<polygon fill="none" stroke="#999999" stroke-dasharray="5,2" points="460.64,-474.67 460.64,-700.67 649.64,-700.67 649.64,-474.67 460.64,-474.67"/>
<text xml:space="preserve" text-anchor="start" x="468.51" y="-688.17" font-family="Helvetica,sans-Serif" font-weight="bold" font-size="10.00">LocalDiffusionTransformer (3 blocks)</text>
</g>
<!-- token_single -->
<g id="node1" class="node">
<title>token_single</title>
<path fill="#e3f2fd" stroke="#333333" stroke-width="1.2" d="M389.03,-356.03C389.03,-356.03 280.25,-356.03 280.25,-356.03 274.25,-356.03 268.25,-350.03 268.25,-344.03 268.25,-344.03 268.25,-332.03 268.25,-332.03 268.25,-326.03 274.25,-320.03 280.25,-320.03 280.25,-320.03 389.03,-320.03 389.03,-320.03 395.03,-320.03 401.03,-326.03 401.03,-332.03 401.03,-332.03 401.03,-344.03 401.03,-344.03 401.03,-350.03 395.03,-356.03 389.03,-356.03"/>
<text xml:space="preserve" text-anchor="start" x="276.89" y="-339.53" font-family="Helvetica,sans-Serif" font-weight="bold" font-size="10.00">token_single_input_feats</text>
<text xml:space="preserve" text-anchor="start" x="295.26" y="-329.53" font-family="Helvetica,sans-Serif" font-size="10.00">[b, n_tokens, 384]</text>
</g>
<!-- concat -->
<g id="node12" class="node">
<title>concat</title>
<path fill="#f3e5f5" stroke="#333333" stroke-width="1.2" d="M446.65,-266.39C446.65,-266.39 260.62,-266.39 260.62,-266.39 254.62,-266.39 248.62,-260.39 248.62,-254.39 248.62,-254.39 248.62,-242.39 248.62,-242.39 248.62,-236.39 254.62,-230.39 260.62,-230.39 260.62,-230.39 446.65,-230.39 446.65,-230.39 452.65,-230.39 458.65,-236.39 458.65,-242.39 458.65,-242.39 458.65,-254.39 458.65,-254.39 458.65,-260.39 452.65,-266.39 446.65,-266.39"/>
<text xml:space="preserve" text-anchor="start" x="324.76" y="-249.89" font-family="Helvetica,sans-Serif" font-weight="bold" font-size="10.00">Concatenate</text>
<text xml:space="preserve" text-anchor="start" x="257.26" y="-239.89" font-family="Helvetica,sans-Serif" font-size="10.00">[token_single(384) ++ atom_agg(384)] = 768</text>
</g>
<!-- token_single&#45;&gt;concat -->
<g id="edge11" class="edge">
<title>token_single&#45;&gt;concat</title>
<path fill="none" stroke="#555555" d="M338.39,-319.72C340.98,-307.79 344.47,-291.67 347.47,-277.87"/>
<polygon fill="#555555" stroke="#555555" points="350.81,-278.96 349.51,-268.45 343.97,-277.48 350.81,-278.96"/>
</g>
<!-- atom_single -->
<g id="node2" class="node">
<title>atom_single</title>
<path fill="#e3f2fd" stroke="#333333" stroke-width="1.2" d="M755.9,-843.31C755.9,-843.31 649.38,-843.31 649.38,-843.31 643.38,-843.31 637.38,-837.31 637.38,-831.31 637.38,-831.31 637.38,-819.31 637.38,-819.31 637.38,-813.31 643.38,-807.31 649.38,-807.31 649.38,-807.31 755.9,-807.31 755.9,-807.31 761.9,-807.31 767.9,-813.31 767.9,-819.31 767.9,-819.31 767.9,-831.31 767.9,-831.31 767.9,-837.31 761.9,-843.31 755.9,-843.31"/>
<text xml:space="preserve" text-anchor="start" x="646.01" y="-826.81" font-family="Helvetica,sans-Serif" font-weight="bold" font-size="10.00">atom_single_input_feats</text>
<text xml:space="preserve" text-anchor="start" x="664.39" y="-816.81" font-family="Helvetica,sans-Serif" font-size="10.00">[b, n_atoms, 128]</text>
</g>
<!-- atom_cond -->
<g id="node5" class="node">
<title>atom_cond</title>
<path fill="#fff3e0" stroke="#333333" stroke-width="1.2" d="M734.15,-673.42C734.15,-673.42 671.12,-673.42 671.12,-673.42 665.12,-673.42 659.12,-667.42 659.12,-661.42 659.12,-661.42 659.12,-649.42 659.12,-649.42 659.12,-643.42 665.12,-637.42 671.12,-637.42 671.12,-637.42 734.15,-637.42 734.15,-637.42 740.15,-637.42 746.15,-643.42 746.15,-649.42 746.15,-649.42 746.15,-661.42 746.15,-661.42 746.15,-667.42 740.15,-673.42 734.15,-673.42"/>
<text xml:space="preserve" text-anchor="start" x="669.64" y="-656.92" font-family="Helvetica,sans-Serif" font-weight="bold" font-size="10.00">to_atom_cond</text>
<text xml:space="preserve" text-anchor="start" x="667.76" y="-646.92" font-family="Helvetica,sans-Serif" font-size="10.00">Linear(128, 128)</text>
</g>
<!-- atom_single&#45;&gt;atom_cond -->
<g id="edge1" class="edge">
<title>atom_single&#45;&gt;atom_cond</title>
<path fill="none" stroke="#555555" d="M702.64,-806.98C702.64,-778.2 702.64,-720.27 702.64,-685.26"/>
<polygon fill="#555555" stroke="#555555" points="706.14,-685.43 702.64,-675.43 699.14,-685.43 706.14,-685.43"/>
</g>
<!-- pair_update -->
<g id="node6" class="node">
<title>pair_update</title>
<path fill="#fff3e0" stroke="#333333" stroke-width="1.2" d="M614.9,-770.31C614.9,-770.31 490.38,-770.31 490.38,-770.31 484.38,-770.31 478.38,-764.31 478.38,-758.31 478.38,-758.31 478.38,-739.67 478.38,-739.67 478.38,-733.67 484.38,-727.67 490.38,-727.67 490.38,-727.67 614.9,-727.67 614.9,-727.67 620.9,-727.67 626.9,-733.67 626.9,-739.67 626.9,-739.67 626.9,-758.31 626.9,-758.31 626.9,-764.31 620.9,-770.31 614.9,-770.31"/>
<text xml:space="preserve" text-anchor="start" x="510.26" y="-757.49" font-family="Helvetica,sans-Serif" font-weight="bold" font-size="10.00">Pair Update Block</text>
<text xml:space="preserve" text-anchor="start" x="511.39" y="-749.39" font-family="Helvetica,sans-Serif" font-size="8.00">proj_h: Linear(128, 16)</text>
<text xml:space="preserve" text-anchor="start" x="510.64" y="-741.39" font-family="Helvetica,sans-Serif" font-size="8.00">proj_w: Linear(128, 16)</text>
<text xml:space="preserve" text-anchor="start" x="487.01" y="-733.39" font-family="Helvetica,sans-Serif" font-size="8.00">MLP: Linear(16,16) → Linear(16,16)</text>
</g>
<!-- atom_single&#45;&gt;pair_update -->
<g id="edge2" class="edge">
<title>atom_single&#45;&gt;pair_update</title>
<path fill="none" stroke="#555555" d="M667.47,-806.89C648.88,-797.67 625.68,-786.18 605.02,-775.94"/>
<polygon fill="#555555" stroke="#555555" points="606.66,-772.85 596.15,-771.55 603.56,-779.12 606.66,-772.85"/>
</g>
<!-- atom_pair -->
<g id="node3" class="node">
<title>atom_pair</title>
<path fill="#e3f2fd" stroke="#333333" stroke-width="1.2" d="M593.78,-843.31C593.78,-843.31 501.5,-843.31 501.5,-843.31 495.5,-843.31 489.5,-837.31 489.5,-831.31 489.5,-831.31 489.5,-819.31 489.5,-819.31 489.5,-813.31 495.5,-807.31 501.5,-807.31 501.5,-807.31 593.78,-807.31 593.78,-807.31 599.78,-807.31 605.78,-813.31 605.78,-819.31 605.78,-819.31 605.78,-831.31 605.78,-831.31 605.78,-837.31 599.78,-843.31 593.78,-843.31"/>
<text xml:space="preserve" text-anchor="start" x="498.14" y="-826.81" font-family="Helvetica,sans-Serif" font-weight="bold" font-size="10.00">block_atom_pair_feat</text>
<text xml:space="preserve" text-anchor="start" x="507.89" y="-816.81" font-family="Helvetica,sans-Serif" font-size="10.00">[b, bl, 32, 128, 16]</text>
</g>
<!-- atom_pair&#45;&gt;pair_update -->
<g id="edge3" class="edge">
<title>atom_pair&#45;&gt;pair_update</title>
<path fill="none" stroke="#555555" d="M548.8,-807.07C549.3,-799.64 549.9,-790.71 550.48,-782.13"/>
<polygon fill="#555555" stroke="#555555" points="553.96,-782.56 551.14,-772.35 546.97,-782.09 553.96,-782.56"/>
</g>
<!-- pair_feat -->
<g id="node4" class="node">
<title>pair_feat</title>
<path fill="#e3f2fd" stroke="#333333" stroke-width="1.2" d="M142.53,-193.39C142.53,-193.39 24.75,-193.39 24.75,-193.39 18.75,-193.39 12.75,-187.39 12.75,-181.39 12.75,-181.39 12.75,-169.39 12.75,-169.39 12.75,-163.39 18.75,-157.39 24.75,-157.39 24.75,-157.39 142.53,-157.39 142.53,-157.39 148.53,-157.39 154.53,-163.39 154.53,-169.39 154.53,-169.39 154.53,-181.39 154.53,-181.39 154.53,-187.39 148.53,-193.39 142.53,-193.39"/>
<text xml:space="preserve" text-anchor="start" x="31.14" y="-176.89" font-family="Helvetica,sans-Serif" font-weight="bold" font-size="10.00">token_pair_input_feats</text>
<text xml:space="preserve" text-anchor="start" x="21.39" y="-166.89" font-family="Helvetica,sans-Serif" font-size="10.00">[b, n_tokens, n_tokens, 256]</text>
</g>
<!-- pair_proj -->
<g id="node15" class="node">
<title>pair_proj</title>
<path fill="#e8f5e9" stroke="#333333" stroke-width="1.2" d="M155.28,-111.64C155.28,-111.64 12,-111.64 12,-111.64 6,-111.64 0,-105.64 0,-99.64 0,-99.64 0,-85 0,-85 0,-79 6,-73 12,-73 12,-73 155.28,-73 155.28,-73 161.28,-73 167.28,-79 167.28,-85 167.28,-85 167.28,-99.64 167.28,-99.64 167.28,-105.64 161.28,-111.64 155.28,-111.64"/>
<text xml:space="preserve" text-anchor="start" x="25.51" y="-98.82" font-family="Helvetica,sans-Serif" font-weight="bold" font-size="10.00">token_pair_proj_in_trunk</text>
<text xml:space="preserve" text-anchor="start" x="30.01" y="-88.82" font-family="Helvetica,sans-Serif" font-size="10.00">Linear(256, 256, no bias)</text>
<text xml:space="preserve" text-anchor="start" x="8.64" y="-78.82" font-family="Helvetica,sans-Serif" font-size="10.00">+ outer_sum from Linear(384, 512)</text>
</g>
<!-- pair_feat&#45;&gt;pair_proj -->
<g id="edge17" class="edge">
<title>pair_feat&#45;&gt;pair_proj</title>
<path fill="none" stroke="#555555" d="M83.64,-156.8C83.64,-146.98 83.64,-134.49 83.64,-123.19"/>
<polygon fill="#555555" stroke="#555555" points="87.14,-123.52 83.64,-113.52 80.14,-123.52 87.14,-123.52"/>
</g>
<!-- attn1 -->
<g id="node8" class="node">
<title>attn1</title>
<path fill="#e8eaf6" stroke="#333333" stroke-width="1.2" d="M626.9,-591.67C626.9,-591.67 484.38,-591.67 484.38,-591.67 478.38,-591.67 472.38,-585.67 472.38,-579.67 472.38,-579.67 472.38,-567.67 472.38,-567.67 472.38,-561.67 478.38,-555.67 484.38,-555.67 484.38,-555.67 626.9,-555.67 626.9,-555.67 632.9,-555.67 638.9,-561.67 638.9,-567.67 638.9,-567.67 638.9,-579.67 638.9,-579.67 638.9,-585.67 632.9,-591.67 626.9,-591.67"/>
<text xml:space="preserve" text-anchor="start" x="481.01" y="-578.17" font-family="Helvetica,sans-Serif" font-weight="bold" font-size="10.00">LocalAttentionPairBiasBlock ×3</text>
<text xml:space="preserve" text-anchor="start" x="515.89" y="-570.07" font-family="Helvetica,sans-Serif" font-size="8.00">4 heads, 32 head_dim</text>
<text xml:space="preserve" text-anchor="start" x="505.01" y="-562.07" font-family="Helvetica,sans-Serif" font-size="8.00">AdaLN conditioned, 128&#45;dim</text>
</g>
<!-- atom_cond&#45;&gt;attn1 -->
<g id="edge5" class="edge">
<title>atom_cond&#45;&gt;attn1</title>
<path fill="none" stroke="#555555" d="M662.75,-636.97C651.2,-631.62 638.66,-625.53 627.39,-619.42 615.51,-612.98 602.9,-605.39 591.62,-598.31"/>
<polygon fill="#555555" stroke="#555555" points="593.69,-595.48 583.37,-593.06 589.93,-601.38 593.69,-595.48"/>
<text xml:space="preserve" text-anchor="middle" x="652.51" y="-610.87" font-family="Helvetica,sans-Serif" font-size="9.00">conditioning</text>
</g>
<!-- trans1 -->
<g id="node9" class="node">
<title>trans1</title>
<path fill="#e8eaf6" stroke="#333333" stroke-width="1.2" d="M627.4,-518.67C627.4,-518.67 487.88,-518.67 487.88,-518.67 481.88,-518.67 475.88,-512.67 475.88,-506.67 475.88,-506.67 475.88,-494.67 475.88,-494.67 475.88,-488.67 481.88,-482.67 487.88,-482.67 487.88,-482.67 627.4,-482.67 627.4,-482.67 633.4,-482.67 639.4,-488.67 639.4,-494.67 639.4,-494.67 639.4,-506.67 639.4,-506.67 639.4,-512.67 633.4,-518.67 627.4,-518.67"/>
<text xml:space="preserve" text-anchor="start" x="484.51" y="-505.17" font-family="Helvetica,sans-Serif" font-weight="bold" font-size="10.00">ConditionedTransitionBlock ×3</text>
<text xml:space="preserve" text-anchor="start" x="517.14" y="-497.07" font-family="Helvetica,sans-Serif" font-size="8.00">SwiGLU, 4× expansion</text>
<text xml:space="preserve" text-anchor="start" x="512.26" y="-489.07" font-family="Helvetica,sans-Serif" font-size="8.00">sigmoid gate (bias init −2)</text>
</g>
<!-- atom_cond&#45;&gt;trans1 -->
<g id="edge8" class="edge">
<title>atom_cond&#45;&gt;trans1</title>
<path fill="none" stroke="#555555" d="M697.85,-637.15C691.18,-615.8 677.3,-579.36 654.64,-555.67 642.51,-542.99 626.74,-532.5 611.45,-524.24"/>
<polygon fill="#555555" stroke="#555555" points="613.35,-521.29 602.86,-519.83 610.15,-527.51 613.35,-521.29"/>
<text xml:space="preserve" text-anchor="middle" x="691.88" y="-570" font-family="Helvetica,sans-Serif" font-size="9.00">gating</text>
</g>
<!-- pair_bias -->
<g id="node7" class="node">
<title>pair_bias</title>
<path fill="#e8eaf6" stroke="#333333" stroke-width="1.2" d="M615.28,-673.42C615.28,-673.42 490,-673.42 490,-673.42 484,-673.42 478,-667.42 478,-661.42 478,-661.42 478,-649.42 478,-649.42 478,-643.42 484,-637.42 490,-637.42 490,-637.42 615.28,-637.42 615.28,-637.42 621.28,-637.42 627.28,-643.42 627.28,-649.42 627.28,-649.42 627.28,-661.42 627.28,-661.42 627.28,-667.42 621.28,-673.42 615.28,-673.42"/>
<text xml:space="preserve" text-anchor="start" x="486.64" y="-659.92" font-family="Helvetica,sans-Serif" font-weight="bold" font-size="10.00">blocked_pairs2blocked_bias</text>
<text xml:space="preserve" text-anchor="start" x="508.01" y="-651.82" font-family="Helvetica,sans-Serif" font-size="8.00">LN(16) → Linear(16, 12)</text>
<text xml:space="preserve" text-anchor="start" x="519.64" y="-643.82" font-family="Helvetica,sans-Serif" font-size="8.00">3 blocks × 4 heads</text>
</g>
<!-- pair_update&#45;&gt;pair_bias -->
<g id="edge4" class="edge">
<title>pair_update&#45;&gt;pair_bias</title>
<path fill="none" stroke="#555555" d="M552.64,-727.21C552.64,-714.72 552.64,-698.65 552.64,-684.98"/>
<polygon fill="#555555" stroke="#555555" points="556.14,-685.25 552.64,-675.25 549.14,-685.25 556.14,-685.25"/>
</g>
<!-- pair_bias&#45;&gt;attn1 -->
<g id="edge6" class="edge">
<title>pair_bias&#45;&gt;attn1</title>
<path fill="none" stroke="#555555" d="M552.59,-636.99C552.63,-628.71 552.77,-618.68 553.14,-609.67 553.22,-607.61 553.33,-605.49 553.45,-603.35"/>
<polygon fill="#555555" stroke="#555555" points="556.93,-603.82 554.09,-593.62 549.94,-603.37 556.93,-603.82"/>
<text xml:space="preserve" text-anchor="middle" x="570.39" y="-610.87" font-family="Helvetica,sans-Serif" font-size="9.00">attn bias</text>
</g>
<!-- attn1&#45;&gt;trans1 -->
<g id="edge7" class="edge">
<title>attn1&#45;&gt;trans1</title>
<path fill="none" stroke="#555555" d="M556.13,-555.12C556.35,-547.64 556.6,-538.72 556.83,-530.32"/>
<polygon fill="#555555" stroke="#555555" points="560.33,-530.63 557.11,-520.53 553.33,-530.43 560.33,-530.63"/>
</g>
<!-- to_token -->
<g id="node10" class="node">
<title>to_token</title>
<path fill="#fff3e0" stroke="#333333" stroke-width="1.2" d="M607.9,-445.67C607.9,-445.67 507.38,-445.67 507.38,-445.67 501.38,-445.67 495.38,-439.67 495.38,-433.67 495.38,-433.67 495.38,-421.67 495.38,-421.67 495.38,-415.67 501.38,-409.67 507.38,-409.67 507.38,-409.67 607.9,-409.67 607.9,-409.67 613.9,-409.67 619.9,-415.67 619.9,-421.67 619.9,-421.67 619.9,-433.67 619.9,-433.67 619.9,-439.67 613.9,-445.67 607.9,-445.67"/>
<text xml:space="preserve" text-anchor="start" x="520.89" y="-429.17" font-family="Helvetica,sans-Serif" font-weight="bold" font-size="10.00">to_token_single</text>
<text xml:space="preserve" text-anchor="start" x="504.01" y="-419.17" font-family="Helvetica,sans-Serif" font-size="10.00">Linear(128, 384, no bias)</text>
</g>
<!-- trans1&#45;&gt;to_token -->
<g id="edge9" class="edge">
<title>trans1&#45;&gt;to_token</title>
<path fill="none" stroke="#555555" d="M557.64,-482.12C557.64,-474.64 557.64,-465.72 557.64,-457.32"/>
<polygon fill="#555555" stroke="#555555" points="561.14,-457.53 557.64,-447.53 554.14,-457.53 561.14,-457.53"/>
</g>
<!-- aggregate -->
<g id="node11" class="node">
<title>aggregate</title>
<path fill="#fce4ec" stroke="#333333" stroke-width="1.2" d="M546.08,-369.45C546.08,-369.45 444.67,-341.25 444.67,-341.25 438.89,-339.64 438.89,-336.42 444.67,-334.81 444.67,-334.81 546.08,-306.61 546.08,-306.61 551.86,-305 563.42,-305 569.2,-306.61 569.2,-306.61 670.61,-334.81 670.61,-334.81 676.39,-336.42 676.39,-339.64 670.61,-341.25 670.61,-341.25 569.2,-369.45 569.2,-369.45 563.42,-371.06 551.86,-371.06 546.08,-369.45"/>
<text xml:space="preserve" text-anchor="start" x="533.64" y="-342.53" font-family="Helvetica,sans-Serif" font-weight="bold" font-size="10.00">Aggregate</text>
<text xml:space="preserve" text-anchor="start" x="504.01" y="-334.43" font-family="Helvetica,sans-Serif" font-size="8.00">scatter by atom_token_indices</text>
<text xml:space="preserve" text-anchor="start" x="513.76" y="-326.43" font-family="Helvetica,sans-Serif" font-size="8.00">atom&#45;level → token&#45;level</text>
</g>
<!-- to_token&#45;&gt;aggregate -->
<g id="edge10" class="edge">
<title>to_token&#45;&gt;aggregate</title>
<path fill="none" stroke="#555555" d="M557.64,-409.36C557.64,-402.06 557.64,-393.19 557.64,-384.25"/>
<polygon fill="#555555" stroke="#555555" points="561.14,-384.51 557.64,-374.51 554.14,-384.51 561.14,-384.51"/>
</g>
<!-- aggregate&#45;&gt;concat -->
<g id="edge12" class="edge">
<title>aggregate&#45;&gt;concat</title>
<path fill="none" stroke="#555555" d="M509.29,-316.26C477.86,-302.75 436.91,-285.16 404.9,-271.41"/>
<polygon fill="#555555" stroke="#555555" points="406.38,-268.24 395.81,-267.51 403.62,-274.67 406.38,-268.24"/>
</g>
<!-- proj_trunk -->
<g id="node13" class="node">
<title>proj_trunk</title>
<path fill="#e8f5e9" stroke="#333333" stroke-width="1.2" d="M321.65,-193.39C321.65,-193.39 201.62,-193.39 201.62,-193.39 195.62,-193.39 189.62,-187.39 189.62,-181.39 189.62,-181.39 189.62,-169.39 189.62,-169.39 189.62,-163.39 195.62,-157.39 201.62,-157.39 201.62,-157.39 321.65,-157.39 321.65,-157.39 327.65,-157.39 333.65,-163.39 333.65,-169.39 333.65,-169.39 333.65,-181.39 333.65,-181.39 333.65,-187.39 327.65,-193.39 321.65,-193.39"/>
<text xml:space="preserve" text-anchor="start" x="198.26" y="-176.89" font-family="Helvetica,sans-Serif" font-weight="bold" font-size="10.00">token_single_proj_in_trunk</text>
<text xml:space="preserve" text-anchor="start" x="208.01" y="-166.89" font-family="Helvetica,sans-Serif" font-size="10.00">Linear(768, 384, no bias)</text>
</g>
<!-- concat&#45;&gt;proj_trunk -->
<g id="edge13" class="edge">
<title>concat&#45;&gt;proj_trunk</title>
<path fill="none" stroke="#555555" d="M330.9,-229.84C319.62,-221.13 305.81,-210.48 293.5,-200.97"/>
<polygon fill="#555555" stroke="#555555" points="295.69,-198.25 285.64,-194.91 291.42,-203.79 295.69,-198.25"/>
</g>
<!-- proj_struct -->
<g id="node14" class="node">
<title>proj_struct</title>
<path fill="#e8f5e9" stroke="#333333" stroke-width="1.2" d="M515.28,-193.39C515.28,-193.39 378,-193.39 378,-193.39 372,-193.39 366,-187.39 366,-181.39 366,-181.39 366,-169.39 366,-169.39 366,-163.39 372,-157.39 378,-157.39 378,-157.39 515.28,-157.39 515.28,-157.39 521.28,-157.39 527.28,-163.39 527.28,-169.39 527.28,-169.39 527.28,-181.39 527.28,-181.39 527.28,-187.39 521.28,-193.39 515.28,-193.39"/>
<text xml:space="preserve" text-anchor="start" x="374.64" y="-176.89" font-family="Helvetica,sans-Serif" font-weight="bold" font-size="10.00">token_single_proj_in_structure</text>
<text xml:space="preserve" text-anchor="start" x="393.01" y="-166.89" font-family="Helvetica,sans-Serif" font-size="10.00">Linear(768, 384, no bias)</text>
</g>
<!-- concat&#45;&gt;proj_struct -->
<g id="edge14" class="edge">
<title>concat&#45;&gt;proj_struct</title>
<path fill="none" stroke="#555555" d="M376.63,-229.84C388.14,-221.05 402.27,-210.27 414.8,-200.7"/>
<polygon fill="#555555" stroke="#555555" points="416.57,-203.75 422.39,-194.9 412.32,-198.19 416.57,-203.75"/>
</g>
<!-- proj_trunk&#45;&gt;pair_proj -->
<g id="edge18" class="edge">
<title>proj_trunk&#45;&gt;pair_proj</title>
<path fill="none" stroke="#555555" stroke-dasharray="5,2" d="M223.02,-156.8C197.36,-145.11 163.37,-129.63 135.38,-116.89"/>
<polygon fill="#555555" stroke="#555555" points="136.91,-113.73 126.36,-112.77 134.01,-120.11 136.91,-113.73"/>
<text xml:space="preserve" text-anchor="middle" x="203.55" y="-130.84" font-family="Helvetica,sans-Serif" font-size="9.00">outer sum</text>
</g>
<!-- out_single_init -->
<g id="node16" class="node">
<title>out_single_init</title>
<path fill="#c8e6c9" stroke="#333333" stroke-width="1.2" d="M319.65,-110.32C319.65,-110.32 211.62,-110.32 211.62,-110.32 205.62,-110.32 199.62,-104.32 199.62,-98.32 199.62,-98.32 199.62,-86.32 199.62,-86.32 199.62,-80.32 205.62,-74.32 211.62,-74.32 211.62,-74.32 319.65,-74.32 319.65,-74.32 325.65,-74.32 331.65,-80.32 331.65,-86.32 331.65,-86.32 331.65,-98.32 331.65,-98.32 331.65,-104.32 325.65,-110.32 319.65,-110.32"/>
<text xml:space="preserve" text-anchor="start" x="208.26" y="-93.82" font-family="Helvetica,sans-Serif" font-weight="bold" font-size="10.00">token_single_initial_repr</text>
<text xml:space="preserve" text-anchor="start" x="226.26" y="-83.82" font-family="Helvetica,sans-Serif" font-size="10.00">[b, n_tokens, 384]</text>
</g>
<!-- proj_trunk&#45;&gt;out_single_init -->
<g id="edge15" class="edge">
<title>proj_trunk&#45;&gt;out_single_init</title>
<path fill="none" stroke="#555555" d="M262.51,-156.8C263.01,-146.71 263.64,-133.78 264.21,-122.24"/>
<polygon fill="#555555" stroke="#555555" points="267.7,-122.55 264.7,-112.39 260.71,-122.2 267.7,-122.55"/>
</g>
<!-- out_single_struct -->
<g id="node17" class="node">
<title>out_single_struct</title>
<path fill="#c8e6c9" stroke="#333333" stroke-width="1.2" d="M510.78,-110.32C510.78,-110.32 382.5,-110.32 382.5,-110.32 376.5,-110.32 370.5,-104.32 370.5,-98.32 370.5,-98.32 370.5,-86.32 370.5,-86.32 370.5,-80.32 376.5,-74.32 382.5,-74.32 382.5,-74.32 510.78,-74.32 510.78,-74.32 516.78,-74.32 522.78,-80.32 522.78,-86.32 522.78,-86.32 522.78,-98.32 522.78,-98.32 522.78,-104.32 516.78,-110.32 510.78,-110.32"/>
<text xml:space="preserve" text-anchor="start" x="379.14" y="-93.82" font-family="Helvetica,sans-Serif" font-weight="bold" font-size="10.00">token_single_structure_input</text>
<text xml:space="preserve" text-anchor="start" x="407.26" y="-83.82" font-family="Helvetica,sans-Serif" font-size="10.00">[b, n_tokens, 384]</text>
</g>
<!-- proj_struct&#45;&gt;out_single_struct -->
<g id="edge16" class="edge">
<title>proj_struct&#45;&gt;out_single_struct</title>
<path fill="none" stroke="#555555" d="M446.64,-156.8C446.64,-146.71 446.64,-133.78 446.64,-122.24"/>
<polygon fill="#555555" stroke="#555555" points="450.14,-122.39 446.64,-112.39 443.14,-122.39 450.14,-122.39"/>
</g>
<!-- out_pair_init -->
<g id="node18" class="node">
<title>out_pair_init</title>
<path fill="#c8e6c9" stroke="#333333" stroke-width="1.2" d="M142.53,-36C142.53,-36 24.75,-36 24.75,-36 18.75,-36 12.75,-30 12.75,-24 12.75,-24 12.75,-12 12.75,-12 12.75,-6 18.75,0 24.75,0 24.75,0 142.53,0 142.53,0 148.53,0 154.53,-6 154.53,-12 154.53,-12 154.53,-24 154.53,-24 154.53,-30 148.53,-36 142.53,-36"/>
<text xml:space="preserve" text-anchor="start" x="31.51" y="-19.5" font-family="Helvetica,sans-Serif" font-weight="bold" font-size="10.00">token_pair_initial_repr</text>
<text xml:space="preserve" text-anchor="start" x="21.39" y="-9.5" font-family="Helvetica,sans-Serif" font-size="10.00">[b, n_tokens, n_tokens, 256]</text>
</g>
<!-- pair_proj&#45;&gt;out_pair_init -->
<g id="edge19" class="edge">
<title>pair_proj&#45;&gt;out_pair_init</title>
<path fill="none" stroke="#555555" d="M83.64,-72.7C83.64,-65.07 83.64,-56.08 83.64,-47.65"/>
<polygon fill="#555555" stroke="#555555" points="87.14,-47.83 83.64,-37.83 80.14,-47.83 87.14,-47.83"/>
</g>
</g>
</svg>
