<?xml version="1.0" encoding="UTF-8" standalone="no"?>
<!DOCTYPE svg PUBLIC "-//W3C//DTD SVG 1.1//EN"
 "http://www.w3.org/Graphics/SVG/1.1/DTD/svg11.dtd">
<!-- Generated by graphviz version 14.1.4 (20260321.0153)
 -->
<!-- Title: TrunkOverview Pages: 1 -->
<svg width="804pt" height="534pt"
 viewBox="0.00 0.00 804.00 534.00" xmlns="http://www.w3.org/2000/svg" xmlns:xlink="http://www.w3.org/1999/xlink">
<g id="graph0" class="graph" transform="scale(1 1) rotate(0) translate(21.6 512.16)">
<title>TrunkOverview</title>
<text xml:space="preserve" text-anchor="start" x="337.08" y="-475.21" font-family="Helvetica,sans-Serif" font-weight="bold" font-size="13.00">Trunk Module</text>
<text xml:space="preserve" text-anchor="start" x="303.71" y="-466.01" font-family="Helvetica,sans-Serif" font-size="9.00">trunk.pt &#160;(~170M params, ×3 recycles)</text>
<g id="clust1" class="cluster">
<title>cluster_recycle</title>
<polygon fill="none" stroke="#aaaaaa" stroke-dasharray="5,2" points="358.41,-325.81 358.41,-395.56 752.41,-395.56 752.41,-325.81 358.41,-325.81"/>
<text xml:space="preserve" text-anchor="start" x="458.66" y="-384.01" font-family="Helvetica,sans-Serif" font-weight="bold" font-size="9.00">Recycle Projections (added after iteration 1+)</text>
</g>
<!-- single_init -->
<g id="node1" class="node">
<title>single_init</title>
<path fill="#e3f2fd" stroke="#333333" stroke-width="1.2" d="M190.43,-460.56C190.43,-460.56 82.4,-460.56 82.4,-460.56 76.4,-460.56 70.4,-454.56 70.4,-448.56 70.4,-448.56 70.4,-436.56 70.4,-436.56 70.4,-430.56 76.4,-424.56 82.4,-424.56 82.4,-424.56 190.43,-424.56 190.43,-424.56 196.43,-424.56 202.43,-430.56 202.43,-436.56 202.43,-436.56 202.43,-448.56 202.43,-448.56 202.43,-454.56 196.43,-460.56 190.43,-460.56"/>
<text xml:space="preserve" text-anchor="start" x="79.04" y="-444.06" font-family="Helvetica,sans-Serif" font-weight="bold" font-size="10.00">token_single_initial_repr</text>
<text xml:space="preserve" text-anchor="start" x="114.29" y="-434.06" font-family="Helvetica,sans-Serif" font-size="10.00">[b, n, 384]</text>
</g>
<!-- recycle_single -->
<g id="node5" class="node">
<title>recycle_single</title>
<path fill="#fff9c4" stroke="#333333" stroke-width="1.2" d="M528.8,-369.81C528.8,-369.81 378.02,-369.81 378.02,-369.81 372.02,-369.81 366.02,-363.81 366.02,-357.81 366.02,-357.81 366.02,-345.81 366.02,-345.81 366.02,-339.81 372.02,-333.81 378.02,-333.81 378.02,-333.81 528.8,-333.81 528.8,-333.81 534.8,-333.81 540.8,-339.81 540.8,-345.81 540.8,-345.81 540.8,-357.81 540.8,-357.81 540.8,-363.81 534.8,-369.81 528.8,-369.81"/>
<text xml:space="preserve" text-anchor="start" x="392.66" y="-353.31" font-family="Helvetica,sans-Serif" font-weight="bold" font-size="10.00">token_single_recycle_proj</text>
<text xml:space="preserve" text-anchor="start" x="374.66" y="-343.31" font-family="Helvetica,sans-Serif" font-size="10.00">LN(384) → Linear(384, 384, no bias)</text>
</g>
<!-- single_init&#45;&gt;recycle_single -->
<g id="edge1" class="edge">
<title>single_init&#45;&gt;recycle_single</title>
<path fill="none" stroke="#555555" stroke-dasharray="5,2" d="M203.01,-426.34C238.6,-417.89 283.08,-406.83 322.41,-395.56 345.23,-389.03 370.05,-381.14 391.88,-373.92"/>
<polygon fill="#555555" stroke="#555555" points="392.84,-377.29 401.23,-370.81 390.63,-370.65 392.84,-377.29"/>
</g>
<!-- template_embed -->
<g id="node7" class="node">
<title>template_embed</title>
<path fill="#e8f5e9" stroke="#333333" stroke-width="1.2" d="M296.18,-369.81C296.18,-369.81 198.65,-369.81 198.65,-369.81 192.65,-369.81 186.65,-363.81 186.65,-357.81 186.65,-357.81 186.65,-345.81 186.65,-345.81 186.65,-339.81 192.65,-333.81 198.65,-333.81 198.65,-333.81 296.18,-333.81 296.18,-333.81 302.18,-333.81 308.18,-339.81 308.18,-345.81 308.18,-345.81 308.18,-357.81 308.18,-357.81 308.18,-363.81 302.18,-369.81 296.18,-369.81"/>
<text xml:space="preserve" text-anchor="start" x="200.54" y="-356.31" font-family="Helvetica,sans-Serif" font-weight="bold" font-size="10.00">Template Embedder</text>
<text xml:space="preserve" text-anchor="start" x="195.29" y="-348.21" font-family="Helvetica,sans-Serif" font-size="8.00">2 Pairformer blocks at dim 64</text>
<text xml:space="preserve" text-anchor="start" x="197.91" y="-340.21" font-family="Helvetica,sans-Serif" font-size="8.00">→ projected to pair dim 256</text>
</g>
<!-- single_init&#45;&gt;template_embed -->
<g id="edge5" class="edge">
<title>single_init&#45;&gt;template_embed</title>
<path fill="none" stroke="#555555" d="M158.34,-424.03C174.99,-410.72 198.09,-392.25 216.59,-377.45"/>
<polygon fill="#555555" stroke="#555555" points="218.72,-380.24 224.34,-371.26 214.35,-374.77 218.72,-380.24"/>
</g>
<!-- msa_module -->
<g id="node8" class="node">
<title>msa_module</title>
<path fill="#fce4ec" stroke="#333333" stroke-width="1.2" d="M225.18,-284.06C225.18,-284.06 61.65,-284.06 61.65,-284.06 55.65,-284.06 49.65,-278.06 49.65,-272.06 49.65,-272.06 49.65,-253.42 49.65,-253.42 49.65,-247.42 55.65,-241.42 61.65,-241.42 61.65,-241.42 225.18,-241.42 225.18,-241.42 231.18,-241.42 237.18,-247.42 237.18,-253.42 237.18,-253.42 237.18,-272.06 237.18,-272.06 237.18,-278.06 231.18,-284.06 225.18,-284.06"/>
<text xml:space="preserve" text-anchor="start" x="114.16" y="-271.24" font-family="Helvetica,sans-Serif" font-weight="bold" font-size="10.00">MSA Module</text>
<text xml:space="preserve" text-anchor="start" x="76.66" y="-263.14" font-family="Helvetica,sans-Serif" font-size="8.00">4 iterations (asymmetric block counts)</text>
<text xml:space="preserve" text-anchor="start" x="58.29" y="-255.14" font-family="Helvetica,sans-Serif" font-size="8.00">OPM(×4), PairWeightedAvg(×3), MSATrans(×3)</text>
<text xml:space="preserve" text-anchor="start" x="77.79" y="-247.14" font-family="Helvetica,sans-Serif" font-size="8.00">PairTrans(×4), TriMul(×4), TriAttn(×4)</text>
</g>
<!-- single_init&#45;&gt;msa_module -->
<g id="edge9" class="edge">
<title>single_init&#45;&gt;msa_module</title>
<path fill="none" stroke="#555555" d="M69.91,-432.27C48.1,-425.71 26.1,-414.54 12.91,-395.56 -4.77,-370.1 -3.65,-352.02 12.91,-325.81 22.73,-310.27 37.62,-298.54 53.88,-289.71"/>
<polygon fill="#555555" stroke="#555555" points="55.41,-292.86 62.79,-285.26 52.28,-286.6 55.41,-292.86"/>
<text xml:space="preserve" text-anchor="middle" x="34.66" y="-348.14" font-family="Helvetica,sans-Serif" font-size="9.00">single repr</text>
</g>
<!-- pair_init -->
<g id="node2" class="node">
<title>pair_init</title>
<path fill="#e3f2fd" stroke="#333333" stroke-width="1.2" d="M605.18,-460.56C605.18,-460.56 507.65,-460.56 507.65,-460.56 501.65,-460.56 495.65,-454.56 495.65,-448.56 495.65,-448.56 495.65,-436.56 495.65,-436.56 495.65,-430.56 501.65,-424.56 507.65,-424.56 507.65,-424.56 605.18,-424.56 605.18,-424.56 611.18,-424.56 617.18,-430.56 617.18,-436.56 617.18,-436.56 617.18,-448.56 617.18,-448.56 617.18,-454.56 611.18,-460.56 605.18,-460.56"/>
<text xml:space="preserve" text-anchor="start" x="504.29" y="-444.06" font-family="Helvetica,sans-Serif" font-weight="bold" font-size="10.00">token_pair_initial_repr</text>
<text xml:space="preserve" text-anchor="start" x="528.66" y="-434.06" font-family="Helvetica,sans-Serif" font-size="10.00">[b, n, n, 256]</text>
</g>
<!-- recycle_pair -->
<g id="node6" class="node">
<title>recycle_pair</title>
<path fill="#fff9c4" stroke="#333333" stroke-width="1.2" d="M732.8,-369.81C732.8,-369.81 582.02,-369.81 582.02,-369.81 576.02,-369.81 570.02,-363.81 570.02,-357.81 570.02,-357.81 570.02,-345.81 570.02,-345.81 570.02,-339.81 576.02,-333.81 582.02,-333.81 582.02,-333.81 732.8,-333.81 732.8,-333.81 738.8,-333.81 744.8,-339.81 744.8,-345.81 744.8,-345.81 744.8,-357.81 744.8,-357.81 744.8,-363.81 738.8,-369.81 732.8,-369.81"/>
<text xml:space="preserve" text-anchor="start" x="601.91" y="-353.31" font-family="Helvetica,sans-Serif" font-weight="bold" font-size="10.00">token_pair_recycle_proj</text>
<text xml:space="preserve" text-anchor="start" x="578.66" y="-343.31" font-family="Helvetica,sans-Serif" font-size="10.00">LN(256) → Linear(256, 256, no bias)</text>
</g>
<!-- pair_init&#45;&gt;recycle_pair -->
<g id="edge2" class="edge">
<title>pair_init&#45;&gt;recycle_pair</title>
<path fill="none" stroke="#555555" stroke-dasharray="5,2" d="M576.37,-424.03C591.44,-410.78 612.34,-392.42 629.14,-377.66"/>
<polygon fill="#555555" stroke="#555555" points="631.16,-380.54 636.36,-371.31 626.54,-375.28 631.16,-380.54"/>
</g>
<!-- pair_init&#45;&gt;template_embed -->
<g id="edge6" class="edge">
<title>pair_init&#45;&gt;template_embed</title>
<path fill="none" stroke="#555555" d="M495.15,-430.64C454.03,-422.62 398.9,-410.53 351.41,-395.56 332.91,-389.73 313.1,-381.99 295.79,-374.69"/>
<polygon fill="#555555" stroke="#555555" points="297.33,-371.54 286.75,-370.82 294.57,-377.98 297.33,-371.54"/>
</g>
<!-- msa_feats -->
<g id="node3" class="node">
<title>msa_feats</title>
<path fill="#e3f2fd" stroke="#333333" stroke-width="1.2" d="M145.55,-369.81C145.55,-369.81 83.27,-369.81 83.27,-369.81 77.27,-369.81 71.27,-363.81 71.27,-357.81 71.27,-357.81 71.27,-345.81 71.27,-345.81 71.27,-339.81 77.27,-333.81 83.27,-333.81 83.27,-333.81 145.55,-333.81 145.55,-333.81 151.55,-333.81 157.55,-339.81 157.55,-345.81 157.55,-345.81 157.55,-357.81 157.55,-357.81 157.55,-363.81 151.55,-369.81 145.55,-369.81"/>
<text xml:space="preserve" text-anchor="start" x="84.04" y="-353.31" font-family="Helvetica,sans-Serif" font-weight="bold" font-size="10.00">MSA features</text>
<text xml:space="preserve" text-anchor="start" x="79.91" y="-343.31" font-family="Helvetica,sans-Serif" font-size="10.00">[b, depth, n, 64]</text>
</g>
<!-- msa_feats&#45;&gt;msa_module -->
<g id="edge10" class="edge">
<title>msa_feats&#45;&gt;msa_module</title>
<path fill="none" stroke="#555555" d="M120.14,-333.61C123.77,-322.73 128.56,-308.32 132.86,-295.42"/>
<polygon fill="#555555" stroke="#555555" points="136.15,-296.63 135.99,-286.03 129.51,-294.41 136.15,-296.63"/>
</g>
<!-- template_feats -->
<g id="node4" class="node">
<title>template_feats</title>
<path fill="#e3f2fd" stroke="#333333" stroke-width="1.2" d="M319.3,-460.56C319.3,-460.56 243.52,-460.56 243.52,-460.56 237.52,-460.56 231.52,-454.56 231.52,-448.56 231.52,-448.56 231.52,-436.56 231.52,-436.56 231.52,-430.56 237.52,-424.56 243.52,-424.56 243.52,-424.56 319.3,-424.56 319.3,-424.56 325.3,-424.56 331.3,-430.56 331.3,-436.56 331.3,-436.56 331.3,-448.56 331.3,-448.56 331.3,-454.56 325.3,-460.56 319.3,-460.56"/>
<text xml:space="preserve" text-anchor="start" x="240.16" y="-444.06" font-family="Helvetica,sans-Serif" font-weight="bold" font-size="10.00">Template features</text>
<text xml:space="preserve" text-anchor="start" x="250.66" y="-434.06" font-family="Helvetica,sans-Serif" font-size="10.00">[b, 4, n, n, 64]</text>
</g>
<!-- template_feats&#45;&gt;template_embed -->
<g id="edge7" class="edge">
<title>template_feats&#45;&gt;template_embed</title>
<path fill="none" stroke="#555555" d="M274.69,-424.03C269.99,-411.75 263.61,-395.09 258.19,-380.96"/>
<polygon fill="#555555" stroke="#555555" points="261.5,-379.81 254.66,-371.73 254.97,-382.32 261.5,-379.81"/>
</g>
<!-- recycle_single&#45;&gt;template_embed -->
<g id="edge3" class="edge">
<title>recycle_single&#45;&gt;template_embed</title>
<path fill="none" stroke="#555555" stroke-dasharray="5,2" d="M365.43,-351.81C350.18,-351.81 334.93,-351.81 319.67,-351.81"/>
<polygon fill="#555555" stroke="#555555" points="320.08,-348.31 310.08,-351.81 320.08,-355.31 320.08,-348.31"/>
</g>
<!-- recycle_pair&#45;&gt;template_embed -->
<g id="edge4" class="edge">
<title>recycle_pair&#45;&gt;template_embed</title>
<path fill="none" stroke="#555555" stroke-dasharray="5,2" d="M629.63,-370.35C606.87,-384.35 573.26,-402.43 540.91,-410.06 465.21,-427.93 441.67,-427.68 365.91,-410.06 337.45,-403.45 307.95,-388.98 285.5,-376.11"/>
<polygon fill="#555555" stroke="#555555" points="287.41,-373.18 277.02,-371.12 283.86,-379.21 287.41,-373.18"/>
</g>
<!-- template_embed&#45;&gt;msa_module -->
<g id="edge8" class="edge">
<title>template_embed&#45;&gt;msa_module</title>
<path fill="none" stroke="#555555" d="M226.86,-333.61C212.68,-321.74 193.49,-305.67 177.09,-291.94"/>
<polygon fill="#555555" stroke="#555555" points="179.39,-289.3 169.48,-285.57 174.9,-294.67 179.39,-289.3"/>
<text xml:space="preserve" text-anchor="middle" x="218.89" y="-305.26" font-family="Helvetica,sans-Serif" font-size="9.00">pair repr</text>
</g>
<!-- pairformer -->
<g id="node9" class="node">
<title>pairformer</title>
<path fill="#e8eaf6" stroke="#333333" stroke-width="1.2" d="M319.93,-191.67C319.93,-191.67 142.9,-191.67 142.9,-191.67 136.9,-191.67 130.9,-185.67 130.9,-179.67 130.9,-179.67 130.9,-167.67 130.9,-167.67 130.9,-161.67 136.9,-155.67 142.9,-155.67 142.9,-155.67 319.93,-155.67 319.93,-155.67 325.93,-155.67 331.93,-161.67 331.93,-167.67 331.93,-167.67 331.93,-179.67 331.93,-179.67 331.93,-185.67 325.93,-191.67 319.93,-191.67"/>
<text xml:space="preserve" text-anchor="start" x="165.79" y="-178.17" font-family="Helvetica,sans-Serif" font-weight="bold" font-size="10.00">Pairformer Stack (48 blocks)</text>
<text xml:space="preserve" text-anchor="start" x="151.91" y="-170.07" font-family="Helvetica,sans-Serif" font-size="8.00">Per block: PairTransition → AttentionPairBias</text>
<text xml:space="preserve" text-anchor="start" x="139.54" y="-162.07" font-family="Helvetica,sans-Serif" font-size="8.00">→ SingleTransition → TriangularMult → TriangleAttn</text>
</g>
<!-- msa_module&#45;&gt;pairformer -->
<g id="edge11" class="edge">
<title>msa_module&#45;&gt;pairformer</title>
<path fill="none" stroke="#555555" d="M164.27,-241.11C176.72,-228.78 192.64,-213.03 205.86,-199.96"/>
<polygon fill="#555555" stroke="#555555" points="207.95,-202.81 212.6,-193.29 203.03,-197.83 207.95,-202.81"/>
<text xml:space="preserve" text-anchor="middle" x="217.81" y="-212.87" font-family="Helvetica,sans-Serif" font-size="9.00">single + pair</text>
</g>
<!-- single_out -->
<g id="node10" class="node">
<title>single_out</title>
<path fill="#c8e6c9" stroke="#333333" stroke-width="1.2" d="M272.3,-114.67C272.3,-114.67 190.52,-114.67 190.52,-114.67 184.52,-114.67 178.52,-108.67 178.52,-102.67 178.52,-102.67 178.52,-90.67 178.52,-90.67 178.52,-84.67 184.52,-78.67 190.52,-78.67 190.52,-78.67 272.3,-78.67 272.3,-78.67 278.3,-78.67 284.3,-84.67 284.3,-90.67 284.3,-90.67 284.3,-102.67 284.3,-102.67 284.3,-108.67 278.3,-114.67 272.3,-114.67"/>
<text xml:space="preserve" text-anchor="start" x="187.16" y="-98.17" font-family="Helvetica,sans-Serif" font-weight="bold" font-size="10.00">token_single_trunk</text>
<text xml:space="preserve" text-anchor="start" x="209.29" y="-88.17" font-family="Helvetica,sans-Serif" font-size="10.00">[b, n, 384]</text>
</g>
<!-- pairformer&#45;&gt;single_out -->
<g id="edge12" class="edge">
<title>pairformer&#45;&gt;single_out</title>
<path fill="none" stroke="#555555" d="M231.41,-155.28C231.41,-146.73 231.41,-136.19 231.41,-126.48"/>
<polygon fill="#555555" stroke="#555555" points="234.91,-126.75 231.41,-116.75 227.91,-126.75 234.91,-126.75"/>
</g>
<!-- pair_out -->
<g id="node11" class="node">
<title>pair_out</title>
<path fill="#c8e6c9" stroke="#333333" stroke-width="1.2" d="M397.05,-114.67C397.05,-114.67 325.77,-114.67 325.77,-114.67 319.77,-114.67 313.77,-108.67 313.77,-102.67 313.77,-102.67 313.77,-90.67 313.77,-90.67 313.77,-84.67 319.77,-78.67 325.77,-78.67 325.77,-78.67 397.05,-78.67 397.05,-78.67 403.05,-78.67 409.05,-84.67 409.05,-90.67 409.05,-90.67 409.05,-102.67 409.05,-102.67 409.05,-108.67 403.05,-114.67 397.05,-114.67"/>
<text xml:space="preserve" text-anchor="start" x="322.41" y="-98.17" font-family="Helvetica,sans-Serif" font-weight="bold" font-size="10.00">token_pair_trunk</text>
<text xml:space="preserve" text-anchor="start" x="333.66" y="-88.17" font-family="Helvetica,sans-Serif" font-size="10.00">[b, n, n, 256]</text>
</g>
<!-- pairformer&#45;&gt;pair_out -->
<g id="edge13" class="edge">
<title>pairformer&#45;&gt;pair_out</title>
<path fill="none" stroke="#555555" d="M261.89,-155.09C279.58,-144.89 302.06,-131.91 321.19,-120.88"/>
<polygon fill="#555555" stroke="#555555" points="322.9,-123.93 329.81,-115.91 319.4,-117.87 322.9,-123.93"/>
</g>
<!-- recycle_edge -->
<g id="node12" class="node">
<title>recycle_edge</title>
<ellipse fill="#fff9c4" stroke="#333333" stroke-width="1.2" cx="430.41" cy="-18.84" rx="42.98" ry="18.84"/>
<text xml:space="preserve" text-anchor="start" x="412.04" y="-19.34" font-family="Helvetica,sans-Serif" font-weight="bold" font-size="10.00">Recycle</text>
<text xml:space="preserve" text-anchor="start" x="408.66" y="-11.24" font-family="Helvetica,sans-Serif" font-size="8.00">×3 iterations</text>
</g>
<!-- single_out&#45;&gt;recycle_edge -->
<g id="edge14" class="edge">
<title>single_out&#45;&gt;recycle_edge</title>
<path fill="none" stroke="#555555" stroke-dasharray="5,2" d="M277.57,-78.09C310.89,-65.39 355.54,-48.37 387.97,-36.01"/>
<polygon fill="#555555" stroke="#555555" points="388.95,-39.38 397.05,-32.55 386.46,-32.84 388.95,-39.38"/>
</g>
<!-- pair_out&#45;&gt;recycle_edge -->
<g id="edge15" class="edge">
<title>pair_out&#45;&gt;recycle_edge</title>
<path fill="none" stroke="#555555" stroke-dasharray="5,2" d="M377.41,-78.09C386.34,-68.28 397.6,-55.9 407.45,-45.08"/>
<polygon fill="#555555" stroke="#555555" points="409.81,-47.68 413.95,-37.93 404.63,-42.97 409.81,-47.68"/>
</g>
<!-- recycle_edge&#45;&gt;recycle_single -->
<g id="edge16" class="edge">
<title>recycle_edge&#45;&gt;recycle_single</title>
<path fill="none" stroke="#555555" stroke-dasharray="5,2" d="M439.11,-37.76C445.62,-52.85 453.41,-75.17 453.41,-95.67 453.41,-263.74 453.41,-263.74 453.41,-263.74 453.41,-283.21 453.41,-305.12 453.41,-322.09"/>
<polygon fill="#555555" stroke="#555555" points="449.91,-321.96 453.41,-331.96 456.91,-321.96 449.91,-321.96"/>
<text xml:space="preserve" text-anchor="middle" x="479.66" y="-170" font-family="Helvetica,sans-Serif" font-size="9.00">next iteration</text>
</g>
<!-- recycle_edge&#45;&gt;recycle_pair -->
<g id="edge17" class="edge">
<title>recycle_edge&#45;&gt;recycle_pair</title>
<path fill="none" stroke="#555555" stroke-dasharray="5,2" d="M473.62,-20.72C524.86,-24.34 603.41,-39.11 603.41,-95.67 603.41,-263.74 603.41,-263.74 603.41,-263.74 603.41,-286.86 617.32,-308.94 631.02,-325.08"/>
<polygon fill="#555555" stroke="#555555" points="628.22,-327.2 637.51,-332.28 633.42,-322.51 628.22,-327.2"/>
</g>
</g>
</svg>
