<?xml version="1.0" encoding="UTF-8" standalone="no"?>
<!DOCTYPE svg PUBLIC "-//W3C//DTD SVG 1.1//EN"
 "http://www.w3.org/Graphics/SVG/1.1/DTD/svg11.dtd">
<!-- Generated by graphviz version 14.1.4 (20260321.0153)
 -->
<!-- Title: TemplateEmbedder Pages: 1 -->
<svg width="405pt" height="679pt"
 viewBox="0.00 0.00 405.00 679.00" xmlns="http://www.w3.org/2000/svg" xmlns:xlink="http://www.w3.org/1999/xlink">
<g id="graph0" class="graph" transform="scale(1 1) rotate(0) translate(21.6 657.07)">
<title>TemplateEmbedder</title>
<text xml:space="preserve" text-anchor="start" x="117.88" y="-620.12" font-family="Helvetica,sans-Serif" font-weight="bold" font-size="13.00">Template Embedder</text>
<text xml:space="preserve" text-anchor="start" x="68.38" y="-610.92" font-family="Helvetica,sans-Serif" font-size="9.00">Within trunk.pt — processes up to 4 structural templates</text>
<g id="clust1" class="cluster">
<title>cluster_pairformer</title>
<polygon fill="none" stroke="#999999" stroke-dasharray="5,2" points="8,-295.3 8,-541.83 200,-541.83 200,-295.3 8,-295.3"/>
<text xml:space="preserve" text-anchor="start" x="38.38" y="-529.33" font-family="Helvetica,sans-Serif" font-weight="bold" font-size="10.00">2× PairformerBlock (dim 64)</text>
</g>
<!-- template_feats -->
<g id="node1" class="node">
<title>template_feats</title>
<path fill="#e3f2fd" stroke="#333333" stroke-width="1.2" d="M190.26,-605.47C190.26,-605.47 17.74,-605.47 17.74,-605.47 11.74,-605.47 5.73,-599.47 5.73,-593.47 5.73,-593.47 5.73,-580.83 5.73,-580.83 5.73,-574.83 11.73,-568.83 17.73,-568.83 17.73,-568.83 190.26,-568.83 190.26,-568.83 196.26,-568.83 202.26,-574.83 202.26,-580.83 202.26,-580.83 202.26,-593.47 202.26,-593.47 202.26,-599.47 196.26,-605.47 190.26,-605.47"/>
<text xml:space="preserve" text-anchor="start" x="61.25" y="-592.65" font-family="Helvetica,sans-Serif" font-weight="bold" font-size="10.00">Template Features</text>
<text xml:space="preserve" text-anchor="start" x="73.25" y="-582.65" font-family="Helvetica,sans-Serif" font-size="10.00">[b, 4, n, n, 64]</text>
<text xml:space="preserve" text-anchor="start" x="14.38" y="-574.55" font-family="Helvetica,sans-Serif" font-size="8.00">Mask(2), UnitVec(3), ResType(32), Distogram(39)</text>
</g>
<!-- transition -->
<g id="node4" class="node">
<title>transition</title>
<path fill="#e8eaf6" stroke="#333333" stroke-width="1.2" d="M172.27,-514.58C172.27,-514.58 35.73,-514.58 35.73,-514.58 29.73,-514.58 23.73,-508.58 23.73,-502.58 23.73,-502.58 23.73,-490.58 23.73,-490.58 23.73,-484.58 29.73,-478.58 35.73,-478.58 35.73,-478.58 172.27,-478.58 172.27,-478.58 178.26,-478.58 184.26,-484.58 184.26,-490.58 184.26,-490.58 184.26,-502.58 184.26,-502.58 184.26,-508.58 178.26,-514.58 172.27,-514.58"/>
<text xml:space="preserve" text-anchor="start" x="70.25" y="-497.08" font-family="Helvetica,sans-Serif" font-weight="bold" font-size="10.00">transition_pair</text>
<text xml:space="preserve" text-anchor="start" x="32.38" y="-488.98" font-family="Helvetica,sans-Serif" font-size="8.00">LN(64) → SwiGLU(64→256→128→64)</text>
</g>
<!-- template_feats&#45;&gt;transition -->
<g id="edge1" class="edge">
<title>template_feats&#45;&gt;transition</title>
<path fill="none" stroke="#555555" d="M104,-568.65C104,-556.64 104,-540.42 104,-526.51"/>
<polygon fill="#555555" stroke="#555555" points="107.5,-526.56 104,-516.56 100.5,-526.56 107.5,-526.56"/>
</g>
<!-- pair_repr -->
<g id="node2" class="node">
<title>pair_repr</title>
<path fill="#e3f2fd" stroke="#333333" stroke-width="1.2" d="M319.76,-266.3C319.76,-266.3 234.23,-266.3 234.23,-266.3 228.23,-266.3 222.23,-260.3 222.23,-254.3 222.23,-254.3 222.23,-242.3 222.23,-242.3 222.23,-236.3 228.23,-230.3 234.23,-230.3 234.23,-230.3 319.76,-230.3 319.76,-230.3 325.76,-230.3 331.76,-236.3 331.76,-242.3 331.76,-242.3 331.76,-254.3 331.76,-254.3 331.76,-260.3 325.76,-266.3 319.76,-266.3"/>
<text xml:space="preserve" text-anchor="start" x="230.88" y="-249.8" font-family="Helvetica,sans-Serif" font-weight="bold" font-size="10.00">Pair Representation</text>
<text xml:space="preserve" text-anchor="start" x="249.25" y="-239.8" font-family="Helvetica,sans-Serif" font-size="10.00">[b, n, n, 256]</text>
</g>
<!-- proj_in -->
<g id="node3" class="node">
<title>proj_in</title>
<path fill="#fff3e0" stroke="#333333" stroke-width="1.2" d="M349.76,-193.3C349.76,-193.3 204.24,-193.3 204.24,-193.3 198.24,-193.3 192.24,-187.3 192.24,-181.3 192.24,-181.3 192.24,-169.3 192.24,-169.3 192.24,-163.3 198.24,-157.3 204.24,-157.3 204.24,-157.3 349.76,-157.3 349.76,-157.3 355.76,-157.3 361.76,-163.3 361.76,-169.3 361.76,-169.3 361.76,-181.3 361.76,-181.3 361.76,-187.3 355.76,-193.3 349.76,-193.3"/>
<text xml:space="preserve" text-anchor="start" x="260.5" y="-176.8" font-family="Helvetica,sans-Serif" font-weight="bold" font-size="10.00">proj_in</text>
<text xml:space="preserve" text-anchor="start" x="200.88" y="-166.8" font-family="Helvetica,sans-Serif" font-size="10.00">LN(256) → Linear(256, 64, no bias)</text>
</g>
<!-- pair_repr&#45;&gt;proj_in -->
<g id="edge6" class="edge">
<title>pair_repr&#45;&gt;proj_in</title>
<path fill="none" stroke="#555555" d="M277,-229.75C277,-222.27 277,-213.35 277,-204.95"/>
<polygon fill="#555555" stroke="#555555" points="280.5,-205.16 277,-195.16 273.5,-205.16 280.5,-205.16"/>
</g>
<!-- add -->
<g id="node9" class="node">
<title>add</title>
<ellipse fill="#e8f5e9" stroke="#333333" stroke-width="1.2" cx="190" cy="-87.4" rx="14.4" ry="14.4"/>
<text xml:space="preserve" text-anchor="start" x="187" y="-84.78" font-family="Helvetica,sans-Serif" font-size="10.00">+</text>
</g>
<!-- proj_in&#45;&gt;add -->
<g id="edge7" class="edge">
<title>proj_in&#45;&gt;add</title>
<path fill="none" stroke="#555555" stroke-dasharray="5,2" d="M259.39,-156.92C244.45,-142.16 223.1,-121.08 208.04,-106.21"/>
<polygon fill="#555555" stroke="#555555" points="210.64,-103.86 201.07,-99.33 205.72,-108.84 210.64,-103.86"/>
<text xml:space="preserve" text-anchor="middle" x="287.42" y="-130.75" font-family="Helvetica,sans-Serif" font-size="9.00">projected pair</text>
<text xml:space="preserve" text-anchor="middle" x="287.42" y="-121" font-family="Helvetica,sans-Serif" font-size="9.00">broadcast to templates</text>
</g>
<!-- tri_mult -->
<g id="node5" class="node">
<title>tri_mult</title>
<path fill="#e8eaf6" stroke="#333333" stroke-width="1.2" d="M175.26,-441.58C175.26,-441.58 32.74,-441.58 32.74,-441.58 26.74,-441.58 20.73,-435.58 20.73,-429.58 20.73,-429.58 20.73,-402.94 20.73,-402.94 20.73,-396.94 26.73,-390.94 32.73,-390.94 32.73,-390.94 175.26,-390.94 175.26,-390.94 181.26,-390.94 187.26,-396.94 187.26,-402.94 187.26,-402.94 187.26,-429.58 187.26,-429.58 187.26,-435.58 181.26,-441.58 175.26,-441.58"/>
<text xml:space="preserve" text-anchor="start" x="51.5" y="-428.76" font-family="Helvetica,sans-Serif" font-weight="bold" font-size="10.00">triangle_multiplication</text>
<text xml:space="preserve" text-anchor="start" x="39.12" y="-420.66" font-family="Helvetica,sans-Serif" font-size="8.00">LN(64) → merged_linear_p(64,256)</text>
<text xml:space="preserve" text-anchor="start" x="29.38" y="-412.66" font-family="Helvetica,sans-Serif" font-size="8.00">merged_linear_g(64,320) → sigmoid gate</text>
<text xml:space="preserve" text-anchor="start" x="45.88" y="-404.66" font-family="Helvetica,sans-Serif" font-size="8.00">outgoing + incoming contractions</text>
<text xml:space="preserve" text-anchor="start" x="68" y="-396.66" font-family="Helvetica,sans-Serif" font-size="8.00">linear_z_out(64, 64)</text>
</g>
<!-- transition&#45;&gt;tri_mult -->
<g id="edge2" class="edge">
<title>transition&#45;&gt;tri_mult</title>
<path fill="none" stroke="#555555" d="M104,-478.2C104,-470.89 104,-462.09 104,-453.48"/>
<polygon fill="#555555" stroke="#555555" points="107.5,-453.53 104,-443.53 100.5,-453.53 107.5,-453.53"/>
</g>
<!-- tri_attn -->
<g id="node6" class="node">
<title>tri_attn</title>
<path fill="#e8eaf6" stroke="#333333" stroke-width="1.2" d="M179.76,-353.94C179.76,-353.94 28.24,-353.94 28.24,-353.94 22.24,-353.94 16.23,-347.94 16.23,-341.94 16.23,-341.94 16.23,-315.3 16.23,-315.3 16.23,-309.3 22.23,-303.3 28.23,-303.3 28.23,-303.3 179.76,-303.3 179.76,-303.3 185.76,-303.3 191.76,-309.3 191.76,-315.3 191.76,-315.3 191.76,-341.94 191.76,-341.94 191.76,-347.94 185.76,-353.94 179.76,-353.94"/>
<text xml:space="preserve" text-anchor="start" x="63.5" y="-341.12" font-family="Helvetica,sans-Serif" font-weight="bold" font-size="10.00">triangle_attention</text>
<text xml:space="preserve" text-anchor="start" x="38.38" y="-333.02" font-family="Helvetica,sans-Serif" font-size="8.00">pair2b: Linear(64, 8) → 8 heads bias</text>
<text xml:space="preserve" text-anchor="start" x="24.88" y="-325.02" font-family="Helvetica,sans-Serif" font-size="8.00">pair2qkvg1: Linear(64, 512) → starting node</text>
<text xml:space="preserve" text-anchor="start" x="26" y="-317.02" font-family="Helvetica,sans-Serif" font-size="8.00">pair2qkvg2: Linear(64, 512) → ending node</text>
<text xml:space="preserve" text-anchor="start" x="56.38" y="-309.02" font-family="Helvetica,sans-Serif" font-size="8.00">linear_out: Linear(256, 64)</text>
</g>
<!-- tri_mult&#45;&gt;tri_attn -->
<g id="edge3" class="edge">
<title>tri_mult&#45;&gt;tri_attn</title>
<path fill="none" stroke="#555555" d="M104,-390.49C104,-382.77 104,-374.09 104,-365.75"/>
<polygon fill="#555555" stroke="#555555" points="107.5,-365.85 104,-355.85 100.5,-365.85 107.5,-365.85"/>
</g>
<!-- template_ln -->
<g id="node7" class="node">
<title>template_ln</title>
<path fill="#fff3e0" stroke="#333333" stroke-width="1.2" d="M146.77,-266.3C146.77,-266.3 61.23,-266.3 61.23,-266.3 55.23,-266.3 49.23,-260.3 49.23,-254.3 49.23,-254.3 49.23,-242.3 49.23,-242.3 49.23,-236.3 55.23,-230.3 61.23,-230.3 61.23,-230.3 146.77,-230.3 146.77,-230.3 152.77,-230.3 158.77,-236.3 158.77,-242.3 158.77,-242.3 158.77,-254.3 158.77,-254.3 158.77,-260.3 152.77,-266.3 146.77,-266.3"/>
<text xml:space="preserve" text-anchor="start" x="57.88" y="-249.8" font-family="Helvetica,sans-Serif" font-weight="bold" font-size="10.00">template_layernorm</text>
<text xml:space="preserve" text-anchor="start" x="71.75" y="-239.8" font-family="Helvetica,sans-Serif" font-size="10.00">LayerNorm(64)</text>
</g>
<!-- tri_attn&#45;&gt;template_ln -->
<g id="edge4" class="edge">
<title>tri_attn&#45;&gt;template_ln</title>
<path fill="none" stroke="#555555" d="M104,-302.84C104,-294.89 104,-286.02 104,-277.83"/>
<polygon fill="#555555" stroke="#555555" points="107.5,-278 104,-268 100.5,-278 107.5,-278"/>
</g>
<!-- proj_out -->
<g id="node8" class="node">
<title>proj_out</title>
<path fill="#fff3e0" stroke="#333333" stroke-width="1.2" d="M151.64,-193.3C151.64,-193.3 56.36,-193.3 56.36,-193.3 50.36,-193.3 44.36,-187.3 44.36,-181.3 44.36,-181.3 44.36,-169.3 44.36,-169.3 44.36,-163.3 50.36,-157.3 56.36,-157.3 56.36,-157.3 151.64,-157.3 151.64,-157.3 157.64,-157.3 163.64,-163.3 163.64,-169.3 163.64,-169.3 163.64,-181.3 163.64,-181.3 163.64,-187.3 157.64,-193.3 151.64,-193.3"/>
<text xml:space="preserve" text-anchor="start" x="84.5" y="-176.8" font-family="Helvetica,sans-Serif" font-weight="bold" font-size="10.00">proj_out</text>
<text xml:space="preserve" text-anchor="start" x="53" y="-166.8" font-family="Helvetica,sans-Serif" font-size="10.00">Linear(64, 256, no bias)</text>
</g>
<!-- template_ln&#45;&gt;proj_out -->
<g id="edge5" class="edge">
<title>template_ln&#45;&gt;proj_out</title>
<path fill="none" stroke="#555555" d="M104,-229.75C104,-222.27 104,-213.35 104,-204.95"/>
<polygon fill="#555555" stroke="#555555" points="107.5,-205.16 104,-195.16 100.5,-205.16 107.5,-205.16"/>
</g>
<!-- proj_out&#45;&gt;add -->
<g id="edge8" class="edge">
<title>proj_out&#45;&gt;add</title>
<path fill="none" stroke="#555555" d="M121.4,-156.92C136.17,-142.16 157.28,-121.08 172.17,-106.21"/>
<polygon fill="#555555" stroke="#555555" points="174.45,-108.88 179.05,-99.33 169.5,-103.92 174.45,-108.88"/>
</g>
<!-- pair_out -->
<g id="node10" class="node">
<title>pair_out</title>
<path fill="#c8e6c9" stroke="#333333" stroke-width="1.2" d="M253.76,-36C253.76,-36 126.24,-36 126.24,-36 120.24,-36 114.23,-30 114.23,-24 114.23,-24 114.23,-12 114.23,-12 114.23,-6 120.23,0 126.23,0 126.23,0 253.76,0 253.76,0 259.76,0 265.76,-6 265.76,-12 265.76,-12 265.76,-24 265.76,-24 265.76,-30 259.76,-36 253.76,-36"/>
<text xml:space="preserve" text-anchor="start" x="122.88" y="-19.5" font-family="Helvetica,sans-Serif" font-weight="bold" font-size="10.00">Updated Pair Representation</text>
<text xml:space="preserve" text-anchor="start" x="162.25" y="-9.5" font-family="Helvetica,sans-Serif" font-size="10.00">[b, n, n, 256]</text>
</g>
<!-- add&#45;&gt;pair_out -->
<g id="edge9" class="edge">
<title>add&#45;&gt;pair_out</title>
<path fill="none" stroke="#555555" d="M190,-72.43C190,-65.36 190,-56.49 190,-48.02"/>
<polygon fill="#555555" stroke="#555555" points="193.5,-48.06 190,-38.06 186.5,-48.06 193.5,-48.06"/>
</g>
</g>
</svg>
