<?xml version="1.0" encoding="UTF-8" standalone="no"?>
<!DOCTYPE svg PUBLIC "-//W3C//DTD SVG 1.1//EN"
 "http://www.w3.org/Graphics/SVG/1.1/DTD/svg11.dtd">
<!-- Generated by graphviz version 14.1.4 (20260321.0153)
 -->
<!-- Title: MSAModule Pages: 1 -->
<svg width="422pt" height="681pt"
 viewBox="0.00 0.00 422.00 681.00" xmlns="http://www.w3.org/2000/svg" xmlns:xlink="http://www.w3.org/1999/xlink">
<g id="graph0" class="graph" transform="scale(1 1) rotate(0) translate(21.6 658.94)">
<title>MSAModule</title>
<text xml:space="preserve" text-anchor="start" x="150.5" y="-621.99" font-family="Helvetica,sans-Serif" font-weight="bold" font-size="13.00">MSA Module</text>
<text xml:space="preserve" text-anchor="start" x="102.5" y="-612.79" font-family="Helvetica,sans-Serif" font-size="9.00">4 iterations with asymmetric block structure</text>
<g id="clust1" class="cluster">
<title>cluster_iteration</title>
<polygon fill="none" stroke="#999999" stroke-dasharray="5,2" points="8,-71.42 8,-398.95 371,-398.95 371,-71.42 8,-71.42"/>
<text xml:space="preserve" text-anchor="start" x="162.88" y="-386.45" font-family="Helvetica,sans-Serif" font-weight="bold" font-size="10.00">For i in 0..3</text>
</g>
<g id="clust2" class="cluster">
<title>cluster_msa_ops</title>
<polygon fill="none" stroke="#cc0000" stroke-dasharray="1,5" points="16,-79.42 16,-224.81 170,-224.81 170,-79.42 16,-79.42"/>
<text xml:space="preserve" text-anchor="start" x="80.62" y="-213.26" font-family="Helvetica,sans-Serif" font-weight="bold" font-size="9.00">if i &lt; 3</text>
</g>
<!-- single_in -->
<g id="node1" class="node">
<title>single_in</title>
<path fill="#e3f2fd" stroke="#333333" stroke-width="1.2" d="M99.89,-607.34C99.89,-607.34 54.11,-607.34 54.11,-607.34 48.11,-607.34 42.11,-601.34 42.11,-595.34 42.11,-595.34 42.11,-583.34 42.11,-583.34 42.11,-577.34 48.11,-571.34 54.11,-571.34 54.11,-571.34 99.89,-571.34 99.89,-571.34 105.89,-571.34 111.89,-577.34 111.89,-583.34 111.89,-583.34 111.89,-595.34 111.89,-595.34 111.89,-601.34 105.89,-607.34 99.89,-607.34"/>
<text xml:space="preserve" text-anchor="start" x="50.75" y="-590.84" font-family="Helvetica,sans-Serif" font-weight="bold" font-size="10.00">single_repr</text>
<text xml:space="preserve" text-anchor="start" x="54.88" y="-580.84" font-family="Helvetica,sans-Serif" font-size="10.00">[b, n, 384]</text>
</g>
<!-- s2m -->
<g id="node4" class="node">
<title>s2m</title>
<path fill="#fff3e0" stroke="#333333" stroke-width="1.2" d="M125.02,-538.34C125.02,-538.34 28.98,-538.34 28.98,-538.34 22.98,-538.34 16.98,-532.34 16.98,-526.34 16.98,-526.34 16.98,-513.7 16.98,-513.7 16.98,-507.7 22.98,-501.7 28.98,-501.7 28.98,-501.7 125.02,-501.7 125.02,-501.7 131.02,-501.7 137.02,-507.7 137.02,-513.7 137.02,-513.7 137.02,-526.34 137.02,-526.34 137.02,-532.34 131.02,-538.34 125.02,-538.34"/>
<text xml:space="preserve" text-anchor="start" x="51.5" y="-525.52" font-family="Helvetica,sans-Serif" font-weight="bold" font-size="10.00">linear_s2m</text>
<text xml:space="preserve" text-anchor="start" x="26" y="-515.52" font-family="Helvetica,sans-Serif" font-size="10.00">Linear(384, 64, no bias)</text>
<text xml:space="preserve" text-anchor="start" x="25.62" y="-507.42" font-family="Helvetica,sans-Serif" font-size="8.00">single → MSA (once at start)</text>
</g>
<!-- single_in&#45;&gt;s2m -->
<g id="edge1" class="edge">
<title>single_in&#45;&gt;s2m</title>
<path fill="none" stroke="#555555" d="M77,-571.01C77,-564.54 77,-557.01 77,-549.79"/>
<polygon fill="#555555" stroke="#555555" points="80.5,-550.05 77,-540.05 73.5,-550.05 80.5,-550.05"/>
</g>
<!-- msa_in -->
<g id="node2" class="node">
<title>msa_in</title>
<path fill="#e3f2fd" stroke="#333333" stroke-width="1.2" d="M108.14,-459.95C108.14,-459.95 45.86,-459.95 45.86,-459.95 39.86,-459.95 33.86,-453.95 33.86,-447.95 33.86,-447.95 33.86,-435.95 33.86,-435.95 33.86,-429.95 39.86,-423.95 45.86,-423.95 45.86,-423.95 108.14,-423.95 108.14,-423.95 114.14,-423.95 120.14,-429.95 120.14,-435.95 120.14,-435.95 120.14,-447.95 120.14,-447.95 120.14,-453.95 114.14,-459.95 108.14,-459.95"/>
<text xml:space="preserve" text-anchor="start" x="46.62" y="-443.45" font-family="Helvetica,sans-Serif" font-weight="bold" font-size="10.00">MSA features</text>
<text xml:space="preserve" text-anchor="start" x="42.5" y="-433.45" font-family="Helvetica,sans-Serif" font-size="10.00">[b, depth, n, 64]</text>
</g>
<!-- opm -->
<g id="node5" class="node">
<title>opm</title>
<path fill="#e8eaf6" stroke="#333333" stroke-width="1.2" d="M197.14,-371.7C197.14,-371.7 98.86,-371.7 98.86,-371.7 92.86,-371.7 86.86,-365.7 86.86,-359.7 86.86,-359.7 86.86,-341.06 86.86,-341.06 86.86,-335.06 92.86,-329.06 98.86,-329.06 98.86,-329.06 197.14,-329.06 197.14,-329.06 203.14,-329.06 209.14,-335.06 209.14,-341.06 209.14,-341.06 209.14,-359.7 209.14,-359.7 209.14,-365.7 203.14,-371.7 197.14,-371.7"/>
<text xml:space="preserve" text-anchor="start" x="95.5" y="-358.88" font-family="Helvetica,sans-Serif" font-weight="bold" font-size="10.00">Outer Product Mean [i]</text>
<text xml:space="preserve" text-anchor="start" x="112.75" y="-350.78" font-family="Helvetica,sans-Serif" font-size="8.00">MSA → pair update</text>
<text xml:space="preserve" text-anchor="start" x="110.5" y="-342.78" font-family="Helvetica,sans-Serif" font-size="8.00">weight_ab: [2,8,8,64]</text>
<text xml:space="preserve" text-anchor="start" x="97.75" y="-334.78" font-family="Helvetica,sans-Serif" font-size="8.00">LN(512) → Linear(512,256)</text>
</g>
<!-- msa_in&#45;&gt;opm -->
<g id="edge3" class="edge">
<title>msa_in&#45;&gt;opm</title>
<path fill="none" stroke="#555555" d="M90.69,-423.68C100.28,-411.59 113.33,-395.13 124.55,-380.97"/>
<polygon fill="#555555" stroke="#555555" points="127.2,-383.26 130.67,-373.25 121.72,-378.91 127.2,-383.26"/>
</g>
<!-- pair_in -->
<g id="node3" class="node">
<title>pair_in</title>
<path fill="#e3f2fd" stroke="#333333" stroke-width="1.2" d="M206.39,-459.95C206.39,-459.95 157.61,-459.95 157.61,-459.95 151.61,-459.95 145.61,-453.95 145.61,-447.95 145.61,-447.95 145.61,-435.95 145.61,-435.95 145.61,-429.95 151.61,-423.95 157.61,-423.95 157.61,-423.95 206.39,-423.95 206.39,-423.95 212.39,-423.95 218.39,-429.95 218.39,-435.95 218.39,-435.95 218.39,-447.95 218.39,-447.95 218.39,-453.95 212.39,-459.95 206.39,-459.95"/>
<text xml:space="preserve" text-anchor="start" x="161" y="-443.45" font-family="Helvetica,sans-Serif" font-weight="bold" font-size="10.00">pair_repr</text>
<text xml:space="preserve" text-anchor="start" x="154.25" y="-433.45" font-family="Helvetica,sans-Serif" font-size="10.00">[b, n, n, 256]</text>
</g>
<!-- pair_in&#45;&gt;opm -->
<g id="edge4" class="edge">
<title>pair_in&#45;&gt;opm</title>
<path fill="none" stroke="#555555" stroke-dasharray="5,2" d="M175.44,-423.68C171.03,-412.05 165.08,-396.38 159.85,-382.59"/>
<polygon fill="#555555" stroke="#555555" points="163.21,-381.58 156.39,-373.48 156.66,-384.07 163.21,-381.58"/>
</g>
<!-- s2m&#45;&gt;msa_in -->
<g id="edge2" class="edge">
<title>s2m&#45;&gt;msa_in</title>
<path fill="none" stroke="#555555" stroke-dasharray="5,2" d="M77,-501.38C77,-492.64 77,-481.87 77,-471.96"/>
<polygon fill="#555555" stroke="#555555" points="80.5,-472.02 77,-462.02 73.5,-472.02 80.5,-472.02"/>
<text xml:space="preserve" text-anchor="middle" x="107.38" y="-477.15" font-family="Helvetica,sans-Serif" font-size="9.00">added to row 0</text>
</g>
<!-- pair_trans -->
<g id="node6" class="node">
<title>pair_trans</title>
<path fill="#e8eaf6" stroke="#333333" stroke-width="1.2" d="M212.89,-296.06C212.89,-296.06 83.11,-296.06 83.11,-296.06 77.11,-296.06 71.11,-290.06 71.11,-284.06 71.11,-284.06 71.11,-272.06 71.11,-272.06 71.11,-266.06 77.11,-260.06 83.11,-260.06 83.11,-260.06 212.89,-260.06 212.89,-260.06 218.89,-260.06 224.89,-266.06 224.89,-272.06 224.89,-272.06 224.89,-284.06 224.89,-284.06 224.89,-290.06 218.89,-296.06 212.89,-296.06"/>
<text xml:space="preserve" text-anchor="start" x="107.5" y="-278.56" font-family="Helvetica,sans-Serif" font-weight="bold" font-size="10.00">Pair Transition [i]</text>
<text xml:space="preserve" text-anchor="start" x="79.75" y="-270.46" font-family="Helvetica,sans-Serif" font-size="8.00">SwiGLU 4× (256→2048→1024→256)</text>
</g>
<!-- opm&#45;&gt;pair_trans -->
<g id="edge5" class="edge">
<title>opm&#45;&gt;pair_trans</title>
<path fill="none" stroke="#555555" d="M148,-328.67C148,-322.21 148,-314.96 148,-308.04"/>
<polygon fill="#555555" stroke="#555555" points="151.5,-308.06 148,-298.06 144.5,-308.06 151.5,-308.06"/>
</g>
<!-- msa_pwa -->
<g id="node7" class="node">
<title>msa_pwa</title>
<path fill="#fce4ec" stroke="#333333" stroke-width="1.2" d="M150.39,-199.06C150.39,-199.06 35.61,-199.06 35.61,-199.06 29.61,-199.06 23.61,-193.06 23.61,-187.06 23.61,-187.06 23.61,-168.42 23.61,-168.42 23.61,-162.42 29.61,-156.42 35.61,-156.42 35.61,-156.42 150.39,-156.42 150.39,-156.42 156.39,-156.42 162.39,-162.42 162.39,-168.42 162.39,-168.42 162.39,-187.06 162.39,-187.06 162.39,-193.06 156.39,-199.06 150.39,-199.06"/>
<text xml:space="preserve" text-anchor="start" x="32.25" y="-186.24" font-family="Helvetica,sans-Serif" font-weight="bold" font-size="10.00">MSA Pair&#45;Weighted Avg [i]</text>
<text xml:space="preserve" text-anchor="start" x="39.38" y="-178.14" font-family="Helvetica,sans-Serif" font-size="8.00">pair → MSA (pair&#45;biased attn)</text>
<text xml:space="preserve" text-anchor="start" x="52.88" y="-170.14" font-family="Helvetica,sans-Serif" font-size="8.00">8 heads, 32 value_dim</text>
<text xml:space="preserve" text-anchor="start" x="47.25" y="-162.14" font-family="Helvetica,sans-Serif" font-size="8.00">LN(64) → Linear(64,512)</text>
</g>
<!-- pair_trans&#45;&gt;msa_pwa -->
<g id="edge6" class="edge">
<title>pair_trans&#45;&gt;msa_pwa</title>
<path fill="none" stroke="#555555" d="M138.17,-259.49C130.39,-245.58 119.34,-225.83 110.12,-209.34"/>
<polygon fill="#555555" stroke="#555555" points="113.33,-207.92 105.39,-200.9 107.22,-211.34 113.33,-207.92"/>
<text xml:space="preserve" text-anchor="middle" x="153.01" y="-235.51" font-family="Helvetica,sans-Serif" font-size="9.00">pair → MSA</text>
</g>
<!-- tri_mult -->
<g id="node9" class="node">
<title>tri_mult</title>
<path fill="#f3e5f5" stroke="#333333" stroke-width="1.2" d="M324.26,-195.74C324.26,-195.74 199.74,-195.74 199.74,-195.74 193.74,-195.74 187.74,-189.74 187.74,-183.74 187.74,-183.74 187.74,-171.74 187.74,-171.74 187.74,-165.74 193.74,-159.74 199.74,-159.74 199.74,-159.74 324.26,-159.74 324.26,-159.74 330.26,-159.74 336.26,-165.74 336.26,-171.74 336.26,-171.74 336.26,-183.74 336.26,-183.74 336.26,-189.74 330.26,-195.74 324.26,-195.74"/>
<text xml:space="preserve" text-anchor="start" x="198.62" y="-182.24" font-family="Helvetica,sans-Serif" font-weight="bold" font-size="10.00">Triangular Multiplication [i]</text>
<text xml:space="preserve" text-anchor="start" x="196.38" y="-174.14" font-family="Helvetica,sans-Serif" font-size="8.00">outgoing + incoming (both directions)</text>
<text xml:space="preserve" text-anchor="start" x="212.5" y="-166.14" font-family="Helvetica,sans-Serif" font-size="8.00">sigmoid&#45;gated, pair dim 256</text>
</g>
<!-- pair_trans&#45;&gt;tri_mult -->
<g id="edge9" class="edge">
<title>pair_trans&#45;&gt;tri_mult</title>
<path fill="none" stroke="#555555" d="M168.38,-259.49C186.46,-243.9 213.05,-220.96 233.28,-203.51"/>
<polygon fill="#555555" stroke="#555555" points="235.36,-206.34 240.65,-197.16 230.79,-201.04 235.36,-206.34"/>
</g>
<!-- msa_trans -->
<g id="node8" class="node">
<title>msa_trans</title>
<path fill="#fce4ec" stroke="#333333" stroke-width="1.2" d="M147.89,-123.42C147.89,-123.42 36.11,-123.42 36.11,-123.42 30.11,-123.42 24.11,-117.42 24.11,-111.42 24.11,-111.42 24.11,-99.42 24.11,-99.42 24.11,-93.42 30.11,-87.42 36.11,-87.42 36.11,-87.42 147.89,-87.42 147.89,-87.42 153.89,-87.42 159.89,-93.42 159.89,-99.42 159.89,-99.42 159.89,-111.42 159.89,-111.42 159.89,-117.42 153.89,-123.42 147.89,-123.42"/>
<text xml:space="preserve" text-anchor="start" x="50.38" y="-105.92" font-family="Helvetica,sans-Serif" font-weight="bold" font-size="10.00">MSA Transition [i]</text>
<text xml:space="preserve" text-anchor="start" x="32.75" y="-97.82" font-family="Helvetica,sans-Serif" font-size="8.00">SwiGLU 4× (64→512→256→64)</text>
</g>
<!-- msa_pwa&#45;&gt;msa_trans -->
<g id="edge7" class="edge">
<title>msa_pwa&#45;&gt;msa_trans</title>
<path fill="none" stroke="#555555" d="M92.71,-156.03C92.61,-149.57 92.51,-142.32 92.41,-135.4"/>
<polygon fill="#555555" stroke="#555555" points="95.91,-135.37 92.27,-125.42 88.91,-135.47 95.91,-135.37"/>
</g>
<!-- msa_trans&#45;&gt;opm -->
<g id="edge8" class="edge">
<title>msa_trans&#45;&gt;opm</title>
<path fill="none" stroke="#555555" stroke-dasharray="1,5" d="M160.19,-122.63C161.47,-122.9 162.74,-123.16 164,-123.42 204.89,-131.89 322.19,-124.41 349,-156.42 403.76,-221.82 287.72,-288.68 210.19,-323.95"/>
<polygon fill="#555555" stroke="#555555" points="209.08,-320.62 201.38,-327.89 211.94,-327.01 209.08,-320.62"/>
<text xml:space="preserve" text-anchor="middle" x="361.95" y="-234.76" font-family="Helvetica,sans-Serif" font-size="9.00">next iter</text>
</g>
<!-- discard -->
<g id="node12" class="node">
<title>discard</title>
<ellipse fill="#ffcdd2" stroke="#333333" stroke-width="1.2" cx="92" cy="-18.84" rx="85.4" ry="18.84"/>
<text xml:space="preserve" text-anchor="start" x="57.12" y="-19.34" font-family="Helvetica,sans-Serif" font-weight="bold" font-size="10.00">MSA discarded</text>
<text xml:space="preserve" text-anchor="start" x="40.25" y="-11.24" font-family="Helvetica,sans-Serif" font-size="8.00">consumed via OPM into pairs</text>
</g>
<!-- msa_trans&#45;&gt;discard -->
<g id="edge12" class="edge">
<title>msa_trans&#45;&gt;discard</title>
<path fill="none" stroke="#555555" stroke-dasharray="5,2" d="M92,-86.9C92,-76.12 92,-62.02 92,-49.53"/>
<polygon fill="#555555" stroke="#555555" points="95.5,-49.73 92,-39.73 88.5,-49.73 95.5,-49.73"/>
<text xml:space="preserve" text-anchor="middle" x="108.5" y="-54.87" font-family="Helvetica,sans-Serif" font-size="9.00">after i=2</text>
</g>
<!-- tri_attn -->
<g id="node10" class="node">
<title>tri_attn</title>
<path fill="#f3e5f5" stroke="#333333" stroke-width="1.2" d="M329.39,-123.42C329.39,-123.42 196.61,-123.42 196.61,-123.42 190.61,-123.42 184.61,-117.42 184.61,-111.42 184.61,-111.42 184.61,-99.42 184.61,-99.42 184.61,-93.42 190.61,-87.42 196.61,-87.42 196.61,-87.42 329.39,-87.42 329.39,-87.42 335.39,-87.42 341.39,-93.42 341.39,-99.42 341.39,-99.42 341.39,-111.42 341.39,-111.42 341.39,-117.42 335.39,-123.42 329.39,-123.42"/>
<text xml:space="preserve" text-anchor="start" x="210.88" y="-109.92" font-family="Helvetica,sans-Serif" font-weight="bold" font-size="10.00">Triangular Attention [i]</text>
<text xml:space="preserve" text-anchor="start" x="193.25" y="-101.82" font-family="Helvetica,sans-Serif" font-size="8.00">starting + ending node (both directions)</text>
<text xml:space="preserve" text-anchor="start" x="198.88" y="-93.82" font-family="Helvetica,sans-Serif" font-size="8.00">8 heads, 32 head_dim, pair dim 256</text>
</g>
<!-- tri_mult&#45;&gt;tri_attn -->
<g id="edge10" class="edge">
<title>tri_mult&#45;&gt;tri_attn</title>
<path fill="none" stroke="#555555" d="M262.25,-159.36C262.35,-152.04 262.48,-143.32 262.59,-135.09"/>
<polygon fill="#555555" stroke="#555555" points="266.09,-135.17 262.73,-125.12 259.09,-135.07 266.09,-135.17"/>
</g>
<!-- pair_out -->
<g id="node11" class="node">
<title>pair_out</title>
<path fill="#c8e6c9" stroke="#333333" stroke-width="1.2" d="M301.64,-36.84C301.64,-36.84 224.36,-36.84 224.36,-36.84 218.36,-36.84 212.36,-30.84 212.36,-24.84 212.36,-24.84 212.36,-12.84 212.36,-12.84 212.36,-6.84 218.36,-0.84 224.36,-0.84 224.36,-0.84 301.64,-0.84 301.64,-0.84 307.64,-0.84 313.64,-6.84 313.64,-12.84 313.64,-12.84 313.64,-24.84 313.64,-24.84 313.64,-30.84 307.64,-36.84 301.64,-36.84"/>
<text xml:space="preserve" text-anchor="start" x="221" y="-20.34" font-family="Helvetica,sans-Serif" font-weight="bold" font-size="10.00">Updated pair_repr</text>
<text xml:space="preserve" text-anchor="start" x="235.25" y="-10.34" font-family="Helvetica,sans-Serif" font-size="10.00">[b, n, n, 256]</text>
</g>
<!-- tri_attn&#45;&gt;pair_out -->
<g id="edge11" class="edge">
<title>tri_attn&#45;&gt;pair_out</title>
<path fill="none" stroke="#555555" d="M263,-86.9C263,-75.9 263,-61.44 263,-48.77"/>
<polygon fill="#555555" stroke="#555555" points="266.5,-48.85 263,-38.85 259.5,-48.85 266.5,-48.85"/>
</g>
</g>
</svg>
