<?xml version="1.0" encoding="UTF-8" standalone="no"?>
<!DOCTYPE svg PUBLIC "-//W3C//DTD SVG 1.1//EN"
 "http://www.w3.org/Graphics/SVG/1.1/DTD/svg11.dtd">
<!-- Generated by graphviz version 14.1.4 (20260321.0153)
 -->
<!-- Title: PairformerBlock Pages: 1 -->
<svg width="536pt" height="561pt"
 viewBox="0.00 0.00 536.00 561.00" xmlns="http://www.w3.org/2000/svg" xmlns:xlink="http://www.w3.org/1999/xlink">
<g id="graph0" class="graph" transform="scale(1 1) rotate(0) translate(21.6 539.77)">
<title>PairformerBlock</title>
<text xml:space="preserve" text-anchor="start" x="147.01" y="-502.82" font-family="Helvetica,sans-Serif" font-weight="bold" font-size="13.00">Pairformer Block (×48 in Trunk)</text>
<text xml:space="preserve" text-anchor="start" x="172.89" y="-493.62" font-family="Helvetica,sans-Serif" font-size="9.00">5 sub&#45;layers per block, 3 SDPA calls</text>
<!-- z_in -->
<g id="node1" class="node">
<title>z_in</title>
<path fill="#e3f2fd" stroke="#333333" stroke-width="1.2" d="M141.78,-488.17C141.78,-488.17 93,-488.17 93,-488.17 87,-488.17 81,-482.17 81,-476.17 81,-476.17 81,-464.17 81,-464.17 81,-458.17 87,-452.17 93,-452.17 93,-452.17 141.78,-452.17 141.78,-452.17 147.78,-452.17 153.78,-458.17 153.78,-464.17 153.78,-464.17 153.78,-476.17 153.78,-476.17 153.78,-482.17 147.78,-488.17 141.78,-488.17"/>
<text xml:space="preserve" text-anchor="start" x="90.39" y="-471.67" font-family="Helvetica,sans-Serif" font-weight="bold" font-size="10.00">z (pair repr)</text>
<text xml:space="preserve" text-anchor="start" x="89.64" y="-461.67" font-family="Helvetica,sans-Serif" font-size="10.00">[b, n, n, 256]</text>
</g>
<!-- pair_transition -->
<g id="node3" class="node">
<title>pair_transition</title>
<path fill="#e8eaf6" stroke="#333333" stroke-width="1.2" d="M222.78,-415.17C222.78,-415.17 12,-415.17 12,-415.17 6,-415.17 0,-409.17 0,-403.17 0,-403.17 0,-391.17 0,-391.17 0,-385.17 6,-379.17 12,-379.17 12,-379.17 222.78,-379.17 222.78,-379.17 228.78,-379.17 234.78,-385.17 234.78,-391.17 234.78,-391.17 234.78,-403.17 234.78,-403.17 234.78,-409.17 228.78,-415.17 222.78,-415.17"/>
<text xml:space="preserve" text-anchor="start" x="77.26" y="-401.67" font-family="Helvetica,sans-Serif" font-weight="bold" font-size="10.00">1. Pair Transition</text>
<text xml:space="preserve" text-anchor="start" x="8.64" y="-393.57" font-family="Helvetica,sans-Serif" font-size="8.00">LN(256) → Linear(256,1024) → SwiGLU → Linear(512,256)</text>
<text xml:space="preserve" text-anchor="start" x="75.76" y="-385.57" font-family="Helvetica,sans-Serif" font-size="8.00">z = z + PairTransition(z)</text>
</g>
<!-- z_in&#45;&gt;pair_transition -->
<g id="edge1" class="edge">
<title>z_in&#45;&gt;pair_transition</title>
<path fill="none" stroke="#555555" d="M117.39,-451.62C117.39,-444.14 117.39,-435.22 117.39,-426.82"/>
<polygon fill="#555555" stroke="#555555" points="120.89,-427.03 117.39,-417.03 113.89,-427.03 120.89,-427.03"/>
</g>
<!-- s_in -->
<g id="node2" class="node">
<title>s_in</title>
<path fill="#e3f2fd" stroke="#333333" stroke-width="1.2" d="M333.28,-415.17C333.28,-415.17 275.5,-415.17 275.5,-415.17 269.5,-415.17 263.5,-409.17 263.5,-403.17 263.5,-403.17 263.5,-391.17 263.5,-391.17 263.5,-385.17 269.5,-379.17 275.5,-379.17 275.5,-379.17 333.28,-379.17 333.28,-379.17 339.28,-379.17 345.28,-385.17 345.28,-391.17 345.28,-391.17 345.28,-403.17 345.28,-403.17 345.28,-409.17 339.28,-415.17 333.28,-415.17"/>
<text xml:space="preserve" text-anchor="start" x="272.14" y="-398.67" font-family="Helvetica,sans-Serif" font-weight="bold" font-size="10.00">s (single repr)</text>
<text xml:space="preserve" text-anchor="start" x="282.26" y="-388.67" font-family="Helvetica,sans-Serif" font-size="10.00">[b, n, 384]</text>
</g>
<!-- attn_pair_bias -->
<g id="node4" class="node">
<title>attn_pair_bias</title>
<path fill="#fff3e0" stroke="#333333" stroke-width="1.2" d="M348.78,-333.42C348.78,-333.42 198,-333.42 198,-333.42 192,-333.42 186,-327.42 186,-321.42 186,-321.42 186,-286.78 186,-286.78 186,-280.78 192,-274.78 198,-274.78 198,-274.78 348.78,-274.78 348.78,-274.78 354.78,-274.78 360.78,-280.78 360.78,-286.78 360.78,-286.78 360.78,-321.42 360.78,-321.42 360.78,-327.42 354.78,-333.42 348.78,-333.42"/>
<text xml:space="preserve" text-anchor="start" x="213.01" y="-320.6" font-family="Helvetica,sans-Serif" font-weight="bold" font-size="10.00">2. Attention with Pair Bias</text>
<text xml:space="preserve" text-anchor="start" x="231.39" y="-312.5" font-family="Helvetica,sans-Serif" font-size="8.00">16 heads, 24 head_dim</text>
<text xml:space="preserve" text-anchor="start" x="194.64" y="-304.5" font-family="Helvetica,sans-Serif" font-size="8.00">pair_linear: Linear(256,16) → per&#45;head bias</text>
<text xml:space="preserve" text-anchor="start" x="207.01" y="-296.5" font-family="Helvetica,sans-Serif" font-size="8.00">input2qkvg: [384, 4, 16, 24] → q,k,v,g</text>
<text xml:space="preserve" text-anchor="start" x="204.01" y="-288.5" font-family="Helvetica,sans-Serif" font-size="8.00">softmax(q·kᵀ/√24 + pair_bias) · v × σ(g)</text>
<text xml:space="preserve" text-anchor="start" x="229.89" y="-280.5" font-family="Helvetica,sans-Serif" font-size="8.00">s = s + AttnPairBias(s, z)</text>
</g>
<!-- s_in&#45;&gt;attn_pair_bias -->
<g id="edge3" class="edge">
<title>s_in&#45;&gt;attn_pair_bias</title>
<path fill="none" stroke="#555555" d="M298.41,-378.61C295.1,-368.88 290.84,-356.36 286.77,-344.42"/>
<polygon fill="#555555" stroke="#555555" points="290.15,-343.48 283.62,-335.14 283.53,-345.74 290.15,-343.48"/>
<text xml:space="preserve" text-anchor="middle" x="293.92" y="-352.62" font-family="Helvetica,sans-Serif" font-size="9.00">s</text>
</g>
<!-- pair_transition&#45;&gt;attn_pair_bias -->
<g id="edge2" class="edge">
<title>pair_transition&#45;&gt;attn_pair_bias</title>
<path fill="none" stroke="#555555" d="M147.47,-378.61C166.36,-367.58 191.39,-352.97 214.14,-339.69"/>
<polygon fill="#555555" stroke="#555555" points="215.89,-342.72 222.76,-334.65 212.36,-336.67 215.89,-342.72"/>
<text xml:space="preserve" text-anchor="middle" x="192.96" y="-352.62" font-family="Helvetica,sans-Serif" font-size="9.00">z</text>
</g>
<!-- tri_mult -->
<g id="node6" class="node">
<title>tri_mult</title>
<path fill="#f3e5f5" stroke="#333333" stroke-width="1.2" d="M216.78,-219.28C216.78,-219.28 18,-219.28 18,-219.28 12,-219.28 6,-213.28 6,-207.28 6,-207.28 6,-180.64 6,-180.64 6,-174.64 12,-168.64 18,-168.64 18,-168.64 216.78,-168.64 216.78,-168.64 222.78,-168.64 228.78,-174.64 228.78,-180.64 228.78,-180.64 228.78,-207.28 228.78,-207.28 228.78,-213.28 222.78,-219.28 216.78,-219.28"/>
<text xml:space="preserve" text-anchor="start" x="54.39" y="-206.46" font-family="Helvetica,sans-Serif" font-weight="bold" font-size="10.00">4. Triangular Multiplication</text>
<text xml:space="preserve" text-anchor="start" x="54.39" y="-198.36" font-family="Helvetica,sans-Serif" font-size="8.00">Both outgoing + incoming directions</text>
<text xml:space="preserve" text-anchor="start" x="14.64" y="-190.36" font-family="Helvetica,sans-Serif" font-size="8.00">merged_linear_p(256,1024), merged_linear_g(256,1280)</text>
<text xml:space="preserve" text-anchor="start" x="57.39" y="-182.36" font-family="Helvetica,sans-Serif" font-size="8.00">sigmoid gate, einsum contractions</text>
<text xml:space="preserve" text-anchor="start" x="89.26" y="-174.36" font-family="Helvetica,sans-Serif" font-size="8.00">z = z + TriMul(z)</text>
</g>
<!-- pair_transition&#45;&gt;tri_mult -->
<g id="edge6" class="edge">
<title>pair_transition&#45;&gt;tri_mult</title>
<path fill="none" stroke="#555555" d="M117.39,-378.67C117.39,-345.89 117.39,-274.66 117.39,-231.16"/>
<polygon fill="#555555" stroke="#555555" points="120.89,-231.19 117.39,-221.19 113.89,-231.19 120.89,-231.19"/>
<text xml:space="preserve" text-anchor="middle" x="119.64" y="-300.42" font-family="Helvetica,sans-Serif" font-size="9.00">z</text>
</g>
<!-- single_transition -->
<g id="node5" class="node">
<title>single_transition</title>
<path fill="#e8eaf6" stroke="#333333" stroke-width="1.2" d="M480.78,-211.96C480.78,-211.96 270,-211.96 270,-211.96 264,-211.96 258,-205.96 258,-199.96 258,-199.96 258,-187.96 258,-187.96 258,-181.96 264,-175.96 270,-175.96 270,-175.96 480.78,-175.96 480.78,-175.96 486.78,-175.96 492.78,-181.96 492.78,-187.96 492.78,-187.96 492.78,-199.96 492.78,-199.96 492.78,-205.96 486.78,-211.96 480.78,-211.96"/>
<text xml:space="preserve" text-anchor="start" x="329.64" y="-198.46" font-family="Helvetica,sans-Serif" font-weight="bold" font-size="10.00">3. Single Transition</text>
<text xml:space="preserve" text-anchor="start" x="266.64" y="-190.36" font-family="Helvetica,sans-Serif" font-size="8.00">LN(384) → Linear(384,1536) → SwiGLU → Linear(768,384)</text>
<text xml:space="preserve" text-anchor="start" x="330.01" y="-182.36" font-family="Helvetica,sans-Serif" font-size="8.00">s = s + SingleTransition(s)</text>
</g>
<!-- attn_pair_bias&#45;&gt;single_transition -->
<g id="edge4" class="edge">
<title>attn_pair_bias&#45;&gt;single_transition</title>
<path fill="none" stroke="#555555" d="M300.46,-274.4C316.34,-257.57 336.22,-236.48 351.52,-220.27"/>
<polygon fill="#555555" stroke="#555555" points="353.7,-223.06 358.01,-213.38 348.61,-218.25 353.7,-223.06"/>
<text xml:space="preserve" text-anchor="middle" x="335.78" y="-243.35" font-family="Helvetica,sans-Serif" font-size="9.00">s</text>
</g>
<!-- attn_pair_bias&#45;&gt;tri_mult -->
<g id="edge9" class="edge">
<title>attn_pair_bias&#45;&gt;tri_mult</title>
<path fill="none" stroke="#555555" stroke-dasharray="5,2" d="M231.99,-274.4C210.61,-259.58 184.47,-241.46 162.56,-226.27"/>
<polygon fill="#555555" stroke="#555555" points="164.6,-223.43 154.39,-220.61 160.61,-229.18 164.6,-223.43"/>
<text xml:space="preserve" text-anchor="middle" x="229.11" y="-248.23" font-family="Helvetica,sans-Serif" font-size="9.00">z (pair bias</text>
<text xml:space="preserve" text-anchor="middle" x="229.11" y="-238.48" font-family="Helvetica,sans-Serif" font-size="9.00">read from z)</text>
</g>
<!-- s_out -->
<g id="node9" class="node">
<title>s_out</title>
<path fill="#c8e6c9" stroke="#333333" stroke-width="1.2" d="M413.65,-120.32C413.65,-120.32 337.12,-120.32 337.12,-120.32 331.12,-120.32 325.12,-114.32 325.12,-108.32 325.12,-108.32 325.12,-96.32 325.12,-96.32 325.12,-90.32 331.12,-84.32 337.12,-84.32 337.12,-84.32 413.65,-84.32 413.65,-84.32 419.65,-84.32 425.65,-90.32 425.65,-96.32 425.65,-96.32 425.65,-108.32 425.65,-108.32 425.65,-114.32 419.65,-120.32 413.65,-120.32"/>
<text xml:space="preserve" text-anchor="start" x="333.76" y="-103.82" font-family="Helvetica,sans-Serif" font-weight="bold" font-size="10.00">s (updated single)</text>
<text xml:space="preserve" text-anchor="start" x="353.26" y="-93.82" font-family="Helvetica,sans-Serif" font-size="10.00">[b, n, 384]</text>
</g>
<!-- single_transition&#45;&gt;s_out -->
<g id="edge5" class="edge">
<title>single_transition&#45;&gt;s_out</title>
<path fill="none" stroke="#555555" d="M375.39,-175.68C375.39,-163.36 375.39,-146.5 375.39,-132.16"/>
<polygon fill="#555555" stroke="#555555" points="378.89,-132.37 375.39,-122.37 371.89,-132.37 378.89,-132.37"/>
</g>
<!-- tri_attn -->
<g id="node7" class="node">
<title>tri_attn</title>
<path fill="#f3e5f5" stroke="#333333" stroke-width="1.2" d="M205.15,-131.64C205.15,-131.64 29.62,-131.64 29.62,-131.64 23.62,-131.64 17.62,-125.64 17.62,-119.64 17.62,-119.64 17.62,-85 17.62,-85 17.62,-79 23.62,-73 29.62,-73 29.62,-73 205.15,-73 205.15,-73 211.15,-73 217.15,-79 217.15,-85 217.15,-85 217.15,-119.64 217.15,-119.64 217.15,-125.64 211.15,-131.64 205.15,-131.64"/>
<text xml:space="preserve" text-anchor="start" x="70.51" y="-118.82" font-family="Helvetica,sans-Serif" font-weight="bold" font-size="10.00">5. Triangle Attention</text>
<text xml:space="preserve" text-anchor="start" x="26.26" y="-110.72" font-family="Helvetica,sans-Serif" font-size="8.00">Both starting + ending node, 8 heads, 32 head_dim</text>
<text xml:space="preserve" text-anchor="start" x="43.14" y="-102.72" font-family="Helvetica,sans-Serif" font-size="8.00">pair2qkvg1/2: Linear(256,1024) → q,k,v,g</text>
<text xml:space="preserve" text-anchor="start" x="48.39" y="-94.72" font-family="Helvetica,sans-Serif" font-size="8.00">pair2b: Linear(256,8) → per&#45;head bias</text>
<text xml:space="preserve" text-anchor="start" x="67.89" y="-86.72" font-family="Helvetica,sans-Serif" font-size="8.00">2 SDPA calls, sigmoid gated</text>
<text xml:space="preserve" text-anchor="start" x="88.51" y="-78.72" font-family="Helvetica,sans-Serif" font-size="8.00">z = z + TriAttn(z)</text>
</g>
<!-- tri_mult&#45;&gt;tri_attn -->
<g id="edge7" class="edge">
<title>tri_mult&#45;&gt;tri_attn</title>
<path fill="none" stroke="#555555" d="M117.39,-168.47C117.39,-160.77 117.39,-152.05 117.39,-143.56"/>
<polygon fill="#555555" stroke="#555555" points="120.89,-143.75 117.39,-133.75 113.89,-143.75 120.89,-143.75"/>
</g>
<!-- z_out -->
<g id="node8" class="node">
<title>z_out</title>
<path fill="#c8e6c9" stroke="#333333" stroke-width="1.2" d="M150.4,-36C150.4,-36 84.37,-36 84.37,-36 78.37,-36 72.37,-30 72.37,-24 72.37,-24 72.37,-12 72.37,-12 72.37,-6 78.37,0 84.37,0 84.37,0 150.4,0 150.4,0 156.4,0 162.4,-6 162.4,-12 162.4,-12 162.4,-24 162.4,-24 162.4,-30 156.4,-36 150.4,-36"/>
<text xml:space="preserve" text-anchor="start" x="81.01" y="-19.5" font-family="Helvetica,sans-Serif" font-weight="bold" font-size="10.00">z (updated pair)</text>
<text xml:space="preserve" text-anchor="start" x="89.64" y="-9.5" font-family="Helvetica,sans-Serif" font-size="10.00">[b, n, n, 256]</text>
</g>
<!-- tri_attn&#45;&gt;z_out -->
<g id="edge8" class="edge">
<title>tri_attn&#45;&gt;z_out</title>
<path fill="none" stroke="#555555" d="M117.39,-72.53C117.39,-64.52 117.39,-55.83 117.39,-47.82"/>
<polygon fill="#555555" stroke="#555555" points="120.89,-47.89 117.39,-37.89 113.89,-47.89 120.89,-47.89"/>
</g>
</g>
</svg>
