<?xml version="1.0" encoding="UTF-8" standalone="no"?>
<!DOCTYPE svg PUBLIC "-//W3C//DTD SVG 1.1//EN"
 "http://www.w3.org/Graphics/SVG/1.1/DTD/svg11.dtd">
<!-- Generated by graphviz version 14.1.4 (20260321.0153)
 -->
<!-- Title: DiffusionModule Pages: 1 -->
<svg width="1029pt" height="709pt"
 viewBox="0.00 0.00 1029.00 709.00" xmlns="http://www.w3.org/2000/svg" xmlns:xlink="http://www.w3.org/1999/xlink">
<g id="graph0" class="graph" transform="scale(1 1) rotate(0) translate(21.6 687.03)">
<title>DiffusionModule</title>
<text xml:space="preserve" text-anchor="start" x="438.76" y="-650.08" font-family="Helvetica,sans-Serif" font-weight="bold" font-size="13.00">Diffusion Module</text>
<text xml:space="preserve" text-anchor="start" x="370.89" y="-640.88" font-family="Helvetica,sans-Serif" font-size="9.00">diffusion_module.pt &#160;(~128M params, ×200 denoising steps)</text>
<g id="clust1" class="cluster">
<title>cluster_conditioning</title>
<polygon fill="none" stroke="#999999" stroke-dasharray="5,2" points="122.02,-344.17 122.02,-572.43 558.01,-572.43 558.01,-344.17 122.02,-344.17"/>
<text xml:space="preserve" text-anchor="start" x="286.39" y="-559.93" font-family="Helvetica,sans-Serif" font-weight="bold" font-size="10.00">Diffusion Conditioning</text>
</g>
<!-- single_init -->
<g id="node1" class="node">
<title>single_init</title>
<path fill="#e3f2fd" stroke="#333333" stroke-width="1.2" d="M96.03,-635.43C96.03,-635.43 12,-635.43 12,-635.43 6,-635.43 0,-629.43 0,-623.43 0,-623.43 0,-611.43 0,-611.43 0,-605.43 6,-599.43 12,-599.43 12,-599.43 96.03,-599.43 96.03,-599.43 102.03,-599.43 108.03,-605.43 108.03,-611.43 108.03,-611.43 108.03,-623.43 108.03,-623.43 108.03,-629.43 102.03,-635.43 96.03,-635.43"/>
<text xml:space="preserve" text-anchor="start" x="8.64" y="-618.93" font-family="Helvetica,sans-Serif" font-weight="bold" font-size="10.00">token_single_initial</text>
<text xml:space="preserve" text-anchor="start" x="31.89" y="-608.93" font-family="Helvetica,sans-Serif" font-size="10.00">[b, n, 384]</text>
</g>
<!-- concat_single -->
<g id="node8" class="node">
<title>concat_single</title>
<path fill="#fff3e0" stroke="#333333" stroke-width="1.2" d="M238.03,-545.18C238.03,-545.18 142,-545.18 142,-545.18 136,-545.18 130,-539.18 130,-533.18 130,-533.18 130,-521.18 130,-521.18 130,-515.18 136,-509.18 142,-509.18 142,-509.18 238.03,-509.18 238.03,-509.18 244.03,-509.18 250.03,-515.18 250.03,-521.18 250.03,-521.18 250.03,-533.18 250.03,-533.18 250.03,-539.18 244.03,-545.18 238.03,-545.18"/>
<text xml:space="preserve" text-anchor="start" x="157.76" y="-531.68" font-family="Helvetica,sans-Serif" font-weight="bold" font-size="10.00">Concat + Proj</text>
<text xml:space="preserve" text-anchor="start" x="158.51" y="-523.58" font-family="Helvetica,sans-Serif" font-size="8.00">[384++384] = 768</text>
<text xml:space="preserve" text-anchor="start" x="138.64" y="-515.58" font-family="Helvetica,sans-Serif" font-size="8.00">LN(768) → Linear(768, 384)</text>
</g>
<!-- single_init&#45;&gt;concat_single -->
<g id="edge1" class="edge">
<title>single_init&#45;&gt;concat_single</title>
<path fill="none" stroke="#555555" d="M80.88,-598.99C101.75,-585.45 130.88,-566.55 153.8,-551.67"/>
<polygon fill="#555555" stroke="#555555" points="155.45,-554.78 161.93,-546.4 151.64,-548.91 155.45,-554.78"/>
</g>
<!-- single_trunk -->
<g id="node2" class="node">
<title>single_trunk</title>
<path fill="#e3f2fd" stroke="#333333" stroke-width="1.2" d="M230.9,-635.43C230.9,-635.43 149.12,-635.43 149.12,-635.43 143.12,-635.43 137.12,-629.43 137.12,-623.43 137.12,-623.43 137.12,-611.43 137.12,-611.43 137.12,-605.43 143.12,-599.43 149.12,-599.43 149.12,-599.43 230.9,-599.43 230.9,-599.43 236.9,-599.43 242.9,-605.43 242.9,-611.43 242.9,-611.43 242.9,-623.43 242.9,-623.43 242.9,-629.43 236.9,-635.43 230.9,-635.43"/>
<text xml:space="preserve" text-anchor="start" x="145.76" y="-618.93" font-family="Helvetica,sans-Serif" font-weight="bold" font-size="10.00">token_single_trunk</text>
<text xml:space="preserve" text-anchor="start" x="167.89" y="-608.93" font-family="Helvetica,sans-Serif" font-size="10.00">[b, n, 384]</text>
</g>
<!-- single_trunk&#45;&gt;concat_single -->
<g id="edge2" class="edge">
<title>single_trunk&#45;&gt;concat_single</title>
<path fill="none" stroke="#555555" d="M190.01,-598.99C190.01,-587.02 190.01,-570.86 190.01,-557"/>
<polygon fill="#555555" stroke="#555555" points="193.52,-557.09 190.02,-547.09 186.52,-557.09 193.52,-557.09"/>
</g>
<!-- pair_init -->
<g id="node3" class="node">
<title>pair_init</title>
<path fill="#e3f2fd" stroke="#333333" stroke-width="1.2" d="M357.78,-635.43C357.78,-635.43 284.25,-635.43 284.25,-635.43 278.25,-635.43 272.25,-629.43 272.25,-623.43 272.25,-623.43 272.25,-611.43 272.25,-611.43 272.25,-605.43 278.25,-599.43 284.25,-599.43 284.25,-599.43 357.78,-599.43 357.78,-599.43 363.78,-599.43 369.78,-605.43 369.78,-611.43 369.78,-611.43 369.78,-623.43 369.78,-623.43 369.78,-629.43 363.78,-635.43 357.78,-635.43"/>
<text xml:space="preserve" text-anchor="start" x="280.89" y="-618.93" font-family="Helvetica,sans-Serif" font-weight="bold" font-size="10.00">token_pair_initial</text>
<text xml:space="preserve" text-anchor="start" x="293.26" y="-608.93" font-family="Helvetica,sans-Serif" font-size="10.00">[b, n, n, 256]</text>
</g>
<!-- concat_pair -->
<g id="node12" class="node">
<title>concat_pair</title>
<path fill="#fff3e0" stroke="#333333" stroke-width="1.2" d="M387.03,-545.18C387.03,-545.18 291,-545.18 291,-545.18 285,-545.18 279,-539.18 279,-533.18 279,-533.18 279,-521.18 279,-521.18 279,-515.18 285,-509.18 291,-509.18 291,-509.18 387.03,-509.18 387.03,-509.18 393.03,-509.18 399.03,-515.18 399.03,-521.18 399.03,-521.18 399.03,-533.18 399.03,-533.18 399.03,-539.18 393.03,-545.18 387.03,-545.18"/>
<text xml:space="preserve" text-anchor="start" x="306.76" y="-531.68" font-family="Helvetica,sans-Serif" font-weight="bold" font-size="10.00">Concat + Proj</text>
<text xml:space="preserve" text-anchor="start" x="307.51" y="-523.58" font-family="Helvetica,sans-Serif" font-size="8.00">[256++256] = 512</text>
<text xml:space="preserve" text-anchor="start" x="287.64" y="-515.58" font-family="Helvetica,sans-Serif" font-size="8.00">LN(512) → Linear(512, 256)</text>
</g>
<!-- pair_init&#45;&gt;concat_pair -->
<g id="edge7" class="edge">
<title>pair_init&#45;&gt;concat_pair</title>
<path fill="none" stroke="#555555" d="M324.57,-598.99C327.04,-586.9 330.37,-570.54 333.22,-556.58"/>
<polygon fill="#555555" stroke="#555555" points="336.59,-557.56 335.16,-547.06 329.74,-556.16 336.59,-557.56"/>
</g>
<!-- pair_trunk -->
<g id="node4" class="node">
<title>pair_trunk</title>
<path fill="#e3f2fd" stroke="#333333" stroke-width="1.2" d="M481.65,-635.43C481.65,-635.43 410.38,-635.43 410.38,-635.43 404.38,-635.43 398.38,-629.43 398.38,-623.43 398.38,-623.43 398.38,-611.43 398.38,-611.43 398.38,-605.43 404.38,-599.43 410.38,-599.43 410.38,-599.43 481.65,-599.43 481.65,-599.43 487.65,-599.43 493.65,-605.43 493.65,-611.43 493.65,-611.43 493.65,-623.43 493.65,-623.43 493.65,-629.43 487.65,-635.43 481.65,-635.43"/>
<text xml:space="preserve" text-anchor="start" x="407.01" y="-618.93" font-family="Helvetica,sans-Serif" font-weight="bold" font-size="10.00">token_pair_trunk</text>
<text xml:space="preserve" text-anchor="start" x="418.26" y="-608.93" font-family="Helvetica,sans-Serif" font-size="10.00">[b, n, n, 256]</text>
</g>
<!-- pair_trunk&#45;&gt;concat_pair -->
<g id="edge8" class="edge">
<title>pair_trunk&#45;&gt;concat_pair</title>
<path fill="none" stroke="#555555" d="M424.88,-598.99C408.9,-585.82 386.76,-567.56 368.97,-552.88"/>
<polygon fill="#555555" stroke="#555555" points="371.22,-550.2 361.28,-546.54 366.77,-555.6 371.22,-550.2"/>
</g>
<!-- sigma -->
<g id="node5" class="node">
<title>sigma</title>
<ellipse fill="#fff9c4" stroke="#333333" stroke-width="1.2" cx="572.01" cy="-617.43" rx="49.51" ry="18"/>
<text xml:space="preserve" text-anchor="start" x="539.39" y="-614.55" font-family="Helvetica,sans-Serif" font-weight="bold" font-size="10.00">σ (noise level)</text>
</g>
<!-- fourier -->
<g id="node9" class="node">
<title>fourier</title>
<path fill="#fff3e0" stroke="#333333" stroke-width="1.2" d="M538.15,-545.18C538.15,-545.18 439.88,-545.18 439.88,-545.18 433.88,-545.18 427.88,-539.18 427.88,-533.18 427.88,-533.18 427.88,-521.18 427.88,-521.18 427.88,-515.18 433.88,-509.18 439.88,-509.18 439.88,-509.18 538.15,-509.18 538.15,-509.18 544.15,-509.18 550.15,-515.18 550.15,-521.18 550.15,-521.18 550.15,-533.18 550.15,-533.18 550.15,-539.18 544.15,-545.18 538.15,-545.18"/>
<text xml:space="preserve" text-anchor="start" x="443.64" y="-531.68" font-family="Helvetica,sans-Serif" font-weight="bold" font-size="10.00">Fourier Embedding</text>
<text xml:space="preserve" text-anchor="start" x="436.51" y="-523.58" font-family="Helvetica,sans-Serif" font-size="8.00">cos(W·log(σ) + b) → 256&#45;dim</text>
<text xml:space="preserve" text-anchor="start" x="437.64" y="-515.58" font-family="Helvetica,sans-Serif" font-size="8.00">LN(256) → Linear(256, 384)</text>
</g>
<!-- sigma&#45;&gt;fourier -->
<g id="edge4" class="edge">
<title>sigma&#45;&gt;fourier</title>
<path fill="none" stroke="#555555" d="M556.4,-599.83C544.23,-586.89 527.12,-568.69 513.18,-553.87"/>
<polygon fill="#555555" stroke="#555555" points="515.85,-551.6 506.45,-546.71 510.75,-556.39 515.85,-551.6"/>
</g>
<!-- noised_pos -->
<g id="node6" class="node">
<title>noised_pos</title>
<ellipse fill="#fff9c4" stroke="#333333" stroke-width="1.2" cx="653.01" cy="-370.17" rx="87" ry="20.25"/>
<text xml:space="preserve" text-anchor="start" x="600.14" y="-371.67" font-family="Helvetica,sans-Serif" font-weight="bold" font-size="10.00">Noised atom positions</text>
<text xml:space="preserve" text-anchor="start" x="620.01" y="-361.67" font-family="Helvetica,sans-Serif" font-size="10.00">[b, n_atoms, 3]</text>
</g>
<!-- encoder -->
<g id="node15" class="node">
<title>encoder</title>
<path fill="#e8eaf6" stroke="#333333" stroke-width="1.2" d="M743.03,-304.17C743.03,-304.17 551,-304.17 551,-304.17 545,-304.17 539,-298.17 539,-292.17 539,-292.17 539,-265.53 539,-265.53 539,-259.53 545,-253.53 551,-253.53 551,-253.53 743.03,-253.53 743.03,-253.53 749.03,-253.53 755.03,-259.53 755.03,-265.53 755.03,-265.53 755.03,-292.17 755.03,-292.17 755.03,-298.17 749.03,-304.17 743.03,-304.17"/>
<text xml:space="preserve" text-anchor="start" x="591.14" y="-291.35" font-family="Helvetica,sans-Serif" font-weight="bold" font-size="10.00">Atom Attention Encoder</text>
<text xml:space="preserve" text-anchor="start" x="568.64" y="-283.25" font-family="Helvetica,sans-Serif" font-size="8.00">3 local attn blocks (4 heads, 32 hd, dim 128)</text>
<text xml:space="preserve" text-anchor="start" x="584.76" y="-275.25" font-family="Helvetica,sans-Serif" font-size="8.00">+ prev_pos_embed: Linear(3, 128)</text>
<text xml:space="preserve" text-anchor="start" x="547.64" y="-267.25" font-family="Helvetica,sans-Serif" font-size="8.00">+ token_pair_to_atom_pair: LN(256) → Linear(256, 16)</text>
<text xml:space="preserve" text-anchor="start" x="581.76" y="-259.25" font-family="Helvetica,sans-Serif" font-size="8.00">→ to_token_single: Linear(128, 768)</text>
</g>
<!-- noised_pos&#45;&gt;encoder -->
<g id="edge12" class="edge">
<title>noised_pos&#45;&gt;encoder</title>
<path fill="none" stroke="#555555" d="M651.68,-349.35C651.03,-339.59 650.22,-327.5 649.45,-316.16"/>
<polygon fill="#555555" stroke="#555555" points="652.95,-315.99 648.79,-306.24 645.97,-316.46 652.95,-315.99"/>
</g>
<!-- atom_feats -->
<g id="node7" class="node">
<title>atom_feats</title>
<path fill="#e3f2fd" stroke="#333333" stroke-width="1.2" d="M844.53,-388.17C844.53,-388.17 781.5,-388.17 781.5,-388.17 775.5,-388.17 769.5,-382.17 769.5,-376.17 769.5,-376.17 769.5,-364.17 769.5,-364.17 769.5,-358.17 775.5,-352.17 781.5,-352.17 781.5,-352.17 844.53,-352.17 844.53,-352.17 850.53,-352.17 856.53,-358.17 856.53,-364.17 856.53,-364.17 856.53,-376.17 856.53,-376.17 856.53,-382.17 850.53,-388.17 844.53,-388.17"/>
<text xml:space="preserve" text-anchor="start" x="780.39" y="-374.67" font-family="Helvetica,sans-Serif" font-weight="bold" font-size="10.00">Atom features</text>
<text xml:space="preserve" text-anchor="start" x="778.14" y="-366.57" font-family="Helvetica,sans-Serif" font-size="8.00">single[128], pair[16]</text>
<text xml:space="preserve" text-anchor="start" x="785.64" y="-358.57" font-family="Helvetica,sans-Serif" font-size="8.00">structure inputs</text>
</g>
<!-- atom_feats&#45;&gt;encoder -->
<g id="edge11" class="edge">
<title>atom_feats&#45;&gt;encoder</title>
<path fill="none" stroke="#555555" d="M780.61,-351.74C758.62,-339.91 728.97,-323.95 703.19,-310.08"/>
<polygon fill="#555555" stroke="#555555" points="704.95,-307.05 694.48,-305.4 701.63,-313.22 704.95,-307.05"/>
</g>
<!-- single_trans -->
<g id="node10" class="node">
<title>single_trans</title>
<path fill="#fff3e0" stroke="#333333" stroke-width="1.2" d="M374.03,-463.43C374.03,-463.43 278,-463.43 278,-463.43 272,-463.43 266,-457.43 266,-451.43 266,-451.43 266,-439.43 266,-439.43 266,-433.43 272,-427.43 278,-427.43 278,-427.43 374.03,-427.43 374.03,-427.43 380.03,-427.43 386.03,-433.43 386.03,-439.43 386.03,-439.43 386.03,-451.43 386.03,-451.43 386.03,-457.43 380.03,-463.43 374.03,-463.43"/>
<text xml:space="preserve" text-anchor="start" x="274.64" y="-449.93" font-family="Helvetica,sans-Serif" font-weight="bold" font-size="10.00">2× SwiGLU Transition</text>
<text xml:space="preserve" text-anchor="start" x="285.89" y="-441.83" font-family="Helvetica,sans-Serif" font-size="8.00">dim 384, 4× expansion</text>
<text xml:space="preserve" text-anchor="start" x="281.01" y="-433.83" font-family="Helvetica,sans-Serif" font-size="8.00">+ Fourier between blocks</text>
</g>
<!-- concat_single&#45;&gt;single_trans -->
<g id="edge3" class="edge">
<title>concat_single&#45;&gt;single_trans</title>
<path fill="none" stroke="#555555" d="M219.86,-508.67C239.44,-497.2 265.25,-482.06 286.52,-469.59"/>
<polygon fill="#555555" stroke="#555555" points="288.08,-472.73 294.93,-464.65 284.54,-466.69 288.08,-472.73"/>
</g>
<!-- fourier&#45;&gt;single_trans -->
<g id="edge5" class="edge">
<title>fourier&#45;&gt;single_trans</title>
<path fill="none" stroke="#555555" d="M453.24,-508.67C429.44,-497.03 397.94,-481.62 372.24,-469.04"/>
<polygon fill="#555555" stroke="#555555" points="373.86,-465.94 363.34,-464.69 370.79,-472.23 373.86,-465.94"/>
<text xml:space="preserve" text-anchor="middle" x="434.15" y="-482.63" font-family="Helvetica,sans-Serif" font-size="9.00">+ added</text>
</g>
<!-- s_cond -->
<g id="node11" class="node">
<title>s_cond</title>
<path fill="#c8e6c9" stroke="#333333" stroke-width="1.2" d="M371.9,-388.17C371.9,-388.17 284.12,-388.17 284.12,-388.17 278.12,-388.17 272.12,-382.17 272.12,-376.17 272.12,-376.17 272.12,-364.17 272.12,-364.17 272.12,-358.17 278.12,-352.17 284.12,-352.17 284.12,-352.17 371.9,-352.17 371.9,-352.17 377.9,-352.17 383.9,-358.17 383.9,-364.17 383.9,-364.17 383.9,-376.17 383.9,-376.17 383.9,-382.17 377.9,-388.17 371.9,-388.17"/>
<text xml:space="preserve" text-anchor="start" x="311.14" y="-371.67" font-family="Helvetica,sans-Serif" font-weight="bold" font-size="10.00">s_cond</text>
<text xml:space="preserve" text-anchor="start" x="280.76" y="-361.67" font-family="Helvetica,sans-Serif" font-size="10.00">LN(384) → [b, n, 384]</text>
</g>
<!-- single_trans&#45;&gt;s_cond -->
<g id="edge6" class="edge">
<title>single_trans&#45;&gt;s_cond</title>
<path fill="none" stroke="#555555" d="M326.49,-427.07C326.71,-419.01 326.98,-409.21 327.23,-400.08"/>
<polygon fill="#555555" stroke="#555555" points="330.72,-400.27 327.5,-390.18 323.72,-400.08 330.72,-400.27"/>
</g>
<!-- s_cond&#45;&gt;encoder -->
<g id="edge14" class="edge">
<title>s_cond&#45;&gt;encoder</title>
<path fill="none" stroke="#555555" d="M375.95,-351.67C383.63,-349.05 391.52,-346.46 399.01,-344.17 442.07,-331.04 489.84,-318.23 531.88,-307.55"/>
<polygon fill="#555555" stroke="#555555" points="532.69,-310.96 541.53,-305.11 530.98,-304.17 532.69,-310.96"/>
<text xml:space="preserve" text-anchor="middle" x="498.6" y="-323.37" font-family="Helvetica,sans-Serif" font-size="9.00">conditioning</text>
</g>
<!-- diff_transformer -->
<g id="node17" class="node">
<title>diff_transformer</title>
<path fill="#f3e5f5" stroke="#333333" stroke-width="1.2" d="M561.65,-207.78C561.65,-207.78 412.38,-207.78 412.38,-207.78 406.38,-207.78 400.38,-201.78 400.38,-195.78 400.38,-195.78 400.38,-169.14 400.38,-169.14 400.38,-163.14 406.38,-157.14 412.38,-157.14 412.38,-157.14 561.65,-157.14 561.65,-157.14 567.65,-157.14 573.65,-163.14 573.65,-169.14 573.65,-169.14 573.65,-195.78 573.65,-195.78 573.65,-201.78 567.65,-207.78 561.65,-207.78"/>
<text xml:space="preserve" text-anchor="start" x="409.01" y="-194.96" font-family="Helvetica,sans-Serif" font-weight="bold" font-size="10.00">Diffusion Transformer (16 blocks)</text>
<text xml:space="preserve" text-anchor="start" x="413.51" y="-186.86" font-family="Helvetica,sans-Serif" font-size="8.00">16 heads, 48 head_dim, 768 working dim</text>
<text xml:space="preserve" text-anchor="start" x="425.14" y="-178.86" font-family="Helvetica,sans-Serif" font-size="8.00">AdaLN conditioned by s_cond[384]</text>
<text xml:space="preserve" text-anchor="start" x="439.39" y="-170.86" font-family="Helvetica,sans-Serif" font-size="8.00">Pair bias from z_cond[256]</text>
<text xml:space="preserve" text-anchor="start" x="413.51" y="-162.86" font-family="Helvetica,sans-Serif" font-size="8.00">SwiGLU transition, sigmoid gate (bias −2)</text>
</g>
<!-- s_cond&#45;&gt;diff_transformer -->
<g id="edge17" class="edge">
<title>s_cond&#45;&gt;diff_transformer</title>
<path fill="none" stroke="#555555" d="M320.53,-352.03C309.04,-322.77 291.23,-262.78 320.01,-225.78 329.42,-213.69 358.03,-204.51 388.98,-197.83"/>
<polygon fill="#555555" stroke="#555555" points="389.42,-201.31 398.51,-195.88 388.01,-194.46 389.42,-201.31"/>
<text xml:space="preserve" text-anchor="middle" x="332.5" y="-275.18" font-family="Helvetica,sans-Serif" font-size="9.00">AdaLN cond</text>
</g>
<!-- decoder -->
<g id="node18" class="node">
<title>decoder</title>
<path fill="#e8eaf6" stroke="#333333" stroke-width="1.2" d="M447.28,-120.14C447.28,-120.14 298.75,-120.14 298.75,-120.14 292.75,-120.14 286.75,-114.14 286.75,-108.14 286.75,-108.14 286.75,-89.5 286.75,-89.5 286.75,-83.5 292.75,-77.5 298.75,-77.5 298.75,-77.5 447.28,-77.5 447.28,-77.5 453.28,-77.5 459.28,-83.5 459.28,-89.5 459.28,-89.5 459.28,-108.14 459.28,-108.14 459.28,-114.14 453.28,-120.14 447.28,-120.14"/>
<text xml:space="preserve" text-anchor="start" x="317.14" y="-107.32" font-family="Helvetica,sans-Serif" font-weight="bold" font-size="10.00">Atom Attention Decoder</text>
<text xml:space="preserve" text-anchor="start" x="314.14" y="-99.22" font-family="Helvetica,sans-Serif" font-size="8.00">token_to_atom: Linear(768, 128)</text>
<text xml:space="preserve" text-anchor="start" x="311.14" y="-91.22" font-family="Helvetica,sans-Serif" font-size="8.00">3 local attn blocks (4 heads, 32 hd)</text>
<text xml:space="preserve" text-anchor="start" x="295.39" y="-83.22" font-family="Helvetica,sans-Serif" font-size="8.00">to_pos_updates: LN(128) → Linear(128, 3)</text>
</g>
<!-- s_cond&#45;&gt;decoder -->
<g id="edge20" class="edge">
<title>s_cond&#45;&gt;decoder</title>
<path fill="none" stroke="#555555" stroke-dasharray="5,2" d="M330.9,-351.92C338.31,-307.58 358.09,-189.16 367.67,-131.82"/>
<polygon fill="#555555" stroke="#555555" points="371.11,-132.49 369.3,-122.05 364.2,-131.34 371.11,-132.49"/>
<text xml:space="preserve" text-anchor="middle" x="376.68" y="-226.98" font-family="Helvetica,sans-Serif" font-size="9.00">conditioning</text>
</g>
<!-- pair_trans -->
<g id="node13" class="node">
<title>pair_trans</title>
<path fill="#fff3e0" stroke="#333333" stroke-width="1.2" d="M523.03,-463.43C523.03,-463.43 427,-463.43 427,-463.43 421,-463.43 415,-457.43 415,-451.43 415,-451.43 415,-439.43 415,-439.43 415,-433.43 421,-427.43 427,-427.43 427,-427.43 523.03,-427.43 523.03,-427.43 529.03,-427.43 535.03,-433.43 535.03,-439.43 535.03,-439.43 535.03,-451.43 535.03,-451.43 535.03,-457.43 529.03,-463.43 523.03,-463.43"/>
<text xml:space="preserve" text-anchor="start" x="423.64" y="-445.93" font-family="Helvetica,sans-Serif" font-weight="bold" font-size="10.00">2× SwiGLU Transition</text>
<text xml:space="preserve" text-anchor="start" x="434.89" y="-437.83" font-family="Helvetica,sans-Serif" font-size="8.00">dim 256, 4× expansion</text>
</g>
<!-- concat_pair&#45;&gt;pair_trans -->
<g id="edge9" class="edge">
<title>concat_pair&#45;&gt;pair_trans</title>
<path fill="none" stroke="#555555" d="M368.86,-508.67C388.44,-497.2 414.25,-482.06 435.52,-469.59"/>
<polygon fill="#555555" stroke="#555555" points="437.08,-472.73 443.93,-464.65 433.54,-466.69 437.08,-472.73"/>
</g>
<!-- z_cond -->
<g id="node14" class="node">
<title>z_cond</title>
<path fill="#c8e6c9" stroke="#333333" stroke-width="1.2" d="M524.53,-388.17C524.53,-388.17 425.5,-388.17 425.5,-388.17 419.5,-388.17 413.5,-382.17 413.5,-376.17 413.5,-376.17 413.5,-364.17 413.5,-364.17 413.5,-358.17 419.5,-352.17 425.5,-352.17 425.5,-352.17 524.53,-352.17 524.53,-352.17 530.53,-352.17 536.53,-358.17 536.53,-364.17 536.53,-364.17 536.53,-376.17 536.53,-376.17 536.53,-382.17 530.53,-388.17 524.53,-388.17"/>
<text xml:space="preserve" text-anchor="start" x="458.14" y="-371.67" font-family="Helvetica,sans-Serif" font-weight="bold" font-size="10.00">z_cond</text>
<text xml:space="preserve" text-anchor="start" x="422.14" y="-361.67" font-family="Helvetica,sans-Serif" font-size="10.00">LN(256) → [b, n, n, 256]</text>
</g>
<!-- pair_trans&#45;&gt;z_cond -->
<g id="edge10" class="edge">
<title>pair_trans&#45;&gt;z_cond</title>
<path fill="none" stroke="#555555" d="M475.01,-427.07C475.01,-419.01 475.01,-409.21 475.01,-400.08"/>
<polygon fill="#555555" stroke="#555555" points="478.52,-400.18 475.02,-390.18 471.52,-400.18 478.52,-400.18"/>
</g>
<!-- z_cond&#45;&gt;encoder -->
<g id="edge13" class="edge">
<title>z_cond&#45;&gt;encoder</title>
<path fill="none" stroke="#555555" d="M508.59,-351.74C531.47,-339.86 562.37,-323.81 589.17,-309.89"/>
<polygon fill="#555555" stroke="#555555" points="590.61,-313.09 597.87,-305.38 587.38,-306.88 590.61,-313.09"/>
<text xml:space="preserve" text-anchor="middle" x="589.89" y="-323.37" font-family="Helvetica,sans-Serif" font-size="9.00">atom pair bias</text>
</g>
<!-- z_cond&#45;&gt;diff_transformer -->
<g id="edge18" class="edge">
<title>z_cond&#45;&gt;diff_transformer</title>
<path fill="none" stroke="#555555" d="M476.14,-351.7C478.09,-321.61 482.11,-259.4 484.68,-219.64"/>
<polygon fill="#555555" stroke="#555555" points="488.16,-220.04 485.31,-209.84 481.17,-219.59 488.16,-220.04"/>
<text xml:space="preserve" text-anchor="middle" x="500.03" y="-275.18" font-family="Helvetica,sans-Serif" font-size="9.00">pair bias</text>
</g>
<!-- encoder&#45;&gt;diff_transformer -->
<g id="edge15" class="edge">
<title>encoder&#45;&gt;diff_transformer</title>
<path fill="none" stroke="#555555" d="M604.98,-253.05C584.75,-241.12 560.32,-226.71 538.95,-214.1"/>
<polygon fill="#555555" stroke="#555555" points="540.74,-211.1 530.35,-209.03 537.19,-217.13 540.74,-211.1"/>
<text xml:space="preserve" text-anchor="middle" x="603.69" y="-226.98" font-family="Helvetica,sans-Serif" font-size="9.00">token repr [768]</text>
</g>
<!-- struct_proj -->
<g id="node16" class="node">
<title>struct_proj</title>
<path fill="#fff3e0" stroke="#333333" stroke-width="1.2" d="M974.28,-296.85C974.28,-296.85 795.75,-296.85 795.75,-296.85 789.75,-296.85 783.75,-290.85 783.75,-284.85 783.75,-284.85 783.75,-272.85 783.75,-272.85 783.75,-266.85 789.75,-260.85 795.75,-260.85 795.75,-260.85 974.28,-260.85 974.28,-260.85 980.28,-260.85 986.28,-266.85 986.28,-272.85 986.28,-272.85 986.28,-284.85 986.28,-284.85 986.28,-290.85 980.28,-296.85 974.28,-296.85"/>
<text xml:space="preserve" text-anchor="start" x="792.39" y="-280.35" font-family="Helvetica,sans-Serif" font-weight="bold" font-size="10.00">structure_cond_to_token_structure_proj</text>
<text xml:space="preserve" text-anchor="start" x="831.39" y="-270.35" font-family="Helvetica,sans-Serif" font-size="10.00">Linear(384, 768, no bias)</text>
</g>
<!-- struct_proj&#45;&gt;diff_transformer -->
<g id="edge16" class="edge">
<title>struct_proj&#45;&gt;diff_transformer</title>
<path fill="none" stroke="#555555" stroke-dasharray="5,2" d="M811.09,-260.32C747.39,-245.21 654.95,-223.29 585.08,-206.72"/>
<polygon fill="#555555" stroke="#555555" points="586.08,-203.36 575.54,-204.46 584.46,-210.17 586.08,-203.36"/>
<text xml:space="preserve" text-anchor="middle" x="730.57" y="-226.98" font-family="Helvetica,sans-Serif" font-size="9.00">+ structure cond</text>
</g>
<!-- diff_transformer&#45;&gt;decoder -->
<g id="edge19" class="edge">
<title>diff_transformer&#45;&gt;decoder</title>
<path fill="none" stroke="#555555" d="M452.5,-156.75C439.4,-147.37 424.42,-136.63 411.02,-127.04"/>
<polygon fill="#555555" stroke="#555555" points="413.43,-124.46 403.26,-121.48 409.35,-130.15 413.43,-124.46"/>
</g>
<!-- output -->
<g id="node19" class="node">
<title>output</title>
<ellipse fill="#c8e6c9" stroke="#333333" stroke-width="1.2" cx="373.01" cy="-20.25" rx="102.91" ry="20.25"/>
<text xml:space="preserve" text-anchor="start" x="308.89" y="-21.75" font-family="Helvetica,sans-Serif" font-weight="bold" font-size="10.00">Denoised atom coordinates</text>
<text xml:space="preserve" text-anchor="start" x="340.01" y="-11.75" font-family="Helvetica,sans-Serif" font-size="10.00">[b, n_atoms, 3]</text>
</g>
<!-- decoder&#45;&gt;output -->
<g id="edge21" class="edge">
<title>decoder&#45;&gt;output</title>
<path fill="none" stroke="#555555" d="M373.01,-77.3C373.01,-69.66 373.01,-60.79 373.01,-52.4"/>
<polygon fill="#555555" stroke="#555555" points="376.52,-52.55 373.02,-42.55 369.52,-52.55 376.52,-52.55"/>
</g>
</g>
</svg>
