<?xml version="1.0" encoding="UTF-8" standalone="no"?>
<!DOCTYPE svg PUBLIC "-//W3C//DTD SVG 1.1//EN"
 "http://www.w3.org/Graphics/SVG/1.1/DTD/svg11.dtd">
<!-- Generated by graphviz version 14.1.4 (20260321.0153)
 -->
<!-- Title: DiffusionTransformerBlock Pages: 1 -->
<svg width="627pt" height="767pt"
 viewBox="0.00 0.00 627.00 767.00" xmlns="http://www.w3.org/2000/svg" xmlns:xlink="http://www.w3.org/1999/xlink">
<g id="graph0" class="graph" transform="scale(1 1) rotate(0) translate(21.6 745.74)">
<title>DiffusionTransformerBlock</title>
<text xml:space="preserve" text-anchor="start" x="184.38" y="-708.79" font-family="Helvetica,sans-Serif" font-weight="bold" font-size="13.00">Diffusion Transformer Block (×16)</text>
<text xml:space="preserve" text-anchor="start" x="207.62" y="-699.59" font-family="Helvetica,sans-Serif" font-size="9.00">16 heads, 48 head_dim, 768 working dim</text>
<g id="clust1" class="cluster">
<title>cluster_attn</title>
<polygon fill="none" stroke="#999999" stroke-dasharray="5,2" points="8,-301.25 8,-617.89 291,-617.89 291,-301.25 8,-301.25"/>
<text xml:space="preserve" text-anchor="start" x="70" y="-605.39" font-family="Helvetica,sans-Serif" font-weight="bold" font-size="10.00">1. Conditioned Pair&#45;Bias Attention</text>
</g>
<g id="clust2" class="cluster">
<title>cluster_trans</title>
<polygon fill="none" stroke="#999999" stroke-dasharray="5,2" points="369,-65 369,-282.25 541,-282.25 541,-65 369,-65"/>
<text xml:space="preserve" text-anchor="start" x="395.38" y="-269.75" font-family="Helvetica,sans-Serif" font-weight="bold" font-size="10.00">2. Conditioned Transition</text>
</g>
<!-- x_in -->
<g id="node1" class="node">
<title>x_in</title>
<path fill="#e3f2fd" stroke="#333333" stroke-width="1.2" d="M161.76,-691.89C161.76,-691.89 124.23,-691.89 124.23,-691.89 118.23,-691.89 112.23,-685.89 112.23,-679.89 112.23,-679.89 112.23,-667.89 112.23,-667.89 112.23,-661.89 118.23,-655.89 124.23,-655.89 124.23,-655.89 161.76,-655.89 161.76,-655.89 167.76,-655.89 173.76,-661.89 173.76,-667.89 173.76,-667.89 173.76,-679.89 173.76,-679.89 173.76,-685.89 167.76,-691.89 161.76,-691.89"/>
<text xml:space="preserve" text-anchor="start" x="140.38" y="-675.39" font-family="Helvetica,sans-Serif" font-weight="bold" font-size="10.00">x</text>
<text xml:space="preserve" text-anchor="start" x="120.88" y="-665.39" font-family="Helvetica,sans-Serif" font-size="10.00">[b, n, 768]</text>
</g>
<!-- adaln1 -->
<g id="node4" class="node">
<title>adaln1</title>
<path fill="#fff3e0" stroke="#333333" stroke-width="1.2" d="M209.39,-590.64C209.39,-590.64 76.61,-590.64 76.61,-590.64 70.61,-590.64 64.61,-584.64 64.61,-578.64 64.61,-578.64 64.61,-566.64 64.61,-566.64 64.61,-560.64 70.61,-554.64 76.61,-554.64 76.61,-554.64 209.39,-554.64 209.39,-554.64 215.39,-554.64 221.39,-560.64 221.39,-566.64 221.39,-566.64 221.39,-578.64 221.39,-578.64 221.39,-584.64 215.39,-590.64 209.39,-590.64"/>
<text xml:space="preserve" text-anchor="start" x="107.75" y="-577.14" font-family="Helvetica,sans-Serif" font-weight="bold" font-size="10.00">AdaLayerNorm</text>
<text xml:space="preserve" text-anchor="start" x="73.25" y="-569.04" font-family="Helvetica,sans-Serif" font-size="8.00">lin_s_merged(384→1536): scale + shift</text>
<text xml:space="preserve" text-anchor="start" x="98" y="-561.04" font-family="Helvetica,sans-Serif" font-size="8.00">LN(x) × (1 + scale) + shift</text>
</g>
<!-- x_in&#45;&gt;adaln1 -->
<g id="edge1" class="edge">
<title>x_in&#45;&gt;adaln1</title>
<path fill="none" stroke="#555555" d="M143,-655.6C143,-640.96 143,-619.67 143,-602.46"/>
<polygon fill="#555555" stroke="#555555" points="146.5,-602.58 143,-592.58 139.5,-602.58 146.5,-602.58"/>
</g>
<!-- s_cond -->
<g id="node2" class="node">
<title>s_cond</title>
<ellipse fill="#fff9c4" stroke="#333333" stroke-width="1.2" cx="475" cy="-673.89" rx="43.51" ry="20.25"/>
<text xml:space="preserve" text-anchor="start" x="458.12" y="-675.39" font-family="Helvetica,sans-Serif" font-weight="bold" font-size="10.00">s_cond</text>
<text xml:space="preserve" text-anchor="start" x="452.88" y="-665.39" font-family="Helvetica,sans-Serif" font-size="10.00">[b, n, 384]</text>
</g>
<!-- s_cond&#45;&gt;adaln1 -->
<g id="edge2" class="edge">
<title>s_cond&#45;&gt;adaln1</title>
<path fill="none" stroke="#555555" d="M438.31,-662.61C399.8,-651.74 337.53,-634 284,-617.89 259.29,-610.46 232.22,-602.03 208.47,-594.54"/>
<polygon fill="#555555" stroke="#555555" points="209.85,-591.31 199.26,-591.63 207.74,-597.98 209.85,-591.31"/>
<text xml:space="preserve" text-anchor="middle" x="361.88" y="-627.09" font-family="Helvetica,sans-Serif" font-size="9.00">scale,shift</text>
</g>
<!-- gate1 -->
<g id="node8" class="node">
<title>gate1</title>
<path fill="#fff3e0" stroke="#333333" stroke-width="1.2" d="M271.26,-345.25C271.26,-345.25 176.74,-345.25 176.74,-345.25 170.74,-345.25 164.74,-339.25 164.74,-333.25 164.74,-333.25 164.74,-321.25 164.74,-321.25 164.74,-315.25 170.74,-309.25 176.74,-309.25 176.74,-309.25 271.26,-309.25 271.26,-309.25 277.26,-309.25 283.26,-315.25 283.26,-321.25 283.26,-321.25 283.26,-333.25 283.26,-333.25 283.26,-339.25 277.26,-345.25 271.26,-345.25"/>
<text xml:space="preserve" text-anchor="start" x="193.25" y="-331.75" font-family="Helvetica,sans-Serif" font-weight="bold" font-size="10.00">Gated Output</text>
<text xml:space="preserve" text-anchor="start" x="173.38" y="-323.65" font-family="Helvetica,sans-Serif" font-size="8.00">gate = σ(gate_proj(s_cond))</text>
<text xml:space="preserve" text-anchor="start" x="182" y="-315.65" font-family="Helvetica,sans-Serif" font-size="8.00">x += to_out(attn) × gate</text>
</g>
<!-- s_cond&#45;&gt;gate1 -->
<g id="edge8" class="edge">
<title>s_cond&#45;&gt;gate1</title>
<path fill="none" stroke="#555555" d="M466.82,-653.55C456.27,-629.27 436.78,-586.64 416,-552.39 369.77,-476.2 357.62,-456.33 297,-391 284.44,-377.46 269.12,-363.92 255.77,-352.9"/>
<polygon fill="#555555" stroke="#555555" points="258.04,-350.24 248.07,-346.66 253.63,-355.68 258.04,-350.24"/>
<text xml:space="preserve" text-anchor="middle" x="401.97" y="-490.39" font-family="Helvetica,sans-Serif" font-size="9.00">gate</text>
</g>
<!-- adaln2 -->
<g id="node9" class="node">
<title>adaln2</title>
<path fill="#fff3e0" stroke="#333333" stroke-width="1.2" d="M505.39,-255C505.39,-255 396.61,-255 396.61,-255 390.61,-255 384.61,-249 384.61,-243 384.61,-243 384.61,-231 384.61,-231 384.61,-225 390.61,-219 396.61,-219 396.61,-219 505.39,-219 505.39,-219 511.39,-219 517.39,-225 517.39,-231 517.39,-231 517.39,-243 517.39,-243 517.39,-249 511.39,-255 505.39,-255"/>
<text xml:space="preserve" text-anchor="start" x="415.75" y="-237.5" font-family="Helvetica,sans-Serif" font-weight="bold" font-size="10.00">AdaLayerNorm</text>
<text xml:space="preserve" text-anchor="start" x="393.25" y="-229.4" font-family="Helvetica,sans-Serif" font-size="8.00">ada_ln(384→1536): scale + shift</text>
</g>
<!-- s_cond&#45;&gt;adaln2 -->
<g id="edge10" class="edge">
<title>s_cond&#45;&gt;adaln2</title>
<path fill="none" stroke="#555555" d="M484.49,-653.64C493.28,-634.01 505,-602.44 505,-573.64 505,-573.64 505,-573.64 505,-326.25 505,-302.76 490.91,-280.24 477.12,-263.83"/>
<polygon fill="#555555" stroke="#555555" points="479.86,-261.64 470.59,-256.5 474.63,-266.29 479.86,-261.64"/>
<text xml:space="preserve" text-anchor="middle" x="525.25" y="-446.2" font-family="Helvetica,sans-Serif" font-size="9.00">scale,shift</text>
</g>
<!-- gate2 -->
<g id="node11" class="node">
<title>gate2</title>
<path fill="#fff3e0" stroke="#333333" stroke-width="1.2" d="M521.39,-109C521.39,-109 388.61,-109 388.61,-109 382.61,-109 376.61,-103 376.61,-97 376.61,-97 376.61,-85 376.61,-85 376.61,-79 382.61,-73 388.61,-73 388.61,-73 521.39,-73 521.39,-73 527.39,-73 533.39,-79 533.39,-85 533.39,-85 533.39,-97 533.39,-97 533.39,-103 527.39,-109 521.39,-109"/>
<text xml:space="preserve" text-anchor="start" x="424.25" y="-95.5" font-family="Helvetica,sans-Serif" font-weight="bold" font-size="10.00">Gated Output</text>
<text xml:space="preserve" text-anchor="start" x="385.25" y="-87.4" font-family="Helvetica,sans-Serif" font-size="8.00">gate = σ(linear_s(s_cond)) [bias init −2]</text>
<text xml:space="preserve" text-anchor="start" x="417.88" y="-79.4" font-family="Helvetica,sans-Serif" font-size="8.00">x += transition × gate</text>
</g>
<!-- s_cond&#45;&gt;gate2 -->
<g id="edge13" class="edge">
<title>s_cond&#45;&gt;gate2</title>
<path fill="none" stroke="#555555" d="M502.8,-657.89C529.56,-641.2 566,-611.51 566,-573.64 566,-573.64 566,-573.64 566,-163 566,-140.89 550.17,-125.35 530.47,-114.58"/>
<polygon fill="#555555" stroke="#555555" points="532.09,-111.47 521.57,-110.18 528.99,-117.75 532.09,-111.47"/>
<text xml:space="preserve" text-anchor="middle" x="575" y="-364.45" font-family="Helvetica,sans-Serif" font-size="9.00">gate</text>
</g>
<!-- z_cond -->
<g id="node3" class="node">
<title>z_cond</title>
<ellipse fill="#fff9c4" stroke="#333333" stroke-width="1.2" cx="350" cy="-572.64" rx="51.46" ry="20.25"/>
<text xml:space="preserve" text-anchor="start" x="333.12" y="-574.14" font-family="Helvetica,sans-Serif" font-weight="bold" font-size="10.00">z_cond</text>
<text xml:space="preserve" text-anchor="start" x="322.25" y="-564.14" font-family="Helvetica,sans-Serif" font-size="10.00">[b, n, n, 256]</text>
</g>
<!-- pair_bias -->
<g id="node6" class="node">
<title>pair_bias</title>
<path fill="#e8eaf6" stroke="#333333" stroke-width="1.2" d="M270.76,-512.07C270.76,-512.07 179.23,-512.07 179.23,-512.07 173.23,-512.07 167.24,-506.07 167.24,-500.07 167.24,-500.07 167.24,-488.07 167.24,-488.07 167.24,-482.07 173.24,-476.07 179.23,-476.07 179.23,-476.07 270.76,-476.07 270.76,-476.07 276.76,-476.07 282.76,-482.07 282.76,-488.07 282.76,-488.07 282.76,-500.07 282.76,-500.07 282.76,-506.07 276.76,-512.07 270.76,-512.07"/>
<text xml:space="preserve" text-anchor="start" x="200.25" y="-498.57" font-family="Helvetica,sans-Serif" font-weight="bold" font-size="10.00">pair_linear</text>
<text xml:space="preserve" text-anchor="start" x="175.88" y="-490.47" font-family="Helvetica,sans-Serif" font-size="8.00">LN(256) → Linear(256, 16)</text>
<text xml:space="preserve" text-anchor="start" x="192.38" y="-482.47" font-family="Helvetica,sans-Serif" font-size="8.00">per&#45;head attn bias</text>
</g>
<!-- z_cond&#45;&gt;pair_bias -->
<g id="edge4" class="edge">
<title>z_cond&#45;&gt;pair_bias</title>
<path fill="none" stroke="#555555" d="M322.88,-555.03C305.39,-544.31 282.39,-530.23 263.08,-518.4"/>
<polygon fill="#555555" stroke="#555555" points="265.02,-515.48 254.66,-513.24 261.36,-521.45 265.02,-515.48"/>
</g>
<!-- qkv -->
<g id="node5" class="node">
<title>qkv</title>
<path fill="#e8eaf6" stroke="#333333" stroke-width="1.2" d="M125.76,-515.39C125.76,-515.39 28.23,-515.39 28.23,-515.39 22.23,-515.39 16.23,-509.39 16.23,-503.39 16.23,-503.39 16.23,-484.75 16.23,-484.75 16.23,-478.75 22.23,-472.75 28.23,-472.75 28.23,-472.75 125.76,-472.75 125.76,-472.75 131.76,-472.75 137.76,-478.75 137.76,-484.75 137.76,-484.75 137.76,-503.39 137.76,-503.39 137.76,-509.39 131.76,-515.39 125.76,-515.39"/>
<text xml:space="preserve" text-anchor="start" x="61.62" y="-502.57" font-family="Helvetica,sans-Serif" font-weight="bold" font-size="10.00">to_qkv</text>
<text xml:space="preserve" text-anchor="start" x="44.75" y="-494.47" font-family="Helvetica,sans-Serif" font-size="8.00">Linear(768, 2304)</text>
<text xml:space="preserve" text-anchor="start" x="24.88" y="-486.47" font-family="Helvetica,sans-Serif" font-size="8.00">16 heads × 48 dim × 3 (q,k,v)</text>
<text xml:space="preserve" text-anchor="start" x="47.38" y="-478.47" font-family="Helvetica,sans-Serif" font-size="8.00">+ q_bias [16, 48]</text>
</g>
<!-- adaln1&#45;&gt;qkv -->
<g id="edge3" class="edge">
<title>adaln1&#45;&gt;qkv</title>
<path fill="none" stroke="#555555" d="M128.02,-554.27C120.43,-545.46 111.01,-534.53 102.33,-524.46"/>
<polygon fill="#555555" stroke="#555555" points="105.14,-522.35 95.96,-517.06 99.83,-526.92 105.14,-522.35"/>
</g>
<!-- sdpa -->
<g id="node7" class="node">
<title>sdpa</title>
<path fill="#f3e5f5" stroke="#333333" stroke-width="1.2" d="M270.64,-427C270.64,-427 163.36,-427 163.36,-427 157.36,-427 151.36,-421 151.36,-415 151.36,-415 151.36,-403 151.36,-403 151.36,-397 157.36,-391 163.36,-391 163.36,-391 270.64,-391 270.64,-391 276.64,-391 282.64,-397 282.64,-403 282.64,-403 282.64,-415 282.64,-415 282.64,-421 276.64,-427 270.64,-427"/>
<text xml:space="preserve" text-anchor="start" x="203.5" y="-409.5" font-family="Helvetica,sans-Serif" font-weight="bold" font-size="10.00">SDPA</text>
<text xml:space="preserve" text-anchor="start" x="160" y="-401.4" font-family="Helvetica,sans-Serif" font-size="8.00">softmax(q·kᵀ/√48 + pair_bias) · v</text>
</g>
<!-- qkv&#45;&gt;sdpa -->
<g id="edge5" class="edge">
<title>qkv&#45;&gt;sdpa</title>
<path fill="none" stroke="#555555" d="M111.97,-472.32C132.01,-460.43 157.22,-445.47 177.92,-433.19"/>
<polygon fill="#555555" stroke="#555555" points="179.56,-436.29 186.37,-428.17 175.99,-430.27 179.56,-436.29"/>
</g>
<!-- pair_bias&#45;&gt;sdpa -->
<g id="edge6" class="edge">
<title>pair_bias&#45;&gt;sdpa</title>
<path fill="none" stroke="#555555" d="M223.34,-475.86C222.31,-465.13 220.95,-451.05 219.76,-438.67"/>
<polygon fill="#555555" stroke="#555555" points="223.27,-438.6 218.83,-428.98 216.3,-439.27 223.27,-438.6"/>
</g>
<!-- sdpa&#45;&gt;gate1 -->
<g id="edge7" class="edge">
<title>sdpa&#45;&gt;gate1</title>
<path fill="none" stroke="#555555" d="M218.52,-390.7C219.38,-380.84 220.49,-368.23 221.48,-356.93"/>
<polygon fill="#555555" stroke="#555555" points="224.94,-357.57 222.33,-347.3 217.97,-356.96 224.94,-357.57"/>
</g>
<!-- gate1&#45;&gt;adaln2 -->
<g id="edge9" class="edge">
<title>gate1&#45;&gt;adaln2</title>
<path fill="none" stroke="#555555" d="M269.12,-308.71C305.4,-294.6 356.55,-274.72 395.37,-259.63"/>
<polygon fill="#555555" stroke="#555555" points="396.5,-262.94 404.56,-256.06 393.97,-256.42 396.5,-262.94"/>
</g>
<!-- swiglu -->
<g id="node10" class="node">
<title>swiglu</title>
<path fill="#e8eaf6" stroke="#333333" stroke-width="1.2" d="M509.89,-182C509.89,-182 392.11,-182 392.11,-182 386.11,-182 380.11,-176 380.11,-170 380.11,-170 380.11,-158 380.11,-158 380.11,-152 386.11,-146 392.11,-146 392.11,-146 509.89,-146 509.89,-146 515.89,-146 521.89,-152 521.89,-158 521.89,-158 521.89,-170 521.89,-170 521.89,-176 515.89,-182 509.89,-182"/>
<text xml:space="preserve" text-anchor="start" x="431.88" y="-168.5" font-family="Helvetica,sans-Serif" font-weight="bold" font-size="10.00">SwiGLU</text>
<text xml:space="preserve" text-anchor="start" x="393.62" y="-160.4" font-family="Helvetica,sans-Serif" font-size="8.00">linear_a(768, 3072) → chunk(2)</text>
<text xml:space="preserve" text-anchor="start" x="388.75" y="-152.4" font-family="Helvetica,sans-Serif" font-size="8.00">SiLU(a) × b → linear_b(1536, 768)</text>
</g>
<!-- adaln2&#45;&gt;swiglu -->
<g id="edge11" class="edge">
<title>adaln2&#45;&gt;swiglu</title>
<path fill="none" stroke="#555555" d="M451,-218.45C451,-210.97 451,-202.05 451,-193.65"/>
<polygon fill="#555555" stroke="#555555" points="454.5,-193.86 451,-183.86 447.5,-193.86 454.5,-193.86"/>
</g>
<!-- swiglu&#45;&gt;gate2 -->
<g id="edge12" class="edge">
<title>swiglu&#45;&gt;gate2</title>
<path fill="none" stroke="#555555" d="M451.99,-145.45C452.41,-137.97 452.91,-129.05 453.39,-120.65"/>
<polygon fill="#555555" stroke="#555555" points="456.87,-121.04 453.94,-110.86 449.88,-120.65 456.87,-121.04"/>
</g>
<!-- x_out -->
<g id="node12" class="node">
<title>x_out</title>
<path fill="#c8e6c9" stroke="#333333" stroke-width="1.2" d="M477.51,-36C477.51,-36 432.49,-36 432.49,-36 426.49,-36 420.49,-30 420.49,-24 420.49,-24 420.49,-12 420.49,-12 420.49,-6 426.49,0 432.49,0 432.49,0 477.51,0 477.51,0 483.51,0 489.51,-6 489.51,-12 489.51,-12 489.51,-24 489.51,-24 489.51,-30 483.51,-36 477.51,-36"/>
<text xml:space="preserve" text-anchor="start" x="429.12" y="-19.5" font-family="Helvetica,sans-Serif" font-weight="bold" font-size="10.00">x (updated)</text>
<text xml:space="preserve" text-anchor="start" x="432.88" y="-9.5" font-family="Helvetica,sans-Serif" font-size="10.00">[b, n, 768]</text>
</g>
<!-- gate2&#45;&gt;x_out -->
<g id="edge14" class="edge">
<title>gate2&#45;&gt;x_out</title>
<path fill="none" stroke="#555555" d="M455,-72.45C455,-64.97 455,-56.05 455,-47.65"/>
<polygon fill="#555555" stroke="#555555" points="458.5,-47.86 455,-37.86 451.5,-47.86 458.5,-47.86"/>
</g>
</g>
</svg>
