<?xml version="1.0" encoding="UTF-8" standalone="no"?>
<!DOCTYPE svg PUBLIC "-//W3C//DTD SVG 1.1//EN"
 "http://www.w3.org/Graphics/SVG/1.1/DTD/svg11.dtd">
<!-- Generated by graphviz version 14.1.4 (20260321.0153)
 -->
<!-- Title: ConfidenceHead Pages: 1 -->
<svg width="656pt" height="787pt"
 viewBox="0.00 0.00 656.00 787.00" xmlns="http://www.w3.org/2000/svg" xmlns:xlink="http://www.w3.org/1999/xlink">
<g id="graph0" class="graph" transform="scale(1 1) rotate(0) translate(21.6 764.93)">
<title>ConfidenceHead</title>
<text xml:space="preserve" text-anchor="start" x="251.07" y="-727.98" font-family="Helvetica,sans-Serif" font-weight="bold" font-size="13.00">Confidence Head</text>
<text xml:space="preserve" text-anchor="start" x="228.57" y="-718.78" font-family="Helvetica,sans-Serif" font-size="9.00">confidence_head.pt &#160;(~14.8M params)</text>
<g id="clust1" class="cluster">
<title>cluster_pairformer</title>
<polygon fill="none" stroke="#999999" stroke-dasharray="5,2" points="277.39,-93.89 277.39,-459.78 484.39,-459.78 484.39,-93.89 277.39,-93.89"/>
<text xml:space="preserve" text-anchor="start" x="334.01" y="-447.28" font-family="Helvetica,sans-Serif" font-weight="bold" font-size="10.00">4× Pairformer Block</text>
</g>
<g id="clust2" class="cluster">
<title>cluster_outputs</title>
<polygon fill="none" stroke="#999999" stroke-dasharray="5,2" points="176.39,-8 176.39,-85.89 604.39,-85.89 604.39,-8 176.39,-8"/>
<text xml:space="preserve" text-anchor="start" x="358.51" y="-73.39" font-family="Helvetica,sans-Serif" font-weight="bold" font-size="10.00">Output Heads</text>
</g>
<!-- single_repr -->
<g id="node1" class="node">
<title>single_repr</title>
<path fill="#e3f2fd" stroke="#333333" stroke-width="1.2" d="M450.28,-641.33C450.28,-641.33 404.5,-641.33 404.5,-641.33 398.5,-641.33 392.5,-635.33 392.5,-629.33 392.5,-629.33 392.5,-617.33 392.5,-617.33 392.5,-611.33 398.5,-605.33 404.5,-605.33 404.5,-605.33 450.28,-605.33 450.28,-605.33 456.28,-605.33 462.28,-611.33 462.28,-617.33 462.28,-617.33 462.28,-629.33 462.28,-629.33 462.28,-635.33 456.28,-641.33 450.28,-641.33"/>
<text xml:space="preserve" text-anchor="start" x="401.14" y="-624.83" font-family="Helvetica,sans-Serif" font-weight="bold" font-size="10.00">single_repr</text>
<text xml:space="preserve" text-anchor="start" x="405.26" y="-614.83" font-family="Helvetica,sans-Serif" font-size="10.00">[b, n, 384]</text>
</g>
<!-- outer_sum -->
<g id="node4" class="node">
<title>outer_sum</title>
<path fill="#fff3e0" stroke="#333333" stroke-width="1.2" d="M431.03,-569.33C431.03,-569.33 305.75,-569.33 305.75,-569.33 299.75,-569.33 293.75,-563.33 293.75,-557.33 293.75,-557.33 293.75,-545.33 293.75,-545.33 293.75,-539.33 299.75,-533.33 305.75,-533.33 305.75,-533.33 431.03,-533.33 431.03,-533.33 437.03,-533.33 443.03,-539.33 443.03,-545.33 443.03,-545.33 443.03,-557.33 443.03,-557.33 443.03,-563.33 437.03,-569.33 431.03,-569.33"/>
<text xml:space="preserve" text-anchor="start" x="328.64" y="-555.83" font-family="Helvetica,sans-Serif" font-weight="bold" font-size="10.00">Pair Initialization</text>
<text xml:space="preserve" text-anchor="start" x="302.39" y="-547.73" font-family="Helvetica,sans-Serif" font-size="8.00">single_to_pair_proj: Linear(384, 512)</text>
<text xml:space="preserve" text-anchor="start" x="320.01" y="-539.73" font-family="Helvetica,sans-Serif" font-size="8.00">chunk → 2×256, outer sum</text>
</g>
<!-- single_repr&#45;&gt;outer_sum -->
<g id="edge1" class="edge">
<title>single_repr&#45;&gt;outer_sum</title>
<path fill="none" stroke="#555555" d="M412.81,-605.03C406.12,-597.09 398.05,-587.52 390.63,-578.71"/>
<polygon fill="#555555" stroke="#555555" points="393.31,-576.47 384.19,-571.08 387.96,-580.98 393.31,-576.47"/>
</g>
<!-- attn_pb -->
<g id="node9" class="node">
<title>attn_pb</title>
<path fill="#e8eaf6" stroke="#333333" stroke-width="1.2" d="M464.28,-360.53C464.28,-360.53 328.5,-360.53 328.5,-360.53 322.5,-360.53 316.5,-354.53 316.5,-348.53 316.5,-348.53 316.5,-336.53 316.5,-336.53 316.5,-330.53 322.5,-324.53 328.5,-324.53 328.5,-324.53 464.28,-324.53 464.28,-324.53 470.28,-324.53 476.28,-330.53 476.28,-336.53 476.28,-336.53 476.28,-348.53 476.28,-348.53 476.28,-354.53 470.28,-360.53 464.28,-360.53"/>
<text xml:space="preserve" text-anchor="start" x="352.14" y="-343.03" font-family="Helvetica,sans-Serif" font-weight="bold" font-size="10.00">attention_pair_bias</text>
<text xml:space="preserve" text-anchor="start" x="325.14" y="-334.93" font-family="Helvetica,sans-Serif" font-size="8.00">16 heads, 24 head_dim (same as trunk)</text>
</g>
<!-- single_repr&#45;&gt;attn_pb -->
<g id="edge8" class="edge">
<title>single_repr&#45;&gt;attn_pb</title>
<path fill="none" stroke="#555555" d="M440.12,-605.18C446.68,-595.25 454,-582.21 457.39,-569.33 461.47,-553.86 459.87,-549.14 457.39,-533.33 448.06,-473.83 423.24,-407.53 408.29,-371.16"/>
<polygon fill="#555555" stroke="#555555" points="411.66,-370.15 404.57,-362.27 405.2,-372.85 411.66,-370.15"/>
</g>
<!-- pair_repr -->
<g id="node2" class="node">
<title>pair_repr</title>
<path fill="#e3f2fd" stroke="#333333" stroke-width="1.2" d="M60.78,-569.33C60.78,-569.33 12,-569.33 12,-569.33 6,-569.33 0,-563.33 0,-557.33 0,-557.33 0,-545.33 0,-545.33 0,-539.33 6,-533.33 12,-533.33 12,-533.33 60.78,-533.33 60.78,-533.33 66.78,-533.33 72.78,-539.33 72.78,-545.33 72.78,-545.33 72.78,-557.33 72.78,-557.33 72.78,-563.33 66.78,-569.33 60.78,-569.33"/>
<text xml:space="preserve" text-anchor="start" x="15.39" y="-552.83" font-family="Helvetica,sans-Serif" font-weight="bold" font-size="10.00">pair_repr</text>
<text xml:space="preserve" text-anchor="start" x="8.64" y="-542.83" font-family="Helvetica,sans-Serif" font-size="10.00">[b, n, n, 256]</text>
</g>
<!-- add_pair -->
<g id="node7" class="node">
<title>add_pair</title>
<ellipse fill="#e8f5e9" stroke="#333333" stroke-width="1.2" cx="275.39" cy="-482.93" rx="14.4" ry="14.4"/>
<text xml:space="preserve" text-anchor="start" x="272.39" y="-480.3" font-family="Helvetica,sans-Serif" font-size="10.00">+</text>
</g>
<!-- pair_repr&#45;&gt;add_pair -->
<g id="edge2" class="edge">
<title>pair_repr&#45;&gt;add_pair</title>
<path fill="none" stroke="#555555" d="M73.35,-537.7C78.06,-536.18 82.83,-534.69 87.39,-533.33 145.22,-516.11 213.97,-498.85 250.18,-490"/>
<polygon fill="#555555" stroke="#555555" points="250.79,-493.46 259.68,-487.69 249.14,-486.65 250.79,-493.46"/>
</g>
<!-- atom_coords -->
<g id="node3" class="node">
<title>atom_coords</title>
<path fill="#e3f2fd" stroke="#333333" stroke-width="1.2" d="M232.9,-713.33C232.9,-713.33 133.88,-713.33 133.88,-713.33 127.88,-713.33 121.88,-707.33 121.88,-701.33 121.88,-701.33 121.88,-689.33 121.88,-689.33 121.88,-683.33 127.88,-677.33 133.88,-677.33 133.88,-677.33 232.9,-677.33 232.9,-677.33 238.9,-677.33 244.9,-683.33 244.9,-689.33 244.9,-689.33 244.9,-701.33 244.9,-701.33 244.9,-707.33 238.9,-713.33 232.9,-713.33"/>
<text xml:space="preserve" text-anchor="start" x="130.51" y="-696.83" font-family="Helvetica,sans-Serif" font-weight="bold" font-size="10.00">Predicted atom coords</text>
<text xml:space="preserve" text-anchor="start" x="150.39" y="-686.83" font-family="Helvetica,sans-Serif" font-size="10.00">[b, n_atoms, 3]</text>
</g>
<!-- dist_bins -->
<g id="node5" class="node">
<title>dist_bins</title>
<path fill="#fff3e0" stroke="#333333" stroke-width="1.2" d="M224.65,-641.33C224.65,-641.33 142.12,-641.33 142.12,-641.33 136.12,-641.33 130.12,-635.33 130.12,-629.33 130.12,-629.33 130.12,-617.33 130.12,-617.33 130.12,-611.33 136.12,-605.33 142.12,-605.33 142.12,-605.33 224.65,-605.33 224.65,-605.33 230.65,-605.33 236.65,-611.33 236.65,-617.33 236.65,-617.33 236.65,-629.33 236.65,-629.33 236.65,-635.33 230.65,-641.33 224.65,-641.33"/>
<text xml:space="preserve" text-anchor="start" x="142.89" y="-627.83" font-family="Helvetica,sans-Serif" font-weight="bold" font-size="10.00">Distance Binning</text>
<text xml:space="preserve" text-anchor="start" x="140.64" y="-619.73" font-family="Helvetica,sans-Serif" font-size="8.00">Pairwise atom distances</text>
<text xml:space="preserve" text-anchor="start" x="138.76" y="-611.73" font-family="Helvetica,sans-Serif" font-size="8.00">searchsorted into 16 bins</text>
</g>
<!-- atom_coords&#45;&gt;dist_bins -->
<g id="edge4" class="edge">
<title>atom_coords&#45;&gt;dist_bins</title>
<path fill="none" stroke="#555555" d="M183.39,-677.03C183.39,-669.85 183.39,-661.32 183.39,-653.23"/>
<polygon fill="#555555" stroke="#555555" points="186.89,-653.43 183.39,-643.43 179.89,-653.43 186.89,-653.43"/>
</g>
<!-- outer_sum&#45;&gt;add_pair -->
<g id="edge3" class="edge">
<title>outer_sum&#45;&gt;add_pair</title>
<path fill="none" stroke="#555555" d="M343.96,-532.88C329.06,-522.25 310.23,-508.8 296.07,-498.7"/>
<polygon fill="#555555" stroke="#555555" points="298.12,-495.86 287.94,-492.89 294.05,-501.55 298.12,-495.86"/>
</g>
<!-- dist_proj -->
<g id="node6" class="node">
<title>dist_proj</title>
<path fill="#fff3e0" stroke="#333333" stroke-width="1.2" d="M252.78,-569.33C252.78,-569.33 114,-569.33 114,-569.33 108,-569.33 102,-563.33 102,-557.33 102,-557.33 102,-545.33 102,-545.33 102,-539.33 108,-533.33 114,-533.33 114,-533.33 252.78,-533.33 252.78,-533.33 258.78,-533.33 264.78,-539.33 264.78,-545.33 264.78,-545.33 264.78,-557.33 264.78,-557.33 264.78,-563.33 258.78,-569.33 252.78,-569.33"/>
<text xml:space="preserve" text-anchor="start" x="110.64" y="-552.83" font-family="Helvetica,sans-Serif" font-weight="bold" font-size="10.00">atom_distance_bins_projection</text>
<text xml:space="preserve" text-anchor="start" x="132.39" y="-542.83" font-family="Helvetica,sans-Serif" font-size="10.00">Linear(16, 256, no bias)</text>
</g>
<!-- dist_bins&#45;&gt;dist_proj -->
<g id="edge5" class="edge">
<title>dist_bins&#45;&gt;dist_proj</title>
<path fill="none" stroke="#555555" d="M183.39,-605.03C183.39,-597.85 183.39,-589.32 183.39,-581.23"/>
<polygon fill="#555555" stroke="#555555" points="186.89,-581.43 183.39,-571.43 179.89,-581.43 186.89,-581.43"/>
</g>
<!-- dist_proj&#45;&gt;add_pair -->
<g id="edge6" class="edge">
<title>dist_proj&#45;&gt;add_pair</title>
<path fill="none" stroke="#555555" d="M207.56,-532.88C222.3,-522.25 240.93,-508.8 254.93,-498.7"/>
<polygon fill="#555555" stroke="#555555" points="256.9,-501.59 262.96,-492.9 252.81,-495.91 256.9,-501.59"/>
</g>
<!-- pair_trans -->
<g id="node8" class="node">
<title>pair_trans</title>
<path fill="#e8eaf6" stroke="#333333" stroke-width="1.2" d="M371.15,-432.53C371.15,-432.53 297.62,-432.53 297.62,-432.53 291.62,-432.53 285.62,-426.53 285.62,-420.53 285.62,-420.53 285.62,-408.53 285.62,-408.53 285.62,-402.53 291.62,-396.53 297.62,-396.53 297.62,-396.53 371.15,-396.53 371.15,-396.53 377.15,-396.53 383.15,-402.53 383.15,-408.53 383.15,-408.53 383.15,-420.53 383.15,-420.53 383.15,-426.53 377.15,-432.53 371.15,-432.53"/>
<text xml:space="preserve" text-anchor="start" x="300.64" y="-415.03" font-family="Helvetica,sans-Serif" font-weight="bold" font-size="10.00">transition_pair</text>
<text xml:space="preserve" text-anchor="start" x="294.26" y="-406.93" font-family="Helvetica,sans-Serif" font-size="8.00">SwiGLU 4× at dim 256</text>
</g>
<!-- add_pair&#45;&gt;pair_trans -->
<g id="edge7" class="edge">
<title>add_pair&#45;&gt;pair_trans</title>
<path fill="none" stroke="#555555" d="M284.61,-471.55C291.75,-463.52 301.96,-452.03 311.28,-441.54"/>
<polygon fill="#555555" stroke="#555555" points="313.78,-443.99 317.81,-434.19 308.55,-439.34 313.78,-443.99"/>
</g>
<!-- pair_trans&#45;&gt;attn_pb -->
<g id="edge9" class="edge">
<title>pair_trans&#45;&gt;attn_pb</title>
<path fill="none" stroke="#555555" d="M349.72,-396.23C356.82,-388.21 365.4,-378.51 373.27,-369.63"/>
<polygon fill="#555555" stroke="#555555" points="375.8,-372.06 379.81,-362.25 370.56,-367.42 375.8,-372.06"/>
</g>
<!-- tri_mult -->
<g id="node11" class="node">
<title>tri_mult</title>
<path fill="#e8eaf6" stroke="#333333" stroke-width="1.2" d="M410.28,-216.53C410.28,-216.53 310.5,-216.53 310.5,-216.53 304.5,-216.53 298.5,-210.53 298.5,-204.53 298.5,-204.53 298.5,-192.53 298.5,-192.53 298.5,-186.53 304.5,-180.53 310.5,-180.53 310.5,-180.53 410.28,-180.53 410.28,-180.53 416.28,-180.53 422.28,-186.53 422.28,-192.53 422.28,-192.53 422.28,-204.53 422.28,-204.53 422.28,-210.53 416.28,-216.53 410.28,-216.53"/>
<text xml:space="preserve" text-anchor="start" x="307.89" y="-199.03" font-family="Helvetica,sans-Serif" font-weight="bold" font-size="10.00">triangle_multiplication</text>
<text xml:space="preserve" text-anchor="start" x="307.14" y="-190.93" font-family="Helvetica,sans-Serif" font-size="8.00">sigmoid&#45;gated, both directions</text>
</g>
<!-- pair_trans&#45;&gt;tri_mult -->
<g id="edge12" class="edge">
<title>pair_trans&#45;&gt;tri_mult</title>
<path fill="none" stroke="#555555" d="M320.49,-396.03C313.59,-386.21 305.97,-373.37 302.39,-360.53 298.1,-345.12 299.16,-340.2 302.39,-324.53 309.79,-288.65 329.09,-250.97 343.4,-226.48"/>
<polygon fill="#555555" stroke="#555555" points="346.27,-228.51 348.41,-218.14 340.26,-224.91 346.27,-228.51"/>
</g>
<!-- single_trans -->
<g id="node10" class="node">
<title>single_trans</title>
<path fill="#e8eaf6" stroke="#333333" stroke-width="1.2" d="M433.15,-288.53C433.15,-288.53 359.62,-288.53 359.62,-288.53 353.62,-288.53 347.62,-282.53 347.62,-276.53 347.62,-276.53 347.62,-264.53 347.62,-264.53 347.62,-258.53 353.62,-252.53 359.62,-252.53 359.62,-252.53 433.15,-252.53 433.15,-252.53 439.15,-252.53 445.15,-258.53 445.15,-264.53 445.15,-264.53 445.15,-276.53 445.15,-276.53 445.15,-282.53 439.15,-288.53 433.15,-288.53"/>
<text xml:space="preserve" text-anchor="start" x="357.39" y="-271.03" font-family="Helvetica,sans-Serif" font-weight="bold" font-size="10.00">transition_single</text>
<text xml:space="preserve" text-anchor="start" x="356.26" y="-262.93" font-family="Helvetica,sans-Serif" font-size="8.00">SwiGLU 4× at dim 384</text>
</g>
<!-- attn_pb&#45;&gt;single_trans -->
<g id="edge10" class="edge">
<title>attn_pb&#45;&gt;single_trans</title>
<path fill="none" stroke="#555555" d="M396.39,-324.23C396.39,-317.05 396.39,-308.52 396.39,-300.43"/>
<polygon fill="#555555" stroke="#555555" points="399.89,-300.63 396.39,-290.63 392.89,-300.63 399.89,-300.63"/>
</g>
<!-- single_trans&#45;&gt;tri_mult -->
<!-- plddt -->
<g id="node13" class="node">
<title>plddt</title>
<path fill="#c8e6c9" stroke="#333333" stroke-width="1.2" d="M584.53,-58.64C584.53,-58.64 450.25,-58.64 450.25,-58.64 444.25,-58.64 438.25,-52.64 438.25,-46.64 438.25,-46.64 438.25,-28 438.25,-28 438.25,-22 444.25,-16 450.25,-16 450.25,-16 584.53,-16 584.53,-16 590.53,-16 596.53,-22 596.53,-28 596.53,-28 596.53,-46.64 596.53,-46.64 596.53,-52.64 590.53,-58.64 584.53,-58.64"/>
<text xml:space="preserve" text-anchor="start" x="487.39" y="-45.82" font-family="Helvetica,sans-Serif" font-weight="bold" font-size="10.00">pLDDT Head</text>
<text xml:space="preserve" text-anchor="start" x="485.14" y="-37.72" font-family="Helvetica,sans-Serif" font-size="8.00">Linear(384, 1850)</text>
<text xml:space="preserve" text-anchor="start" x="446.89" y="-29.72" font-family="Helvetica,sans-Serif" font-size="8.00">→ [b, n_tok, 37, 50] → [b, n_atoms, 50]</text>
<text xml:space="preserve" text-anchor="start" x="485.51" y="-21.72" font-family="Helvetica,sans-Serif" font-size="8.00">50 bins over [0, 1]</text>
</g>
<!-- single_trans&#45;&gt;plddt -->
<g id="edge14" class="edge">
<title>single_trans&#45;&gt;plddt</title>
<path fill="none" stroke="#555555" d="M411.11,-252.07C419.16,-242.05 428.97,-229.01 436.39,-216.53 465.59,-167.43 491.37,-105.96 505.63,-69.55"/>
<polygon fill="#555555" stroke="#555555" points="508.79,-71.1 509.13,-60.51 502.26,-68.57 508.79,-71.1"/>
</g>
<!-- tri_attn -->
<g id="node12" class="node">
<title>tri_attn</title>
<path fill="#e8eaf6" stroke="#333333" stroke-width="1.2" d="M423.4,-144.53C423.4,-144.53 297.38,-144.53 297.38,-144.53 291.38,-144.53 285.38,-138.53 285.38,-132.53 285.38,-132.53 285.38,-113.89 285.38,-113.89 285.38,-107.89 291.38,-101.89 297.38,-101.89 297.38,-101.89 423.4,-101.89 423.4,-101.89 429.4,-101.89 435.4,-107.89 435.4,-113.89 435.4,-113.89 435.4,-132.53 435.4,-132.53 435.4,-138.53 429.4,-144.53 423.4,-144.53"/>
<text xml:space="preserve" text-anchor="start" x="319.89" y="-131.71" font-family="Helvetica,sans-Serif" font-weight="bold" font-size="10.00">triangle_attention</text>
<text xml:space="preserve" text-anchor="start" x="294.01" y="-123.61" font-family="Helvetica,sans-Serif" font-size="8.00">Fused: pair2qkvgb Linear(256, 2056)</text>
<text xml:space="preserve" text-anchor="start" x="318.39" y="-115.61" font-family="Helvetica,sans-Serif" font-size="8.00">8 heads × 64 head_dim</text>
<text xml:space="preserve" text-anchor="start" x="296.26" y="-107.61" font-family="Helvetica,sans-Serif" font-size="8.00">(different from trunk&#39;s 32 head_dim)</text>
</g>
<!-- tri_mult&#45;&gt;tri_attn -->
<g id="edge13" class="edge">
<title>tri_mult&#45;&gt;tri_attn</title>
<path fill="none" stroke="#555555" d="M360.39,-180.15C360.39,-173.1 360.39,-164.71 360.39,-156.6"/>
<polygon fill="#555555" stroke="#555555" points="363.89,-156.63 360.39,-146.63 356.89,-156.63 363.89,-156.63"/>
</g>
<!-- pae -->
<g id="node14" class="node">
<title>pae</title>
<path fill="#c8e6c9" stroke="#333333" stroke-width="1.2" d="M270.53,-58.64C270.53,-58.64 196.25,-58.64 196.25,-58.64 190.25,-58.64 184.25,-52.64 184.25,-46.64 184.25,-46.64 184.25,-28 184.25,-28 184.25,-22 190.25,-16 196.25,-16 196.25,-16 270.53,-16 270.53,-16 276.53,-16 282.53,-22 282.53,-28 282.53,-28 282.53,-46.64 282.53,-46.64 282.53,-52.64 276.53,-58.64 270.53,-58.64"/>
<text xml:space="preserve" text-anchor="start" x="210.14" y="-45.82" font-family="Helvetica,sans-Serif" font-weight="bold" font-size="10.00">PAE Head</text>
<text xml:space="preserve" text-anchor="start" x="205.64" y="-37.72" font-family="Helvetica,sans-Serif" font-size="8.00">Linear(256, 64)</text>
<text xml:space="preserve" text-anchor="start" x="192.89" y="-29.72" font-family="Helvetica,sans-Serif" font-size="8.00">→ [b, n_tok, n_tok, 64]</text>
<text xml:space="preserve" text-anchor="start" x="196.64" y="-21.72" font-family="Helvetica,sans-Serif" font-size="8.00">64 bins over [0, 32]Å</text>
</g>
<!-- tri_attn&#45;&gt;pae -->
<g id="edge15" class="edge">
<title>tri_attn&#45;&gt;pae</title>
<path fill="none" stroke="#555555" d="M321.66,-101.31C313.21,-96.45 304.4,-91.15 296.39,-85.89 287.04,-79.74 277.25,-72.68 268.24,-65.91"/>
<polygon fill="#555555" stroke="#555555" points="270.47,-63.21 260.4,-59.93 266.23,-68.78 270.47,-63.21"/>
</g>
<!-- pde -->
<g id="node15" class="node">
<title>pde</title>
<path fill="#c8e6c9" stroke="#333333" stroke-width="1.2" d="M397.53,-58.64C397.53,-58.64 323.25,-58.64 323.25,-58.64 317.25,-58.64 311.25,-52.64 311.25,-46.64 311.25,-46.64 311.25,-28 311.25,-28 311.25,-22 317.25,-16 323.25,-16 323.25,-16 397.53,-16 397.53,-16 403.53,-16 409.53,-22 409.53,-28 409.53,-28 409.53,-46.64 409.53,-46.64 409.53,-52.64 403.53,-58.64 397.53,-58.64"/>
<text xml:space="preserve" text-anchor="start" x="336.39" y="-45.82" font-family="Helvetica,sans-Serif" font-weight="bold" font-size="10.00">PDE Head</text>
<text xml:space="preserve" text-anchor="start" x="332.64" y="-37.72" font-family="Helvetica,sans-Serif" font-size="8.00">Linear(256, 64)</text>
<text xml:space="preserve" text-anchor="start" x="319.89" y="-29.72" font-family="Helvetica,sans-Serif" font-size="8.00">→ [b, n_tok, n_tok, 64]</text>
<text xml:space="preserve" text-anchor="start" x="323.64" y="-21.72" font-family="Helvetica,sans-Serif" font-size="8.00">64 bins over [0, 32]Å</text>
</g>
<!-- tri_attn&#45;&gt;pde -->
<g id="edge16" class="edge">
<title>tri_attn&#45;&gt;pde</title>
<path fill="none" stroke="#555555" d="M360.39,-101.47C360.39,-92.1 360.39,-80.8 360.39,-70.37"/>
<polygon fill="#555555" stroke="#555555" points="363.89,-70.62 360.39,-60.62 356.89,-70.62 363.89,-70.62"/>
</g>
</g>
</svg>
