<?xml version="1.0" encoding="UTF-8" standalone="no"?>
<!DOCTYPE svg PUBLIC "-//W3C//DTD SVG 1.1//EN"
 "http://www.w3.org/Graphics/SVG/1.1/DTD/svg11.dtd">
<!-- Generated by graphviz version 14.1.4 (20260321.0153)
 -->
<!-- Title: BlockedLocalAttention Pages: 1 -->
<svg width="995pt" height="401pt"
 viewBox="0.00 0.00 995.00 401.00" xmlns="http://www.w3.org/2000/svg" xmlns:xlink="http://www.w3.org/1999/xlink">
<g id="graph0" class="graph" transform="scale(1 1) rotate(0) translate(21.6 379.34)">
<title>BlockedLocalAttention</title>
<text xml:space="preserve" text-anchor="start" x="372.12" y="-342.39" font-family="Helvetica,sans-Serif" font-weight="bold" font-size="13.00">Blocked Local Attention Scheme</text>
<text xml:space="preserve" text-anchor="start" x="385.25" y="-333.19" font-family="Helvetica,sans-Serif" font-size="9.00">Atom&#45;level attention with fixed local windows</text>
<g id="clust1" class="cluster">
<title>cluster_geometry</title>
<polygon fill="none" stroke="#999999" stroke-dasharray="5,2" points="8,-89.96 8,-319.42 371,-319.42 371,-89.96 8,-89.96"/>
<text xml:space="preserve" text-anchor="start" x="152" y="-306.92" font-family="Helvetica,sans-Serif" font-weight="bold" font-size="10.00">Block Geometry</text>
</g>
<g id="clust2" class="cluster">
<title>cluster_boundary</title>
<polygon fill="none" stroke="#999999" stroke-dasharray="5,2" points="379,-8 379,-164.53 545,-164.53 545,-8 379,-8"/>
<text xml:space="preserve" text-anchor="start" x="416.25" y="-152.03" font-family="Helvetica,sans-Serif" font-weight="bold" font-size="10.00">Boundary Handling</text>
</g>
<g id="clust3" class="cluster">
<title>cluster_pair_tensor</title>
<polygon fill="none" stroke="#999999" stroke-dasharray="5,2" points="637,-172.53 637,-319.74 865,-319.74 865,-172.53 637,-172.53"/>
<text xml:space="preserve" text-anchor="start" x="706.75" y="-307.24" font-family="Helvetica,sans-Serif" font-weight="bold" font-size="10.00">Pair Tensor Layout</text>
</g>
<g id="clust4" class="cluster">
<title>cluster_usage</title>
<polygon fill="none" stroke="#999999" stroke-dasharray="5,2" points="558,-89.96 558,-161.21 944,-161.21 944,-89.96 558,-89.96"/>
<text xml:space="preserve" text-anchor="start" x="733" y="-148.71" font-family="Helvetica,sans-Serif" font-weight="bold" font-size="10.00">Used In</text>
</g>
<!-- atoms -->
<g id="node1" class="node">
<title>atoms</title>
<path fill="#e8eaf6" stroke="#333333" stroke-width="1.2" d="M232.64,-292.17C232.64,-292.17 149.36,-292.17 149.36,-292.17 143.36,-292.17 137.36,-286.17 137.36,-280.17 137.36,-280.17 137.36,-268.17 137.36,-268.17 137.36,-262.17 143.36,-256.17 149.36,-256.17 149.36,-256.17 232.64,-256.17 232.64,-256.17 238.64,-256.17 244.64,-262.17 244.64,-268.17 244.64,-268.17 244.64,-280.17 244.64,-280.17 244.64,-286.17 238.64,-292.17 232.64,-292.17"/>
<text xml:space="preserve" text-anchor="start" x="153.88" y="-278.67" font-family="Helvetica,sans-Serif" font-weight="bold" font-size="10.00">Atom Sequence</text>
<text xml:space="preserve" text-anchor="start" x="146" y="-270.57" font-family="Helvetica,sans-Serif" font-size="8.00">n_atoms = 23 × n_tokens</text>
<text xml:space="preserve" text-anchor="start" x="149.75" y="-262.57" font-family="Helvetica,sans-Serif" font-size="8.00">enforced divisible by 32</text>
</g>
<!-- query_block -->
<g id="node2" class="node">
<title>query_block</title>
<path fill="#fff3e0" stroke="#333333" stroke-width="1.2" d="M166.01,-216.53C166.01,-216.53 27.99,-216.53 27.99,-216.53 21.99,-216.53 15.98,-210.53 15.98,-204.53 15.98,-204.53 15.98,-192.53 15.98,-192.53 15.98,-186.53 21.98,-180.53 27.98,-180.53 27.98,-180.53 166.01,-180.53 166.01,-180.53 172.01,-180.53 178.01,-186.53 178.01,-192.53 178.01,-192.53 178.01,-204.53 178.01,-204.53 178.01,-210.53 172.01,-216.53 166.01,-216.53"/>
<text xml:space="preserve" text-anchor="start" x="68.12" y="-203.03" font-family="Helvetica,sans-Serif" font-weight="bold" font-size="10.00">Query Block</text>
<text xml:space="preserve" text-anchor="start" x="24.62" y="-194.93" font-family="Helvetica,sans-Serif" font-size="8.00">32 atoms (non&#45;overlapping, consecutive)</text>
<text xml:space="preserve" text-anchor="start" x="48.25" y="-186.93" font-family="Helvetica,sans-Serif" font-size="8.00">num_blocks = n_atoms / 32</text>
</g>
<!-- atoms&#45;&gt;query_block -->
<g id="edge1" class="edge">
<title>atoms&#45;&gt;query_block</title>
<path fill="none" stroke="#555555" d="M168.72,-255.72C156.64,-246.25 141.5,-234.39 128.25,-224.01"/>
<polygon fill="#555555" stroke="#555555" points="130.66,-221.46 120.63,-218.04 126.35,-226.97 130.66,-221.46"/>
</g>
<!-- kv_window -->
<g id="node3" class="node">
<title>kv_window</title>
<path fill="#e8f5e9" stroke="#333333" stroke-width="1.2" d="M351.39,-219.85C351.39,-219.85 218.61,-219.85 218.61,-219.85 212.61,-219.85 206.61,-213.85 206.61,-207.85 206.61,-207.85 206.61,-189.21 206.61,-189.21 206.61,-183.21 212.61,-177.21 218.61,-177.21 218.61,-177.21 351.39,-177.21 351.39,-177.21 357.39,-177.21 363.39,-183.21 363.39,-189.21 363.39,-189.21 363.39,-207.85 363.39,-207.85 363.39,-213.85 357.39,-219.85 351.39,-219.85"/>
<text xml:space="preserve" text-anchor="start" x="257.25" y="-207.03" font-family="Helvetica,sans-Serif" font-weight="bold" font-size="10.00">KV Window</text>
<text xml:space="preserve" text-anchor="start" x="221.25" y="-198.93" font-family="Helvetica,sans-Serif" font-size="8.00">128 atoms, centered on query block</text>
<text xml:space="preserve" text-anchor="start" x="237.38" y="-190.93" font-family="Helvetica,sans-Serif" font-size="8.00">kv_start = query_start − 48</text>
<text xml:space="preserve" text-anchor="start" x="215.25" y="-182.93" font-family="Helvetica,sans-Serif" font-size="8.00">Query sits at positions 48–79 in window</text>
</g>
<!-- atoms&#45;&gt;kv_window -->
<g id="edge2" class="edge">
<title>atoms&#45;&gt;kv_window</title>
<path fill="none" stroke="#555555" d="M213.28,-255.72C224.09,-247.25 237.35,-236.86 249.51,-227.33"/>
<polygon fill="#555555" stroke="#555555" points="251.64,-230.11 257.35,-221.19 247.32,-224.6 251.64,-230.11"/>
</g>
<!-- overlap -->
<g id="node4" class="node">
<title>overlap</title>
<path fill="#fff9c4" stroke="#333333" stroke-width="1.2" d="M256.14,-133.96C256.14,-133.96 115.86,-133.96 115.86,-133.96 109.86,-133.96 103.86,-127.96 103.86,-121.96 103.86,-121.96 103.86,-109.96 103.86,-109.96 103.86,-103.96 109.86,-97.96 115.86,-97.96 115.86,-97.96 256.14,-97.96 256.14,-97.96 262.14,-97.96 268.14,-103.96 268.14,-109.96 268.14,-109.96 268.14,-121.96 268.14,-121.96 268.14,-127.96 262.14,-133.96 256.14,-133.96"/>
<text xml:space="preserve" text-anchor="start" x="168" y="-120.46" font-family="Helvetica,sans-Serif" font-weight="bold" font-size="10.00">Overlap</text>
<text xml:space="preserve" text-anchor="start" x="112.5" y="-112.36" font-family="Helvetica,sans-Serif" font-size="8.00">Consecutive KV windows share 96 atoms</text>
<text xml:space="preserve" text-anchor="start" x="146.62" y="-104.36" font-family="Helvetica,sans-Serif" font-size="8.00">(shift 32, window 128)</text>
</g>
<!-- query_block&#45;&gt;overlap -->
<g id="edge3" class="edge">
<title>query_block&#45;&gt;overlap</title>
<path fill="none" stroke="#555555" d="M116.31,-180.05C128.56,-168.96 144.6,-154.44 158.2,-142.12"/>
<polygon fill="#555555" stroke="#555555" points="160.54,-144.73 165.6,-135.42 155.84,-139.54 160.54,-144.73"/>
</g>
<!-- kv_window&#45;&gt;overlap -->
<g id="edge4" class="edge">
<title>kv_window&#45;&gt;overlap</title>
<path fill="none" stroke="#555555" d="M259.51,-176.78C246.25,-166 229.97,-152.74 216.1,-141.46"/>
<polygon fill="#555555" stroke="#555555" points="218.53,-138.92 208.57,-135.33 214.11,-144.35 218.53,-138.92"/>
</g>
<!-- boundary -->
<g id="node5" class="node">
<title>boundary</title>
<path fill="#fce4ec" stroke="#333333" stroke-width="1.2" d="M525.39,-137.28C525.39,-137.28 398.61,-137.28 398.61,-137.28 392.61,-137.28 386.61,-131.28 386.61,-125.28 386.61,-125.28 386.61,-106.64 386.61,-106.64 386.61,-100.64 392.61,-94.64 398.61,-94.64 398.61,-94.64 525.39,-94.64 525.39,-94.64 531.39,-94.64 537.39,-100.64 537.39,-106.64 537.39,-106.64 537.39,-125.28 537.39,-125.28 537.39,-131.28 531.39,-137.28 525.39,-137.28"/>
<text xml:space="preserve" text-anchor="start" x="429.38" y="-124.46" font-family="Helvetica,sans-Serif" font-weight="bold" font-size="10.00">Modular Wrap</text>
<text xml:space="preserve" text-anchor="start" x="395.25" y="-116.36" font-family="Helvetica,sans-Serif" font-size="8.00">KV indices below 0 or above n_atoms</text>
<text xml:space="preserve" text-anchor="start" x="415.88" y="-108.36" font-family="Helvetica,sans-Serif" font-size="8.00">marked invalid in kv_mask</text>
<text xml:space="preserve" text-anchor="start" x="401.25" y="-100.36" font-family="Helvetica,sans-Serif" font-size="8.00">taken % n_atoms for indexing only</text>
</g>
<!-- kv_window&#45;&gt;boundary -->
<g id="edge5" class="edge">
<title>kv_window&#45;&gt;boundary</title>
<path fill="none" stroke="#555555" d="M348.62,-176.62C358.57,-172.88 368.65,-168.8 378,-164.53 391.47,-158.38 405.66,-150.81 418.45,-143.53"/>
<polygon fill="#555555" stroke="#555555" points="420.16,-146.58 427.07,-138.54 416.66,-140.52 420.16,-146.58"/>
</g>
<!-- mask -->
<g id="node6" class="node">
<title>mask</title>
<path fill="#fce4ec" stroke="#333333" stroke-width="1.2" d="M516.01,-58.64C516.01,-58.64 407.99,-58.64 407.99,-58.64 401.99,-58.64 395.99,-52.64 395.99,-46.64 395.99,-46.64 395.99,-28 395.99,-28 395.99,-22 401.99,-16 407.99,-16 407.99,-16 516.01,-16 516.01,-16 522.01,-16 528.01,-22 528.01,-28 528.01,-28 528.01,-46.64 528.01,-46.64 528.01,-52.64 522.01,-58.64 516.01,-58.64"/>
<text xml:space="preserve" text-anchor="start" x="424.12" y="-45.82" font-family="Helvetica,sans-Serif" font-weight="bold" font-size="10.00">Block Pair Mask</text>
<text xml:space="preserve" text-anchor="start" x="404.62" y="-37.72" font-family="Helvetica,sans-Serif" font-size="8.00">atom_q_mask ⊗ atom_kv_mask</text>
<text xml:space="preserve" text-anchor="start" x="405.75" y="-29.72" font-family="Helvetica,sans-Serif" font-size="8.00">AND with kv_is_wrapped_mask</text>
<text xml:space="preserve" text-anchor="start" x="431.25" y="-21.72" font-family="Helvetica,sans-Serif" font-size="8.00">→ [b, bl, 32, 128]</text>
</g>
<!-- boundary&#45;&gt;mask -->
<g id="edge6" class="edge">
<title>boundary&#45;&gt;mask</title>
<path fill="none" stroke="#555555" d="M462,-94.42C462,-87.09 462,-78.65 462,-70.58"/>
<polygon fill="#555555" stroke="#555555" points="465.5,-70.7 462,-60.7 458.5,-70.7 465.5,-70.7"/>
</g>
<!-- layout -->
<g id="node7" class="node">
<title>layout</title>
<path fill="#e3f2fd" stroke="#333333" stroke-width="1.2" d="M823.39,-292.49C823.39,-292.49 678.61,-292.49 678.61,-292.49 672.61,-292.49 666.61,-286.49 666.61,-280.49 666.61,-280.49 666.61,-267.85 666.61,-267.85 666.61,-261.85 672.61,-255.85 678.61,-255.85 678.61,-255.85 823.39,-255.85 823.39,-255.85 829.39,-255.85 835.39,-261.85 835.39,-267.85 835.39,-267.85 835.39,-280.49 835.39,-280.49 835.39,-286.49 829.39,-292.49 823.39,-292.49"/>
<text xml:space="preserve" text-anchor="start" x="720.25" y="-279.67" font-family="Helvetica,sans-Serif" font-weight="bold" font-size="10.00">Pair Features</text>
<text xml:space="preserve" text-anchor="start" x="675.25" y="-269.67" font-family="Helvetica,sans-Serif" font-size="10.00">[b, num_blocks, 32, 128, feat_dim]</text>
<text xml:space="preserve" text-anchor="start" x="683.12" y="-261.57" font-family="Helvetica,sans-Serif" font-size="8.00">block idx, query slot, key slot, channels</text>
</g>
<!-- bias -->
<g id="node8" class="node">
<title>bias</title>
<path fill="#fff3e0" stroke="#333333" stroke-width="1.2" d="M844.76,-216.53C844.76,-216.53 657.24,-216.53 657.24,-216.53 651.24,-216.53 645.24,-210.53 645.24,-204.53 645.24,-204.53 645.24,-192.53 645.24,-192.53 645.24,-186.53 651.24,-180.53 657.24,-180.53 657.24,-180.53 844.76,-180.53 844.76,-180.53 850.76,-180.53 856.76,-186.53 856.76,-192.53 856.76,-192.53 856.76,-204.53 856.76,-204.53 856.76,-210.53 850.76,-216.53 844.76,-216.53"/>
<text xml:space="preserve" text-anchor="start" x="685" y="-203.03" font-family="Helvetica,sans-Serif" font-weight="bold" font-size="10.00">blocked_pairs2blocked_bias</text>
<text xml:space="preserve" text-anchor="start" x="653.88" y="-194.93" font-family="Helvetica,sans-Serif" font-size="8.00">LN(feat_dim) → Linear(feat_dim, n_blocks × n_heads)</text>
<text xml:space="preserve" text-anchor="start" x="678.25" y="-186.93" font-family="Helvetica,sans-Serif" font-size="8.00">→ per&#45;head attention bias per local block</text>
</g>
<!-- layout&#45;&gt;bias -->
<g id="edge7" class="edge">
<title>layout&#45;&gt;bias</title>
<path fill="none" stroke="#555555" d="M751,-255.34C751,-247.23 751,-237.43 751,-228.32"/>
<polygon fill="#555555" stroke="#555555" points="754.5,-228.45 751,-218.45 747.5,-228.45 754.5,-228.45"/>
</g>
<!-- tok_embed -->
<g id="node9" class="node">
<title>tok_embed</title>
<path fill="#f3e5f5" stroke="#333333" stroke-width="1.2" d="M657.76,-133.96C657.76,-133.96 578.24,-133.96 578.24,-133.96 572.24,-133.96 566.24,-127.96 566.24,-121.96 566.24,-121.96 566.24,-109.96 566.24,-109.96 566.24,-103.96 572.24,-97.96 578.24,-97.96 578.24,-97.96 657.76,-97.96 657.76,-97.96 663.76,-97.96 669.76,-103.96 669.76,-109.96 669.76,-109.96 669.76,-121.96 669.76,-121.96 669.76,-127.96 663.76,-133.96 657.76,-133.96"/>
<text xml:space="preserve" text-anchor="start" x="578.25" y="-120.46" font-family="Helvetica,sans-Serif" font-weight="bold" font-size="10.00">Token Embedder</text>
<text xml:space="preserve" text-anchor="start" x="574.88" y="-112.36" font-family="Helvetica,sans-Serif" font-size="8.00">3 blocks, 4 heads, 32 hd</text>
<text xml:space="preserve" text-anchor="start" x="603.75" y="-104.36" font-family="Helvetica,sans-Serif" font-size="8.00">dim 128</text>
</g>
<!-- bias&#45;&gt;tok_embed -->
<g id="edge8" class="edge">
<title>bias&#45;&gt;tok_embed</title>
<path fill="none" stroke="#555555" d="M713.46,-180.01C704.02,-175.26 694.01,-169.94 685,-164.53 673.17,-157.43 660.72,-148.91 649.81,-141.05"/>
<polygon fill="#555555" stroke="#555555" points="652.03,-138.34 641.89,-135.27 647.9,-143.99 652.03,-138.34"/>
</g>
<!-- diff_encoder -->
<g id="node10" class="node">
<title>diff_encoder</title>
<path fill="#f3e5f5" stroke="#333333" stroke-width="1.2" d="M790.76,-133.96C790.76,-133.96 711.24,-133.96 711.24,-133.96 705.24,-133.96 699.24,-127.96 699.24,-121.96 699.24,-121.96 699.24,-109.96 699.24,-109.96 699.24,-103.96 705.24,-97.96 711.24,-97.96 711.24,-97.96 790.76,-97.96 790.76,-97.96 796.76,-97.96 802.76,-103.96 802.76,-109.96 802.76,-109.96 802.76,-121.96 802.76,-121.96 802.76,-127.96 796.76,-133.96 790.76,-133.96"/>
<text xml:space="preserve" text-anchor="start" x="708.62" y="-120.46" font-family="Helvetica,sans-Serif" font-weight="bold" font-size="10.00">Diffusion Encoder</text>
<text xml:space="preserve" text-anchor="start" x="707.88" y="-112.36" font-family="Helvetica,sans-Serif" font-size="8.00">3 blocks, 4 heads, 32 hd</text>
<text xml:space="preserve" text-anchor="start" x="736.75" y="-104.36" font-family="Helvetica,sans-Serif" font-size="8.00">dim 128</text>
</g>
<!-- bias&#45;&gt;diff_encoder -->
<g id="edge9" class="edge">
<title>bias&#45;&gt;diff_encoder</title>
<path fill="none" stroke="#555555" d="M751,-180.05C751,-170.02 751,-157.18 751,-145.7"/>
<polygon fill="#555555" stroke="#555555" points="754.5,-145.92 751,-135.92 747.5,-145.92 754.5,-145.92"/>
</g>
<!-- diff_decoder -->
<g id="node11" class="node">
<title>diff_decoder</title>
<path fill="#f3e5f5" stroke="#333333" stroke-width="1.2" d="M923.76,-133.96C923.76,-133.96 844.24,-133.96 844.24,-133.96 838.24,-133.96 832.24,-127.96 832.24,-121.96 832.24,-121.96 832.24,-109.96 832.24,-109.96 832.24,-103.96 838.24,-97.96 844.24,-97.96 844.24,-97.96 923.76,-97.96 923.76,-97.96 929.76,-97.96 935.76,-103.96 935.76,-109.96 935.76,-109.96 935.76,-121.96 935.76,-121.96 935.76,-127.96 929.76,-133.96 923.76,-133.96"/>
<text xml:space="preserve" text-anchor="start" x="841.62" y="-120.46" font-family="Helvetica,sans-Serif" font-weight="bold" font-size="10.00">Diffusion Decoder</text>
<text xml:space="preserve" text-anchor="start" x="840.88" y="-112.36" font-family="Helvetica,sans-Serif" font-size="8.00">3 blocks, 4 heads, 32 hd</text>
<text xml:space="preserve" text-anchor="start" x="869.75" y="-104.36" font-family="Helvetica,sans-Serif" font-size="8.00">dim 128</text>
</g>
<!-- bias&#45;&gt;diff_decoder -->
<g id="edge10" class="edge">
<title>bias&#45;&gt;diff_decoder</title>
<path fill="none" stroke="#555555" d="M788.54,-180.01C797.98,-175.26 807.99,-169.94 817,-164.53 828.83,-157.43 841.28,-148.91 852.19,-141.05"/>
<polygon fill="#555555" stroke="#555555" points="854.1,-143.99 860.11,-135.27 849.97,-138.34 854.1,-143.99"/>
</g>
</g>
</svg>
