<?xml version="1.0" encoding="UTF-8" standalone="no"?>
<!DOCTYPE svg PUBLIC "-//W3C//DTD SVG 1.1//EN"
 "http://www.w3.org/Graphics/SVG/1.1/DTD/svg11.dtd">
<!-- Generated by graphviz version 14.1.4 (20260321.0153)
 -->
<!-- Title: DiffusionSampling Pages: 1 -->
<svg width="694pt" height="672pt"
 viewBox="0.00 0.00 694.00 672.00" xmlns="http://www.w3.org/2000/svg" xmlns:xlink="http://www.w3.org/1999/xlink">
<g id="graph0" class="graph" transform="scale(1 1) rotate(0) translate(21.6 650.52)">
<title>DiffusionSampling</title>
<text xml:space="preserve" text-anchor="start" x="202.48" y="-613.57" font-family="Helvetica,sans-Serif" font-weight="bold" font-size="13.00">Diffusion Sampling Loop (EDM / Heun)</text>
<text xml:space="preserve" text-anchor="start" x="233.6" y="-604.37" font-family="Helvetica,sans-Serif" font-size="9.00">200 timesteps, σ_data=16, power&#45;7 schedule</text>
<g id="clust1" class="cluster">
<title>cluster_schedule</title>
<polygon fill="none" stroke="#999999" stroke-dasharray="5,2" points="70,-446.67 70,-590.92 340,-590.92 340,-446.67 70,-446.67"/>
<text xml:space="preserve" text-anchor="start" x="168.25" y="-578.42" font-family="Helvetica,sans-Serif" font-weight="bold" font-size="10.00">Noise Schedule</text>
</g>
<g id="clust2" class="cluster">
<title>cluster_loop</title>
<polygon fill="none" stroke="#999999" stroke-dasharray="5,2" points="8,-8 8,-418.92 328,-418.92 328,-8 8,-8"/>
<text xml:space="preserve" text-anchor="start" x="76.5" y="-406.42" font-family="Helvetica,sans-Serif" font-weight="bold" font-size="10.00">Sampling Loop (199 steps over σ pairs)</text>
</g>
<!-- schedule -->
<g id="node1" class="node">
<title>schedule</title>
<path fill="#e3f2fd" stroke="#333333" stroke-width="1.2" d="M320.14,-563.67C320.14,-563.67 89.86,-563.67 89.86,-563.67 83.86,-563.67 77.86,-557.67 77.86,-551.67 77.86,-551.67 77.86,-539.67 77.86,-539.67 77.86,-533.67 83.86,-527.67 89.86,-527.67 89.86,-527.67 320.14,-527.67 320.14,-527.67 326.14,-527.67 332.14,-533.67 332.14,-539.67 332.14,-539.67 332.14,-551.67 332.14,-551.67 332.14,-557.67 326.14,-563.67 320.14,-563.67"/>
<text xml:space="preserve" text-anchor="start" x="86.5" y="-550.17" font-family="Helvetica,sans-Serif" font-weight="bold" font-size="10.00">σ(t) = σ_data · (t·s_min^(1/p) + (1−t)·s_max^(1/p))^p</text>
<text xml:space="preserve" text-anchor="start" x="132.62" y="-542.07" font-family="Helvetica,sans-Serif" font-size="8.00">p=7, s_min=4e&#45;4, s_max=80, σ_data=16</text>
<text xml:space="preserve" text-anchor="start" x="119.5" y="-534.07" font-family="Helvetica,sans-Serif" font-size="8.00">t ∈ linspace(0,1, 401)[1::2] — 200 interior points</text>
</g>
<!-- churn -->
<g id="node2" class="node">
<title>churn</title>
<path fill="#e3f2fd" stroke="#333333" stroke-width="1.2" d="M299.89,-490.67C299.89,-490.67 110.11,-490.67 110.11,-490.67 104.11,-490.67 98.11,-484.67 98.11,-478.67 98.11,-478.67 98.11,-466.67 98.11,-466.67 98.11,-460.67 104.11,-454.67 110.11,-454.67 110.11,-454.67 299.89,-454.67 299.89,-454.67 305.89,-454.67 311.89,-460.67 311.89,-466.67 311.89,-466.67 311.89,-478.67 311.89,-478.67 311.89,-484.67 305.89,-490.67 299.89,-490.67"/>
<text xml:space="preserve" text-anchor="start" x="164.5" y="-477.17" font-family="Helvetica,sans-Serif" font-weight="bold" font-size="10.00">Stochastic Churn</text>
<text xml:space="preserve" text-anchor="start" x="116.88" y="-469.07" font-family="Helvetica,sans-Serif" font-size="8.00">γ = min(S_churn/N, √2−1) if S_tmin ≤ σ ≤ S_tmax</text>
<text xml:space="preserve" text-anchor="start" x="106.75" y="-461.07" font-family="Helvetica,sans-Serif" font-size="8.00">S_churn=80, S_tmin=4e&#45;4, S_tmax=80, S_noise=1.003</text>
</g>
<!-- schedule&#45;&gt;churn -->
<g id="edge1" class="edge">
<title>schedule&#45;&gt;churn</title>
<path fill="none" stroke="#555555" d="M205,-527.12C205,-519.64 205,-510.72 205,-502.33"/>
<polygon fill="#555555" stroke="#555555" points="208.5,-502.53 205,-492.53 201.5,-502.53 208.5,-502.53"/>
</g>
<!-- se3 -->
<g id="node3" class="node">
<title>se3</title>
<path fill="#e8f5e9" stroke="#333333" stroke-width="1.2" d="M307.76,-391.67C307.76,-391.67 102.24,-391.67 102.24,-391.67 96.24,-391.67 90.24,-385.67 90.24,-379.67 90.24,-379.67 90.24,-367.67 90.24,-367.67 90.24,-361.67 96.24,-355.67 102.24,-355.67 102.24,-355.67 307.76,-355.67 307.76,-355.67 313.76,-355.67 319.76,-361.67 319.76,-367.67 319.76,-367.67 319.76,-379.67 319.76,-379.67 319.76,-385.67 313.76,-391.67 307.76,-391.67"/>
<text xml:space="preserve" text-anchor="start" x="153.25" y="-378.17" font-family="Helvetica,sans-Serif" font-weight="bold" font-size="10.00">1. SE(3) Augmentation</text>
<text xml:space="preserve" text-anchor="start" x="130" y="-370.07" font-family="Helvetica,sans-Serif" font-size="8.00">center_random_augmentation(pos, mask)</text>
<text xml:space="preserve" text-anchor="start" x="98.88" y="-362.07" font-family="Helvetica,sans-Serif" font-size="8.00">Center → random SO(3) rotation → translate (s_trans=1.0)</text>
</g>
<!-- churn&#45;&gt;se3 -->
<g id="edge2" class="edge">
<title>churn&#45;&gt;se3</title>
<path fill="none" stroke="#555555" d="M205,-454.33C205,-440.21 205,-419.98 205,-403.44"/>
<polygon fill="#555555" stroke="#555555" points="208.5,-403.7 205,-393.7 201.5,-403.7 208.5,-403.7"/>
<text xml:space="preserve" text-anchor="middle" x="223" y="-428.12" font-family="Helvetica,sans-Serif" font-size="9.00">σ_curr, γ</text>
</g>
<!-- inflate -->
<g id="node4" class="node">
<title>inflate</title>
<path fill="#fff3e0" stroke="#333333" stroke-width="1.2" d="M271.39,-318.67C271.39,-318.67 138.61,-318.67 138.61,-318.67 132.61,-318.67 126.61,-312.67 126.61,-306.67 126.61,-306.67 126.61,-288.03 126.61,-288.03 126.61,-282.03 132.61,-276.03 138.61,-276.03 138.61,-276.03 271.39,-276.03 271.39,-276.03 277.39,-276.03 283.39,-282.03 283.39,-288.03 283.39,-288.03 283.39,-306.67 283.39,-306.67 283.39,-312.67 277.39,-318.67 271.39,-318.67"/>
<text xml:space="preserve" text-anchor="start" x="139.38" y="-305.85" font-family="Helvetica,sans-Serif" font-weight="bold" font-size="10.00">2. Stochastic Noise Inflation</text>
<text xml:space="preserve" text-anchor="start" x="166" y="-297.75" font-family="Helvetica,sans-Serif" font-size="8.00">σ̂ = σ_curr + γ·σ_curr</text>
<text xml:space="preserve" text-anchor="start" x="145.75" y="-289.75" font-family="Helvetica,sans-Serif" font-size="8.00">noise = S_noise · randn_like(pos)</text>
<text xml:space="preserve" text-anchor="start" x="135.25" y="-281.75" font-family="Helvetica,sans-Serif" font-size="8.00">pos_hat = pos + noise · √(σ̂² − σ_curr²)</text>
</g>
<!-- se3&#45;&gt;inflate -->
<g id="edge3" class="edge">
<title>se3&#45;&gt;inflate</title>
<path fill="none" stroke="#555555" d="M205,-355.43C205,-348.01 205,-339.07 205,-330.49"/>
<polygon fill="#555555" stroke="#555555" points="208.5,-330.72 205,-320.72 201.5,-330.72 208.5,-330.72"/>
</g>
<!-- euler -->
<g id="node5" class="node">
<title>euler</title>
<path fill="#e8eaf6" stroke="#333333" stroke-width="1.2" d="M262.39,-239.03C262.39,-239.03 147.61,-239.03 147.61,-239.03 141.61,-239.03 135.61,-233.03 135.61,-227.03 135.61,-227.03 135.61,-208.39 135.61,-208.39 135.61,-202.39 141.61,-196.39 147.61,-196.39 147.61,-196.39 262.39,-196.39 262.39,-196.39 268.39,-196.39 274.39,-202.39 274.39,-208.39 274.39,-208.39 274.39,-227.03 274.39,-227.03 274.39,-233.03 268.39,-239.03 262.39,-239.03"/>
<text xml:space="preserve" text-anchor="start" x="175" y="-226.21" font-family="Helvetica,sans-Serif" font-weight="bold" font-size="10.00">3. Euler Step</text>
<text xml:space="preserve" text-anchor="start" x="148.38" y="-218.11" font-family="Helvetica,sans-Serif" font-size="8.00">denoised = denoise(pos_hat, σ̂)</text>
<text xml:space="preserve" text-anchor="start" x="151.38" y="-210.11" font-family="Helvetica,sans-Serif" font-size="8.00">d_i = (pos_hat − denoised) / σ̂</text>
<text xml:space="preserve" text-anchor="start" x="144.25" y="-202.11" font-family="Helvetica,sans-Serif" font-size="8.00">pos = pos_hat + (σ_next − σ̂) · d_i</text>
</g>
<!-- inflate&#45;&gt;euler -->
<g id="edge4" class="edge">
<title>inflate&#45;&gt;euler</title>
<path fill="none" stroke="#555555" d="M205,-275.55C205,-267.97 205,-259.23 205,-250.9"/>
<polygon fill="#555555" stroke="#555555" points="208.5,-251.09 205,-241.09 201.5,-251.09 208.5,-251.09"/>
</g>
<!-- denoise1 -->
<g id="node6" class="node">
<title>denoise1</title>
<path fill="#f3e5f5" stroke="#333333" stroke-width="1.2" d="M101.77,-143.32C101.77,-143.32 28.24,-143.32 28.24,-143.32 22.24,-143.32 16.23,-137.32 16.23,-131.32 16.23,-131.32 16.23,-119.32 16.23,-119.32 16.23,-113.32 22.23,-107.32 28.23,-107.32 28.23,-107.32 101.77,-107.32 101.77,-107.32 107.77,-107.32 113.77,-113.32 113.77,-119.32 113.77,-119.32 113.77,-131.32 113.77,-131.32 113.77,-137.32 107.77,-143.32 101.77,-143.32"/>
<text xml:space="preserve" text-anchor="start" x="24.88" y="-125.82" font-family="Helvetica,sans-Serif" font-weight="bold" font-size="10.00">Diffusion Module</text>
<text xml:space="preserve" text-anchor="start" x="34.25" y="-117.72" font-family="Helvetica,sans-Serif" font-size="8.00">Full forward pass</text>
</g>
<!-- euler&#45;&gt;denoise1 -->
<g id="edge5" class="edge">
<title>euler&#45;&gt;denoise1</title>
<path fill="none" stroke="#555555" d="M163.36,-189.83C140.37,-174.98 112.46,-156.96 92.25,-143.92"/>
<polygon fill="#555555" stroke="#555555" points="161.31,-192.67 171.61,-195.15 165.11,-186.79 161.31,-192.67"/>
<text xml:space="preserve" text-anchor="middle" x="152.76" y="-169.84" font-family="Helvetica,sans-Serif" font-size="9.00"> &#160;call</text>
</g>
<!-- heun -->
<g id="node7" class="node">
<title>heun</title>
<path fill="#fce4ec" stroke="#333333" stroke-width="1.2" d="M307.51,-150.64C307.51,-150.64 154.49,-150.64 154.49,-150.64 148.49,-150.64 142.49,-144.64 142.49,-138.64 142.49,-138.64 142.49,-112 142.49,-112 142.49,-106 148.49,-100 154.49,-100 154.49,-100 307.51,-100 307.51,-100 313.51,-100 319.51,-106 319.51,-112 319.51,-112 319.51,-138.64 319.51,-138.64 319.51,-144.64 313.51,-150.64 307.51,-150.64"/>
<text xml:space="preserve" text-anchor="start" x="186.75" y="-137.82" font-family="Helvetica,sans-Serif" font-weight="bold" font-size="10.00">4. Heun Correction</text>
<text xml:space="preserve" text-anchor="start" x="175.5" y="-129.72" font-family="Helvetica,sans-Serif" font-size="8.00">if σ_next ≠ 0 (skip at final step):</text>
<text xml:space="preserve" text-anchor="start" x="171.75" y="-121.72" font-family="Helvetica,sans-Serif" font-size="8.00">denoised&#39; = denoise(pos, σ_next)</text>
<text xml:space="preserve" text-anchor="start" x="174" y="-113.72" font-family="Helvetica,sans-Serif" font-size="8.00">d_i&#39; = (pos − denoised&#39;) / σ_next</text>
<text xml:space="preserve" text-anchor="start" x="151.12" y="-105.72" font-family="Helvetica,sans-Serif" font-size="8.00">pos = pos_hat + (σ_next − σ̂) · (d_i + d_i&#39;) / 2</text>
</g>
<!-- euler&#45;&gt;heun -->
<g id="edge6" class="edge">
<title>euler&#45;&gt;heun</title>
<path fill="none" stroke="#555555" d="M210.9,-196.2C213.83,-186.02 217.45,-173.42 220.81,-161.74"/>
<polygon fill="#555555" stroke="#555555" points="224.1,-162.96 223.5,-152.38 217.38,-161.03 224.1,-162.96"/>
</g>
<!-- denoise2 -->
<g id="node8" class="node">
<title>denoise2</title>
<path fill="#f3e5f5" stroke="#333333" stroke-width="1.2" d="M267.76,-52C267.76,-52 194.24,-52 194.24,-52 188.24,-52 182.24,-46 182.24,-40 182.24,-40 182.24,-28 182.24,-28 182.24,-22 188.24,-16 194.24,-16 194.24,-16 267.76,-16 267.76,-16 273.76,-16 279.76,-22 279.76,-28 279.76,-28 279.76,-40 279.76,-40 279.76,-46 273.76,-52 267.76,-52"/>
<text xml:space="preserve" text-anchor="start" x="190.88" y="-34.5" font-family="Helvetica,sans-Serif" font-weight="bold" font-size="10.00">Diffusion Module</text>
<text xml:space="preserve" text-anchor="start" x="193.12" y="-26.4" font-family="Helvetica,sans-Serif" font-size="8.00">Second forward pass</text>
</g>
<!-- heun&#45;&gt;denoise2 -->
<g id="edge7" class="edge">
<title>heun&#45;&gt;denoise2</title>
<path fill="none" stroke="#555555" d="M231,-88.04C231,-75.73 231,-62.54 231,-52.4"/>
<polygon fill="#555555" stroke="#555555" points="227.5,-87.93 231,-97.93 234.5,-87.93 227.5,-87.93"/>
<text xml:space="preserve" text-anchor="middle" x="240.38" y="-73.45" font-family="Helvetica,sans-Serif" font-size="9.00"> &#160;call</text>
</g>
<!-- output -->
<g id="node9" class="node">
<title>output</title>
<ellipse fill="#c8e6c9" stroke="#333333" stroke-width="1.2" cx="438" cy="-34" rx="101.84" ry="20.25"/>
<text xml:space="preserve" text-anchor="start" x="374.62" y="-35.5" font-family="Helvetica,sans-Serif" font-weight="bold" font-size="10.00">Final denoised coordinates</text>
<text xml:space="preserve" text-anchor="start" x="405" y="-25.5" font-family="Helvetica,sans-Serif" font-size="10.00">[b, n_atoms, 3]</text>
</g>
<!-- heun&#45;&gt;output -->
<g id="edge10" class="edge">
<title>heun&#45;&gt;output</title>
<path fill="none" stroke="#555555" d="M288.66,-99.44C319.13,-86.29 356.25,-70.28 385.85,-57.5"/>
<polygon fill="#555555" stroke="#555555" points="387.21,-60.73 395,-53.55 384.44,-54.3 387.21,-60.73"/>
<text xml:space="preserve" text-anchor="middle" x="365.27" y="-73.45" font-family="Helvetica,sans-Serif" font-size="9.00">final step</text>
</g>
<!-- next_step -->
<g id="node10" class="node">
<title>next_step</title>
<ellipse fill="#fff9c4" stroke="#333333" stroke-width="1.2" cx="610" cy="-34" rx="40.96" ry="18"/>
<text xml:space="preserve" text-anchor="start" x="584.5" y="-31.12" font-family="Helvetica,sans-Serif" font-weight="bold" font-size="10.00">Next σ pair</text>
</g>
<!-- heun&#45;&gt;next_step -->
<g id="edge8" class="edge">
<title>heun&#45;&gt;next_step</title>
<path fill="none" stroke="#555555" d="M320.11,-107.92C385.37,-95.2 475.8,-76.09 554,-54.25 558.62,-52.96 563.42,-51.5 568.18,-49.97"/>
<polygon fill="#555555" stroke="#555555" points="569.28,-53.3 577.67,-46.82 567.07,-46.65 569.28,-53.3"/>
<text xml:space="preserve" text-anchor="middle" x="509.8" y="-73.45" font-family="Helvetica,sans-Serif" font-size="9.00">if more steps</text>
</g>
<!-- next_step&#45;&gt;se3 -->
<g id="edge9" class="edge">
<title>next_step&#45;&gt;se3</title>
<path fill="none" stroke="#555555" stroke-dasharray="5,2" d="M607.51,-52.42C605.16,-70.39 602,-99.25 602,-124.32 602,-298.35 602,-298.35 602,-298.35 602,-326.33 447.69,-348.31 331.48,-360.9"/>
<polygon fill="#555555" stroke="#555555" points="331.44,-357.38 321.87,-361.92 332.18,-364.34 331.44,-357.38"/>
<text xml:space="preserve" text-anchor="middle" x="611" y="-214.04" font-family="Helvetica,sans-Serif" font-size="9.00">loop</text>
</g>
</g>
</svg>
